%TF.GenerationSoftware,KiCad,Pcbnew,9.0.7*%
%TF.CreationDate,2026-02-05T00:09:01+03:00*%
%TF.ProjectId,8080clock,38303830-636c-46f6-936b-2e6b69636164,rev?*%
%TF.SameCoordinates,Original*%
%TF.FileFunction,Legend,Bot*%
%TF.FilePolarity,Positive*%
%FSLAX46Y46*%
G04 Gerber Fmt 4.6, Leading zero omitted, Abs format (unit mm)*
G04 Created by KiCad (PCBNEW 9.0.7) date 2026-02-05 00:09:01*
%MOMM*%
%LPD*%
G01*
G04 APERTURE LIST*
%ADD10C,0.200000*%
%ADD11C,0.300000*%
%ADD12C,0.150000*%
%ADD13C,0.120000*%
G04 APERTURE END LIST*
D10*
X109377412Y-140413755D02*
X109377412Y-141128040D01*
X109377412Y-141128040D02*
X109425031Y-141270897D01*
X109425031Y-141270897D02*
X109520269Y-141366136D01*
X109520269Y-141366136D02*
X109663126Y-141413755D01*
X109663126Y-141413755D02*
X109758364Y-141413755D01*
X108901221Y-141413755D02*
X108901221Y-140413755D01*
X108901221Y-140413755D02*
X108520269Y-140413755D01*
X108520269Y-140413755D02*
X108425031Y-140461374D01*
X108425031Y-140461374D02*
X108377412Y-140508993D01*
X108377412Y-140508993D02*
X108329793Y-140604231D01*
X108329793Y-140604231D02*
X108329793Y-140747088D01*
X108329793Y-140747088D02*
X108377412Y-140842326D01*
X108377412Y-140842326D02*
X108425031Y-140889945D01*
X108425031Y-140889945D02*
X108520269Y-140937564D01*
X108520269Y-140937564D02*
X108901221Y-140937564D01*
X107377412Y-141413755D02*
X107948840Y-141413755D01*
X107663126Y-141413755D02*
X107663126Y-140413755D01*
X107663126Y-140413755D02*
X107758364Y-140556612D01*
X107758364Y-140556612D02*
X107853602Y-140651850D01*
X107853602Y-140651850D02*
X107948840Y-140699469D01*
X106948840Y-141318516D02*
X106901221Y-141366136D01*
X106901221Y-141366136D02*
X106948840Y-141413755D01*
X106948840Y-141413755D02*
X106996459Y-141366136D01*
X106996459Y-141366136D02*
X106948840Y-141318516D01*
X106948840Y-141318516D02*
X106948840Y-141413755D01*
X106948840Y-140794707D02*
X106901221Y-140842326D01*
X106901221Y-140842326D02*
X106948840Y-140889945D01*
X106948840Y-140889945D02*
X106996459Y-140842326D01*
X106996459Y-140842326D02*
X106948840Y-140794707D01*
X106948840Y-140794707D02*
X106948840Y-140889945D01*
X109139317Y-143023699D02*
X109710745Y-143023699D01*
X109425031Y-143023699D02*
X109425031Y-142023699D01*
X109425031Y-142023699D02*
X109520269Y-142166556D01*
X109520269Y-142166556D02*
X109615507Y-142261794D01*
X109615507Y-142261794D02*
X109710745Y-142309413D01*
X108710745Y-142642746D02*
X107948841Y-142642746D01*
X107520269Y-142118937D02*
X107472650Y-142071318D01*
X107472650Y-142071318D02*
X107377412Y-142023699D01*
X107377412Y-142023699D02*
X107139317Y-142023699D01*
X107139317Y-142023699D02*
X107044079Y-142071318D01*
X107044079Y-142071318D02*
X106996460Y-142118937D01*
X106996460Y-142118937D02*
X106948841Y-142214175D01*
X106948841Y-142214175D02*
X106948841Y-142309413D01*
X106948841Y-142309413D02*
X106996460Y-142452270D01*
X106996460Y-142452270D02*
X107567888Y-143023699D01*
X107567888Y-143023699D02*
X106948841Y-143023699D01*
X105234555Y-142071318D02*
X105329793Y-142023699D01*
X105329793Y-142023699D02*
X105472650Y-142023699D01*
X105472650Y-142023699D02*
X105615507Y-142071318D01*
X105615507Y-142071318D02*
X105710745Y-142166556D01*
X105710745Y-142166556D02*
X105758364Y-142261794D01*
X105758364Y-142261794D02*
X105805983Y-142452270D01*
X105805983Y-142452270D02*
X105805983Y-142595127D01*
X105805983Y-142595127D02*
X105758364Y-142785603D01*
X105758364Y-142785603D02*
X105710745Y-142880841D01*
X105710745Y-142880841D02*
X105615507Y-142976080D01*
X105615507Y-142976080D02*
X105472650Y-143023699D01*
X105472650Y-143023699D02*
X105377412Y-143023699D01*
X105377412Y-143023699D02*
X105234555Y-142976080D01*
X105234555Y-142976080D02*
X105186936Y-142928460D01*
X105186936Y-142928460D02*
X105186936Y-142595127D01*
X105186936Y-142595127D02*
X105377412Y-142595127D01*
X104758364Y-143023699D02*
X104758364Y-142023699D01*
X104758364Y-142023699D02*
X104186936Y-143023699D01*
X104186936Y-143023699D02*
X104186936Y-142023699D01*
X103710745Y-143023699D02*
X103710745Y-142023699D01*
X103710745Y-142023699D02*
X103472650Y-142023699D01*
X103472650Y-142023699D02*
X103329793Y-142071318D01*
X103329793Y-142071318D02*
X103234555Y-142166556D01*
X103234555Y-142166556D02*
X103186936Y-142261794D01*
X103186936Y-142261794D02*
X103139317Y-142452270D01*
X103139317Y-142452270D02*
X103139317Y-142595127D01*
X103139317Y-142595127D02*
X103186936Y-142785603D01*
X103186936Y-142785603D02*
X103234555Y-142880841D01*
X103234555Y-142880841D02*
X103329793Y-142976080D01*
X103329793Y-142976080D02*
X103472650Y-143023699D01*
X103472650Y-143023699D02*
X103710745Y-143023699D01*
X109710745Y-143728881D02*
X109663126Y-143681262D01*
X109663126Y-143681262D02*
X109567888Y-143633643D01*
X109567888Y-143633643D02*
X109329793Y-143633643D01*
X109329793Y-143633643D02*
X109234555Y-143681262D01*
X109234555Y-143681262D02*
X109186936Y-143728881D01*
X109186936Y-143728881D02*
X109139317Y-143824119D01*
X109139317Y-143824119D02*
X109139317Y-143919357D01*
X109139317Y-143919357D02*
X109186936Y-144062214D01*
X109186936Y-144062214D02*
X109758364Y-144633643D01*
X109758364Y-144633643D02*
X109139317Y-144633643D01*
X108710745Y-144252690D02*
X107948841Y-144252690D01*
X107567888Y-143633643D02*
X106948841Y-143633643D01*
X106948841Y-143633643D02*
X107282174Y-144014595D01*
X107282174Y-144014595D02*
X107139317Y-144014595D01*
X107139317Y-144014595D02*
X107044079Y-144062214D01*
X107044079Y-144062214D02*
X106996460Y-144109833D01*
X106996460Y-144109833D02*
X106948841Y-144205071D01*
X106948841Y-144205071D02*
X106948841Y-144443166D01*
X106948841Y-144443166D02*
X106996460Y-144538404D01*
X106996460Y-144538404D02*
X107044079Y-144586024D01*
X107044079Y-144586024D02*
X107139317Y-144633643D01*
X107139317Y-144633643D02*
X107425031Y-144633643D01*
X107425031Y-144633643D02*
X107520269Y-144586024D01*
X107520269Y-144586024D02*
X107567888Y-144538404D01*
X105805983Y-144347928D02*
X105329793Y-144347928D01*
X105901221Y-144633643D02*
X105567888Y-143633643D01*
X105567888Y-143633643D02*
X105234555Y-144633643D01*
X104377412Y-144633643D02*
X104948840Y-144633643D01*
X104663126Y-144633643D02*
X104663126Y-143633643D01*
X104663126Y-143633643D02*
X104758364Y-143776500D01*
X104758364Y-143776500D02*
X104853602Y-143871738D01*
X104853602Y-143871738D02*
X104948840Y-143919357D01*
X103996459Y-143728881D02*
X103948840Y-143681262D01*
X103948840Y-143681262D02*
X103853602Y-143633643D01*
X103853602Y-143633643D02*
X103615507Y-143633643D01*
X103615507Y-143633643D02*
X103520269Y-143681262D01*
X103520269Y-143681262D02*
X103472650Y-143728881D01*
X103472650Y-143728881D02*
X103425031Y-143824119D01*
X103425031Y-143824119D02*
X103425031Y-143919357D01*
X103425031Y-143919357D02*
X103472650Y-144062214D01*
X103472650Y-144062214D02*
X104044078Y-144633643D01*
X104044078Y-144633643D02*
X103425031Y-144633643D01*
X109377412Y-146853531D02*
X109377412Y-147567816D01*
X109377412Y-147567816D02*
X109425031Y-147710673D01*
X109425031Y-147710673D02*
X109520269Y-147805912D01*
X109520269Y-147805912D02*
X109663126Y-147853531D01*
X109663126Y-147853531D02*
X109758364Y-147853531D01*
X108901221Y-147853531D02*
X108901221Y-146853531D01*
X108901221Y-146853531D02*
X108520269Y-146853531D01*
X108520269Y-146853531D02*
X108425031Y-146901150D01*
X108425031Y-146901150D02*
X108377412Y-146948769D01*
X108377412Y-146948769D02*
X108329793Y-147044007D01*
X108329793Y-147044007D02*
X108329793Y-147186864D01*
X108329793Y-147186864D02*
X108377412Y-147282102D01*
X108377412Y-147282102D02*
X108425031Y-147329721D01*
X108425031Y-147329721D02*
X108520269Y-147377340D01*
X108520269Y-147377340D02*
X108901221Y-147377340D01*
X107948840Y-146948769D02*
X107901221Y-146901150D01*
X107901221Y-146901150D02*
X107805983Y-146853531D01*
X107805983Y-146853531D02*
X107567888Y-146853531D01*
X107567888Y-146853531D02*
X107472650Y-146901150D01*
X107472650Y-146901150D02*
X107425031Y-146948769D01*
X107425031Y-146948769D02*
X107377412Y-147044007D01*
X107377412Y-147044007D02*
X107377412Y-147139245D01*
X107377412Y-147139245D02*
X107425031Y-147282102D01*
X107425031Y-147282102D02*
X107996459Y-147853531D01*
X107996459Y-147853531D02*
X107377412Y-147853531D01*
X106948840Y-147758292D02*
X106901221Y-147805912D01*
X106901221Y-147805912D02*
X106948840Y-147853531D01*
X106948840Y-147853531D02*
X106996459Y-147805912D01*
X106996459Y-147805912D02*
X106948840Y-147758292D01*
X106948840Y-147758292D02*
X106948840Y-147853531D01*
X106948840Y-147234483D02*
X106901221Y-147282102D01*
X106901221Y-147282102D02*
X106948840Y-147329721D01*
X106948840Y-147329721D02*
X106996459Y-147282102D01*
X106996459Y-147282102D02*
X106948840Y-147234483D01*
X106948840Y-147234483D02*
X106948840Y-147329721D01*
X109139317Y-149463475D02*
X109710745Y-149463475D01*
X109425031Y-149463475D02*
X109425031Y-148463475D01*
X109425031Y-148463475D02*
X109520269Y-148606332D01*
X109520269Y-148606332D02*
X109615507Y-148701570D01*
X109615507Y-148701570D02*
X109710745Y-148749189D01*
X108710745Y-149082522D02*
X107948841Y-149082522D01*
X107520269Y-148558713D02*
X107472650Y-148511094D01*
X107472650Y-148511094D02*
X107377412Y-148463475D01*
X107377412Y-148463475D02*
X107139317Y-148463475D01*
X107139317Y-148463475D02*
X107044079Y-148511094D01*
X107044079Y-148511094D02*
X106996460Y-148558713D01*
X106996460Y-148558713D02*
X106948841Y-148653951D01*
X106948841Y-148653951D02*
X106948841Y-148749189D01*
X106948841Y-148749189D02*
X106996460Y-148892046D01*
X106996460Y-148892046D02*
X107567888Y-149463475D01*
X107567888Y-149463475D02*
X106948841Y-149463475D01*
X105758364Y-149082522D02*
X104996460Y-149082522D01*
X105377412Y-149463475D02*
X105377412Y-148701570D01*
X104044079Y-148463475D02*
X104520269Y-148463475D01*
X104520269Y-148463475D02*
X104567888Y-148939665D01*
X104567888Y-148939665D02*
X104520269Y-148892046D01*
X104520269Y-148892046D02*
X104425031Y-148844427D01*
X104425031Y-148844427D02*
X104186936Y-148844427D01*
X104186936Y-148844427D02*
X104091698Y-148892046D01*
X104091698Y-148892046D02*
X104044079Y-148939665D01*
X104044079Y-148939665D02*
X103996460Y-149034903D01*
X103996460Y-149034903D02*
X103996460Y-149272998D01*
X103996460Y-149272998D02*
X104044079Y-149368236D01*
X104044079Y-149368236D02*
X104091698Y-149415856D01*
X104091698Y-149415856D02*
X104186936Y-149463475D01*
X104186936Y-149463475D02*
X104425031Y-149463475D01*
X104425031Y-149463475D02*
X104520269Y-149415856D01*
X104520269Y-149415856D02*
X104567888Y-149368236D01*
X103710745Y-148463475D02*
X103377412Y-149463475D01*
X103377412Y-149463475D02*
X103044079Y-148463475D01*
X109710745Y-150168657D02*
X109663126Y-150121038D01*
X109663126Y-150121038D02*
X109567888Y-150073419D01*
X109567888Y-150073419D02*
X109329793Y-150073419D01*
X109329793Y-150073419D02*
X109234555Y-150121038D01*
X109234555Y-150121038D02*
X109186936Y-150168657D01*
X109186936Y-150168657D02*
X109139317Y-150263895D01*
X109139317Y-150263895D02*
X109139317Y-150359133D01*
X109139317Y-150359133D02*
X109186936Y-150501990D01*
X109186936Y-150501990D02*
X109758364Y-151073419D01*
X109758364Y-151073419D02*
X109139317Y-151073419D01*
X108710745Y-150692466D02*
X107948841Y-150692466D01*
X107567888Y-150073419D02*
X106948841Y-150073419D01*
X106948841Y-150073419D02*
X107282174Y-150454371D01*
X107282174Y-150454371D02*
X107139317Y-150454371D01*
X107139317Y-150454371D02*
X107044079Y-150501990D01*
X107044079Y-150501990D02*
X106996460Y-150549609D01*
X106996460Y-150549609D02*
X106948841Y-150644847D01*
X106948841Y-150644847D02*
X106948841Y-150882942D01*
X106948841Y-150882942D02*
X106996460Y-150978180D01*
X106996460Y-150978180D02*
X107044079Y-151025800D01*
X107044079Y-151025800D02*
X107139317Y-151073419D01*
X107139317Y-151073419D02*
X107425031Y-151073419D01*
X107425031Y-151073419D02*
X107520269Y-151025800D01*
X107520269Y-151025800D02*
X107567888Y-150978180D01*
X105805983Y-150787704D02*
X105329793Y-150787704D01*
X105901221Y-151073419D02*
X105567888Y-150073419D01*
X105567888Y-150073419D02*
X105234555Y-151073419D01*
X104377412Y-151073419D02*
X104948840Y-151073419D01*
X104663126Y-151073419D02*
X104663126Y-150073419D01*
X104663126Y-150073419D02*
X104758364Y-150216276D01*
X104758364Y-150216276D02*
X104853602Y-150311514D01*
X104853602Y-150311514D02*
X104948840Y-150359133D01*
X103996459Y-150168657D02*
X103948840Y-150121038D01*
X103948840Y-150121038D02*
X103853602Y-150073419D01*
X103853602Y-150073419D02*
X103615507Y-150073419D01*
X103615507Y-150073419D02*
X103520269Y-150121038D01*
X103520269Y-150121038D02*
X103472650Y-150168657D01*
X103472650Y-150168657D02*
X103425031Y-150263895D01*
X103425031Y-150263895D02*
X103425031Y-150359133D01*
X103425031Y-150359133D02*
X103472650Y-150501990D01*
X103472650Y-150501990D02*
X104044078Y-151073419D01*
X104044078Y-151073419D02*
X103425031Y-151073419D01*
D11*
X215707546Y-166358171D02*
X215778974Y-166429600D01*
X215778974Y-166429600D02*
X215993260Y-166501028D01*
X215993260Y-166501028D02*
X216136117Y-166501028D01*
X216136117Y-166501028D02*
X216350403Y-166429600D01*
X216350403Y-166429600D02*
X216493260Y-166286742D01*
X216493260Y-166286742D02*
X216564689Y-166143885D01*
X216564689Y-166143885D02*
X216636117Y-165858171D01*
X216636117Y-165858171D02*
X216636117Y-165643885D01*
X216636117Y-165643885D02*
X216564689Y-165358171D01*
X216564689Y-165358171D02*
X216493260Y-165215314D01*
X216493260Y-165215314D02*
X216350403Y-165072457D01*
X216350403Y-165072457D02*
X216136117Y-165001028D01*
X216136117Y-165001028D02*
X215993260Y-165001028D01*
X215993260Y-165001028D02*
X215778974Y-165072457D01*
X215778974Y-165072457D02*
X215707546Y-165143885D01*
X214778974Y-165786742D02*
X214778974Y-166501028D01*
X215278974Y-165001028D02*
X214778974Y-165786742D01*
X214778974Y-165786742D02*
X214278974Y-165001028D01*
X213136118Y-165001028D02*
X213421832Y-165001028D01*
X213421832Y-165001028D02*
X213564689Y-165072457D01*
X213564689Y-165072457D02*
X213636118Y-165143885D01*
X213636118Y-165143885D02*
X213778975Y-165358171D01*
X213778975Y-165358171D02*
X213850403Y-165643885D01*
X213850403Y-165643885D02*
X213850403Y-166215314D01*
X213850403Y-166215314D02*
X213778975Y-166358171D01*
X213778975Y-166358171D02*
X213707546Y-166429600D01*
X213707546Y-166429600D02*
X213564689Y-166501028D01*
X213564689Y-166501028D02*
X213278975Y-166501028D01*
X213278975Y-166501028D02*
X213136118Y-166429600D01*
X213136118Y-166429600D02*
X213064689Y-166358171D01*
X213064689Y-166358171D02*
X212993260Y-166215314D01*
X212993260Y-166215314D02*
X212993260Y-165858171D01*
X212993260Y-165858171D02*
X213064689Y-165715314D01*
X213064689Y-165715314D02*
X213136118Y-165643885D01*
X213136118Y-165643885D02*
X213278975Y-165572457D01*
X213278975Y-165572457D02*
X213564689Y-165572457D01*
X213564689Y-165572457D02*
X213707546Y-165643885D01*
X213707546Y-165643885D02*
X213778975Y-165715314D01*
X213778975Y-165715314D02*
X213850403Y-165858171D01*
X212421832Y-165143885D02*
X212350404Y-165072457D01*
X212350404Y-165072457D02*
X212207547Y-165001028D01*
X212207547Y-165001028D02*
X211850404Y-165001028D01*
X211850404Y-165001028D02*
X211707547Y-165072457D01*
X211707547Y-165072457D02*
X211636118Y-165143885D01*
X211636118Y-165143885D02*
X211564689Y-165286742D01*
X211564689Y-165286742D02*
X211564689Y-165429600D01*
X211564689Y-165429600D02*
X211636118Y-165643885D01*
X211636118Y-165643885D02*
X212493261Y-166501028D01*
X212493261Y-166501028D02*
X211564689Y-166501028D01*
X210993261Y-165143885D02*
X210921833Y-165072457D01*
X210921833Y-165072457D02*
X210778976Y-165001028D01*
X210778976Y-165001028D02*
X210421833Y-165001028D01*
X210421833Y-165001028D02*
X210278976Y-165072457D01*
X210278976Y-165072457D02*
X210207547Y-165143885D01*
X210207547Y-165143885D02*
X210136118Y-165286742D01*
X210136118Y-165286742D02*
X210136118Y-165429600D01*
X210136118Y-165429600D02*
X210207547Y-165643885D01*
X210207547Y-165643885D02*
X211064690Y-166501028D01*
X211064690Y-166501028D02*
X210136118Y-166501028D01*
X208778976Y-165001028D02*
X209493262Y-165001028D01*
X209493262Y-165001028D02*
X209564690Y-165715314D01*
X209564690Y-165715314D02*
X209493262Y-165643885D01*
X209493262Y-165643885D02*
X209350405Y-165572457D01*
X209350405Y-165572457D02*
X208993262Y-165572457D01*
X208993262Y-165572457D02*
X208850405Y-165643885D01*
X208850405Y-165643885D02*
X208778976Y-165715314D01*
X208778976Y-165715314D02*
X208707547Y-165858171D01*
X208707547Y-165858171D02*
X208707547Y-166215314D01*
X208707547Y-166215314D02*
X208778976Y-166358171D01*
X208778976Y-166358171D02*
X208850405Y-166429600D01*
X208850405Y-166429600D02*
X208993262Y-166501028D01*
X208993262Y-166501028D02*
X209350405Y-166501028D01*
X209350405Y-166501028D02*
X209493262Y-166429600D01*
X209493262Y-166429600D02*
X209564690Y-166358171D01*
X207421834Y-165001028D02*
X207707548Y-165001028D01*
X207707548Y-165001028D02*
X207850405Y-165072457D01*
X207850405Y-165072457D02*
X207921834Y-165143885D01*
X207921834Y-165143885D02*
X208064691Y-165358171D01*
X208064691Y-165358171D02*
X208136119Y-165643885D01*
X208136119Y-165643885D02*
X208136119Y-166215314D01*
X208136119Y-166215314D02*
X208064691Y-166358171D01*
X208064691Y-166358171D02*
X207993262Y-166429600D01*
X207993262Y-166429600D02*
X207850405Y-166501028D01*
X207850405Y-166501028D02*
X207564691Y-166501028D01*
X207564691Y-166501028D02*
X207421834Y-166429600D01*
X207421834Y-166429600D02*
X207350405Y-166358171D01*
X207350405Y-166358171D02*
X207278976Y-166215314D01*
X207278976Y-166215314D02*
X207278976Y-165858171D01*
X207278976Y-165858171D02*
X207350405Y-165715314D01*
X207350405Y-165715314D02*
X207421834Y-165643885D01*
X207421834Y-165643885D02*
X207564691Y-165572457D01*
X207564691Y-165572457D02*
X207850405Y-165572457D01*
X207850405Y-165572457D02*
X207993262Y-165643885D01*
X207993262Y-165643885D02*
X208064691Y-165715314D01*
X208064691Y-165715314D02*
X208136119Y-165858171D01*
X205921834Y-166501028D02*
X206636120Y-166501028D01*
X206636120Y-166501028D02*
X206636120Y-165001028D01*
X205421834Y-165929600D02*
X204278977Y-165929600D01*
X203707548Y-165001028D02*
X202707548Y-165001028D01*
X202707548Y-165001028D02*
X203350405Y-166501028D01*
X201850405Y-165001028D02*
X201707548Y-165001028D01*
X201707548Y-165001028D02*
X201564691Y-165072457D01*
X201564691Y-165072457D02*
X201493263Y-165143885D01*
X201493263Y-165143885D02*
X201421834Y-165286742D01*
X201421834Y-165286742D02*
X201350405Y-165572457D01*
X201350405Y-165572457D02*
X201350405Y-165929600D01*
X201350405Y-165929600D02*
X201421834Y-166215314D01*
X201421834Y-166215314D02*
X201493263Y-166358171D01*
X201493263Y-166358171D02*
X201564691Y-166429600D01*
X201564691Y-166429600D02*
X201707548Y-166501028D01*
X201707548Y-166501028D02*
X201850405Y-166501028D01*
X201850405Y-166501028D02*
X201993263Y-166429600D01*
X201993263Y-166429600D02*
X202064691Y-166358171D01*
X202064691Y-166358171D02*
X202136120Y-166215314D01*
X202136120Y-166215314D02*
X202207548Y-165929600D01*
X202207548Y-165929600D02*
X202207548Y-165572457D01*
X202207548Y-165572457D02*
X202136120Y-165286742D01*
X202136120Y-165286742D02*
X202064691Y-165143885D01*
X202064691Y-165143885D02*
X201993263Y-165072457D01*
X201993263Y-165072457D02*
X201850405Y-165001028D01*
X200707549Y-166501028D02*
X200707549Y-165001028D01*
X200707549Y-165001028D02*
X200136120Y-165001028D01*
X200136120Y-165001028D02*
X199993263Y-165072457D01*
X199993263Y-165072457D02*
X199921834Y-165143885D01*
X199921834Y-165143885D02*
X199850406Y-165286742D01*
X199850406Y-165286742D02*
X199850406Y-165501028D01*
X199850406Y-165501028D02*
X199921834Y-165643885D01*
X199921834Y-165643885D02*
X199993263Y-165715314D01*
X199993263Y-165715314D02*
X200136120Y-165786742D01*
X200136120Y-165786742D02*
X200707549Y-165786742D01*
X198350406Y-166358171D02*
X198421834Y-166429600D01*
X198421834Y-166429600D02*
X198636120Y-166501028D01*
X198636120Y-166501028D02*
X198778977Y-166501028D01*
X198778977Y-166501028D02*
X198993263Y-166429600D01*
X198993263Y-166429600D02*
X199136120Y-166286742D01*
X199136120Y-166286742D02*
X199207549Y-166143885D01*
X199207549Y-166143885D02*
X199278977Y-165858171D01*
X199278977Y-165858171D02*
X199278977Y-165643885D01*
X199278977Y-165643885D02*
X199207549Y-165358171D01*
X199207549Y-165358171D02*
X199136120Y-165215314D01*
X199136120Y-165215314D02*
X198993263Y-165072457D01*
X198993263Y-165072457D02*
X198778977Y-165001028D01*
X198778977Y-165001028D02*
X198636120Y-165001028D01*
X198636120Y-165001028D02*
X198421834Y-165072457D01*
X198421834Y-165072457D02*
X198350406Y-165143885D01*
D10*
X100109545Y-140508993D02*
X100061926Y-140461374D01*
X100061926Y-140461374D02*
X99966688Y-140413755D01*
X99966688Y-140413755D02*
X99728593Y-140413755D01*
X99728593Y-140413755D02*
X99633355Y-140461374D01*
X99633355Y-140461374D02*
X99585736Y-140508993D01*
X99585736Y-140508993D02*
X99538117Y-140604231D01*
X99538117Y-140604231D02*
X99538117Y-140699469D01*
X99538117Y-140699469D02*
X99585736Y-140842326D01*
X99585736Y-140842326D02*
X100157164Y-141413755D01*
X100157164Y-141413755D02*
X99538117Y-141413755D01*
X99204783Y-140413755D02*
X98538117Y-140413755D01*
X98538117Y-140413755D02*
X98966688Y-141413755D01*
X97585736Y-141318516D02*
X97633355Y-141366136D01*
X97633355Y-141366136D02*
X97776212Y-141413755D01*
X97776212Y-141413755D02*
X97871450Y-141413755D01*
X97871450Y-141413755D02*
X98014307Y-141366136D01*
X98014307Y-141366136D02*
X98109545Y-141270897D01*
X98109545Y-141270897D02*
X98157164Y-141175659D01*
X98157164Y-141175659D02*
X98204783Y-140985183D01*
X98204783Y-140985183D02*
X98204783Y-140842326D01*
X98204783Y-140842326D02*
X98157164Y-140651850D01*
X98157164Y-140651850D02*
X98109545Y-140556612D01*
X98109545Y-140556612D02*
X98014307Y-140461374D01*
X98014307Y-140461374D02*
X97871450Y-140413755D01*
X97871450Y-140413755D02*
X97776212Y-140413755D01*
X97776212Y-140413755D02*
X97633355Y-140461374D01*
X97633355Y-140461374D02*
X97585736Y-140508993D01*
X97204783Y-140508993D02*
X97157164Y-140461374D01*
X97157164Y-140461374D02*
X97061926Y-140413755D01*
X97061926Y-140413755D02*
X96823831Y-140413755D01*
X96823831Y-140413755D02*
X96728593Y-140461374D01*
X96728593Y-140461374D02*
X96680974Y-140508993D01*
X96680974Y-140508993D02*
X96633355Y-140604231D01*
X96633355Y-140604231D02*
X96633355Y-140699469D01*
X96633355Y-140699469D02*
X96680974Y-140842326D01*
X96680974Y-140842326D02*
X97252402Y-141413755D01*
X97252402Y-141413755D02*
X96633355Y-141413755D01*
X95728593Y-140413755D02*
X96204783Y-140413755D01*
X96204783Y-140413755D02*
X96252402Y-140889945D01*
X96252402Y-140889945D02*
X96204783Y-140842326D01*
X96204783Y-140842326D02*
X96109545Y-140794707D01*
X96109545Y-140794707D02*
X95871450Y-140794707D01*
X95871450Y-140794707D02*
X95776212Y-140842326D01*
X95776212Y-140842326D02*
X95728593Y-140889945D01*
X95728593Y-140889945D02*
X95680974Y-140985183D01*
X95680974Y-140985183D02*
X95680974Y-141223278D01*
X95680974Y-141223278D02*
X95728593Y-141318516D01*
X95728593Y-141318516D02*
X95776212Y-141366136D01*
X95776212Y-141366136D02*
X95871450Y-141413755D01*
X95871450Y-141413755D02*
X96109545Y-141413755D01*
X96109545Y-141413755D02*
X96204783Y-141366136D01*
X96204783Y-141366136D02*
X96252402Y-141318516D01*
X94823831Y-140413755D02*
X95014307Y-140413755D01*
X95014307Y-140413755D02*
X95109545Y-140461374D01*
X95109545Y-140461374D02*
X95157164Y-140508993D01*
X95157164Y-140508993D02*
X95252402Y-140651850D01*
X95252402Y-140651850D02*
X95300021Y-140842326D01*
X95300021Y-140842326D02*
X95300021Y-141223278D01*
X95300021Y-141223278D02*
X95252402Y-141318516D01*
X95252402Y-141318516D02*
X95204783Y-141366136D01*
X95204783Y-141366136D02*
X95109545Y-141413755D01*
X95109545Y-141413755D02*
X94919069Y-141413755D01*
X94919069Y-141413755D02*
X94823831Y-141366136D01*
X94823831Y-141366136D02*
X94776212Y-141318516D01*
X94776212Y-141318516D02*
X94728593Y-141223278D01*
X94728593Y-141223278D02*
X94728593Y-140985183D01*
X94728593Y-140985183D02*
X94776212Y-140889945D01*
X94776212Y-140889945D02*
X94823831Y-140842326D01*
X94823831Y-140842326D02*
X94919069Y-140794707D01*
X94919069Y-140794707D02*
X95109545Y-140794707D01*
X95109545Y-140794707D02*
X95204783Y-140842326D01*
X95204783Y-140842326D02*
X95252402Y-140889945D01*
X95252402Y-140889945D02*
X95300021Y-140985183D01*
X94300021Y-141318516D02*
X94252402Y-141366136D01*
X94252402Y-141366136D02*
X94300021Y-141413755D01*
X94300021Y-141413755D02*
X94347640Y-141366136D01*
X94347640Y-141366136D02*
X94300021Y-141318516D01*
X94300021Y-141318516D02*
X94300021Y-141413755D01*
X94300021Y-140794707D02*
X94252402Y-140842326D01*
X94252402Y-140842326D02*
X94300021Y-140889945D01*
X94300021Y-140889945D02*
X94347640Y-140842326D01*
X94347640Y-140842326D02*
X94300021Y-140794707D01*
X94300021Y-140794707D02*
X94300021Y-140889945D01*
X99776212Y-142023699D02*
X99776212Y-142737984D01*
X99776212Y-142737984D02*
X99823831Y-142880841D01*
X99823831Y-142880841D02*
X99919069Y-142976080D01*
X99919069Y-142976080D02*
X100061926Y-143023699D01*
X100061926Y-143023699D02*
X100157164Y-143023699D01*
X99300021Y-143023699D02*
X99300021Y-142023699D01*
X99300021Y-142023699D02*
X98919069Y-142023699D01*
X98919069Y-142023699D02*
X98823831Y-142071318D01*
X98823831Y-142071318D02*
X98776212Y-142118937D01*
X98776212Y-142118937D02*
X98728593Y-142214175D01*
X98728593Y-142214175D02*
X98728593Y-142357032D01*
X98728593Y-142357032D02*
X98776212Y-142452270D01*
X98776212Y-142452270D02*
X98823831Y-142499889D01*
X98823831Y-142499889D02*
X98919069Y-142547508D01*
X98919069Y-142547508D02*
X99300021Y-142547508D01*
X97776212Y-143023699D02*
X98347640Y-143023699D01*
X98061926Y-143023699D02*
X98061926Y-142023699D01*
X98061926Y-142023699D02*
X98157164Y-142166556D01*
X98157164Y-142166556D02*
X98252402Y-142261794D01*
X98252402Y-142261794D02*
X98347640Y-142309413D01*
X96061926Y-143023699D02*
X96633354Y-143023699D01*
X96347640Y-143023699D02*
X96347640Y-142023699D01*
X96347640Y-142023699D02*
X96442878Y-142166556D01*
X96442878Y-142166556D02*
X96538116Y-142261794D01*
X96538116Y-142261794D02*
X96633354Y-142309413D01*
X95633354Y-142642746D02*
X94871450Y-142642746D01*
X94442878Y-142118937D02*
X94395259Y-142071318D01*
X94395259Y-142071318D02*
X94300021Y-142023699D01*
X94300021Y-142023699D02*
X94061926Y-142023699D01*
X94061926Y-142023699D02*
X93966688Y-142071318D01*
X93966688Y-142071318D02*
X93919069Y-142118937D01*
X93919069Y-142118937D02*
X93871450Y-142214175D01*
X93871450Y-142214175D02*
X93871450Y-142309413D01*
X93871450Y-142309413D02*
X93919069Y-142452270D01*
X93919069Y-142452270D02*
X94490497Y-143023699D01*
X94490497Y-143023699D02*
X93871450Y-143023699D01*
X99776212Y-143633643D02*
X99776212Y-144347928D01*
X99776212Y-144347928D02*
X99823831Y-144490785D01*
X99823831Y-144490785D02*
X99919069Y-144586024D01*
X99919069Y-144586024D02*
X100061926Y-144633643D01*
X100061926Y-144633643D02*
X100157164Y-144633643D01*
X99300021Y-144633643D02*
X99300021Y-143633643D01*
X99300021Y-143633643D02*
X98919069Y-143633643D01*
X98919069Y-143633643D02*
X98823831Y-143681262D01*
X98823831Y-143681262D02*
X98776212Y-143728881D01*
X98776212Y-143728881D02*
X98728593Y-143824119D01*
X98728593Y-143824119D02*
X98728593Y-143966976D01*
X98728593Y-143966976D02*
X98776212Y-144062214D01*
X98776212Y-144062214D02*
X98823831Y-144109833D01*
X98823831Y-144109833D02*
X98919069Y-144157452D01*
X98919069Y-144157452D02*
X99300021Y-144157452D01*
X98347640Y-143728881D02*
X98300021Y-143681262D01*
X98300021Y-143681262D02*
X98204783Y-143633643D01*
X98204783Y-143633643D02*
X97966688Y-143633643D01*
X97966688Y-143633643D02*
X97871450Y-143681262D01*
X97871450Y-143681262D02*
X97823831Y-143728881D01*
X97823831Y-143728881D02*
X97776212Y-143824119D01*
X97776212Y-143824119D02*
X97776212Y-143919357D01*
X97776212Y-143919357D02*
X97823831Y-144062214D01*
X97823831Y-144062214D02*
X98395259Y-144633643D01*
X98395259Y-144633643D02*
X97776212Y-144633643D01*
X96061926Y-144633643D02*
X96633354Y-144633643D01*
X96347640Y-144633643D02*
X96347640Y-143633643D01*
X96347640Y-143633643D02*
X96442878Y-143776500D01*
X96442878Y-143776500D02*
X96538116Y-143871738D01*
X96538116Y-143871738D02*
X96633354Y-143919357D01*
X95633354Y-144252690D02*
X94871450Y-144252690D01*
X94442878Y-143728881D02*
X94395259Y-143681262D01*
X94395259Y-143681262D02*
X94300021Y-143633643D01*
X94300021Y-143633643D02*
X94061926Y-143633643D01*
X94061926Y-143633643D02*
X93966688Y-143681262D01*
X93966688Y-143681262D02*
X93919069Y-143728881D01*
X93919069Y-143728881D02*
X93871450Y-143824119D01*
X93871450Y-143824119D02*
X93871450Y-143919357D01*
X93871450Y-143919357D02*
X93919069Y-144062214D01*
X93919069Y-144062214D02*
X94490497Y-144633643D01*
X94490497Y-144633643D02*
X93871450Y-144633643D01*
X100109545Y-146948769D02*
X100061926Y-146901150D01*
X100061926Y-146901150D02*
X99966688Y-146853531D01*
X99966688Y-146853531D02*
X99728593Y-146853531D01*
X99728593Y-146853531D02*
X99633355Y-146901150D01*
X99633355Y-146901150D02*
X99585736Y-146948769D01*
X99585736Y-146948769D02*
X99538117Y-147044007D01*
X99538117Y-147044007D02*
X99538117Y-147139245D01*
X99538117Y-147139245D02*
X99585736Y-147282102D01*
X99585736Y-147282102D02*
X100157164Y-147853531D01*
X100157164Y-147853531D02*
X99538117Y-147853531D01*
X99204783Y-146853531D02*
X98538117Y-146853531D01*
X98538117Y-146853531D02*
X98966688Y-147853531D01*
X97585736Y-147758292D02*
X97633355Y-147805912D01*
X97633355Y-147805912D02*
X97776212Y-147853531D01*
X97776212Y-147853531D02*
X97871450Y-147853531D01*
X97871450Y-147853531D02*
X98014307Y-147805912D01*
X98014307Y-147805912D02*
X98109545Y-147710673D01*
X98109545Y-147710673D02*
X98157164Y-147615435D01*
X98157164Y-147615435D02*
X98204783Y-147424959D01*
X98204783Y-147424959D02*
X98204783Y-147282102D01*
X98204783Y-147282102D02*
X98157164Y-147091626D01*
X98157164Y-147091626D02*
X98109545Y-146996388D01*
X98109545Y-146996388D02*
X98014307Y-146901150D01*
X98014307Y-146901150D02*
X97871450Y-146853531D01*
X97871450Y-146853531D02*
X97776212Y-146853531D01*
X97776212Y-146853531D02*
X97633355Y-146901150D01*
X97633355Y-146901150D02*
X97585736Y-146948769D01*
X96680974Y-146853531D02*
X97157164Y-146853531D01*
X97157164Y-146853531D02*
X97204783Y-147329721D01*
X97204783Y-147329721D02*
X97157164Y-147282102D01*
X97157164Y-147282102D02*
X97061926Y-147234483D01*
X97061926Y-147234483D02*
X96823831Y-147234483D01*
X96823831Y-147234483D02*
X96728593Y-147282102D01*
X96728593Y-147282102D02*
X96680974Y-147329721D01*
X96680974Y-147329721D02*
X96633355Y-147424959D01*
X96633355Y-147424959D02*
X96633355Y-147663054D01*
X96633355Y-147663054D02*
X96680974Y-147758292D01*
X96680974Y-147758292D02*
X96728593Y-147805912D01*
X96728593Y-147805912D02*
X96823831Y-147853531D01*
X96823831Y-147853531D02*
X97061926Y-147853531D01*
X97061926Y-147853531D02*
X97157164Y-147805912D01*
X97157164Y-147805912D02*
X97204783Y-147758292D01*
X95680974Y-147853531D02*
X96252402Y-147853531D01*
X95966688Y-147853531D02*
X95966688Y-146853531D01*
X95966688Y-146853531D02*
X96061926Y-146996388D01*
X96061926Y-146996388D02*
X96157164Y-147091626D01*
X96157164Y-147091626D02*
X96252402Y-147139245D01*
X95300021Y-146948769D02*
X95252402Y-146901150D01*
X95252402Y-146901150D02*
X95157164Y-146853531D01*
X95157164Y-146853531D02*
X94919069Y-146853531D01*
X94919069Y-146853531D02*
X94823831Y-146901150D01*
X94823831Y-146901150D02*
X94776212Y-146948769D01*
X94776212Y-146948769D02*
X94728593Y-147044007D01*
X94728593Y-147044007D02*
X94728593Y-147139245D01*
X94728593Y-147139245D02*
X94776212Y-147282102D01*
X94776212Y-147282102D02*
X95347640Y-147853531D01*
X95347640Y-147853531D02*
X94728593Y-147853531D01*
X94300021Y-147758292D02*
X94252402Y-147805912D01*
X94252402Y-147805912D02*
X94300021Y-147853531D01*
X94300021Y-147853531D02*
X94347640Y-147805912D01*
X94347640Y-147805912D02*
X94300021Y-147758292D01*
X94300021Y-147758292D02*
X94300021Y-147853531D01*
X94300021Y-147234483D02*
X94252402Y-147282102D01*
X94252402Y-147282102D02*
X94300021Y-147329721D01*
X94300021Y-147329721D02*
X94347640Y-147282102D01*
X94347640Y-147282102D02*
X94300021Y-147234483D01*
X94300021Y-147234483D02*
X94300021Y-147329721D01*
X99776212Y-148463475D02*
X99776212Y-149177760D01*
X99776212Y-149177760D02*
X99823831Y-149320617D01*
X99823831Y-149320617D02*
X99919069Y-149415856D01*
X99919069Y-149415856D02*
X100061926Y-149463475D01*
X100061926Y-149463475D02*
X100157164Y-149463475D01*
X99300021Y-149463475D02*
X99300021Y-148463475D01*
X99300021Y-148463475D02*
X98919069Y-148463475D01*
X98919069Y-148463475D02*
X98823831Y-148511094D01*
X98823831Y-148511094D02*
X98776212Y-148558713D01*
X98776212Y-148558713D02*
X98728593Y-148653951D01*
X98728593Y-148653951D02*
X98728593Y-148796808D01*
X98728593Y-148796808D02*
X98776212Y-148892046D01*
X98776212Y-148892046D02*
X98823831Y-148939665D01*
X98823831Y-148939665D02*
X98919069Y-148987284D01*
X98919069Y-148987284D02*
X99300021Y-148987284D01*
X97776212Y-149463475D02*
X98347640Y-149463475D01*
X98061926Y-149463475D02*
X98061926Y-148463475D01*
X98061926Y-148463475D02*
X98157164Y-148606332D01*
X98157164Y-148606332D02*
X98252402Y-148701570D01*
X98252402Y-148701570D02*
X98347640Y-148749189D01*
X96633354Y-148558713D02*
X96585735Y-148511094D01*
X96585735Y-148511094D02*
X96490497Y-148463475D01*
X96490497Y-148463475D02*
X96252402Y-148463475D01*
X96252402Y-148463475D02*
X96157164Y-148511094D01*
X96157164Y-148511094D02*
X96109545Y-148558713D01*
X96109545Y-148558713D02*
X96061926Y-148653951D01*
X96061926Y-148653951D02*
X96061926Y-148749189D01*
X96061926Y-148749189D02*
X96109545Y-148892046D01*
X96109545Y-148892046D02*
X96680973Y-149463475D01*
X96680973Y-149463475D02*
X96061926Y-149463475D01*
X95633354Y-149082522D02*
X94871450Y-149082522D01*
X94490497Y-148463475D02*
X93871450Y-148463475D01*
X93871450Y-148463475D02*
X94204783Y-148844427D01*
X94204783Y-148844427D02*
X94061926Y-148844427D01*
X94061926Y-148844427D02*
X93966688Y-148892046D01*
X93966688Y-148892046D02*
X93919069Y-148939665D01*
X93919069Y-148939665D02*
X93871450Y-149034903D01*
X93871450Y-149034903D02*
X93871450Y-149272998D01*
X93871450Y-149272998D02*
X93919069Y-149368236D01*
X93919069Y-149368236D02*
X93966688Y-149415856D01*
X93966688Y-149415856D02*
X94061926Y-149463475D01*
X94061926Y-149463475D02*
X94347640Y-149463475D01*
X94347640Y-149463475D02*
X94442878Y-149415856D01*
X94442878Y-149415856D02*
X94490497Y-149368236D01*
X99776212Y-150073419D02*
X99776212Y-150787704D01*
X99776212Y-150787704D02*
X99823831Y-150930561D01*
X99823831Y-150930561D02*
X99919069Y-151025800D01*
X99919069Y-151025800D02*
X100061926Y-151073419D01*
X100061926Y-151073419D02*
X100157164Y-151073419D01*
X99300021Y-151073419D02*
X99300021Y-150073419D01*
X99300021Y-150073419D02*
X98919069Y-150073419D01*
X98919069Y-150073419D02*
X98823831Y-150121038D01*
X98823831Y-150121038D02*
X98776212Y-150168657D01*
X98776212Y-150168657D02*
X98728593Y-150263895D01*
X98728593Y-150263895D02*
X98728593Y-150406752D01*
X98728593Y-150406752D02*
X98776212Y-150501990D01*
X98776212Y-150501990D02*
X98823831Y-150549609D01*
X98823831Y-150549609D02*
X98919069Y-150597228D01*
X98919069Y-150597228D02*
X99300021Y-150597228D01*
X98347640Y-150168657D02*
X98300021Y-150121038D01*
X98300021Y-150121038D02*
X98204783Y-150073419D01*
X98204783Y-150073419D02*
X97966688Y-150073419D01*
X97966688Y-150073419D02*
X97871450Y-150121038D01*
X97871450Y-150121038D02*
X97823831Y-150168657D01*
X97823831Y-150168657D02*
X97776212Y-150263895D01*
X97776212Y-150263895D02*
X97776212Y-150359133D01*
X97776212Y-150359133D02*
X97823831Y-150501990D01*
X97823831Y-150501990D02*
X98395259Y-151073419D01*
X98395259Y-151073419D02*
X97776212Y-151073419D01*
X96633354Y-150168657D02*
X96585735Y-150121038D01*
X96585735Y-150121038D02*
X96490497Y-150073419D01*
X96490497Y-150073419D02*
X96252402Y-150073419D01*
X96252402Y-150073419D02*
X96157164Y-150121038D01*
X96157164Y-150121038D02*
X96109545Y-150168657D01*
X96109545Y-150168657D02*
X96061926Y-150263895D01*
X96061926Y-150263895D02*
X96061926Y-150359133D01*
X96061926Y-150359133D02*
X96109545Y-150501990D01*
X96109545Y-150501990D02*
X96680973Y-151073419D01*
X96680973Y-151073419D02*
X96061926Y-151073419D01*
X95633354Y-150692466D02*
X94871450Y-150692466D01*
X94490497Y-150073419D02*
X93871450Y-150073419D01*
X93871450Y-150073419D02*
X94204783Y-150454371D01*
X94204783Y-150454371D02*
X94061926Y-150454371D01*
X94061926Y-150454371D02*
X93966688Y-150501990D01*
X93966688Y-150501990D02*
X93919069Y-150549609D01*
X93919069Y-150549609D02*
X93871450Y-150644847D01*
X93871450Y-150644847D02*
X93871450Y-150882942D01*
X93871450Y-150882942D02*
X93919069Y-150978180D01*
X93919069Y-150978180D02*
X93966688Y-151025800D01*
X93966688Y-151025800D02*
X94061926Y-151073419D01*
X94061926Y-151073419D02*
X94347640Y-151073419D01*
X94347640Y-151073419D02*
X94442878Y-151025800D01*
X94442878Y-151025800D02*
X94490497Y-150978180D01*
D12*
X210569980Y-136593342D02*
X210617600Y-136545723D01*
X210617600Y-136545723D02*
X210665219Y-136402866D01*
X210665219Y-136402866D02*
X210665219Y-136307628D01*
X210665219Y-136307628D02*
X210617600Y-136164771D01*
X210617600Y-136164771D02*
X210522361Y-136069533D01*
X210522361Y-136069533D02*
X210427123Y-136021914D01*
X210427123Y-136021914D02*
X210236647Y-135974295D01*
X210236647Y-135974295D02*
X210093790Y-135974295D01*
X210093790Y-135974295D02*
X209903314Y-136021914D01*
X209903314Y-136021914D02*
X209808076Y-136069533D01*
X209808076Y-136069533D02*
X209712838Y-136164771D01*
X209712838Y-136164771D02*
X209665219Y-136307628D01*
X209665219Y-136307628D02*
X209665219Y-136402866D01*
X209665219Y-136402866D02*
X209712838Y-136545723D01*
X209712838Y-136545723D02*
X209760457Y-136593342D01*
X209760457Y-136974295D02*
X209712838Y-137021914D01*
X209712838Y-137021914D02*
X209665219Y-137117152D01*
X209665219Y-137117152D02*
X209665219Y-137355247D01*
X209665219Y-137355247D02*
X209712838Y-137450485D01*
X209712838Y-137450485D02*
X209760457Y-137498104D01*
X209760457Y-137498104D02*
X209855695Y-137545723D01*
X209855695Y-137545723D02*
X209950933Y-137545723D01*
X209950933Y-137545723D02*
X210093790Y-137498104D01*
X210093790Y-137498104D02*
X210665219Y-136926676D01*
X210665219Y-136926676D02*
X210665219Y-137545723D01*
X209665219Y-137879057D02*
X209665219Y-138545723D01*
X209665219Y-138545723D02*
X210665219Y-138117152D01*
X207271257Y-135694943D02*
X207223638Y-135742562D01*
X207223638Y-135742562D02*
X207176019Y-135837800D01*
X207176019Y-135837800D02*
X207176019Y-136075895D01*
X207176019Y-136075895D02*
X207223638Y-136171133D01*
X207223638Y-136171133D02*
X207271257Y-136218752D01*
X207271257Y-136218752D02*
X207366495Y-136266371D01*
X207366495Y-136266371D02*
X207461733Y-136266371D01*
X207461733Y-136266371D02*
X207604590Y-136218752D01*
X207604590Y-136218752D02*
X208176019Y-135647324D01*
X208176019Y-135647324D02*
X208176019Y-136266371D01*
X207271257Y-136647324D02*
X207223638Y-136694943D01*
X207223638Y-136694943D02*
X207176019Y-136790181D01*
X207176019Y-136790181D02*
X207176019Y-137028276D01*
X207176019Y-137028276D02*
X207223638Y-137123514D01*
X207223638Y-137123514D02*
X207271257Y-137171133D01*
X207271257Y-137171133D02*
X207366495Y-137218752D01*
X207366495Y-137218752D02*
X207461733Y-137218752D01*
X207461733Y-137218752D02*
X207604590Y-137171133D01*
X207604590Y-137171133D02*
X208176019Y-136599705D01*
X208176019Y-136599705D02*
X208176019Y-137218752D01*
X207509352Y-137647324D02*
X208509352Y-137647324D01*
X207556971Y-137647324D02*
X207509352Y-137742562D01*
X207509352Y-137742562D02*
X207509352Y-137933038D01*
X207509352Y-137933038D02*
X207556971Y-138028276D01*
X207556971Y-138028276D02*
X207604590Y-138075895D01*
X207604590Y-138075895D02*
X207699828Y-138123514D01*
X207699828Y-138123514D02*
X207985542Y-138123514D01*
X207985542Y-138123514D02*
X208080780Y-138075895D01*
X208080780Y-138075895D02*
X208128400Y-138028276D01*
X208128400Y-138028276D02*
X208176019Y-137933038D01*
X208176019Y-137933038D02*
X208176019Y-137742562D01*
X208176019Y-137742562D02*
X208128400Y-137647324D01*
X207652209Y-138885419D02*
X207652209Y-138552086D01*
X208176019Y-138552086D02*
X207176019Y-138552086D01*
X207176019Y-138552086D02*
X207176019Y-139028276D01*
X186266057Y-135862219D02*
X186599390Y-135386028D01*
X186837485Y-135862219D02*
X186837485Y-134862219D01*
X186837485Y-134862219D02*
X186456533Y-134862219D01*
X186456533Y-134862219D02*
X186361295Y-134909838D01*
X186361295Y-134909838D02*
X186313676Y-134957457D01*
X186313676Y-134957457D02*
X186266057Y-135052695D01*
X186266057Y-135052695D02*
X186266057Y-135195552D01*
X186266057Y-135195552D02*
X186313676Y-135290790D01*
X186313676Y-135290790D02*
X186361295Y-135338409D01*
X186361295Y-135338409D02*
X186456533Y-135386028D01*
X186456533Y-135386028D02*
X186837485Y-135386028D01*
X185313676Y-135862219D02*
X185885104Y-135862219D01*
X185599390Y-135862219D02*
X185599390Y-134862219D01*
X185599390Y-134862219D02*
X185694628Y-135005076D01*
X185694628Y-135005076D02*
X185789866Y-135100314D01*
X185789866Y-135100314D02*
X185885104Y-135147933D01*
X184837485Y-135862219D02*
X184647009Y-135862219D01*
X184647009Y-135862219D02*
X184551771Y-135814600D01*
X184551771Y-135814600D02*
X184504152Y-135766980D01*
X184504152Y-135766980D02*
X184408914Y-135624123D01*
X184408914Y-135624123D02*
X184361295Y-135433647D01*
X184361295Y-135433647D02*
X184361295Y-135052695D01*
X184361295Y-135052695D02*
X184408914Y-134957457D01*
X184408914Y-134957457D02*
X184456533Y-134909838D01*
X184456533Y-134909838D02*
X184551771Y-134862219D01*
X184551771Y-134862219D02*
X184742247Y-134862219D01*
X184742247Y-134862219D02*
X184837485Y-134909838D01*
X184837485Y-134909838D02*
X184885104Y-134957457D01*
X184885104Y-134957457D02*
X184932723Y-135052695D01*
X184932723Y-135052695D02*
X184932723Y-135290790D01*
X184932723Y-135290790D02*
X184885104Y-135386028D01*
X184885104Y-135386028D02*
X184837485Y-135433647D01*
X184837485Y-135433647D02*
X184742247Y-135481266D01*
X184742247Y-135481266D02*
X184551771Y-135481266D01*
X184551771Y-135481266D02*
X184456533Y-135433647D01*
X184456533Y-135433647D02*
X184408914Y-135386028D01*
X184408914Y-135386028D02*
X184361295Y-135290790D01*
X193334381Y-136155780D02*
X193429619Y-136155780D01*
X193429619Y-136155780D02*
X193524857Y-136108161D01*
X193524857Y-136108161D02*
X193572476Y-136060542D01*
X193572476Y-136060542D02*
X193620095Y-135965304D01*
X193620095Y-135965304D02*
X193667714Y-135774828D01*
X193667714Y-135774828D02*
X193667714Y-135536733D01*
X193667714Y-135536733D02*
X193620095Y-135346257D01*
X193620095Y-135346257D02*
X193572476Y-135251019D01*
X193572476Y-135251019D02*
X193524857Y-135203400D01*
X193524857Y-135203400D02*
X193429619Y-135155780D01*
X193429619Y-135155780D02*
X193334381Y-135155780D01*
X193334381Y-135155780D02*
X193239143Y-135203400D01*
X193239143Y-135203400D02*
X193191524Y-135251019D01*
X193191524Y-135251019D02*
X193143905Y-135346257D01*
X193143905Y-135346257D02*
X193096286Y-135536733D01*
X193096286Y-135536733D02*
X193096286Y-135774828D01*
X193096286Y-135774828D02*
X193143905Y-135965304D01*
X193143905Y-135965304D02*
X193191524Y-136060542D01*
X193191524Y-136060542D02*
X193239143Y-136108161D01*
X193239143Y-136108161D02*
X193334381Y-136155780D01*
X253807333Y-147315819D02*
X253807333Y-148030104D01*
X253807333Y-148030104D02*
X253854952Y-148172961D01*
X253854952Y-148172961D02*
X253950190Y-148268200D01*
X253950190Y-148268200D02*
X254093047Y-148315819D01*
X254093047Y-148315819D02*
X254188285Y-148315819D01*
X253426380Y-147315819D02*
X252759714Y-147315819D01*
X252759714Y-147315819D02*
X253188285Y-148315819D01*
X251152819Y-149984009D02*
X251152819Y-149412581D01*
X251152819Y-149698295D02*
X250152819Y-149698295D01*
X250152819Y-149698295D02*
X250295676Y-149603057D01*
X250295676Y-149603057D02*
X250390914Y-149507819D01*
X250390914Y-149507819D02*
X250438533Y-149412581D01*
X250152819Y-150317343D02*
X251152819Y-150555438D01*
X251152819Y-150555438D02*
X250438533Y-150745914D01*
X250438533Y-150745914D02*
X251152819Y-150936390D01*
X251152819Y-150936390D02*
X250152819Y-151174486D01*
X251152819Y-151555438D02*
X250152819Y-151555438D01*
X251152819Y-152603056D02*
X250676628Y-152269723D01*
X251152819Y-152031628D02*
X250152819Y-152031628D01*
X250152819Y-152031628D02*
X250152819Y-152412580D01*
X250152819Y-152412580D02*
X250200438Y-152507818D01*
X250200438Y-152507818D02*
X250248057Y-152555437D01*
X250248057Y-152555437D02*
X250343295Y-152603056D01*
X250343295Y-152603056D02*
X250486152Y-152603056D01*
X250486152Y-152603056D02*
X250581390Y-152555437D01*
X250581390Y-152555437D02*
X250629009Y-152507818D01*
X250629009Y-152507818D02*
X250676628Y-152412580D01*
X250676628Y-152412580D02*
X250676628Y-152031628D01*
X250629009Y-153031628D02*
X250629009Y-153364961D01*
X251152819Y-153507818D02*
X251152819Y-153031628D01*
X251152819Y-153031628D02*
X250152819Y-153031628D01*
X250152819Y-153031628D02*
X250152819Y-153507818D01*
X157662476Y-148131819D02*
X157995809Y-147655628D01*
X158233904Y-148131819D02*
X158233904Y-147131819D01*
X158233904Y-147131819D02*
X157852952Y-147131819D01*
X157852952Y-147131819D02*
X157757714Y-147179438D01*
X157757714Y-147179438D02*
X157710095Y-147227057D01*
X157710095Y-147227057D02*
X157662476Y-147322295D01*
X157662476Y-147322295D02*
X157662476Y-147465152D01*
X157662476Y-147465152D02*
X157710095Y-147560390D01*
X157710095Y-147560390D02*
X157757714Y-147608009D01*
X157757714Y-147608009D02*
X157852952Y-147655628D01*
X157852952Y-147655628D02*
X158233904Y-147655628D01*
X157233904Y-148131819D02*
X157233904Y-147131819D01*
X157233904Y-147131819D02*
X156662476Y-148131819D01*
X156662476Y-148131819D02*
X156662476Y-147131819D01*
X155662476Y-148131819D02*
X156233904Y-148131819D01*
X155948190Y-148131819D02*
X155948190Y-147131819D01*
X155948190Y-147131819D02*
X156043428Y-147274676D01*
X156043428Y-147274676D02*
X156138666Y-147369914D01*
X156138666Y-147369914D02*
X156233904Y-147417533D01*
X144200476Y-150340219D02*
X144771904Y-150340219D01*
X144486190Y-150340219D02*
X144486190Y-149340219D01*
X144486190Y-149340219D02*
X144581428Y-149483076D01*
X144581428Y-149483076D02*
X144676666Y-149578314D01*
X144676666Y-149578314D02*
X144771904Y-149625933D01*
X143581428Y-149340219D02*
X143486190Y-149340219D01*
X143486190Y-149340219D02*
X143390952Y-149387838D01*
X143390952Y-149387838D02*
X143343333Y-149435457D01*
X143343333Y-149435457D02*
X143295714Y-149530695D01*
X143295714Y-149530695D02*
X143248095Y-149721171D01*
X143248095Y-149721171D02*
X143248095Y-149959266D01*
X143248095Y-149959266D02*
X143295714Y-150149742D01*
X143295714Y-150149742D02*
X143343333Y-150244980D01*
X143343333Y-150244980D02*
X143390952Y-150292600D01*
X143390952Y-150292600D02*
X143486190Y-150340219D01*
X143486190Y-150340219D02*
X143581428Y-150340219D01*
X143581428Y-150340219D02*
X143676666Y-150292600D01*
X143676666Y-150292600D02*
X143724285Y-150244980D01*
X143724285Y-150244980D02*
X143771904Y-150149742D01*
X143771904Y-150149742D02*
X143819523Y-149959266D01*
X143819523Y-149959266D02*
X143819523Y-149721171D01*
X143819523Y-149721171D02*
X143771904Y-149530695D01*
X143771904Y-149530695D02*
X143724285Y-149435457D01*
X143724285Y-149435457D02*
X143676666Y-149387838D01*
X143676666Y-149387838D02*
X143581428Y-149340219D01*
X142819523Y-150340219D02*
X142819523Y-149340219D01*
X142248095Y-150340219D02*
X142676666Y-149768790D01*
X142248095Y-149340219D02*
X142819523Y-149911647D01*
X263364819Y-175307666D02*
X264079104Y-175307666D01*
X264079104Y-175307666D02*
X264221961Y-175260047D01*
X264221961Y-175260047D02*
X264317200Y-175164809D01*
X264317200Y-175164809D02*
X264364819Y-175021952D01*
X264364819Y-175021952D02*
X264364819Y-174926714D01*
X263364819Y-176212428D02*
X263364819Y-176021952D01*
X263364819Y-176021952D02*
X263412438Y-175926714D01*
X263412438Y-175926714D02*
X263460057Y-175879095D01*
X263460057Y-175879095D02*
X263602914Y-175783857D01*
X263602914Y-175783857D02*
X263793390Y-175736238D01*
X263793390Y-175736238D02*
X264174342Y-175736238D01*
X264174342Y-175736238D02*
X264269580Y-175783857D01*
X264269580Y-175783857D02*
X264317200Y-175831476D01*
X264317200Y-175831476D02*
X264364819Y-175926714D01*
X264364819Y-175926714D02*
X264364819Y-176117190D01*
X264364819Y-176117190D02*
X264317200Y-176212428D01*
X264317200Y-176212428D02*
X264269580Y-176260047D01*
X264269580Y-176260047D02*
X264174342Y-176307666D01*
X264174342Y-176307666D02*
X263936247Y-176307666D01*
X263936247Y-176307666D02*
X263841009Y-176260047D01*
X263841009Y-176260047D02*
X263793390Y-176212428D01*
X263793390Y-176212428D02*
X263745771Y-176117190D01*
X263745771Y-176117190D02*
X263745771Y-175926714D01*
X263745771Y-175926714D02*
X263793390Y-175831476D01*
X263793390Y-175831476D02*
X263841009Y-175783857D01*
X263841009Y-175783857D02*
X263936247Y-175736238D01*
X186012057Y-142567819D02*
X186345390Y-142091628D01*
X186583485Y-142567819D02*
X186583485Y-141567819D01*
X186583485Y-141567819D02*
X186202533Y-141567819D01*
X186202533Y-141567819D02*
X186107295Y-141615438D01*
X186107295Y-141615438D02*
X186059676Y-141663057D01*
X186059676Y-141663057D02*
X186012057Y-141758295D01*
X186012057Y-141758295D02*
X186012057Y-141901152D01*
X186012057Y-141901152D02*
X186059676Y-141996390D01*
X186059676Y-141996390D02*
X186107295Y-142044009D01*
X186107295Y-142044009D02*
X186202533Y-142091628D01*
X186202533Y-142091628D02*
X186583485Y-142091628D01*
X185059676Y-142567819D02*
X185631104Y-142567819D01*
X185345390Y-142567819D02*
X185345390Y-141567819D01*
X185345390Y-141567819D02*
X185440628Y-141710676D01*
X185440628Y-141710676D02*
X185535866Y-141805914D01*
X185535866Y-141805914D02*
X185631104Y-141853533D01*
X184488247Y-141996390D02*
X184583485Y-141948771D01*
X184583485Y-141948771D02*
X184631104Y-141901152D01*
X184631104Y-141901152D02*
X184678723Y-141805914D01*
X184678723Y-141805914D02*
X184678723Y-141758295D01*
X184678723Y-141758295D02*
X184631104Y-141663057D01*
X184631104Y-141663057D02*
X184583485Y-141615438D01*
X184583485Y-141615438D02*
X184488247Y-141567819D01*
X184488247Y-141567819D02*
X184297771Y-141567819D01*
X184297771Y-141567819D02*
X184202533Y-141615438D01*
X184202533Y-141615438D02*
X184154914Y-141663057D01*
X184154914Y-141663057D02*
X184107295Y-141758295D01*
X184107295Y-141758295D02*
X184107295Y-141805914D01*
X184107295Y-141805914D02*
X184154914Y-141901152D01*
X184154914Y-141901152D02*
X184202533Y-141948771D01*
X184202533Y-141948771D02*
X184297771Y-141996390D01*
X184297771Y-141996390D02*
X184488247Y-141996390D01*
X184488247Y-141996390D02*
X184583485Y-142044009D01*
X184583485Y-142044009D02*
X184631104Y-142091628D01*
X184631104Y-142091628D02*
X184678723Y-142186866D01*
X184678723Y-142186866D02*
X184678723Y-142377342D01*
X184678723Y-142377342D02*
X184631104Y-142472580D01*
X184631104Y-142472580D02*
X184583485Y-142520200D01*
X184583485Y-142520200D02*
X184488247Y-142567819D01*
X184488247Y-142567819D02*
X184297771Y-142567819D01*
X184297771Y-142567819D02*
X184202533Y-142520200D01*
X184202533Y-142520200D02*
X184154914Y-142472580D01*
X184154914Y-142472580D02*
X184107295Y-142377342D01*
X184107295Y-142377342D02*
X184107295Y-142186866D01*
X184107295Y-142186866D02*
X184154914Y-142091628D01*
X184154914Y-142091628D02*
X184202533Y-142044009D01*
X184202533Y-142044009D02*
X184297771Y-141996390D01*
X194314628Y-142618619D02*
X194886056Y-142618619D01*
X194600342Y-142618619D02*
X194600342Y-141618619D01*
X194600342Y-141618619D02*
X194695580Y-141761476D01*
X194695580Y-141761476D02*
X194790818Y-141856714D01*
X194790818Y-141856714D02*
X194886056Y-141904333D01*
X193695580Y-141618619D02*
X193600342Y-141618619D01*
X193600342Y-141618619D02*
X193505104Y-141666238D01*
X193505104Y-141666238D02*
X193457485Y-141713857D01*
X193457485Y-141713857D02*
X193409866Y-141809095D01*
X193409866Y-141809095D02*
X193362247Y-141999571D01*
X193362247Y-141999571D02*
X193362247Y-142237666D01*
X193362247Y-142237666D02*
X193409866Y-142428142D01*
X193409866Y-142428142D02*
X193457485Y-142523380D01*
X193457485Y-142523380D02*
X193505104Y-142571000D01*
X193505104Y-142571000D02*
X193600342Y-142618619D01*
X193600342Y-142618619D02*
X193695580Y-142618619D01*
X193695580Y-142618619D02*
X193790818Y-142571000D01*
X193790818Y-142571000D02*
X193838437Y-142523380D01*
X193838437Y-142523380D02*
X193886056Y-142428142D01*
X193886056Y-142428142D02*
X193933675Y-142237666D01*
X193933675Y-142237666D02*
X193933675Y-141999571D01*
X193933675Y-141999571D02*
X193886056Y-141809095D01*
X193886056Y-141809095D02*
X193838437Y-141713857D01*
X193838437Y-141713857D02*
X193790818Y-141666238D01*
X193790818Y-141666238D02*
X193695580Y-141618619D01*
X192743199Y-141618619D02*
X192647961Y-141618619D01*
X192647961Y-141618619D02*
X192552723Y-141666238D01*
X192552723Y-141666238D02*
X192505104Y-141713857D01*
X192505104Y-141713857D02*
X192457485Y-141809095D01*
X192457485Y-141809095D02*
X192409866Y-141999571D01*
X192409866Y-141999571D02*
X192409866Y-142237666D01*
X192409866Y-142237666D02*
X192457485Y-142428142D01*
X192457485Y-142428142D02*
X192505104Y-142523380D01*
X192505104Y-142523380D02*
X192552723Y-142571000D01*
X192552723Y-142571000D02*
X192647961Y-142618619D01*
X192647961Y-142618619D02*
X192743199Y-142618619D01*
X192743199Y-142618619D02*
X192838437Y-142571000D01*
X192838437Y-142571000D02*
X192886056Y-142523380D01*
X192886056Y-142523380D02*
X192933675Y-142428142D01*
X192933675Y-142428142D02*
X192981294Y-142237666D01*
X192981294Y-142237666D02*
X192981294Y-141999571D01*
X192981294Y-141999571D02*
X192933675Y-141809095D01*
X192933675Y-141809095D02*
X192886056Y-141713857D01*
X192886056Y-141713857D02*
X192838437Y-141666238D01*
X192838437Y-141666238D02*
X192743199Y-141618619D01*
X191981294Y-142618619D02*
X191981294Y-141618619D01*
X191886056Y-142237666D02*
X191600342Y-142618619D01*
X191600342Y-141951952D02*
X191981294Y-142332904D01*
X203269790Y-130560028D02*
X203269790Y-131036219D01*
X203603123Y-130036219D02*
X203269790Y-130560028D01*
X203269790Y-130560028D02*
X202936457Y-130036219D01*
X202079314Y-131036219D02*
X202650742Y-131036219D01*
X202365028Y-131036219D02*
X202365028Y-130036219D01*
X202365028Y-130036219D02*
X202460266Y-130179076D01*
X202460266Y-130179076D02*
X202555504Y-130274314D01*
X202555504Y-130274314D02*
X202650742Y-130321933D01*
X207866951Y-143904619D02*
X207247904Y-143904619D01*
X207247904Y-143904619D02*
X207581237Y-144285571D01*
X207581237Y-144285571D02*
X207438380Y-144285571D01*
X207438380Y-144285571D02*
X207343142Y-144333190D01*
X207343142Y-144333190D02*
X207295523Y-144380809D01*
X207295523Y-144380809D02*
X207247904Y-144476047D01*
X207247904Y-144476047D02*
X207247904Y-144714142D01*
X207247904Y-144714142D02*
X207295523Y-144809380D01*
X207295523Y-144809380D02*
X207343142Y-144857000D01*
X207343142Y-144857000D02*
X207438380Y-144904619D01*
X207438380Y-144904619D02*
X207724094Y-144904619D01*
X207724094Y-144904619D02*
X207819332Y-144857000D01*
X207819332Y-144857000D02*
X207866951Y-144809380D01*
X206866951Y-143999857D02*
X206819332Y-143952238D01*
X206819332Y-143952238D02*
X206724094Y-143904619D01*
X206724094Y-143904619D02*
X206485999Y-143904619D01*
X206485999Y-143904619D02*
X206390761Y-143952238D01*
X206390761Y-143952238D02*
X206343142Y-143999857D01*
X206343142Y-143999857D02*
X206295523Y-144095095D01*
X206295523Y-144095095D02*
X206295523Y-144190333D01*
X206295523Y-144190333D02*
X206343142Y-144333190D01*
X206343142Y-144333190D02*
X206914570Y-144904619D01*
X206914570Y-144904619D02*
X206295523Y-144904619D01*
X205866951Y-144904619D02*
X205866951Y-143904619D01*
X205866951Y-143904619D02*
X205533618Y-144618904D01*
X205533618Y-144618904D02*
X205200285Y-143904619D01*
X205200285Y-143904619D02*
X205200285Y-144904619D01*
X204724094Y-144904619D02*
X204724094Y-143904619D01*
X204724094Y-144380809D02*
X204152666Y-144380809D01*
X204152666Y-144904619D02*
X204152666Y-143904619D01*
X203771713Y-143904619D02*
X203105047Y-143904619D01*
X203105047Y-143904619D02*
X203771713Y-144904619D01*
X203771713Y-144904619D02*
X203105047Y-144904619D01*
X225812819Y-172085095D02*
X226622342Y-172085095D01*
X226622342Y-172085095D02*
X226717580Y-172132714D01*
X226717580Y-172132714D02*
X226765200Y-172180333D01*
X226765200Y-172180333D02*
X226812819Y-172275571D01*
X226812819Y-172275571D02*
X226812819Y-172466047D01*
X226812819Y-172466047D02*
X226765200Y-172561285D01*
X226765200Y-172561285D02*
X226717580Y-172608904D01*
X226717580Y-172608904D02*
X226622342Y-172656523D01*
X226622342Y-172656523D02*
X225812819Y-172656523D01*
X225812819Y-173037476D02*
X225812819Y-173704142D01*
X225812819Y-173704142D02*
X226812819Y-173275571D01*
X263364819Y-74730076D02*
X264079104Y-74730076D01*
X264079104Y-74730076D02*
X264221961Y-74682457D01*
X264221961Y-74682457D02*
X264317200Y-74587219D01*
X264317200Y-74587219D02*
X264364819Y-74444362D01*
X264364819Y-74444362D02*
X264364819Y-74349124D01*
X264364819Y-75730076D02*
X264364819Y-75158648D01*
X264364819Y-75444362D02*
X263364819Y-75444362D01*
X263364819Y-75444362D02*
X263507676Y-75349124D01*
X263507676Y-75349124D02*
X263602914Y-75253886D01*
X263602914Y-75253886D02*
X263650533Y-75158648D01*
X263364819Y-76349124D02*
X263364819Y-76444362D01*
X263364819Y-76444362D02*
X263412438Y-76539600D01*
X263412438Y-76539600D02*
X263460057Y-76587219D01*
X263460057Y-76587219D02*
X263555295Y-76634838D01*
X263555295Y-76634838D02*
X263745771Y-76682457D01*
X263745771Y-76682457D02*
X263983866Y-76682457D01*
X263983866Y-76682457D02*
X264174342Y-76634838D01*
X264174342Y-76634838D02*
X264269580Y-76587219D01*
X264269580Y-76587219D02*
X264317200Y-76539600D01*
X264317200Y-76539600D02*
X264364819Y-76444362D01*
X264364819Y-76444362D02*
X264364819Y-76349124D01*
X264364819Y-76349124D02*
X264317200Y-76253886D01*
X264317200Y-76253886D02*
X264269580Y-76206267D01*
X264269580Y-76206267D02*
X264174342Y-76158648D01*
X264174342Y-76158648D02*
X263983866Y-76111029D01*
X263983866Y-76111029D02*
X263745771Y-76111029D01*
X263745771Y-76111029D02*
X263555295Y-76158648D01*
X263555295Y-76158648D02*
X263460057Y-76206267D01*
X263460057Y-76206267D02*
X263412438Y-76253886D01*
X263412438Y-76253886D02*
X263364819Y-76349124D01*
X198235866Y-152175380D02*
X198283485Y-152223000D01*
X198283485Y-152223000D02*
X198426342Y-152270619D01*
X198426342Y-152270619D02*
X198521580Y-152270619D01*
X198521580Y-152270619D02*
X198664437Y-152223000D01*
X198664437Y-152223000D02*
X198759675Y-152127761D01*
X198759675Y-152127761D02*
X198807294Y-152032523D01*
X198807294Y-152032523D02*
X198854913Y-151842047D01*
X198854913Y-151842047D02*
X198854913Y-151699190D01*
X198854913Y-151699190D02*
X198807294Y-151508714D01*
X198807294Y-151508714D02*
X198759675Y-151413476D01*
X198759675Y-151413476D02*
X198664437Y-151318238D01*
X198664437Y-151318238D02*
X198521580Y-151270619D01*
X198521580Y-151270619D02*
X198426342Y-151270619D01*
X198426342Y-151270619D02*
X198283485Y-151318238D01*
X198283485Y-151318238D02*
X198235866Y-151365857D01*
X197759675Y-152270619D02*
X197569199Y-152270619D01*
X197569199Y-152270619D02*
X197473961Y-152223000D01*
X197473961Y-152223000D02*
X197426342Y-152175380D01*
X197426342Y-152175380D02*
X197331104Y-152032523D01*
X197331104Y-152032523D02*
X197283485Y-151842047D01*
X197283485Y-151842047D02*
X197283485Y-151461095D01*
X197283485Y-151461095D02*
X197331104Y-151365857D01*
X197331104Y-151365857D02*
X197378723Y-151318238D01*
X197378723Y-151318238D02*
X197473961Y-151270619D01*
X197473961Y-151270619D02*
X197664437Y-151270619D01*
X197664437Y-151270619D02*
X197759675Y-151318238D01*
X197759675Y-151318238D02*
X197807294Y-151365857D01*
X197807294Y-151365857D02*
X197854913Y-151461095D01*
X197854913Y-151461095D02*
X197854913Y-151699190D01*
X197854913Y-151699190D02*
X197807294Y-151794428D01*
X197807294Y-151794428D02*
X197759675Y-151842047D01*
X197759675Y-151842047D02*
X197664437Y-151889666D01*
X197664437Y-151889666D02*
X197473961Y-151889666D01*
X197473961Y-151889666D02*
X197378723Y-151842047D01*
X197378723Y-151842047D02*
X197331104Y-151794428D01*
X197331104Y-151794428D02*
X197283485Y-151699190D01*
X193226666Y-156619819D02*
X193798094Y-156619819D01*
X193512380Y-156619819D02*
X193512380Y-155619819D01*
X193512380Y-155619819D02*
X193607618Y-155762676D01*
X193607618Y-155762676D02*
X193702856Y-155857914D01*
X193702856Y-155857914D02*
X193798094Y-155905533D01*
X192369523Y-155953152D02*
X192369523Y-156619819D01*
X192798094Y-155953152D02*
X192798094Y-156476961D01*
X192798094Y-156476961D02*
X192750475Y-156572200D01*
X192750475Y-156572200D02*
X192655237Y-156619819D01*
X192655237Y-156619819D02*
X192512380Y-156619819D01*
X192512380Y-156619819D02*
X192417142Y-156572200D01*
X192417142Y-156572200D02*
X192369523Y-156524580D01*
X201194894Y-145666619D02*
X201194894Y-144666619D01*
X201194894Y-144666619D02*
X200956799Y-144666619D01*
X200956799Y-144666619D02*
X200813942Y-144714238D01*
X200813942Y-144714238D02*
X200718704Y-144809476D01*
X200718704Y-144809476D02*
X200671085Y-144904714D01*
X200671085Y-144904714D02*
X200623466Y-145095190D01*
X200623466Y-145095190D02*
X200623466Y-145238047D01*
X200623466Y-145238047D02*
X200671085Y-145428523D01*
X200671085Y-145428523D02*
X200718704Y-145523761D01*
X200718704Y-145523761D02*
X200813942Y-145619000D01*
X200813942Y-145619000D02*
X200956799Y-145666619D01*
X200956799Y-145666619D02*
X201194894Y-145666619D01*
X200290132Y-144666619D02*
X199623466Y-144666619D01*
X199623466Y-144666619D02*
X200052037Y-145666619D01*
X195538457Y-147749419D02*
X196109885Y-147749419D01*
X195824171Y-147749419D02*
X195824171Y-146749419D01*
X195824171Y-146749419D02*
X195919409Y-146892276D01*
X195919409Y-146892276D02*
X196014647Y-146987514D01*
X196014647Y-146987514D02*
X196109885Y-147035133D01*
X195109885Y-147749419D02*
X195109885Y-146749419D01*
X195109885Y-146749419D02*
X194538457Y-147749419D01*
X194538457Y-147749419D02*
X194538457Y-146749419D01*
X193633695Y-147082752D02*
X193633695Y-147749419D01*
X193871790Y-146701800D02*
X194109885Y-147416085D01*
X194109885Y-147416085D02*
X193490838Y-147416085D01*
X192586076Y-147749419D02*
X193157504Y-147749419D01*
X192871790Y-147749419D02*
X192871790Y-146749419D01*
X192871790Y-146749419D02*
X192967028Y-146892276D01*
X192967028Y-146892276D02*
X193062266Y-146987514D01*
X193062266Y-146987514D02*
X193157504Y-147035133D01*
X191728933Y-147082752D02*
X191728933Y-147749419D01*
X191967028Y-146701800D02*
X192205123Y-147416085D01*
X192205123Y-147416085D02*
X191586076Y-147416085D01*
X191062266Y-147177990D02*
X191157504Y-147130371D01*
X191157504Y-147130371D02*
X191205123Y-147082752D01*
X191205123Y-147082752D02*
X191252742Y-146987514D01*
X191252742Y-146987514D02*
X191252742Y-146939895D01*
X191252742Y-146939895D02*
X191205123Y-146844657D01*
X191205123Y-146844657D02*
X191157504Y-146797038D01*
X191157504Y-146797038D02*
X191062266Y-146749419D01*
X191062266Y-146749419D02*
X190871790Y-146749419D01*
X190871790Y-146749419D02*
X190776552Y-146797038D01*
X190776552Y-146797038D02*
X190728933Y-146844657D01*
X190728933Y-146844657D02*
X190681314Y-146939895D01*
X190681314Y-146939895D02*
X190681314Y-146987514D01*
X190681314Y-146987514D02*
X190728933Y-147082752D01*
X190728933Y-147082752D02*
X190776552Y-147130371D01*
X190776552Y-147130371D02*
X190871790Y-147177990D01*
X190871790Y-147177990D02*
X191062266Y-147177990D01*
X191062266Y-147177990D02*
X191157504Y-147225609D01*
X191157504Y-147225609D02*
X191205123Y-147273228D01*
X191205123Y-147273228D02*
X191252742Y-147368466D01*
X191252742Y-147368466D02*
X191252742Y-147558942D01*
X191252742Y-147558942D02*
X191205123Y-147654180D01*
X191205123Y-147654180D02*
X191157504Y-147701800D01*
X191157504Y-147701800D02*
X191062266Y-147749419D01*
X191062266Y-147749419D02*
X190871790Y-147749419D01*
X190871790Y-147749419D02*
X190776552Y-147701800D01*
X190776552Y-147701800D02*
X190728933Y-147654180D01*
X190728933Y-147654180D02*
X190681314Y-147558942D01*
X190681314Y-147558942D02*
X190681314Y-147368466D01*
X190681314Y-147368466D02*
X190728933Y-147273228D01*
X190728933Y-147273228D02*
X190776552Y-147225609D01*
X190776552Y-147225609D02*
X190871790Y-147177990D01*
X188475904Y-147415819D02*
X188475904Y-146415819D01*
X187904476Y-147415819D02*
X188333047Y-146844390D01*
X187904476Y-146415819D02*
X188475904Y-146987247D01*
X81402819Y-142867666D02*
X82117104Y-142867666D01*
X82117104Y-142867666D02*
X82259961Y-142820047D01*
X82259961Y-142820047D02*
X82355200Y-142724809D01*
X82355200Y-142724809D02*
X82402819Y-142581952D01*
X82402819Y-142581952D02*
X82402819Y-142486714D01*
X82402819Y-143343857D02*
X81402819Y-143343857D01*
X81402819Y-143343857D02*
X81402819Y-143724809D01*
X81402819Y-143724809D02*
X81450438Y-143820047D01*
X81450438Y-143820047D02*
X81498057Y-143867666D01*
X81498057Y-143867666D02*
X81593295Y-143915285D01*
X81593295Y-143915285D02*
X81736152Y-143915285D01*
X81736152Y-143915285D02*
X81831390Y-143867666D01*
X81831390Y-143867666D02*
X81879009Y-143820047D01*
X81879009Y-143820047D02*
X81926628Y-143724809D01*
X81926628Y-143724809D02*
X81926628Y-143343857D01*
X82402819Y-144867666D02*
X82402819Y-144296238D01*
X82402819Y-144581952D02*
X81402819Y-144581952D01*
X81402819Y-144581952D02*
X81545676Y-144486714D01*
X81545676Y-144486714D02*
X81640914Y-144391476D01*
X81640914Y-144391476D02*
X81688533Y-144296238D01*
X186012057Y-139215019D02*
X186345390Y-138738828D01*
X186583485Y-139215019D02*
X186583485Y-138215019D01*
X186583485Y-138215019D02*
X186202533Y-138215019D01*
X186202533Y-138215019D02*
X186107295Y-138262638D01*
X186107295Y-138262638D02*
X186059676Y-138310257D01*
X186059676Y-138310257D02*
X186012057Y-138405495D01*
X186012057Y-138405495D02*
X186012057Y-138548352D01*
X186012057Y-138548352D02*
X186059676Y-138643590D01*
X186059676Y-138643590D02*
X186107295Y-138691209D01*
X186107295Y-138691209D02*
X186202533Y-138738828D01*
X186202533Y-138738828D02*
X186583485Y-138738828D01*
X185631104Y-138310257D02*
X185583485Y-138262638D01*
X185583485Y-138262638D02*
X185488247Y-138215019D01*
X185488247Y-138215019D02*
X185250152Y-138215019D01*
X185250152Y-138215019D02*
X185154914Y-138262638D01*
X185154914Y-138262638D02*
X185107295Y-138310257D01*
X185107295Y-138310257D02*
X185059676Y-138405495D01*
X185059676Y-138405495D02*
X185059676Y-138500733D01*
X185059676Y-138500733D02*
X185107295Y-138643590D01*
X185107295Y-138643590D02*
X185678723Y-139215019D01*
X185678723Y-139215019D02*
X185059676Y-139215019D01*
X184440628Y-138215019D02*
X184345390Y-138215019D01*
X184345390Y-138215019D02*
X184250152Y-138262638D01*
X184250152Y-138262638D02*
X184202533Y-138310257D01*
X184202533Y-138310257D02*
X184154914Y-138405495D01*
X184154914Y-138405495D02*
X184107295Y-138595971D01*
X184107295Y-138595971D02*
X184107295Y-138834066D01*
X184107295Y-138834066D02*
X184154914Y-139024542D01*
X184154914Y-139024542D02*
X184202533Y-139119780D01*
X184202533Y-139119780D02*
X184250152Y-139167400D01*
X184250152Y-139167400D02*
X184345390Y-139215019D01*
X184345390Y-139215019D02*
X184440628Y-139215019D01*
X184440628Y-139215019D02*
X184535866Y-139167400D01*
X184535866Y-139167400D02*
X184583485Y-139119780D01*
X184583485Y-139119780D02*
X184631104Y-139024542D01*
X184631104Y-139024542D02*
X184678723Y-138834066D01*
X184678723Y-138834066D02*
X184678723Y-138595971D01*
X184678723Y-138595971D02*
X184631104Y-138405495D01*
X184631104Y-138405495D02*
X184583485Y-138310257D01*
X184583485Y-138310257D02*
X184535866Y-138262638D01*
X184535866Y-138262638D02*
X184440628Y-138215019D01*
X193297181Y-139305380D02*
X193392419Y-139305380D01*
X193392419Y-139305380D02*
X193487657Y-139257761D01*
X193487657Y-139257761D02*
X193535276Y-139210142D01*
X193535276Y-139210142D02*
X193582895Y-139114904D01*
X193582895Y-139114904D02*
X193630514Y-138924428D01*
X193630514Y-138924428D02*
X193630514Y-138686333D01*
X193630514Y-138686333D02*
X193582895Y-138495857D01*
X193582895Y-138495857D02*
X193535276Y-138400619D01*
X193535276Y-138400619D02*
X193487657Y-138353000D01*
X193487657Y-138353000D02*
X193392419Y-138305380D01*
X193392419Y-138305380D02*
X193297181Y-138305380D01*
X193297181Y-138305380D02*
X193201943Y-138353000D01*
X193201943Y-138353000D02*
X193154324Y-138400619D01*
X193154324Y-138400619D02*
X193106705Y-138495857D01*
X193106705Y-138495857D02*
X193059086Y-138686333D01*
X193059086Y-138686333D02*
X193059086Y-138924428D01*
X193059086Y-138924428D02*
X193106705Y-139114904D01*
X193106705Y-139114904D02*
X193154324Y-139210142D01*
X193154324Y-139210142D02*
X193201943Y-139257761D01*
X193201943Y-139257761D02*
X193297181Y-139305380D01*
X258397333Y-147315819D02*
X258397333Y-148030104D01*
X258397333Y-148030104D02*
X258444952Y-148172961D01*
X258444952Y-148172961D02*
X258540190Y-148268200D01*
X258540190Y-148268200D02*
X258683047Y-148315819D01*
X258683047Y-148315819D02*
X258778285Y-148315819D01*
X257778285Y-147744390D02*
X257873523Y-147696771D01*
X257873523Y-147696771D02*
X257921142Y-147649152D01*
X257921142Y-147649152D02*
X257968761Y-147553914D01*
X257968761Y-147553914D02*
X257968761Y-147506295D01*
X257968761Y-147506295D02*
X257921142Y-147411057D01*
X257921142Y-147411057D02*
X257873523Y-147363438D01*
X257873523Y-147363438D02*
X257778285Y-147315819D01*
X257778285Y-147315819D02*
X257587809Y-147315819D01*
X257587809Y-147315819D02*
X257492571Y-147363438D01*
X257492571Y-147363438D02*
X257444952Y-147411057D01*
X257444952Y-147411057D02*
X257397333Y-147506295D01*
X257397333Y-147506295D02*
X257397333Y-147553914D01*
X257397333Y-147553914D02*
X257444952Y-147649152D01*
X257444952Y-147649152D02*
X257492571Y-147696771D01*
X257492571Y-147696771D02*
X257587809Y-147744390D01*
X257587809Y-147744390D02*
X257778285Y-147744390D01*
X257778285Y-147744390D02*
X257873523Y-147792009D01*
X257873523Y-147792009D02*
X257921142Y-147839628D01*
X257921142Y-147839628D02*
X257968761Y-147934866D01*
X257968761Y-147934866D02*
X257968761Y-148125342D01*
X257968761Y-148125342D02*
X257921142Y-148220580D01*
X257921142Y-148220580D02*
X257873523Y-148268200D01*
X257873523Y-148268200D02*
X257778285Y-148315819D01*
X257778285Y-148315819D02*
X257587809Y-148315819D01*
X257587809Y-148315819D02*
X257492571Y-148268200D01*
X257492571Y-148268200D02*
X257444952Y-148220580D01*
X257444952Y-148220580D02*
X257397333Y-148125342D01*
X257397333Y-148125342D02*
X257397333Y-147934866D01*
X257397333Y-147934866D02*
X257444952Y-147839628D01*
X257444952Y-147839628D02*
X257492571Y-147792009D01*
X257492571Y-147792009D02*
X257587809Y-147744390D01*
X261163600Y-148493552D02*
X261211219Y-148636409D01*
X261211219Y-148636409D02*
X261211219Y-148874504D01*
X261211219Y-148874504D02*
X261163600Y-148969742D01*
X261163600Y-148969742D02*
X261115980Y-149017361D01*
X261115980Y-149017361D02*
X261020742Y-149064980D01*
X261020742Y-149064980D02*
X260925504Y-149064980D01*
X260925504Y-149064980D02*
X260830266Y-149017361D01*
X260830266Y-149017361D02*
X260782647Y-148969742D01*
X260782647Y-148969742D02*
X260735028Y-148874504D01*
X260735028Y-148874504D02*
X260687409Y-148684028D01*
X260687409Y-148684028D02*
X260639790Y-148588790D01*
X260639790Y-148588790D02*
X260592171Y-148541171D01*
X260592171Y-148541171D02*
X260496933Y-148493552D01*
X260496933Y-148493552D02*
X260401695Y-148493552D01*
X260401695Y-148493552D02*
X260306457Y-148541171D01*
X260306457Y-148541171D02*
X260258838Y-148588790D01*
X260258838Y-148588790D02*
X260211219Y-148684028D01*
X260211219Y-148684028D02*
X260211219Y-148922123D01*
X260211219Y-148922123D02*
X260258838Y-149064980D01*
X261211219Y-149493552D02*
X260211219Y-149493552D01*
X260211219Y-149493552D02*
X260211219Y-149874504D01*
X260211219Y-149874504D02*
X260258838Y-149969742D01*
X260258838Y-149969742D02*
X260306457Y-150017361D01*
X260306457Y-150017361D02*
X260401695Y-150064980D01*
X260401695Y-150064980D02*
X260544552Y-150064980D01*
X260544552Y-150064980D02*
X260639790Y-150017361D01*
X260639790Y-150017361D02*
X260687409Y-149969742D01*
X260687409Y-149969742D02*
X260735028Y-149874504D01*
X260735028Y-149874504D02*
X260735028Y-149493552D01*
X260687409Y-150493552D02*
X260687409Y-150826885D01*
X261211219Y-150969742D02*
X261211219Y-150493552D01*
X261211219Y-150493552D02*
X260211219Y-150493552D01*
X260211219Y-150493552D02*
X260211219Y-150969742D01*
X260925504Y-151350695D02*
X260925504Y-151826885D01*
X261211219Y-151255457D02*
X260211219Y-151588790D01*
X260211219Y-151588790D02*
X261211219Y-151922123D01*
X261211219Y-152255457D02*
X260211219Y-152255457D01*
X261211219Y-152826885D02*
X260639790Y-152398314D01*
X260211219Y-152826885D02*
X260782647Y-152255457D01*
X260687409Y-153255457D02*
X260687409Y-153588790D01*
X261211219Y-153731647D02*
X261211219Y-153255457D01*
X261211219Y-153255457D02*
X260211219Y-153255457D01*
X260211219Y-153255457D02*
X260211219Y-153731647D01*
X261211219Y-154731647D02*
X260735028Y-154398314D01*
X261211219Y-154160219D02*
X260211219Y-154160219D01*
X260211219Y-154160219D02*
X260211219Y-154541171D01*
X260211219Y-154541171D02*
X260258838Y-154636409D01*
X260258838Y-154636409D02*
X260306457Y-154684028D01*
X260306457Y-154684028D02*
X260401695Y-154731647D01*
X260401695Y-154731647D02*
X260544552Y-154731647D01*
X260544552Y-154731647D02*
X260639790Y-154684028D01*
X260639790Y-154684028D02*
X260687409Y-154636409D01*
X260687409Y-154636409D02*
X260735028Y-154541171D01*
X260735028Y-154541171D02*
X260735028Y-154160219D01*
X81402819Y-146867666D02*
X82117104Y-146867666D01*
X82117104Y-146867666D02*
X82259961Y-146820047D01*
X82259961Y-146820047D02*
X82355200Y-146724809D01*
X82355200Y-146724809D02*
X82402819Y-146581952D01*
X82402819Y-146581952D02*
X82402819Y-146486714D01*
X82402819Y-147343857D02*
X81402819Y-147343857D01*
X81402819Y-147343857D02*
X81402819Y-147724809D01*
X81402819Y-147724809D02*
X81450438Y-147820047D01*
X81450438Y-147820047D02*
X81498057Y-147867666D01*
X81498057Y-147867666D02*
X81593295Y-147915285D01*
X81593295Y-147915285D02*
X81736152Y-147915285D01*
X81736152Y-147915285D02*
X81831390Y-147867666D01*
X81831390Y-147867666D02*
X81879009Y-147820047D01*
X81879009Y-147820047D02*
X81926628Y-147724809D01*
X81926628Y-147724809D02*
X81926628Y-147343857D01*
X81498057Y-148296238D02*
X81450438Y-148343857D01*
X81450438Y-148343857D02*
X81402819Y-148439095D01*
X81402819Y-148439095D02*
X81402819Y-148677190D01*
X81402819Y-148677190D02*
X81450438Y-148772428D01*
X81450438Y-148772428D02*
X81498057Y-148820047D01*
X81498057Y-148820047D02*
X81593295Y-148867666D01*
X81593295Y-148867666D02*
X81688533Y-148867666D01*
X81688533Y-148867666D02*
X81831390Y-148820047D01*
X81831390Y-148820047D02*
X82402819Y-148248619D01*
X82402819Y-148248619D02*
X82402819Y-148867666D01*
D13*
%TO.C,C27*%
X206490000Y-133667000D02*
X206490000Y-140907000D01*
X206490000Y-140907000D02*
X209230000Y-140907000D01*
X209230000Y-133667000D02*
X206490000Y-133667000D01*
X209230000Y-140907000D02*
X209230000Y-133667000D01*
%TO.C,R19*%
X189342000Y-135509000D02*
X190112000Y-135509000D01*
X197422000Y-135509000D02*
X196652000Y-135509000D01*
X190112000Y-136879000D02*
X196652000Y-136879000D01*
X196652000Y-134139000D01*
X190112000Y-134139000D01*
X190112000Y-136879000D01*
%TO.C,J7*%
X252094000Y-151511000D02*
X252094000Y-154161000D01*
X254854000Y-148861000D02*
X253474000Y-148861000D01*
X254854000Y-150241000D02*
X254854000Y-148861000D01*
X254854000Y-151511000D02*
X252094000Y-151511000D01*
X254854000Y-151511000D02*
X254854000Y-154161000D01*
X254854000Y-154161000D02*
X252094000Y-154161000D01*
%TO.C,RN1*%
X145462000Y-148677000D02*
X171022000Y-148677000D01*
X145462000Y-151297000D02*
X145462000Y-148677000D01*
X168402000Y-148677000D02*
X168402000Y-151297000D01*
X171022000Y-148677000D02*
X171022000Y-151297000D01*
X171022000Y-151297000D02*
X145462000Y-151297000D01*
%TO.C,J6*%
X234820000Y-171081000D02*
X234820000Y-180201000D01*
X234820000Y-180201000D02*
X263020000Y-180201000D01*
X236120000Y-172391000D02*
X236120000Y-178891000D01*
X236120000Y-178891000D02*
X246870000Y-178891000D01*
X246870000Y-178891000D02*
X246870000Y-180201000D01*
X250970000Y-178891000D02*
X261720000Y-178891000D01*
X250970000Y-180201000D02*
X250970000Y-178891000D01*
X257310000Y-181591000D02*
X257810000Y-180591000D01*
X257810000Y-180591000D02*
X258310000Y-181591000D01*
X258310000Y-181591000D02*
X257310000Y-181591000D01*
X261720000Y-172391000D02*
X236120000Y-172391000D01*
X261720000Y-178891000D02*
X261720000Y-172391000D01*
X263020000Y-171081000D02*
X234820000Y-171081000D01*
X263020000Y-180201000D02*
X263020000Y-171081000D01*
%TO.C,R18*%
X189279400Y-142113000D02*
X190049400Y-142113000D01*
X197359400Y-142113000D02*
X196589400Y-142113000D01*
X196589400Y-140743000D02*
X190049400Y-140743000D01*
X190049400Y-143483000D01*
X196589400Y-143483000D01*
X196589400Y-140743000D01*
%TO.C,Y1*%
X200511000Y-134187000D02*
X200511000Y-140587000D01*
X205381000Y-140587000D02*
X205381000Y-134187000D01*
X200511000Y-134187000D02*
G75*
G02*
X205381000Y-134187000I2435000J0D01*
G01*
X205381000Y-140587000D02*
G75*
G02*
X200511000Y-140587000I-2435000J0D01*
G01*
%TO.C,U7*%
X189678000Y-170597000D02*
X225358000Y-170597000D01*
X189678000Y-175097000D02*
X189678000Y-170597000D01*
X225358000Y-170597000D02*
X225358000Y-171847000D01*
X225358000Y-173847000D02*
X225358000Y-175097000D01*
X225358000Y-175097000D02*
X189678000Y-175097000D01*
X225418000Y-178097000D02*
X189618000Y-178097000D01*
X189618000Y-167597000D01*
X225418000Y-167597000D01*
X225418000Y-178097000D01*
X225358000Y-173847000D02*
G75*
G02*
X225358000Y-171847000I0J1000000D01*
G01*
%TO.C,J10*%
X234820000Y-70979600D02*
X234820000Y-80099600D01*
X234820000Y-80099600D02*
X263020000Y-80099600D01*
X236120000Y-72289600D02*
X236120000Y-78789600D01*
X236120000Y-78789600D02*
X246870000Y-78789600D01*
X246870000Y-78789600D02*
X246870000Y-80099600D01*
X250970000Y-78789600D02*
X261720000Y-78789600D01*
X250970000Y-80099600D02*
X250970000Y-78789600D01*
X257310000Y-81489600D02*
X257810000Y-80489600D01*
X257810000Y-80489600D02*
X258310000Y-81489600D01*
X258310000Y-81489600D02*
X257310000Y-81489600D01*
X261720000Y-72289600D02*
X236120000Y-72289600D01*
X261720000Y-78789600D02*
X261720000Y-72289600D01*
X263020000Y-70979600D02*
X234820000Y-70979600D01*
X263020000Y-80099600D02*
X263020000Y-70979600D01*
%TO.C,C9*%
X189820000Y-151363000D02*
X189820000Y-152167000D01*
X189860000Y-151132000D02*
X189860000Y-152398000D01*
X189900000Y-150964000D02*
X189900000Y-152566000D01*
X189940000Y-150826000D02*
X189940000Y-152704000D01*
X189980000Y-150707000D02*
X189980000Y-152823000D01*
X190020000Y-150600000D02*
X190020000Y-152930000D01*
X190060000Y-150504000D02*
X190060000Y-153026000D01*
X190100000Y-150415000D02*
X190100000Y-153115000D01*
X190140000Y-150333000D02*
X190140000Y-153197000D01*
X190180000Y-150256000D02*
X190180000Y-153274000D01*
X190220000Y-150184000D02*
X190220000Y-153346000D01*
X190260000Y-150116000D02*
X190260000Y-153414000D01*
X190300000Y-150051000D02*
X190300000Y-153479000D01*
X190340000Y-149990000D02*
X190340000Y-153540000D01*
X190380000Y-149931000D02*
X190380000Y-153599000D01*
X190420000Y-149875000D02*
X190420000Y-153655000D01*
X190460000Y-149822000D02*
X190460000Y-153708000D01*
X190500000Y-149770000D02*
X190500000Y-153760000D01*
X190540000Y-149721000D02*
X190540000Y-153809000D01*
X190580000Y-149674000D02*
X190580000Y-153856000D01*
X190620000Y-149628000D02*
X190620000Y-153902000D01*
X190660000Y-149584000D02*
X190660000Y-153946000D01*
X190700000Y-149542000D02*
X190700000Y-153988000D01*
X190740000Y-149501000D02*
X190740000Y-154029000D01*
X190780000Y-149461000D02*
X190780000Y-150725000D01*
X190780000Y-152805000D02*
X190780000Y-154069000D01*
X190820000Y-149423000D02*
X190820000Y-150725000D01*
X190820000Y-152805000D02*
X190820000Y-154107000D01*
X190860000Y-149386000D02*
X190860000Y-150725000D01*
X190860000Y-152805000D02*
X190860000Y-154144000D01*
X190900000Y-149350000D02*
X190900000Y-150725000D01*
X190900000Y-152805000D02*
X190900000Y-154180000D01*
X190940000Y-149315000D02*
X190940000Y-150725000D01*
X190940000Y-152805000D02*
X190940000Y-154215000D01*
X190980000Y-149282000D02*
X190980000Y-150725000D01*
X190980000Y-152805000D02*
X190980000Y-154248000D01*
X191020000Y-149249000D02*
X191020000Y-150725000D01*
X191020000Y-152805000D02*
X191020000Y-154281000D01*
X191060000Y-149218000D02*
X191060000Y-150725000D01*
X191060000Y-152805000D02*
X191060000Y-154312000D01*
X191100000Y-149188000D02*
X191100000Y-150725000D01*
X191100000Y-152805000D02*
X191100000Y-154342000D01*
X191140000Y-149158000D02*
X191140000Y-150725000D01*
X191140000Y-152805000D02*
X191140000Y-154372000D01*
X191180000Y-149129000D02*
X191180000Y-150725000D01*
X191180000Y-152805000D02*
X191180000Y-154401000D01*
X191220000Y-149102000D02*
X191220000Y-150725000D01*
X191220000Y-152805000D02*
X191220000Y-154428000D01*
X191260000Y-149075000D02*
X191260000Y-150725000D01*
X191260000Y-152805000D02*
X191260000Y-154455000D01*
X191300000Y-149049000D02*
X191300000Y-150725000D01*
X191300000Y-152805000D02*
X191300000Y-154481000D01*
X191340000Y-149024000D02*
X191340000Y-150725000D01*
X191340000Y-152805000D02*
X191340000Y-154506000D01*
X191380000Y-149000000D02*
X191380000Y-150725000D01*
X191380000Y-152805000D02*
X191380000Y-154530000D01*
X191420000Y-148976000D02*
X191420000Y-150725000D01*
X191420000Y-152805000D02*
X191420000Y-154554000D01*
X191460000Y-148953000D02*
X191460000Y-150725000D01*
X191460000Y-152805000D02*
X191460000Y-154577000D01*
X191500000Y-148931000D02*
X191500000Y-150725000D01*
X191500000Y-152805000D02*
X191500000Y-154599000D01*
X191540000Y-148910000D02*
X191540000Y-150725000D01*
X191540000Y-152805000D02*
X191540000Y-154620000D01*
X191580000Y-148889000D02*
X191580000Y-150725000D01*
X191580000Y-152805000D02*
X191580000Y-154641000D01*
X191620000Y-148869000D02*
X191620000Y-150725000D01*
X191620000Y-152805000D02*
X191620000Y-154661000D01*
X191660000Y-148850000D02*
X191660000Y-150725000D01*
X191660000Y-152805000D02*
X191660000Y-154680000D01*
X191700000Y-148831000D02*
X191700000Y-150725000D01*
X191700000Y-152805000D02*
X191700000Y-154699000D01*
X191740000Y-148813000D02*
X191740000Y-150725000D01*
X191740000Y-152805000D02*
X191740000Y-154717000D01*
X191780000Y-148796000D02*
X191780000Y-150725000D01*
X191780000Y-152805000D02*
X191780000Y-154734000D01*
X191820000Y-148779000D02*
X191820000Y-150725000D01*
X191820000Y-152805000D02*
X191820000Y-154751000D01*
X191860000Y-148763000D02*
X191860000Y-150725000D01*
X191860000Y-152805000D02*
X191860000Y-154767000D01*
X191900000Y-148748000D02*
X191900000Y-150725000D01*
X191900000Y-152805000D02*
X191900000Y-154782000D01*
X191940000Y-148733000D02*
X191940000Y-150725000D01*
X191940000Y-152805000D02*
X191940000Y-154797000D01*
X191980000Y-148718000D02*
X191980000Y-150725000D01*
X191980000Y-152805000D02*
X191980000Y-154812000D01*
X192020000Y-148705000D02*
X192020000Y-150725000D01*
X192020000Y-152805000D02*
X192020000Y-154825000D01*
X192060000Y-148692000D02*
X192060000Y-150725000D01*
X192060000Y-152805000D02*
X192060000Y-154838000D01*
X192100000Y-148679000D02*
X192100000Y-150725000D01*
X192100000Y-152805000D02*
X192100000Y-154851000D01*
X192140000Y-148667000D02*
X192140000Y-150725000D01*
X192140000Y-152805000D02*
X192140000Y-154863000D01*
X192180000Y-148656000D02*
X192180000Y-150725000D01*
X192180000Y-152805000D02*
X192180000Y-154874000D01*
X192220000Y-148645000D02*
X192220000Y-150725000D01*
X192220000Y-152805000D02*
X192220000Y-154885000D01*
X192260000Y-148634000D02*
X192260000Y-150725000D01*
X192260000Y-152805000D02*
X192260000Y-154896000D01*
X192300000Y-148625000D02*
X192300000Y-150725000D01*
X192300000Y-152805000D02*
X192300000Y-154905000D01*
X192340000Y-148615000D02*
X192340000Y-150725000D01*
X192340000Y-152805000D02*
X192340000Y-154915000D01*
X192380000Y-148606000D02*
X192380000Y-150725000D01*
X192380000Y-152805000D02*
X192380000Y-154924000D01*
X192420000Y-148598000D02*
X192420000Y-150725000D01*
X192420000Y-152805000D02*
X192420000Y-154932000D01*
X192460000Y-148591000D02*
X192460000Y-150725000D01*
X192460000Y-152805000D02*
X192460000Y-154939000D01*
X192500000Y-148583000D02*
X192500000Y-150725000D01*
X192500000Y-152805000D02*
X192500000Y-154947000D01*
X192540000Y-148577000D02*
X192540000Y-150725000D01*
X192540000Y-152805000D02*
X192540000Y-154953000D01*
X192580000Y-148570000D02*
X192580000Y-150725000D01*
X192580000Y-152805000D02*
X192580000Y-154960000D01*
X192620000Y-148565000D02*
X192620000Y-150725000D01*
X192620000Y-152805000D02*
X192620000Y-154965000D01*
X192660000Y-148560000D02*
X192660000Y-150725000D01*
X192660000Y-152805000D02*
X192660000Y-154970000D01*
X192700000Y-148555000D02*
X192700000Y-150725000D01*
X192700000Y-152805000D02*
X192700000Y-154975000D01*
X192740000Y-148551000D02*
X192740000Y-150725000D01*
X192740000Y-152805000D02*
X192740000Y-154979000D01*
X192780000Y-148547000D02*
X192780000Y-150725000D01*
X192780000Y-152805000D02*
X192780000Y-154983000D01*
X192820000Y-148544000D02*
X192820000Y-150725000D01*
X192820000Y-152805000D02*
X192820000Y-154986000D01*
X192860000Y-148541000D02*
X192860000Y-154989000D01*
X192900000Y-148539000D02*
X192900000Y-154991000D01*
X192940000Y-148537000D02*
X192940000Y-154993000D01*
X192980000Y-148536000D02*
X192980000Y-154994000D01*
X193020000Y-148535000D02*
X193020000Y-154995000D01*
X193060000Y-148535000D02*
X193060000Y-154995000D01*
X196245241Y-149611000D02*
X196245241Y-150241000D01*
X196560241Y-149926000D02*
X195930241Y-149926000D01*
X196330000Y-151765000D02*
G75*
G02*
X189790000Y-151765000I-3270000J0D01*
G01*
X189790000Y-151765000D02*
G75*
G02*
X196330000Y-151765000I3270000J0D01*
G01*
%TO.C,D7*%
X189254000Y-145161000D02*
X191174000Y-145161000D01*
X191774000Y-146281000D02*
X191774000Y-144041000D01*
X191894000Y-146281000D02*
X191894000Y-144041000D01*
X192014000Y-146281000D02*
X192014000Y-144041000D01*
X197334000Y-145161000D02*
X195414000Y-145161000D01*
X191174000Y-146281000D02*
X195414000Y-146281000D01*
X195414000Y-144041000D01*
X191174000Y-144041000D01*
X191174000Y-146281000D01*
%TO.C,JP1*%
X82948000Y-142321000D02*
X82948000Y-143701000D01*
X84328000Y-142321000D02*
X82948000Y-142321000D01*
X85598000Y-142321000D02*
X85598000Y-145081000D01*
X85598000Y-142321000D02*
X90788000Y-142321000D01*
X85598000Y-145081000D02*
X90788000Y-145081000D01*
X90788000Y-142321000D02*
X90788000Y-145081000D01*
%TO.C,R20*%
X189342000Y-138811000D02*
X190112000Y-138811000D01*
X197422000Y-138811000D02*
X196652000Y-138811000D01*
X190112000Y-140181000D02*
X196652000Y-140181000D01*
X196652000Y-137441000D01*
X190112000Y-137441000D01*
X190112000Y-140181000D01*
%TO.C,J8*%
X256684000Y-151511000D02*
X256684000Y-154161000D01*
X259444000Y-148861000D02*
X258064000Y-148861000D01*
X259444000Y-150241000D02*
X259444000Y-148861000D01*
X259444000Y-151511000D02*
X256684000Y-151511000D01*
X259444000Y-151511000D02*
X259444000Y-154161000D01*
X259444000Y-154161000D02*
X256684000Y-154161000D01*
%TO.C,JP2*%
X82948000Y-146321000D02*
X82948000Y-147701000D01*
X84328000Y-146321000D02*
X82948000Y-146321000D01*
X85598000Y-146321000D02*
X85598000Y-149081000D01*
X85598000Y-146321000D02*
X90788000Y-146321000D01*
X85598000Y-149081000D02*
X90788000Y-149081000D01*
X90788000Y-146321000D02*
X90788000Y-149081000D01*
%TD*%
M02*
