M48
; DRILL file KiCad 10.0.3 date 2026-05-25T21:33:35
; FORMAT={-:-/ absolute / metric / decimal}
; #@! TF.CreationDate,2026-05-25T21:33:35+03:00
; #@! TF.GenerationSoftware,Kicad,Pcbnew,10.0.3
; #@! TF.FileFunction,NonPlated,1,2,NPTH
FMAT,2
METRIC
; #@! TA.AperFunction,NonPlated,NPTH,ComponentDrill
T1C0.500
; #@! TA.AperFunction,NonPlated,NPTH,ComponentDrill
T2C3.200
; #@! TA.AperFunction,NonPlated,NPTH,ComponentDrill
T3C3.500
%
G90
G05
T1
X75.216Y-123.408
X75.216Y-125.608
X76.016Y-123.408
X76.016Y-125.608
X76.816Y-123.408
X76.816Y-125.608
X77.616Y-123.408
X77.616Y-125.608
X78.416Y-123.408
X78.416Y-125.608
X79.216Y-123.408
X79.216Y-125.608
X102.721Y-123.408
X102.721Y-125.608
X103.521Y-123.408
X103.521Y-125.608
X104.321Y-123.408
X104.321Y-125.608
X105.121Y-123.408
X105.121Y-125.608
X105.921Y-123.408
X105.921Y-125.608
X106.721Y-123.408
X106.721Y-125.608
X130.225Y-123.408
X130.225Y-125.608
X131.025Y-123.408
X131.025Y-125.608
X131.825Y-123.408
X131.825Y-125.608
X132.625Y-123.408
X132.625Y-125.608
X133.425Y-123.408
X133.425Y-125.608
X134.225Y-123.408
X134.225Y-125.608
X157.73Y-123.408
X157.73Y-125.608
X158.53Y-123.408
X158.53Y-125.608
X159.33Y-123.408
X159.33Y-125.608
X160.13Y-123.408
X160.13Y-125.608
X160.93Y-123.408
X160.93Y-125.608
X161.73Y-123.408
X161.73Y-125.608
X185.234Y-123.408
X185.234Y-125.608
X186.034Y-123.408
X186.034Y-125.608
X186.834Y-123.408
X186.834Y-125.608
X187.634Y-123.408
X187.634Y-125.608
X188.434Y-123.408
X188.434Y-125.608
X189.234Y-123.408
X189.234Y-125.608
X212.739Y-123.408
X212.739Y-125.608
X213.539Y-123.408
X213.539Y-125.608
X214.339Y-123.408
X214.339Y-125.608
X215.139Y-123.408
X215.139Y-125.608
X215.939Y-123.408
X215.939Y-125.608
X216.739Y-123.408
X216.739Y-125.608
X240.243Y-123.408
X240.243Y-125.608
X241.043Y-123.408
X241.043Y-125.608
X241.843Y-123.408
X241.843Y-125.608
X242.643Y-123.408
X242.643Y-125.608
X243.443Y-123.408
X243.443Y-125.608
X244.243Y-123.408
X244.243Y-125.608
X267.748Y-123.408
X267.748Y-125.608
X268.548Y-123.408
X268.548Y-125.608
X269.348Y-123.408
X269.348Y-125.608
X270.148Y-123.408
X270.148Y-125.608
X270.948Y-123.408
X270.948Y-125.608
X271.748Y-123.408
X271.748Y-125.608
T2
X77.616Y-68.564
X77.616Y-119.008
X77.616Y-130.008
X77.616Y-180.452
X269.348Y-68.564
X269.348Y-119.008
X269.348Y-130.008
X269.348Y-180.452
T3
X128.473Y-157.771
X146.456Y-173.672
X165.303Y-173.672
M30
