%TF.GenerationSoftware,KiCad,Pcbnew,10.0.3*%
%TF.CreationDate,2026-05-25T21:33:33+03:00*%
%TF.ProjectId,8080clock,38303830-636c-46f6-936b-2e6b69636164,rev?*%
%TF.SameCoordinates,Original*%
%TF.FileFunction,Copper,L2,Bot*%
%TF.FilePolarity,Positive*%
%FSLAX46Y46*%
G04 Gerber Fmt 4.6, Leading zero omitted, Abs format (unit mm)*
G04 Created by KiCad (PCBNEW 10.0.3) date 2026-05-25 21:33:33*
%MOMM*%
%LPD*%
G01*
G04 APERTURE LIST*
G04 Aperture macros list*
%AMRoundRect*
0 Rectangle with rounded corners*
0 $1 Rounding radius*
0 $2 $3 $4 $5 $6 $7 $8 $9 X,Y pos of 4 corners*
0 Add a 4 corners polygon primitive as box body*
4,1,4,$2,$3,$4,$5,$6,$7,$8,$9,$2,$3,0*
0 Add four circle primitives for the rounded corners*
1,1,$1+$1,$2,$3*
1,1,$1+$1,$4,$5*
1,1,$1+$1,$6,$7*
1,1,$1+$1,$8,$9*
0 Add four rect primitives between the rounded corners*
20,1,$1+$1,$2,$3,$4,$5,0*
20,1,$1+$1,$4,$5,$6,$7,0*
20,1,$1+$1,$6,$7,$8,$9,0*
20,1,$1+$1,$8,$9,$2,$3,0*%
G04 Aperture macros list end*
%TA.AperFunction,ComponentPad*%
%ADD10C,1.400000*%
%TD*%
%TA.AperFunction,ComponentPad*%
%ADD11C,1.600000*%
%TD*%
%TA.AperFunction,ComponentPad*%
%ADD12RoundRect,0.250000X-0.550000X0.550000X-0.550000X-0.550000X0.550000X-0.550000X0.550000X0.550000X0*%
%TD*%
%TA.AperFunction,ComponentPad*%
%ADD13C,2.000000*%
%TD*%
%TA.AperFunction,ComponentPad*%
%ADD14R,2.000000X2.000000*%
%TD*%
%TA.AperFunction,ComponentPad*%
%ADD15RoundRect,0.250000X0.550000X-0.950000X0.550000X0.950000X-0.550000X0.950000X-0.550000X-0.950000X0*%
%TD*%
%TA.AperFunction,ComponentPad*%
%ADD16O,1.600000X2.400000*%
%TD*%
%TA.AperFunction,ComponentPad*%
%ADD17R,1.905000X2.000000*%
%TD*%
%TA.AperFunction,ComponentPad*%
%ADD18O,1.905000X2.000000*%
%TD*%
%TA.AperFunction,ComponentPad*%
%ADD19O,1.600000X1.600000*%
%TD*%
%TA.AperFunction,ComponentPad*%
%ADD20R,1.800000X1.800000*%
%TD*%
%TA.AperFunction,ComponentPad*%
%ADD21C,1.800000*%
%TD*%
%TA.AperFunction,ComponentPad*%
%ADD22RoundRect,0.250000X0.950000X0.550000X-0.950000X0.550000X-0.950000X-0.550000X0.950000X-0.550000X0*%
%TD*%
%TA.AperFunction,ComponentPad*%
%ADD23O,2.400000X1.600000*%
%TD*%
%TA.AperFunction,ComponentPad*%
%ADD24RoundRect,0.250000X0.550000X0.550000X-0.550000X0.550000X-0.550000X-0.550000X0.550000X-0.550000X0*%
%TD*%
%TA.AperFunction,ComponentPad*%
%ADD25R,2.000000X4.600000*%
%TD*%
%TA.AperFunction,ComponentPad*%
%ADD26O,2.000000X4.200000*%
%TD*%
%TA.AperFunction,ComponentPad*%
%ADD27O,4.200000X2.000000*%
%TD*%
%TA.AperFunction,ComponentPad*%
%ADD28R,1.700000X1.700000*%
%TD*%
%TA.AperFunction,ComponentPad*%
%ADD29C,1.700000*%
%TD*%
%TA.AperFunction,ComponentPad*%
%ADD30RoundRect,0.250000X-0.550000X-0.550000X0.550000X-0.550000X0.550000X0.550000X-0.550000X0.550000X0*%
%TD*%
%TA.AperFunction,ComponentPad*%
%ADD31RoundRect,0.250000X-0.950000X-0.550000X0.950000X-0.550000X0.950000X0.550000X-0.950000X0.550000X0*%
%TD*%
%TA.AperFunction,ComponentPad*%
%ADD32C,1.000000*%
%TD*%
%TA.AperFunction,ComponentPad*%
%ADD33R,1.500000X1.050000*%
%TD*%
%TA.AperFunction,ComponentPad*%
%ADD34O,1.500000X1.050000*%
%TD*%
%TA.AperFunction,ComponentPad*%
%ADD35RoundRect,0.250000X0.550000X-0.550000X0.550000X0.550000X-0.550000X0.550000X-0.550000X-0.550000X0*%
%TD*%
%TA.AperFunction,ComponentPad*%
%ADD36R,1.600000X1.600000*%
%TD*%
%TA.AperFunction,ComponentPad*%
%ADD37RoundRect,0.250000X0.600000X-0.600000X0.600000X0.600000X-0.600000X0.600000X-0.600000X-0.600000X0*%
%TD*%
%TA.AperFunction,ComponentPad*%
%ADD38C,1.500000*%
%TD*%
%TA.AperFunction,ViaPad*%
%ADD39C,0.600000*%
%TD*%
%TA.AperFunction,Conductor*%
%ADD40C,0.250000*%
%TD*%
%TA.AperFunction,Conductor*%
%ADD41C,0.800000*%
%TD*%
%TA.AperFunction,Conductor*%
%ADD42C,0.500000*%
%TD*%
%TA.AperFunction,Conductor*%
%ADD43C,1.000000*%
%TD*%
%TA.AperFunction,Conductor*%
%ADD44C,0.400000*%
%TD*%
%TA.AperFunction,Conductor*%
%ADD45C,0.300000*%
%TD*%
G04 APERTURE END LIST*
D10*
%TO.P,JP5,1,A_1*%
%TO.N,Net-(D6-K)*%
X180662600Y-138911200D03*
%TO.P,JP5,2,B_2*%
%TO.N,Net-(JP5-B)*%
X180662600Y-141451200D03*
%TD*%
D11*
%TO.P,C3,1*%
%TO.N,GND*%
X201157200Y-155472000D03*
%TO.P,C3,2*%
%TO.N,Net-(U1-THR)*%
X206157200Y-155472000D03*
%TD*%
D12*
%TO.P,D8,1,K_1*%
%TO.N,Net-(D8-K)*%
X217652600Y-149249000D03*
D11*
%TO.P,D8,2,A_2*%
%TO.N,Net-(D8-A)*%
X217652600Y-159409000D03*
%TD*%
D13*
%TO.P,SW1,1,1_1*%
%TO.N,GND*%
X212444400Y-179007200D03*
X205944400Y-179007200D03*
%TO.P,SW1,2,2_2*%
%TO.N,BTN1*%
X212444400Y-174507200D03*
X205944400Y-174507200D03*
%TD*%
D14*
%TO.P,LS1,1,1_1*%
%TO.N,LS1*%
X247040400Y-162248400D03*
D13*
%TO.P,LS1,2,2_2*%
%TO.N,GND*%
X247040400Y-169848400D03*
%TD*%
D15*
%TO.P,U8,1,VPP_1*%
%TO.N,+5MAIN*%
X81280000Y-88877000D03*
D16*
%TO.P,U8,2,A12_2*%
%TO.N,/CPU/A12*%
X83820000Y-88877000D03*
%TO.P,U8,3,A7_3*%
%TO.N,/CPU/A7*%
X86360000Y-88877000D03*
%TO.P,U8,4,A6_4*%
%TO.N,/CPU/A6*%
X88900000Y-88877000D03*
%TO.P,U8,5,A5_5*%
%TO.N,/CPU/A5*%
X91440000Y-88877000D03*
%TO.P,U8,6,A4_6*%
%TO.N,/CPU/A4*%
X93980000Y-88877000D03*
%TO.P,U8,7,A3_7*%
%TO.N,/CPU/A3*%
X96520000Y-88877000D03*
%TO.P,U8,8,A2_8*%
%TO.N,/CPU/A2*%
X99060000Y-88877000D03*
%TO.P,U8,9,A1_9*%
%TO.N,/CPU/A1*%
X101600000Y-88877000D03*
%TO.P,U8,10,A0_10*%
%TO.N,/CPU/A0*%
X104140000Y-88877000D03*
%TO.P,U8,11,Q0_11*%
%TO.N,/CPU/DB0*%
X106680000Y-88877000D03*
%TO.P,U8,12,Q1_12*%
%TO.N,/CPU/DB1*%
X109220000Y-88877000D03*
%TO.P,U8,13,Q2_13*%
%TO.N,/CPU/DB2*%
X111760000Y-88877000D03*
%TO.P,U8,14,GND_14*%
%TO.N,GND*%
X114300000Y-88877000D03*
%TO.P,U8,15,Q3_15*%
%TO.N,/CPU/DB3*%
X114300000Y-73637000D03*
%TO.P,U8,16,Q4_16*%
%TO.N,/CPU/DB4*%
X111760000Y-73637000D03*
%TO.P,U8,17,Q5_17*%
%TO.N,/CPU/DB5*%
X109220000Y-73637000D03*
%TO.P,U8,18,Q6_18*%
%TO.N,/CPU/DB6*%
X106680000Y-73637000D03*
%TO.P,U8,19,Q7_19*%
%TO.N,/CPU/DB7*%
X104140000Y-73637000D03*
%TO.P,U8,20,~{CE}_20*%
%TO.N,/CPU/A15*%
X101600000Y-73637000D03*
%TO.P,U8,21,A10_21*%
%TO.N,/CPU/A10*%
X99060000Y-73637000D03*
%TO.P,U8,22,~{OE}_22*%
%TO.N,~{MEMR}*%
X96520000Y-73637000D03*
%TO.P,U8,23,A11_23*%
%TO.N,/CPU/A11*%
X93980000Y-73637000D03*
%TO.P,U8,24,A9_24*%
%TO.N,/CPU/A9*%
X91440000Y-73637000D03*
%TO.P,U8,25,A8_25*%
%TO.N,/CPU/A8*%
X88900000Y-73637000D03*
%TO.P,U8,26,A13_26*%
%TO.N,/CPU/A13*%
X86360000Y-73637000D03*
%TO.P,U8,27,A14_27*%
%TO.N,/CPU/A14*%
X83820000Y-73637000D03*
%TO.P,U8,28,VCC_28*%
%TO.N,+5MAIN*%
X81280000Y-73637000D03*
%TD*%
D17*
%TO.P,Q1,1,G_1*%
%TO.N,Net-(Q1-G)*%
X167843200Y-157011600D03*
D18*
%TO.P,Q1,2,D_2*%
%TO.N,+12MAIN*%
X165303200Y-157011600D03*
%TO.P,Q1,3,S_3*%
%TO.N,+12V*%
X162763200Y-157011600D03*
%TD*%
D13*
%TO.P,SW2,1,1_1*%
%TO.N,GND*%
X201269000Y-179007200D03*
X194769000Y-179007200D03*
%TO.P,SW2,2,2_2*%
%TO.N,BTN2*%
X201269000Y-174507200D03*
X194769000Y-174507200D03*
%TD*%
D11*
%TO.P,C25,1*%
%TO.N,GND*%
X217728800Y-140551400D03*
%TO.P,C25,2*%
%TO.N,Net-(D8-K)*%
X217728800Y-145551400D03*
%TD*%
%TO.P,R12,1*%
%TO.N,Net-(C17-Pad1)*%
X96012000Y-181100600D03*
%TO.P,R12,2*%
%TO.N,Net-(U3-COMP)*%
X96012000Y-170940600D03*
%TD*%
D19*
%TO.P,SCR1,*%
%TO.N,*%
X217478000Y-69951000D03*
X217478000Y-118211000D03*
X220018000Y-118211000D03*
X235258000Y-69951000D03*
X240338000Y-69951000D03*
X247958000Y-69951000D03*
X254558000Y-118211000D03*
X257098000Y-118211000D03*
%TO.P,SCR1,1,5V_1*%
%TO.N,+5MAIN*%
X242878000Y-69951000D03*
%TO.P,SCR1,2,3V3_2*%
%TO.N,unconnected-(SCR1-3V3-Pad2)*%
X245418000Y-69951000D03*
%TO.P,SCR1,3,GND_3*%
%TO.N,GND*%
X237798000Y-69951000D03*
%TO.P,SCR1,4,LCD_D0_4*%
%TO.N,/CPU/DB0*%
X239318000Y-118211000D03*
%TO.P,SCR1,5,LCD_D1_5*%
%TO.N,/CPU/DB1*%
X241858000Y-118211000D03*
%TO.P,SCR1,6,LCD_D2_6*%
%TO.N,/CPU/DB2*%
X222558000Y-118211000D03*
%TO.P,SCR1,7,LCD_D3_7*%
%TO.N,/CPU/DB3*%
X225098000Y-118211000D03*
%TO.P,SCR1,8,LCD_D4_8*%
%TO.N,/CPU/DB4*%
X227638000Y-118211000D03*
%TO.P,SCR1,9,LCD_D5_9*%
%TO.N,/CPU/DB5*%
X230178000Y-118211000D03*
%TO.P,SCR1,10,LCD_D6_10*%
%TO.N,/CPU/DB6*%
X232718000Y-118211000D03*
%TO.P,SCR1,11,LCD_D7_11*%
%TO.N,/CPU/DB7*%
X235258000Y-118211000D03*
%TO.P,SCR1,12,LCD_RST_12*%
%TO.N,~{RESET}*%
X220018000Y-69951000D03*
%TO.P,SCR1,13,LCD_CS_13*%
%TO.N,~{A4}*%
X222558000Y-69951000D03*
%TO.P,SCR1,14,LCD_RS_14*%
%TO.N,/CPU/A0*%
X225098000Y-69951000D03*
%TO.P,SCR1,15,LCD_WR_15*%
%TO.N,~{IOW}*%
X227638000Y-69951000D03*
%TO.P,SCR1,16,LCD_RD_16*%
%TO.N,~{IOR}*%
X230178000Y-69951000D03*
%TO.P,SCR1,17,SD_SS_17*%
%TO.N,unconnected-(SCR1-SD_SS-Pad17)*%
X244398000Y-118211000D03*
%TO.P,SCR1,18,SD_DI_18*%
%TO.N,unconnected-(SCR1-SD_DI-Pad18)*%
X246938000Y-118211000D03*
%TO.P,SCR1,19,SD_DO_19*%
%TO.N,unconnected-(SCR1-SD_DO-Pad19)*%
X249478000Y-118211000D03*
%TO.P,SCR1,20,SD_SCK_20*%
%TO.N,unconnected-(SCR1-SD_SCK-Pad20)*%
X252018000Y-118211000D03*
%TD*%
D11*
%TO.P,C4,1*%
%TO.N,GND*%
X198283200Y-155497400D03*
%TO.P,C4,2*%
%TO.N,Net-(U1-CVOLT)*%
X193283200Y-155497400D03*
%TD*%
%TO.P,R16,1*%
%TO.N,Net-(JP4-B)*%
X171742600Y-138200000D03*
%TO.P,R16,2*%
%TO.N,+12MAIN*%
X171742600Y-148360000D03*
%TD*%
%TO.P,R11,1*%
%TO.N,Net-(U3-RT{slash}CLK)*%
X99901022Y-170940600D03*
%TO.P,R11,2*%
%TO.N,GND*%
X99901022Y-181100600D03*
%TD*%
%TO.P,R14,1*%
%TO.N,Net-(Q1-G)*%
X131013200Y-181100600D03*
%TO.P,R14,2*%
%TO.N,+12V*%
X131013200Y-170940600D03*
%TD*%
D20*
%TO.P,D6,1,K_1*%
%TO.N,Net-(D6-K)*%
X184002600Y-133628000D03*
D21*
%TO.P,D6,2,A_2*%
%TO.N,GND*%
X181462600Y-133628000D03*
%TD*%
D11*
%TO.P,R6,1*%
%TO.N,Net-(U3-PWRGD)*%
X123235156Y-170940600D03*
%TO.P,R6,2*%
%TO.N,Net-(Q3-B)*%
X123235156Y-181100600D03*
%TD*%
%TO.P,R7,1*%
%TO.N,Net-(R7-Pad1)*%
X107679067Y-181100600D03*
%TO.P,R7,2*%
%TO.N,Net-(U3-VSENSE)*%
X107679067Y-170940600D03*
%TD*%
D10*
%TO.P,JP3,1,A_1*%
%TO.N,Net-(D4-A)*%
X155262600Y-138911200D03*
%TO.P,JP3,2,B_2*%
%TO.N,Net-(JP3-B)*%
X155262600Y-141451200D03*
%TD*%
D22*
%TO.P,U1,1,GND_1*%
%TO.N,GND*%
X203606400Y-166890000D03*
D23*
%TO.P,U1,2,TRIG_2*%
%TO.N,Net-(U1-THR)*%
X203606400Y-164350000D03*
%TO.P,U1,3,OUT_3*%
%TO.N,Net-(U1-OUT)*%
X203606400Y-161810000D03*
%TO.P,U1,4,RST_4*%
%TO.N,+12V*%
X203606400Y-159270000D03*
%TO.P,U1,5,CVOLT_5*%
%TO.N,Net-(U1-CVOLT)*%
X195986400Y-159270000D03*
%TO.P,U1,6,THR_6*%
%TO.N,Net-(U1-THR)*%
X195986400Y-161810000D03*
%TO.P,U1,7,DISC_7*%
%TO.N,Net-(U1-DISC)*%
X195986400Y-164350000D03*
%TO.P,U1,8,VCC_8*%
%TO.N,+12V*%
X195986400Y-166890000D03*
%TD*%
D11*
%TO.P,R13,1*%
%TO.N,Net-(Q3-C)*%
X153988667Y-166971600D03*
%TO.P,R13,2*%
%TO.N,Net-(Q2-G)*%
X153988667Y-156811600D03*
%TD*%
D15*
%TO.P,U6,1,~{STSTB}_1*%
%TO.N,Net-(U5-~{STSTB})*%
X81280000Y-113935000D03*
D16*
%TO.P,U6,2,HLDA_2*%
%TO.N,HLDA*%
X83820000Y-113935000D03*
%TO.P,U6,3,~{WR}_3*%
%TO.N,~{WR}*%
X86360000Y-113935000D03*
%TO.P,U6,4,DBIN_4*%
%TO.N,DBIN*%
X88900000Y-113935000D03*
%TO.P,U6,5,DB4_5*%
%TO.N,/CPU/DB4*%
X91440000Y-113935000D03*
%TO.P,U6,6,D4_6*%
%TO.N,/CPU/D4*%
X93980000Y-113935000D03*
%TO.P,U6,7,DB7_7*%
%TO.N,/CPU/DB7*%
X96520000Y-113935000D03*
%TO.P,U6,8,D7_8*%
%TO.N,/CPU/D7*%
X99060000Y-113935000D03*
%TO.P,U6,9,DB3_9*%
%TO.N,/CPU/DB3*%
X101600000Y-113935000D03*
%TO.P,U6,10,D3_10*%
%TO.N,/CPU/D3*%
X104140000Y-113935000D03*
%TO.P,U6,11,DB2_11*%
%TO.N,/CPU/DB2*%
X106680000Y-113935000D03*
%TO.P,U6,12,D2_12*%
%TO.N,/CPU/D2*%
X109220000Y-113935000D03*
%TO.P,U6,13,DB0_13*%
%TO.N,/CPU/DB0*%
X111760000Y-113935000D03*
%TO.P,U6,14,GND_14*%
%TO.N,GND*%
X114300000Y-113935000D03*
%TO.P,U6,15,D0_15*%
%TO.N,/CPU/D0*%
X114300000Y-98695000D03*
%TO.P,U6,16,DB1_16*%
%TO.N,/CPU/DB1*%
X111760000Y-98695000D03*
%TO.P,U6,17,D1_17*%
%TO.N,/CPU/D1*%
X109220000Y-98695000D03*
%TO.P,U6,18,DB5_18*%
%TO.N,/CPU/DB5*%
X106680000Y-98695000D03*
%TO.P,U6,19,D5_19*%
%TO.N,/CPU/D5*%
X104140000Y-98695000D03*
%TO.P,U6,20,DB6_20*%
%TO.N,/CPU/DB6*%
X101600000Y-98695000D03*
%TO.P,U6,21,D6_21*%
%TO.N,/CPU/D6*%
X99060000Y-98695000D03*
%TO.P,U6,22,~{BUSEN}_22*%
%TO.N,GND*%
X96520000Y-98695000D03*
%TO.P,U6,23,~{INTA}_23*%
%TO.N,unconnected-(U6-~{INTA}-Pad23)*%
X93980000Y-98695000D03*
%TO.P,U6,24,~{MEMR}_24*%
%TO.N,~{MEMR}*%
X91440000Y-98695000D03*
%TO.P,U6,25,~{I/OR}_25*%
%TO.N,~{IOR}*%
X88900000Y-98695000D03*
%TO.P,U6,26,~{MEMW}_26*%
%TO.N,~{MEMW}*%
X86360000Y-98695000D03*
%TO.P,U6,27,~{I/OW}_27*%
%TO.N,~{IOW}*%
X83820000Y-98695000D03*
%TO.P,U6,28,VCC_28*%
%TO.N,+5MAIN*%
X81280000Y-98695000D03*
%TD*%
D24*
%TO.P,C1,1*%
%TO.N,+12V*%
X103378000Y-142924400D03*
D11*
%TO.P,C1,2*%
%TO.N,GND*%
X98378000Y-142924400D03*
%TD*%
D17*
%TO.P,Q2,1,G_1*%
%TO.N,Net-(Q2-G)*%
X148996400Y-157011600D03*
D18*
%TO.P,Q2,2,D_2*%
%TO.N,+5MAIN*%
X146456400Y-157011600D03*
%TO.P,Q2,3,S_3*%
%TO.N,+5V*%
X143916400Y-157011600D03*
%TD*%
D11*
%TO.P,R2,1*%
%TO.N,Net-(U1-DISC)*%
X191176600Y-158740000D03*
%TO.P,R2,2*%
%TO.N,Net-(U1-THR)*%
X191176600Y-168900000D03*
%TD*%
D25*
%TO.P,J1,1,1_1*%
%TO.N,+12V*%
X91287600Y-139937600D03*
D26*
%TO.P,J1,2,2_2*%
%TO.N,GND*%
X84987600Y-139937600D03*
D27*
%TO.P,J1,3,3_3*%
X88387600Y-144737600D03*
%TD*%
D11*
%TO.P,R3,1*%
%TO.N,+5V*%
X119346133Y-170940600D03*
%TO.P,R3,2*%
%TO.N,Net-(R3-Pad2)*%
X119346133Y-181100600D03*
%TD*%
D14*
%TO.P,J2,1,+_1*%
%TO.N,Net-(D8-A)*%
X228295200Y-158279745D03*
D13*
%TO.P,J2,2,-_2*%
%TO.N,GND*%
X228295200Y-179079745D03*
%TD*%
D11*
%TO.P,R9,1*%
%TO.N,Net-(R7-Pad1)*%
X103790044Y-181100600D03*
%TO.P,R9,2*%
%TO.N,GND*%
X103790044Y-170940600D03*
%TD*%
D28*
%TO.P,J9,1,Pin_1_1*%
%TO.N,+5MAIN*%
X255828800Y-176748300D03*
D29*
%TO.P,J9,2,Pin_2_2*%
%TO.N,GND*%
X258368800Y-176748300D03*
%TO.P,J9,3,Pin_3_3*%
%TO.N,SCL*%
X260908800Y-176748300D03*
%TO.P,J9,4,Pin_4_4*%
%TO.N,SDA*%
X263448800Y-176748300D03*
%TD*%
D11*
%TO.P,C26,1*%
%TO.N,Net-(U11-OSCI)*%
X238861600Y-145551400D03*
%TO.P,C26,2*%
%TO.N,GND*%
X238861600Y-140551400D03*
%TD*%
%TO.P,C7,1*%
%TO.N,Net-(U3-BOOT)*%
X85993600Y-152728800D03*
%TO.P,C7,2*%
%TO.N,Net-(D3-K)*%
X90993600Y-152728800D03*
%TD*%
D30*
%TO.P,C2,1*%
%TO.N,Net-(U1-OUT)*%
X208472400Y-161771200D03*
D11*
%TO.P,C2,2*%
%TO.N,Net-(D1-K)*%
X210972400Y-161771200D03*
%TD*%
D31*
%TO.P,U5,1,RST_1*%
%TO.N,RESET*%
X175006000Y-73687000D03*
D23*
%TO.P,U5,2,~{RESIN}_2*%
%TO.N,~{RESIN}*%
X175006000Y-76227000D03*
%TO.P,U5,3,RDYIN_3*%
%TO.N,+5MAIN*%
X175006000Y-78767000D03*
%TO.P,U5,4,RDY_4*%
%TO.N,RDY*%
X175006000Y-81307000D03*
%TO.P,U5,5,SYNC_5*%
%TO.N,SYNC*%
X175006000Y-83847000D03*
%TO.P,U5,6,PHI2(TTL)_6*%
%TO.N,unconnected-(U5-PHI2(TTL)-Pad6)*%
X175006000Y-86387000D03*
%TO.P,U5,7,~{STSTB}_7*%
%TO.N,Net-(U5-~{STSTB})*%
X175006000Y-88927000D03*
%TO.P,U5,8,GND_8*%
%TO.N,GND*%
X175006000Y-91467000D03*
%TO.P,U5,9,VDD_9*%
%TO.N,+12MAIN*%
X182626000Y-91467000D03*
%TO.P,U5,10,PHI2_10*%
%TO.N,PHI2*%
X182626000Y-88927000D03*
%TO.P,U5,11,PHI1_11*%
%TO.N,PHI1*%
X182626000Y-86387000D03*
%TO.P,U5,12,OSC_12*%
%TO.N,unconnected-(U5-OSC-Pad12)*%
X182626000Y-83847000D03*
%TO.P,U5,13,TANK_13*%
%TO.N,unconnected-(U5-TANK-Pad13)*%
X182626000Y-81307000D03*
%TO.P,U5,14,XTAL2_14*%
%TO.N,Net-(U5-XTAL2)*%
X182626000Y-78767000D03*
%TO.P,U5,15,XTAL1_15*%
%TO.N,Net-(U5-XTAL1)*%
X182626000Y-76227000D03*
%TO.P,U5,16,VCC_16*%
%TO.N,+5MAIN*%
X182626000Y-73687000D03*
%TD*%
D15*
%TO.P,U10,1,PA3_1*%
%TO.N,55_D3*%
X121400000Y-88877000D03*
D16*
%TO.P,U10,2,PA2_2*%
%TO.N,55_D2*%
X123940000Y-88877000D03*
%TO.P,U10,3,PA1_3*%
%TO.N,55_D1*%
X126480000Y-88877000D03*
%TO.P,U10,4,PA0_4*%
%TO.N,55_D0*%
X129020000Y-88877000D03*
%TO.P,U10,5,~{RD}_5*%
%TO.N,~{IOR}*%
X131560000Y-88877000D03*
%TO.P,U10,6,~{CS}_6*%
%TO.N,/CPU/A4*%
X134100000Y-88877000D03*
%TO.P,U10,7,GND_7*%
%TO.N,GND*%
X136640000Y-88877000D03*
%TO.P,U10,8,A1_8*%
%TO.N,/CPU/A1*%
X139180000Y-88877000D03*
%TO.P,U10,9,A0_9*%
%TO.N,/CPU/A0*%
X141720000Y-88877000D03*
%TO.P,U10,10,PC7_10*%
%TO.N,unconnected-(U10-PC7-Pad10)*%
X144260000Y-88877000D03*
%TO.P,U10,11,PC6_11*%
%TO.N,unconnected-(U10-PC6-Pad11)*%
X146800000Y-88877000D03*
%TO.P,U10,12,PC5_12*%
%TO.N,UNKWN*%
X149340000Y-88877000D03*
%TO.P,U10,13,PC4_13*%
%TO.N,SCL*%
X151880000Y-88877000D03*
%TO.P,U10,14,PC0_14*%
%TO.N,SDA*%
X154420000Y-88877000D03*
%TO.P,U10,15,PC1_15*%
%TO.N,BTN1*%
X156960000Y-88877000D03*
%TO.P,U10,16,PC2_16*%
%TO.N,BTN2*%
X159500000Y-88877000D03*
%TO.P,U10,17,PC3_17*%
%TO.N,BTN3*%
X162040000Y-88877000D03*
%TO.P,U10,18,PB0_18*%
%TO.N,1WIRE*%
X164580000Y-88877000D03*
%TO.P,U10,19,PB1_19*%
%TO.N,unconnected-(U10-PB1-Pad19)*%
X167120000Y-88877000D03*
%TO.P,U10,20,PB2_20*%
%TO.N,unconnected-(U10-PB2-Pad20)*%
X169660000Y-88877000D03*
%TO.P,U10,21,PB3_21*%
%TO.N,unconnected-(U10-PB3-Pad21)*%
X169660000Y-73637000D03*
%TO.P,U10,22,PB4_22*%
%TO.N,unconnected-(U10-PB4-Pad22)*%
X167120000Y-73637000D03*
%TO.P,U10,23,PB5_23*%
%TO.N,unconnected-(U10-PB5-Pad23)*%
X164580000Y-73637000D03*
%TO.P,U10,24,PB6_24*%
%TO.N,unconnected-(U10-PB6-Pad24)*%
X162040000Y-73637000D03*
%TO.P,U10,25,PB7_25*%
%TO.N,unconnected-(U10-PB7-Pad25)*%
X159500000Y-73637000D03*
%TO.P,U10,26,VCC_26*%
%TO.N,+5MAIN*%
X156960000Y-73637000D03*
%TO.P,U10,27,D7_27*%
%TO.N,/CPU/DB7*%
X154420000Y-73637000D03*
%TO.P,U10,28,D6_28*%
%TO.N,/CPU/DB6*%
X151880000Y-73637000D03*
%TO.P,U10,29,D5_29*%
%TO.N,/CPU/DB5*%
X149340000Y-73637000D03*
%TO.P,U10,30,D4_30*%
%TO.N,/CPU/DB4*%
X146800000Y-73637000D03*
%TO.P,U10,31,D3_31*%
%TO.N,/CPU/DB3*%
X144260000Y-73637000D03*
%TO.P,U10,32,D2_32*%
%TO.N,/CPU/DB2*%
X141720000Y-73637000D03*
%TO.P,U10,33,D1_33*%
%TO.N,/CPU/DB1*%
X139180000Y-73637000D03*
%TO.P,U10,34,D0_34*%
%TO.N,/CPU/DB0*%
X136640000Y-73637000D03*
%TO.P,U10,35,RESET_35*%
%TO.N,RESET*%
X134100000Y-73637000D03*
%TO.P,U10,36,~{WR}_36*%
%TO.N,~{IOW}*%
X131560000Y-73637000D03*
%TO.P,U10,37,PA7_37*%
%TO.N,55_D7*%
X129020000Y-73637000D03*
%TO.P,U10,38,PA6_38*%
%TO.N,55_D6*%
X126480000Y-73637000D03*
%TO.P,U10,39,PA5_39*%
%TO.N,55_D5*%
X123940000Y-73637000D03*
%TO.P,U10,40,PA4_40*%
%TO.N,55_D4*%
X121400000Y-73637000D03*
%TD*%
D11*
%TO.P,C13,1*%
%TO.N,Net-(U3-COMP)*%
X91004400Y-148619000D03*
%TO.P,C13,2*%
%TO.N,GND*%
X86004400Y-148619000D03*
%TD*%
%TO.P,C16,1*%
%TO.N,Net-(U3-SS{slash}TR)*%
X83094200Y-162584000D03*
%TO.P,C16,2*%
%TO.N,GND*%
X78094200Y-162584000D03*
%TD*%
D20*
%TO.P,D5,1,K_1*%
%TO.N,GND*%
X171302600Y-133628000D03*
D21*
%TO.P,D5,2,A_2*%
%TO.N,Net-(D5-A)*%
X168762600Y-133628000D03*
%TD*%
D13*
%TO.P,SW4,1,1_1*%
%TO.N,~{RESIN}*%
X243944000Y-174507200D03*
X250444000Y-174507200D03*
%TO.P,SW4,2,2_2*%
%TO.N,GND*%
X243944000Y-179007200D03*
X250444000Y-179007200D03*
%TD*%
D11*
%TO.P,R15,1*%
%TO.N,Net-(JP3-B)*%
X159042600Y-138200000D03*
%TO.P,R15,2*%
%TO.N,+5MAIN*%
X159042600Y-148360000D03*
%TD*%
D24*
%TO.P,C5,1*%
%TO.N,GND*%
X110989808Y-134745600D03*
D11*
%TO.P,C5,2*%
%TO.N,Net-(D1-A)*%
X108489808Y-134745600D03*
%TD*%
%TO.P,R4,1*%
%TO.N,Net-(R3-Pad2)*%
X115457111Y-181100600D03*
%TO.P,R4,2*%
%TO.N,+5V*%
X115457111Y-170940600D03*
%TD*%
D17*
%TO.P,U2,1,GND_1*%
%TO.N,GND*%
X131013200Y-141111200D03*
D18*
%TO.P,U2,2,IN_2*%
%TO.N,Net-(D1-A)*%
X128473200Y-141111200D03*
%TO.P,U2,3,OUT_3*%
%TO.N,-5V*%
X125933200Y-141111200D03*
%TD*%
D24*
%TO.P,D2,1,K_1*%
%TO.N,GND*%
X141071600Y-134745600D03*
D11*
%TO.P,D2,2,A_2*%
%TO.N,Net-(D1-K)*%
X130911600Y-134745600D03*
%TD*%
%TO.P,R1,1*%
%TO.N,+12V*%
X186385200Y-168900000D03*
%TO.P,R1,2*%
%TO.N,Net-(U1-DISC)*%
X186385200Y-158740000D03*
%TD*%
D10*
%TO.P,JP4,1,A_1*%
%TO.N,Net-(D5-A)*%
X167962600Y-138911200D03*
%TO.P,JP4,2,B_2*%
%TO.N,Net-(JP4-B)*%
X167962600Y-141451200D03*
%TD*%
D24*
%TO.P,D1,1,K_1*%
%TO.N,Net-(D1-K)*%
X126300591Y-134745600D03*
D11*
%TO.P,D1,2,A_2*%
%TO.N,Net-(D1-A)*%
X116140591Y-134745600D03*
%TD*%
D22*
%TO.P,U11,1,OSCI_1*%
%TO.N,Net-(U11-OSCI)*%
X232105200Y-150290400D03*
D23*
%TO.P,U11,2,OSCO_2*%
%TO.N,Net-(U11-OSCO)*%
X232105200Y-147750400D03*
%TO.P,U11,3,~{INT}_3*%
%TO.N,unconnected-(U11-~{INT}-Pad3)*%
X232105200Y-145210400D03*
%TO.P,U11,4,Vss_4*%
%TO.N,GND*%
X232105200Y-142670400D03*
%TO.P,U11,5,SDA_5*%
%TO.N,SDA*%
X224485200Y-142670400D03*
%TO.P,U11,6,SCL_6*%
%TO.N,SCL*%
X224485200Y-145210400D03*
%TO.P,U11,7,CLKOUT_7*%
%TO.N,unconnected-(U11-CLKOUT-Pad7)*%
X224485200Y-147750400D03*
%TO.P,U11,8,Vdd_8*%
%TO.N,Net-(D8-K)*%
X224485200Y-150290400D03*
%TD*%
D24*
%TO.P,C8,1*%
%TO.N,+5V*%
X112725200Y-162482400D03*
D11*
%TO.P,C8,2*%
%TO.N,GND*%
X109225200Y-162482400D03*
%TD*%
%TO.P,R8,1*%
%TO.N,Net-(Q3-B)*%
X127124178Y-181100600D03*
%TO.P,R8,2*%
%TO.N,+12V*%
X127124178Y-170940600D03*
%TD*%
D32*
%TO.P,Y2,1,OSC1_1*%
%TO.N,Net-(U11-OSCO)*%
X234645200Y-147750400D03*
%TO.P,Y2,2,OSC2_2*%
%TO.N,Net-(U11-OSCI)*%
X236345200Y-147750400D03*
%TD*%
D11*
%TO.P,R17,1*%
%TO.N,Net-(JP5-B)*%
X184442600Y-138200000D03*
%TO.P,R17,2*%
%TO.N,-5V*%
X184442600Y-148360000D03*
%TD*%
%TO.P,C17,1*%
%TO.N,Net-(C17-Pad1)*%
X83094200Y-166749600D03*
%TO.P,C17,2*%
%TO.N,GND*%
X78094200Y-166749600D03*
%TD*%
D15*
%TO.P,U12,1,A10_1*%
%TO.N,/CPU/A10*%
X121400000Y-113935000D03*
D16*
%TO.P,U12,2,GND_2*%
%TO.N,GND*%
X123940000Y-113935000D03*
%TO.P,U12,3,D4_3*%
%TO.N,/CPU/D4*%
X126480000Y-113935000D03*
%TO.P,U12,4,D5_4*%
%TO.N,/CPU/D5*%
X129020000Y-113935000D03*
%TO.P,U12,5,D6_5*%
%TO.N,/CPU/D6*%
X131560000Y-113935000D03*
%TO.P,U12,6,D7_6*%
%TO.N,/CPU/D7*%
X134100000Y-113935000D03*
%TO.P,U12,7,D3_7*%
%TO.N,/CPU/D3*%
X136640000Y-113935000D03*
%TO.P,U12,8,D2_8*%
%TO.N,/CPU/D2*%
X139180000Y-113935000D03*
%TO.P,U12,9,D1_9*%
%TO.N,/CPU/D1*%
X141720000Y-113935000D03*
%TO.P,U12,10,D0_10*%
%TO.N,/CPU/D0*%
X144260000Y-113935000D03*
%TO.P,U12,11,-5V_11*%
%TO.N,-5V*%
X146800000Y-113935000D03*
%TO.P,U12,12,RESET_12*%
%TO.N,RESET*%
X149340000Y-113935000D03*
%TO.P,U12,13,HOLD_13*%
%TO.N,GND*%
X151880000Y-113935000D03*
%TO.P,U12,14,INT_14*%
X154420000Y-113935000D03*
%TO.P,U12,15,F2_15*%
%TO.N,PHI2*%
X156960000Y-113935000D03*
%TO.P,U12,16,INTE_16*%
%TO.N,INTE*%
X159500000Y-113935000D03*
%TO.P,U12,17,DBIN_17*%
%TO.N,DBIN*%
X162040000Y-113935000D03*
%TO.P,U12,18,WR_18*%
%TO.N,~{WR}*%
X164580000Y-113935000D03*
%TO.P,U12,19,SYNC_19*%
%TO.N,SYNC*%
X167120000Y-113935000D03*
%TO.P,U12,20,+5V_20*%
%TO.N,+5MAIN*%
X169660000Y-113935000D03*
%TO.P,U12,21,HLDA_21*%
%TO.N,HLDA*%
X169660000Y-98695000D03*
%TO.P,U12,22,F1_22*%
%TO.N,PHI1*%
X167120000Y-98695000D03*
%TO.P,U12,23,READY_23*%
%TO.N,RDY*%
X164580000Y-98695000D03*
%TO.P,U12,24,WAIT_24*%
%TO.N,unconnected-(U12-WAIT-Pad24)*%
X162040000Y-98695000D03*
%TO.P,U12,25,A0_25*%
%TO.N,/CPU/A0*%
X159500000Y-98695000D03*
%TO.P,U12,26,A1_26*%
%TO.N,/CPU/A1*%
X156960000Y-98695000D03*
%TO.P,U12,27,A2_27*%
%TO.N,/CPU/A2*%
X154420000Y-98695000D03*
%TO.P,U12,28,+12V_28*%
%TO.N,+12MAIN*%
X151880000Y-98695000D03*
%TO.P,U12,29,A3_29*%
%TO.N,/CPU/A3*%
X149340000Y-98695000D03*
%TO.P,U12,30,A4_30*%
%TO.N,/CPU/A4*%
X146800000Y-98695000D03*
%TO.P,U12,31,A5_31*%
%TO.N,/CPU/A5*%
X144260000Y-98695000D03*
%TO.P,U12,32,A6_32*%
%TO.N,/CPU/A6*%
X141720000Y-98695000D03*
%TO.P,U12,33,A7_33*%
%TO.N,/CPU/A7*%
X139180000Y-98695000D03*
%TO.P,U12,34,A8_34*%
%TO.N,/CPU/A8*%
X136640000Y-98695000D03*
%TO.P,U12,35,A9_35*%
%TO.N,/CPU/A9*%
X134100000Y-98695000D03*
%TO.P,U12,36,A15_36*%
%TO.N,/CPU/A15*%
X131560000Y-98695000D03*
%TO.P,U12,37,A12_37*%
%TO.N,/CPU/A12*%
X129020000Y-98695000D03*
%TO.P,U12,38,A13_38*%
%TO.N,/CPU/A13*%
X126480000Y-98695000D03*
%TO.P,U12,39,A14_39*%
%TO.N,/CPU/A14*%
X123940000Y-98695000D03*
%TO.P,U12,40,A11_40*%
%TO.N,/CPU/A11*%
X121400000Y-98695000D03*
%TD*%
D33*
%TO.P,Q3,1,C_1*%
%TO.N,Net-(Q3-C)*%
X110845600Y-151346400D03*
D34*
%TO.P,Q3,2,B_2*%
%TO.N,Net-(Q3-B)*%
X110845600Y-152616400D03*
%TO.P,Q3,3,E_3*%
%TO.N,GND*%
X110845600Y-153886400D03*
%TD*%
D11*
%TO.P,R10,1*%
%TO.N,Net-(Q3-C)*%
X157770933Y-166971600D03*
%TO.P,R10,2*%
%TO.N,Net-(Q1-G)*%
X157770933Y-156811600D03*
%TD*%
%TO.P,R5,1*%
%TO.N,Net-(U3-VSENSE)*%
X111568089Y-170940600D03*
%TO.P,R5,2*%
%TO.N,Net-(R3-Pad2)*%
X111568089Y-181100600D03*
%TD*%
D24*
%TO.P,C6,1*%
%TO.N,GND*%
X148632608Y-134745600D03*
D11*
%TO.P,C6,2*%
%TO.N,-5V*%
X146132608Y-134745600D03*
%TD*%
D20*
%TO.P,D4,1,K_1*%
%TO.N,GND*%
X158602600Y-133628000D03*
D21*
%TO.P,D4,2,A_2*%
%TO.N,Net-(D4-A)*%
X156062600Y-133628000D03*
%TD*%
D13*
%TO.P,SW3,1,1_1*%
%TO.N,GND*%
X190093600Y-179007200D03*
X183593600Y-179007200D03*
%TO.P,SW3,2,2_2*%
%TO.N,BTN3*%
X190093600Y-174507200D03*
X183593600Y-174507200D03*
%TD*%
D15*
%TO.P,U9,1,A_1*%
%TO.N,/CPU/A15*%
X231648000Y-103069000D03*
D16*
%TO.P,U9,2,Y_2*%
%TO.N,Net-(U7-~{CE})*%
X234188000Y-103069000D03*
%TO.P,U9,3,A_3*%
%TO.N,/CPU/A4*%
X236728000Y-103069000D03*
%TO.P,U9,4,Y_4*%
%TO.N,~{A4}*%
X239268000Y-103069000D03*
%TO.P,U9,5,A_5*%
%TO.N,INTE*%
X241808000Y-103069000D03*
%TO.P,U9,6,Y_6*%
%TO.N,Net-(U9C-Y)*%
X244348000Y-103069000D03*
%TO.P,U9,7,GND_7*%
%TO.N,GND*%
X246888000Y-103069000D03*
%TO.P,U9,8,Y_8*%
%TO.N,LS1*%
X246888000Y-95449000D03*
%TO.P,U9,9,A_9*%
%TO.N,Net-(U9C-Y)*%
X244348000Y-95449000D03*
%TO.P,U9,10,Y_10*%
%TO.N,~{RESET}*%
X241808000Y-95449000D03*
%TO.P,U9,11,A_11*%
%TO.N,RESET*%
X239268000Y-95449000D03*
%TO.P,U9,12*%
%TO.N,N/C*%
X236728000Y-95449000D03*
%TO.P,U9,13*%
X234188000Y-95449000D03*
%TO.P,U9,14,VCC_14*%
%TO.N,+5MAIN*%
X231648000Y-95449000D03*
%TD*%
D35*
%TO.P,D9,1,K_1*%
%TO.N,Net-(D8-K)*%
X238861600Y-159409000D03*
D11*
%TO.P,D9,2,A_2*%
%TO.N,+5MAIN*%
X238861600Y-149249000D03*
%TD*%
%TO.P,C27,1*%
%TO.N,Net-(Y1-OSC2)*%
X198577200Y-69798800D03*
%TO.P,C27,2*%
%TO.N,Net-(U5-XTAL1)*%
X198577200Y-74798800D03*
%TD*%
%TO.P,C22,1*%
%TO.N,+5MAIN*%
X250190000Y-98043600D03*
%TO.P,C22,2*%
%TO.N,GND*%
X250190000Y-103043600D03*
%TD*%
D28*
%TO.P,J7,1,Pin_1_1*%
%TO.N,1WIRE*%
X253474000Y-85797000D03*
D29*
%TO.P,J7,2,Pin_2_2*%
%TO.N,GND*%
X253474000Y-88337000D03*
%TD*%
D11*
%TO.P,C31,1*%
%TO.N,GND*%
X228041200Y-109720000D03*
%TO.P,C31,2*%
%TO.N,+5MAIN*%
X228041200Y-104720000D03*
%TD*%
D36*
%TO.P,RN1,1,common_1*%
%TO.N,+5MAIN*%
X167132000Y-85466800D03*
D11*
%TO.P,RN1,2,R1_2*%
%TO.N,1WIRE*%
X164592000Y-85466800D03*
%TO.P,RN1,3,R2_3*%
%TO.N,BTN3*%
X162052000Y-85466800D03*
%TO.P,RN1,4,R3_4*%
%TO.N,BTN2*%
X159512000Y-85466800D03*
%TO.P,RN1,5,R4_5*%
%TO.N,BTN1*%
X156972000Y-85466800D03*
%TO.P,RN1,6,R5_6*%
%TO.N,SDA*%
X154432000Y-85466800D03*
%TO.P,RN1,7,R6_7*%
%TO.N,SCL*%
X151892000Y-85466800D03*
%TO.P,RN1,8,R7_8*%
%TO.N,unconnected-(RN1-R7-Pad8)*%
X149352000Y-85466800D03*
%TO.P,RN1,9,R8_9*%
%TO.N,unconnected-(RN1-R8-Pad9)*%
X146812000Y-85466800D03*
%TO.P,RN1,10,R9_10*%
%TO.N,unconnected-(RN1-R9-Pad10)*%
X144272000Y-85466800D03*
%TD*%
%TO.P,C30,1*%
%TO.N,GND*%
X237834800Y-72512800D03*
%TO.P,C30,2*%
%TO.N,+5MAIN*%
X242834800Y-72512800D03*
%TD*%
D37*
%TO.P,J6,1,Pin_1_1*%
%TO.N,-5V*%
X257810000Y-112467000D03*
D29*
%TO.P,J6,2,Pin_2_2*%
%TO.N,GND*%
X257810000Y-109927000D03*
%TO.P,J6,3,Pin_3_3*%
%TO.N,+12MAIN*%
X255270000Y-112467000D03*
%TO.P,J6,4,Pin_4_4*%
%TO.N,GND*%
X255270000Y-109927000D03*
%TO.P,J6,5,Pin_5_5*%
%TO.N,+5MAIN*%
X252730000Y-112467000D03*
%TO.P,J6,6,Pin_6_6*%
%TO.N,GND*%
X252730000Y-109927000D03*
%TO.P,J6,7,Pin_7_7*%
%TO.N,+5MAIN*%
X250190000Y-112467000D03*
%TO.P,J6,8,Pin_8_8*%
%TO.N,GND*%
X250190000Y-109927000D03*
%TO.P,J6,9,Pin_9_9*%
%TO.N,+5MAIN*%
X247650000Y-112467000D03*
%TO.P,J6,10,Pin_10_10*%
%TO.N,SCL*%
X247650000Y-109927000D03*
%TO.P,J6,11,Pin_11_11*%
%TO.N,LS1*%
X245110000Y-112467000D03*
%TO.P,J6,12,Pin_12_12*%
%TO.N,SDA*%
X245110000Y-109927000D03*
%TO.P,J6,13,Pin_13_13*%
%TO.N,BTN1*%
X242570000Y-112467000D03*
%TO.P,J6,14,Pin_14_14*%
%TO.N,BTN2*%
X242570000Y-109927000D03*
%TO.P,J6,15,Pin_15_15*%
%TO.N,BTN3*%
X240030000Y-112467000D03*
%TO.P,J6,16,Pin_16_16*%
%TO.N,~{RESIN}*%
X240030000Y-109927000D03*
%TD*%
D11*
%TO.P,R18,1*%
%TO.N,~{RESIN}*%
X198399400Y-77669000D03*
%TO.P,R18,2*%
%TO.N,+5MAIN*%
X188239400Y-77669000D03*
%TD*%
D38*
%TO.P,Y1,1,OSC1_1*%
%TO.N,Net-(U5-XTAL2)*%
X204000000Y-76500000D03*
%TO.P,Y1,2,OSC2_2*%
%TO.N,Net-(Y1-OSC2)*%
X208880000Y-76500000D03*
%TD*%
D15*
%TO.P,U7,1,A14_1*%
%TO.N,/CPU/A14*%
X224028000Y-112213000D03*
D16*
%TO.P,U7,2,A12_2*%
%TO.N,/CPU/A12*%
X221488000Y-112213000D03*
%TO.P,U7,3,A7_3*%
%TO.N,/CPU/A7*%
X218948000Y-112213000D03*
%TO.P,U7,4,A6_4*%
%TO.N,/CPU/A6*%
X216408000Y-112213000D03*
%TO.P,U7,5,A5_5*%
%TO.N,/CPU/A5*%
X213868000Y-112213000D03*
%TO.P,U7,6,A4_6*%
%TO.N,/CPU/A4*%
X211328000Y-112213000D03*
%TO.P,U7,7,A3_7*%
%TO.N,/CPU/A3*%
X208788000Y-112213000D03*
%TO.P,U7,8,A2_8*%
%TO.N,/CPU/A2*%
X206248000Y-112213000D03*
%TO.P,U7,9,A1_9*%
%TO.N,/CPU/A1*%
X203708000Y-112213000D03*
%TO.P,U7,10,A0_10*%
%TO.N,/CPU/A0*%
X201168000Y-112213000D03*
%TO.P,U7,11,I/O0_11*%
%TO.N,/CPU/DB0*%
X198628000Y-112213000D03*
%TO.P,U7,12,I/O1_12*%
%TO.N,/CPU/DB1*%
X196088000Y-112213000D03*
%TO.P,U7,13,I/O2_13*%
%TO.N,/CPU/DB2*%
X193548000Y-112213000D03*
%TO.P,U7,14,GND_14*%
%TO.N,GND*%
X191008000Y-112213000D03*
%TO.P,U7,15,I/O3_15*%
%TO.N,/CPU/DB3*%
X191008000Y-104593000D03*
%TO.P,U7,16,I/O4_16*%
%TO.N,/CPU/DB4*%
X193548000Y-104593000D03*
%TO.P,U7,17,I/O5_17*%
%TO.N,/CPU/DB5*%
X196088000Y-104593000D03*
%TO.P,U7,18,I/O6_18*%
%TO.N,/CPU/DB6*%
X198628000Y-104593000D03*
%TO.P,U7,19,I/O7_19*%
%TO.N,/CPU/DB7*%
X201168000Y-104593000D03*
%TO.P,U7,20,~{CE}_20*%
%TO.N,Net-(U7-~{CE})*%
X203708000Y-104593000D03*
%TO.P,U7,21,A10_21*%
%TO.N,/CPU/A10*%
X206248000Y-104593000D03*
%TO.P,U7,22,~{OE}_22*%
%TO.N,~{MEMR}*%
X208788000Y-104593000D03*
%TO.P,U7,23,A11_23*%
%TO.N,/CPU/A11*%
X211328000Y-104593000D03*
%TO.P,U7,24,A9_24*%
%TO.N,/CPU/A9*%
X213868000Y-104593000D03*
%TO.P,U7,25,A8_25*%
%TO.N,/CPU/A8*%
X216408000Y-104593000D03*
%TO.P,U7,26,A13_26*%
%TO.N,/CPU/A13*%
X218948000Y-104593000D03*
%TO.P,U7,27,~{WE}_27*%
%TO.N,~{MEMW}*%
X221488000Y-104593000D03*
%TO.P,U7,28,VCC_28*%
%TO.N,+5MAIN*%
X224028000Y-104593000D03*
%TD*%
D37*
%TO.P,J10,1,Pin_1_1*%
%TO.N,-5V*%
X257810000Y-135253600D03*
D29*
%TO.P,J10,2,Pin_2_2*%
%TO.N,GND*%
X257810000Y-132713600D03*
%TO.P,J10,3,Pin_3_3*%
%TO.N,+12MAIN*%
X255270000Y-135253600D03*
%TO.P,J10,4,Pin_4_4*%
%TO.N,GND*%
X255270000Y-132713600D03*
%TO.P,J10,5,Pin_5_5*%
%TO.N,+5MAIN*%
X252730000Y-135253600D03*
%TO.P,J10,6,Pin_6_6*%
%TO.N,GND*%
X252730000Y-132713600D03*
%TO.P,J10,7,Pin_7_7*%
%TO.N,+5MAIN*%
X250190000Y-135253600D03*
%TO.P,J10,8,Pin_8_8*%
%TO.N,GND*%
X250190000Y-132713600D03*
%TO.P,J10,9,Pin_9_9*%
%TO.N,+5MAIN*%
X247650000Y-135253600D03*
%TO.P,J10,10,Pin_10_10*%
%TO.N,SCL*%
X247650000Y-132713600D03*
%TO.P,J10,11,Pin_11_11*%
%TO.N,LS1*%
X245110000Y-135253600D03*
%TO.P,J10,12,Pin_12_12*%
%TO.N,SDA*%
X245110000Y-132713600D03*
%TO.P,J10,13,Pin_13_13*%
%TO.N,BTN1*%
X242570000Y-135253600D03*
%TO.P,J10,14,Pin_14_14*%
%TO.N,BTN2*%
X242570000Y-132713600D03*
%TO.P,J10,15,Pin_15_15*%
%TO.N,BTN3*%
X240030000Y-135253600D03*
%TO.P,J10,16,Pin_16_16*%
%TO.N,~{RESIN}*%
X240030000Y-132713600D03*
%TD*%
D24*
%TO.P,C9,1*%
%TO.N,~{RESIN}*%
X194310000Y-87321000D03*
D11*
%TO.P,C9,2*%
%TO.N,GND*%
X191810000Y-87321000D03*
%TD*%
D30*
%TO.P,D7,1,K_1*%
%TO.N,+5MAIN*%
X188214000Y-80717000D03*
D11*
%TO.P,D7,2,A_2*%
%TO.N,~{RESIN}*%
X198374000Y-80717000D03*
%TD*%
D28*
%TO.P,J8,1,Pin_1_1*%
%TO.N,LS1*%
X258064000Y-85797000D03*
D29*
%TO.P,J8,2,Pin_2_2*%
%TO.N,GND*%
X258064000Y-88337000D03*
%TD*%
D24*
%TO.P,C29,1*%
%TO.N,+5MAIN*%
X241590713Y-76932400D03*
D11*
%TO.P,C29,2*%
%TO.N,GND*%
X239090713Y-76932400D03*
%TD*%
D39*
%TO.N,GND*%
X96520000Y-101545000D03*
X188302000Y-74341600D03*
X240538000Y-105482000D03*
X114300000Y-119579000D03*
X151880000Y-119591000D03*
X123940000Y-119579000D03*
X118872000Y-68271000D03*
X238810800Y-105482000D03*
X118872000Y-86305000D03*
%TO.N,BTN1*%
X170502500Y-92518000D03*
X183956942Y-94239942D03*
X178562000Y-92655000D03*
%TO.N,LS1*%
X245110000Y-147039200D03*
%TO.N,+5MAIN*%
X169672000Y-75637000D03*
X261010400Y-119274200D03*
X178816000Y-73859000D03*
X178816000Y-78685000D03*
X156972000Y-75637000D03*
X249478800Y-94509200D03*
%TO.N,/CPU/A12*%
X195072000Y-118857800D03*
X192176400Y-118232800D03*
X125272800Y-81047200D03*
X131775200Y-104262800D03*
X179882800Y-104755400D03*
%TO.N,/CPU/A7*%
X215458058Y-98938942D03*
X139192000Y-102307000D03*
X139180000Y-96211000D03*
X86360000Y-96719000D03*
%TO.N,/CPU/A6*%
X141720000Y-106137000D03*
X141732000Y-108032000D03*
X216154000Y-107524000D03*
X87630000Y-106117000D03*
%TO.N,/CPU/A5*%
X176784000Y-96211000D03*
X176530000Y-111705000D03*
X212090000Y-96211000D03*
X144780000Y-111451000D03*
X143764000Y-81987000D03*
X91694000Y-84781000D03*
%TO.N,/CPU/A4*%
X134112000Y-82378000D03*
X209914000Y-94433000D03*
X211328000Y-108032000D03*
X93980000Y-84781000D03*
X146812000Y-92518000D03*
X134100000Y-91248000D03*
X146812000Y-93788000D03*
%TO.N,/CPU/A3*%
X96520000Y-85172000D03*
X150368000Y-83003000D03*
X208788000Y-109673000D03*
X149606000Y-109673000D03*
%TO.N,/CPU/A2*%
X206248000Y-109165000D03*
X154420000Y-105888400D03*
X154432000Y-109165000D03*
X100838000Y-104339000D03*
%TO.N,/CPU/A1*%
X153416000Y-91502000D03*
X176022000Y-99122000D03*
X202438000Y-99259000D03*
X139180000Y-91248000D03*
X176022000Y-104085000D03*
X139192000Y-84273000D03*
X101600000Y-85172000D03*
X155752800Y-104202000D03*
%TO.N,/CPU/A0*%
X141732000Y-84019000D03*
X224790000Y-110181000D03*
X159258000Y-92401000D03*
X201168000Y-116394000D03*
X104394000Y-84547000D03*
X141720000Y-91953000D03*
X159512000Y-110924000D03*
X201168000Y-110435000D03*
X181229000Y-113102000D03*
X192490744Y-116540197D03*
%TO.N,/CPU/DB0*%
X140208000Y-96465000D03*
X105664000Y-75266000D03*
X111660000Y-106879000D03*
X198628000Y-117547000D03*
X197358000Y-99767000D03*
X105310000Y-106879000D03*
%TO.N,/CPU/DB1*%
X194818000Y-100412000D03*
X109220000Y-77415000D03*
X196088000Y-117664000D03*
X137922000Y-100275000D03*
%TO.N,/CPU/DB2*%
X106680000Y-117918000D03*
X111760000Y-92655000D03*
X193548000Y-117293000D03*
X111760000Y-78177000D03*
X108591137Y-92607802D03*
%TO.N,/CPU/DB3*%
X116840000Y-104593000D03*
X225298000Y-102307000D03*
X101854000Y-109673000D03*
X116840000Y-109673000D03*
X191008000Y-101799000D03*
%TO.N,/CPU/DB4*%
X91440000Y-117293000D03*
X113030000Y-110435000D03*
X189992000Y-116861200D03*
X91694000Y-110689000D03*
X192278000Y-115769000D03*
%TO.N,/CPU/DB5*%
X106680000Y-103831000D03*
X107181000Y-94042000D03*
X197358000Y-115007000D03*
X109845000Y-94042000D03*
%TO.N,/CPU/DB6*%
X107442000Y-92655000D03*
X202692000Y-114636000D03*
X103886000Y-92655000D03*
X201168000Y-106625000D03*
%TO.N,/CPU/DB7*%
X97944000Y-92655000D03*
X187729000Y-120572000D03*
X102726000Y-92699000D03*
X113030000Y-120341000D03*
X226618800Y-103067000D03*
X96520000Y-120341000D03*
X124968000Y-120572000D03*
X227584000Y-114128000D03*
%TO.N,/CPU/A15*%
X101600000Y-76516000D03*
X129794000Y-76653000D03*
%TO.N,/CPU/A10*%
X121412000Y-109673000D03*
X117856000Y-109673000D03*
X117856000Y-75891000D03*
X184404000Y-69795000D03*
%TO.N,~{MEMR}*%
X208788000Y-107504000D03*
X96520000Y-92655000D03*
X91440000Y-92655000D03*
X91440000Y-105355000D03*
%TO.N,/CPU/A11*%
X95504000Y-96465000D03*
X121412000Y-96465000D03*
X211074000Y-73097000D03*
%TO.N,/CPU/A9*%
X133350000Y-91893000D03*
X174244000Y-98497000D03*
X174244000Y-106762000D03*
X213614000Y-100412000D03*
X92710000Y-91893000D03*
X134100000Y-106762000D03*
%TO.N,/CPU/A8*%
X136652000Y-95820000D03*
X90170000Y-95820000D03*
X213360000Y-96973000D03*
%TO.N,/CPU/A13*%
X87630000Y-94179000D03*
X126492000Y-95195000D03*
X212344000Y-95195000D03*
%TO.N,/CPU/A14*%
X124002800Y-104313600D03*
X130048000Y-109927000D03*
X130048000Y-104313600D03*
X122783600Y-80437600D03*
%TO.N,+12MAIN*%
X252730000Y-93925000D03*
X152146000Y-92655000D03*
%TO.N,BTN2*%
X208127600Y-169797600D03*
X254508000Y-93417000D03*
X256540000Y-105609000D03*
%TO.N,Net-(U3-COMP)*%
X92760800Y-156640400D03*
%TO.N,~{RESET}*%
X241808000Y-91893000D03*
X220218000Y-91639000D03*
%TO.N,~{A4}*%
X229018000Y-100529000D03*
X222758000Y-72335000D03*
X228600000Y-72589000D03*
%TO.N,~{IOW}*%
X185826400Y-72131800D03*
X193548000Y-72690600D03*
X86106000Y-86305000D03*
X172415200Y-77211800D03*
X131572000Y-84781000D03*
X131560000Y-80767800D03*
X180644800Y-71458000D03*
%TO.N,~{IOR}*%
X133608500Y-80467500D03*
X89154000Y-94433000D03*
X130556000Y-94570000D03*
%TO.N,Net-(U3-RT{slash}CLK)*%
X84937600Y-158621600D03*
%TO.N,Net-(U3-PWRGD)*%
X91694000Y-158926400D03*
%TO.N,Net-(Q3-B)*%
X121361200Y-158723200D03*
%TO.N,Net-(U3-VSENSE)*%
X93980000Y-158113600D03*
%TO.N,Net-(U5-~{STSTB})*%
X79502000Y-93925000D03*
%TO.N,HLDA*%
X83820000Y-103069000D03*
X169672000Y-103069000D03*
%TO.N,~{WR}*%
X86360000Y-116023000D03*
%TO.N,DBIN*%
X161798000Y-119325000D03*
X88900000Y-117039000D03*
%TO.N,/CPU/D7*%
X99822000Y-116902000D03*
X134100000Y-116902000D03*
%TO.N,/CPU/D3*%
X104140000Y-117410000D03*
X136640000Y-116902000D03*
%TO.N,/CPU/D0*%
X114200000Y-110572000D03*
%TO.N,/CPU/D1*%
X109374000Y-111197000D03*
%TO.N,/CPU/D5*%
X104140000Y-108012000D03*
X128651000Y-108022000D03*
%TO.N,/CPU/D6*%
X131318000Y-109165000D03*
X99060000Y-109165000D03*
%TO.N,~{MEMW}*%
X86360000Y-108657000D03*
X221488000Y-108403000D03*
%TO.N,Net-(D3-K)*%
X91033600Y-161669600D03*
%TO.N,Net-(U3-SS{slash}TR)*%
X84074000Y-157961200D03*
%TO.N,SCL*%
X245872000Y-97735000D03*
X171958000Y-70557000D03*
X248869200Y-146378800D03*
X175768000Y-69033000D03*
X151892000Y-78177000D03*
X187198000Y-68525000D03*
X221742000Y-97481000D03*
%TO.N,SDA*%
X247040400Y-146683600D03*
X177800000Y-69795000D03*
X243078000Y-98497000D03*
X154686000Y-78802000D03*
X183642000Y-70049000D03*
X220726000Y-97735000D03*
X172974000Y-71573000D03*
%TO.N,Net-(D1-K)*%
X188163200Y-128497200D03*
%TO.N,RESET*%
X185674000Y-92655000D03*
X148132800Y-78126200D03*
X134257247Y-78232647D03*
X239268000Y-92655000D03*
X134874000Y-68916000D03*
%TO.N,~{RESIN}*%
X194310000Y-80717000D03*
X236982000Y-80717000D03*
X243738400Y-147090000D03*
%TO.N,RDY*%
X171451450Y-92009952D03*
X165862000Y-91893000D03*
%TO.N,SYNC*%
X171958000Y-112213000D03*
%TO.N,PHI2*%
X184251600Y-106117000D03*
X157022800Y-105964600D03*
%TO.N,BTN3*%
X212852000Y-82612000D03*
X206298800Y-170966000D03*
X219964000Y-98243000D03*
X235458000Y-99259000D03*
X197612000Y-170915200D03*
%TO.N,1WIRE*%
X164846000Y-83257000D03*
%TO.N,-5V*%
X186750942Y-111136058D03*
X250698000Y-93671000D03*
X200406000Y-90623000D03*
X167640000Y-116785000D03*
%TO.N,INTE*%
X159500000Y-119579000D03*
X188976000Y-120458000D03*
%TD*%
%TO.N,Net-(Y1-OSC2)*%
D40*
X202178800Y-69798800D02*
X208880000Y-76500000D01*
X198577200Y-69798800D02*
X202178800Y-69798800D01*
%TO.N,GND*%
D41*
X86156800Y-144737600D02*
X74786600Y-144737600D01*
X240538000Y-105482000D02*
X238810800Y-105482000D01*
X181660800Y-109165000D02*
X184708800Y-112213000D01*
X74517000Y-166648000D02*
X74517000Y-145007200D01*
X74618600Y-166749600D02*
X74517000Y-166648000D01*
X86004400Y-144890000D02*
X86156800Y-144737600D01*
X84987600Y-139937600D02*
X84987600Y-126960600D01*
X232105200Y-142670400D02*
X231343200Y-142670400D01*
X88387600Y-144737600D02*
X86156800Y-144737600D01*
X118872000Y-86305000D02*
X118872000Y-68271000D01*
X175006000Y-91467000D02*
X181660800Y-98121800D01*
X272447000Y-183564400D02*
X272433600Y-183551000D01*
X86004400Y-148619000D02*
X86004400Y-144890000D01*
X191810000Y-87321000D02*
X191810000Y-75423000D01*
X74517000Y-126922400D02*
X74676000Y-126922400D01*
X78094200Y-166749600D02*
X78094200Y-162584000D01*
X229224200Y-140551400D02*
X217728800Y-140551400D01*
X190754000Y-74367000D02*
X188302000Y-74367000D01*
X75146600Y-183551000D02*
X75133200Y-183564400D01*
X74786600Y-144737600D02*
X74517000Y-145007200D01*
X74517000Y-183557800D02*
X74517000Y-166648000D01*
X272173000Y-126909000D02*
X272447000Y-127183000D01*
X96520000Y-98695000D02*
X96520000Y-101545000D01*
X123940000Y-119579000D02*
X123940000Y-113935000D01*
X98016200Y-126909000D02*
X272173000Y-126909000D01*
X74523600Y-183564400D02*
X74517000Y-183557800D01*
X191810000Y-75423000D02*
X190754000Y-74367000D01*
X258064000Y-88337000D02*
X253474000Y-88337000D01*
X272447000Y-127183000D02*
X272447000Y-183564400D01*
X231343200Y-142670400D02*
X229224200Y-140551400D01*
X84987600Y-126960600D02*
X85039200Y-126909000D01*
X184708800Y-112213000D02*
X191008000Y-112213000D01*
X78094200Y-166749600D02*
X74618600Y-166749600D01*
X250190000Y-103043600D02*
X250190000Y-109927000D01*
X114300000Y-113935000D02*
X114300000Y-119579000D01*
X74676000Y-126922400D02*
X74689400Y-126909000D01*
X181660800Y-98121800D02*
X181660800Y-109165000D01*
X272433600Y-183551000D02*
X75146600Y-183551000D01*
X151880000Y-119591000D02*
X151880000Y-113935000D01*
X74517000Y-145007200D02*
X74517000Y-126922400D01*
X75133200Y-183564400D02*
X74523600Y-183564400D01*
X85039200Y-126909000D02*
X98094800Y-126909000D01*
X257810000Y-132713600D02*
X250190000Y-132713600D01*
X151880000Y-113935000D02*
X154420000Y-113935000D01*
X74689400Y-126909000D02*
X85039200Y-126909000D01*
%TO.N,Net-(U1-THR)*%
D40*
X199056400Y-168900000D02*
X191176600Y-168900000D01*
X203606400Y-164350000D02*
X199056400Y-168900000D01*
%TO.N,Net-(D8-K)*%
X225907600Y-153643200D02*
X224485200Y-152220800D01*
X234162600Y-159409000D02*
X232460800Y-157707200D01*
X231902000Y-153643200D02*
X225907600Y-153643200D01*
X224485200Y-152220800D02*
X224485200Y-150290400D01*
X232460800Y-157707200D02*
X232460800Y-154202000D01*
X232460800Y-154202000D02*
X231902000Y-153643200D01*
X238861600Y-159409000D02*
X234162600Y-159409000D01*
%TO.N,Net-(D8-A)*%
X218781855Y-158279745D02*
X217652600Y-159409000D01*
X228295200Y-158279745D02*
X218781855Y-158279745D01*
%TO.N,BTN1*%
X156960000Y-85555000D02*
X156972000Y-85543000D01*
X170502500Y-92518000D02*
X170502500Y-92332500D01*
X170502500Y-92332500D02*
X169437000Y-91267000D01*
X159350000Y-91267000D02*
X156960000Y-88877000D01*
X169437000Y-91267000D02*
X159350000Y-91267000D01*
X178562000Y-92655000D02*
X182372000Y-92655000D01*
X182372000Y-92655000D02*
X183956942Y-94239942D01*
%TO.N,LS1*%
X248137116Y-111291000D02*
X246286000Y-111291000D01*
X245110000Y-147039200D02*
X245110000Y-161212400D01*
X246146000Y-162248400D02*
X247040400Y-162248400D01*
X248412000Y-95449000D02*
X249014000Y-96051000D01*
X246888000Y-95449000D02*
X248412000Y-95449000D01*
X249014000Y-96051000D02*
X249014000Y-110414116D01*
X245110000Y-161212400D02*
X246146000Y-162248400D01*
X249014000Y-110414116D02*
X248137116Y-111291000D01*
X246286000Y-111291000D02*
X245110000Y-112467000D01*
%TO.N,+12V*%
D42*
X199948800Y-165987600D02*
X199948800Y-159891600D01*
X163999200Y-168900000D02*
X162763200Y-167664000D01*
X186385200Y-168900000D02*
X163999200Y-168900000D01*
D43*
X141681200Y-142924400D02*
X151536400Y-152779600D01*
X151536400Y-152779600D02*
X161544000Y-152779600D01*
D42*
X199948800Y-159891600D02*
X200570400Y-159270000D01*
X195986400Y-166890000D02*
X199046400Y-166890000D01*
D43*
X103378000Y-142924400D02*
X141681200Y-142924400D01*
D42*
X199046400Y-166890000D02*
X199948800Y-165987600D01*
D43*
X161544000Y-152779600D02*
X162763200Y-153998800D01*
D42*
X200570400Y-159270000D02*
X203606400Y-159270000D01*
X162763200Y-167664000D02*
X162763200Y-157011600D01*
D43*
X162763200Y-153998800D02*
X162763200Y-157011600D01*
%TO.N,+5MAIN*%
D41*
X168148000Y-66366000D02*
X182372000Y-66366000D01*
X260490400Y-122042800D02*
X170242800Y-122042800D01*
X215646000Y-66366000D02*
X231648000Y-66366000D01*
X223012000Y-103577000D02*
X223012000Y-96211000D01*
X81280000Y-73637000D02*
X81280000Y-82749000D01*
X232156000Y-94941000D02*
X232156000Y-66874000D01*
X272288000Y-67128000D02*
X272288000Y-120849000D01*
X247650000Y-135253600D02*
X252730000Y-135253600D01*
X175006000Y-78767000D02*
X169844000Y-78767000D01*
X80124000Y-65464000D02*
X81280000Y-66620000D01*
X242824000Y-66620000D02*
X243979000Y-65465000D01*
X232156000Y-66874000D02*
X231648000Y-66366000D01*
X169660000Y-113935000D02*
X169660000Y-121460000D01*
X156960000Y-73637000D02*
X156960000Y-66428800D01*
X156960000Y-66428800D02*
X157022800Y-66366000D01*
X170242800Y-122042800D02*
X169672000Y-121472000D01*
X250190000Y-136879200D02*
X250190000Y-135253600D01*
X231648000Y-66366000D02*
X242570000Y-66366000D01*
X185928000Y-77669000D02*
X188239400Y-77669000D01*
X272288000Y-120849000D02*
X271145000Y-121992000D01*
X242878000Y-66674000D02*
X242824000Y-66620000D01*
X261061200Y-121472000D02*
X260490400Y-122042800D01*
X242878000Y-69951000D02*
X242878000Y-66674000D01*
X80010000Y-82749000D02*
X79502000Y-83257000D01*
X261010400Y-119274200D02*
X261061200Y-119325000D01*
X249377200Y-137692000D02*
X250190000Y-136879200D01*
X74517000Y-121198000D02*
X74517000Y-67287000D01*
X161176200Y-150493600D02*
X188468000Y-150493600D01*
X169672000Y-121472000D02*
X169037000Y-122107000D01*
X182626000Y-66620000D02*
X182880000Y-66366000D01*
X169367200Y-85466800D02*
X167132000Y-85466800D01*
X193548000Y-139622400D02*
X195478400Y-137692000D01*
X169672000Y-78939000D02*
X169672000Y-85162000D01*
X249478800Y-94509200D02*
X250190000Y-95220400D01*
X188239400Y-80691600D02*
X188214000Y-80717000D01*
X182626000Y-73687000D02*
X184994000Y-73687000D01*
X75426000Y-122107000D02*
X74517000Y-121198000D01*
X182626000Y-73687000D02*
X182626000Y-66620000D01*
X79502000Y-83257000D02*
X79502000Y-88921200D01*
X79502000Y-92401000D02*
X81280000Y-94179000D01*
X178816000Y-78685000D02*
X178816000Y-73859000D01*
X243979000Y-65465000D02*
X270625000Y-65465000D01*
X79546200Y-88877000D02*
X81280000Y-88877000D01*
X188468000Y-150493600D02*
X193548000Y-145413600D01*
X261061200Y-119325000D02*
X261061200Y-121472000D01*
X81534000Y-66366000D02*
X168148000Y-66366000D01*
X79502000Y-88921200D02*
X79546200Y-88877000D01*
X231648000Y-95449000D02*
X232156000Y-94941000D01*
X182372000Y-66366000D02*
X182626000Y-66620000D01*
X76340000Y-65464000D02*
X80124000Y-65464000D01*
X270625000Y-65465000D02*
X272288000Y-67128000D01*
X271145000Y-121992000D02*
X261581200Y-121992000D01*
X242570000Y-66366000D02*
X242824000Y-66620000D01*
X193548000Y-145413600D02*
X193548000Y-139622400D01*
X250190000Y-95220400D02*
X250190000Y-98043600D01*
X184994000Y-73687000D02*
X185420000Y-74113000D01*
X156960000Y-75625000D02*
X156972000Y-75637000D01*
X182880000Y-66366000D02*
X215646000Y-66366000D01*
X223012000Y-96211000D02*
X215646000Y-88845000D01*
X169844000Y-78767000D02*
X169672000Y-78939000D01*
X159042600Y-148360000D02*
X161176200Y-150493600D01*
X81280000Y-73637000D02*
X81280000Y-66620000D01*
X156960000Y-73637000D02*
X156960000Y-75625000D01*
X74517000Y-67287000D02*
X76340000Y-65464000D01*
X188239400Y-77669000D02*
X188239400Y-80691600D01*
X215646000Y-88845000D02*
X215646000Y-66366000D01*
X169672000Y-85162000D02*
X169367200Y-85466800D01*
X224028000Y-104593000D02*
X223012000Y-103577000D01*
X261581200Y-121992000D02*
X261061200Y-121472000D01*
X81280000Y-82749000D02*
X80010000Y-82749000D01*
X185420000Y-74113000D02*
X185420000Y-77161000D01*
X185420000Y-77161000D02*
X185928000Y-77669000D01*
X169660000Y-121460000D02*
X169672000Y-121472000D01*
X81280000Y-94179000D02*
X81280000Y-98695000D01*
X79502000Y-88921200D02*
X79502000Y-92401000D01*
X169672000Y-75637000D02*
X169672000Y-78939000D01*
X195478400Y-137692000D02*
X249377200Y-137692000D01*
X169037000Y-122107000D02*
X75426000Y-122107000D01*
X81280000Y-66620000D02*
X81534000Y-66366000D01*
%TO.N,/CPU/A12*%
D40*
X188676498Y-118706400D02*
X188692898Y-118690000D01*
X215417400Y-118283600D02*
X221488000Y-112213000D01*
X129020000Y-95716400D02*
X125272800Y-91969200D01*
X179882800Y-110866800D02*
X187706000Y-118690000D01*
X195920200Y-118857800D02*
X196037000Y-118741000D01*
X188692898Y-118690000D02*
X191719200Y-118690000D01*
X179882800Y-104755400D02*
X179882800Y-110866800D01*
X188141502Y-118690000D02*
X188157902Y-118706400D01*
X129020000Y-98695000D02*
X129020000Y-95716400D01*
X195072000Y-118857800D02*
X195920200Y-118857800D01*
X125272800Y-91969200D02*
X125272800Y-81047200D01*
X191719200Y-118690000D02*
X192176400Y-118232800D01*
X129020000Y-101507600D02*
X131775200Y-104262800D01*
X199672210Y-118283600D02*
X215417400Y-118283600D01*
X196037000Y-118741000D02*
X196534108Y-118741000D01*
X129020000Y-98695000D02*
X129020000Y-101507600D01*
X188157902Y-118706400D02*
X188676498Y-118706400D01*
X196591308Y-118683800D02*
X199272010Y-118683800D01*
X196534108Y-118741000D02*
X196591308Y-118683800D01*
X187706000Y-118690000D02*
X188141502Y-118690000D01*
X199272010Y-118683800D02*
X199672210Y-118283600D01*
%TO.N,/CPU/A7*%
X217053000Y-100412000D02*
X217678000Y-101037000D01*
X139180000Y-96211000D02*
X139180000Y-98695000D01*
X217678000Y-110943000D02*
X218948000Y-112213000D01*
X216931116Y-100412000D02*
X217053000Y-100412000D01*
X215458058Y-98938942D02*
X216931116Y-100412000D01*
X217678000Y-101037000D02*
X217678000Y-110943000D01*
X86360000Y-96719000D02*
X86360000Y-88877000D01*
X139192000Y-96223000D02*
X139192000Y-102307000D01*
X139180000Y-96211000D02*
X139192000Y-96223000D01*
%TO.N,/CPU/A6*%
X87630000Y-95195000D02*
X87630000Y-106117000D01*
X88528000Y-94297000D02*
X87630000Y-95195000D01*
X88528000Y-89249000D02*
X88528000Y-94297000D01*
X141732000Y-108032000D02*
X141720000Y-108020000D01*
X216408000Y-112213000D02*
X216408000Y-107778000D01*
X216408000Y-107778000D02*
X216154000Y-107524000D01*
X88900000Y-88877000D02*
X88528000Y-89249000D01*
X141720000Y-108020000D02*
X141720000Y-98695000D01*
%TO.N,/CPU/A5*%
X176784000Y-96211000D02*
X176784000Y-111451000D01*
X212454000Y-98222298D02*
X212090000Y-97858298D01*
X213868000Y-112213000D02*
X212454000Y-110799000D01*
X144260000Y-98695000D02*
X144260000Y-110931000D01*
X91440000Y-88877000D02*
X91440000Y-85035000D01*
X143134000Y-82617000D02*
X143134000Y-97569000D01*
X144260000Y-110931000D02*
X144780000Y-111451000D01*
X212454000Y-110799000D02*
X212454000Y-98222298D01*
X143764000Y-81987000D02*
X143134000Y-82617000D01*
X176784000Y-111451000D02*
X176530000Y-111705000D01*
X91440000Y-85035000D02*
X91694000Y-84781000D01*
X212090000Y-97858298D02*
X212090000Y-96211000D01*
X143134000Y-97569000D02*
X144260000Y-98695000D01*
%TO.N,/CPU/A4*%
X146812000Y-93788000D02*
X146812000Y-94276358D01*
X146812000Y-93788000D02*
X146812000Y-92518000D01*
X93980000Y-88877000D02*
X93980000Y-84781000D01*
X209914000Y-106618000D02*
X211328000Y-108032000D01*
X209914000Y-94433000D02*
X209914000Y-106618000D01*
X134100000Y-83015000D02*
X134100000Y-88877000D01*
X134112000Y-83003000D02*
X134100000Y-83015000D01*
X134112000Y-82378000D02*
X134112000Y-83003000D01*
X146800000Y-94288358D02*
X146800000Y-98695000D01*
X134100000Y-91248000D02*
X134100000Y-88877000D01*
X211328000Y-108032000D02*
X211328000Y-112213000D01*
X146812000Y-94276358D02*
X146800000Y-94288358D01*
%TO.N,/CPU/A3*%
X149340000Y-109407000D02*
X149340000Y-98695000D01*
X149606000Y-109673000D02*
X149340000Y-109407000D01*
X150478000Y-83113000D02*
X150478000Y-97557000D01*
X150368000Y-83003000D02*
X150478000Y-83113000D01*
X150478000Y-97557000D02*
X149340000Y-98695000D01*
X96520000Y-88877000D02*
X96520000Y-85172000D01*
X208788000Y-112213000D02*
X208788000Y-109673000D01*
%TO.N,/CPU/A2*%
X206248000Y-109165000D02*
X206248000Y-112213000D01*
X100330000Y-103831000D02*
X100838000Y-104339000D01*
X154420000Y-109153000D02*
X154432000Y-109165000D01*
X100330000Y-90147000D02*
X100330000Y-103831000D01*
X154420000Y-98695000D02*
X154420000Y-109153000D01*
X99060000Y-88877000D02*
X100330000Y-90147000D01*
%TO.N,/CPU/A1*%
X155702000Y-99953000D02*
X156960000Y-98695000D01*
X139192000Y-84273000D02*
X139180000Y-84285000D01*
X156972000Y-92123000D02*
X156960000Y-92135000D01*
X101600000Y-88877000D02*
X101600000Y-85172000D01*
X139180000Y-91248000D02*
X139180000Y-88877000D01*
X203708000Y-112213000D02*
X203708000Y-106625000D01*
X202438000Y-105355000D02*
X202438000Y-99259000D01*
X153416000Y-91502000D02*
X153807000Y-91893000D01*
X139180000Y-84285000D02*
X139180000Y-88877000D01*
X155702000Y-104151200D02*
X155702000Y-99953000D01*
X176022000Y-99122000D02*
X176022000Y-104085000D01*
X203708000Y-106625000D02*
X202438000Y-105355000D01*
X155752800Y-104202000D02*
X155702000Y-104151200D01*
X156972000Y-92010000D02*
X156972000Y-92123000D01*
X153807000Y-91893000D02*
X156855000Y-91893000D01*
X156960000Y-92135000D02*
X156960000Y-98695000D01*
X156855000Y-91893000D02*
X156972000Y-92010000D01*
%TO.N,/CPU/A0*%
X159500000Y-92643000D02*
X159500000Y-98695000D01*
X104140000Y-85035000D02*
X104140000Y-88877000D01*
X104394000Y-84781000D02*
X104140000Y-85035000D01*
X159500000Y-110912000D02*
X159512000Y-110924000D01*
X225098000Y-69951000D02*
X224298001Y-70750999D01*
X201168000Y-112213000D02*
X201168000Y-116394000D01*
X193192400Y-117822698D02*
X193192400Y-119147200D01*
X193014600Y-119325000D02*
X187452000Y-119325000D01*
X159258000Y-92401000D02*
X159500000Y-92643000D01*
X225154000Y-109817000D02*
X224790000Y-110181000D01*
X141720000Y-91953000D02*
X141720000Y-88877000D01*
X192922000Y-117552298D02*
X193192400Y-117822698D01*
X192953125Y-117002578D02*
X192922000Y-117033702D01*
X225154000Y-103726596D02*
X225154000Y-109817000D01*
X141720000Y-84031000D02*
X141732000Y-84019000D01*
X159500000Y-98695000D02*
X159500000Y-110912000D01*
X104394000Y-84547000D02*
X104394000Y-84781000D01*
X192490744Y-116540197D02*
X192953125Y-117002578D01*
X224298001Y-102870597D02*
X225154000Y-103726596D01*
X192922000Y-117033702D02*
X192922000Y-117552298D01*
X187452000Y-119325000D02*
X181229000Y-113102000D01*
X193192400Y-119147200D02*
X193014600Y-119325000D01*
X201168000Y-110435000D02*
X201168000Y-112213000D01*
X224298001Y-70750999D02*
X224298001Y-102870597D01*
X141720000Y-88877000D02*
X141720000Y-84031000D01*
%TO.N,/CPU/DB0*%
X106680000Y-76907000D02*
X106680000Y-88877000D01*
X140208000Y-71827000D02*
X138430000Y-71827000D01*
X140208000Y-96465000D02*
X140462000Y-96211000D01*
X105664000Y-75891000D02*
X106680000Y-76907000D01*
X111660000Y-106879000D02*
X111760000Y-106979000D01*
X197502000Y-103726596D02*
X197866000Y-103362596D01*
X198628000Y-106585404D02*
X197502000Y-105459404D01*
X140462000Y-72081000D02*
X140208000Y-71827000D01*
X105310000Y-90247000D02*
X105310000Y-106879000D01*
X111760000Y-106979000D02*
X111760000Y-113935000D01*
X105664000Y-75266000D02*
X105664000Y-75891000D01*
X198628000Y-117547000D02*
X198628000Y-112213000D01*
X197502000Y-105459404D02*
X197502000Y-103726596D01*
X138430000Y-71827000D02*
X138430000Y-71847000D01*
X138430000Y-71847000D02*
X136640000Y-73637000D01*
X197866000Y-103362596D02*
X197866000Y-100275000D01*
X106680000Y-88877000D02*
X105310000Y-90247000D01*
X197866000Y-100275000D02*
X197358000Y-99767000D01*
X198628000Y-112213000D02*
X198628000Y-106585404D01*
X140462000Y-96211000D02*
X140462000Y-72081000D01*
%TO.N,/CPU/DB1*%
X137922000Y-100275000D02*
X137922000Y-74895000D01*
X196088000Y-112213000D02*
X196088000Y-109927000D01*
X111760000Y-96973000D02*
X111760000Y-98695000D01*
X194818000Y-108657000D02*
X194818000Y-100412000D01*
X196088000Y-117664000D02*
X196088000Y-112213000D01*
X137922000Y-74895000D02*
X139180000Y-73637000D01*
X109220000Y-88877000D02*
X109220000Y-94433000D01*
X109220000Y-94433000D02*
X111760000Y-96973000D01*
X109220000Y-77415000D02*
X109220000Y-88877000D01*
X196088000Y-109927000D02*
X194818000Y-108657000D01*
%TO.N,/CPU/DB2*%
X111760000Y-78177000D02*
X111760000Y-88877000D01*
X106680000Y-113935000D02*
X107950000Y-112665000D01*
X108591137Y-93086863D02*
X108591137Y-92607802D01*
X106680000Y-113935000D02*
X106680000Y-117918000D01*
X107950000Y-93728000D02*
X108591137Y-93086863D01*
X193548000Y-117293000D02*
X193548000Y-112213000D01*
X111760000Y-92655000D02*
X111760000Y-88877000D01*
X107950000Y-112665000D02*
X107950000Y-93728000D01*
%TO.N,/CPU/DB3*%
X101854000Y-109673000D02*
X101600000Y-109927000D01*
X225897999Y-117411001D02*
X225897999Y-102906999D01*
X191008000Y-101799000D02*
X191008000Y-104593000D01*
X225897999Y-102906999D02*
X225298000Y-102307000D01*
X101600000Y-109927000D02*
X101600000Y-113935000D01*
X225098000Y-118211000D02*
X225897999Y-117411001D01*
X116840000Y-76177000D02*
X116840000Y-104593000D01*
X116840000Y-104593000D02*
X116840000Y-109673000D01*
X114300000Y-73637000D02*
X116840000Y-76177000D01*
%TO.N,/CPU/DB4*%
X191084200Y-115769000D02*
X192278000Y-115769000D01*
X91694000Y-110689000D02*
X91440000Y-110943000D01*
X113030000Y-74907000D02*
X113030000Y-110435000D01*
X111760000Y-73637000D02*
X113030000Y-74907000D01*
X189992000Y-116861200D02*
X191084200Y-115769000D01*
X91440000Y-117293000D02*
X91440000Y-113935000D01*
X192278000Y-105863000D02*
X193548000Y-104593000D01*
X192278000Y-115769000D02*
X192278000Y-105863000D01*
X91440000Y-110943000D02*
X91440000Y-113935000D01*
%TO.N,/CPU/DB5*%
X107107000Y-94116000D02*
X107107000Y-94160000D01*
X110346000Y-93541000D02*
X110346000Y-74763000D01*
X106680000Y-103831000D02*
X106680000Y-98695000D01*
X106680000Y-94587000D02*
X106680000Y-98695000D01*
X110346000Y-74763000D02*
X109220000Y-73637000D01*
X197358000Y-106513000D02*
X196088000Y-105243000D01*
X196088000Y-105243000D02*
X196088000Y-104593000D01*
X109845000Y-94042000D02*
X110346000Y-93541000D01*
X107107000Y-94160000D02*
X106680000Y-94587000D01*
X107181000Y-94042000D02*
X107107000Y-94116000D01*
X197358000Y-115007000D02*
X197358000Y-106513000D01*
%TO.N,/CPU/DB6*%
X107442000Y-92655000D02*
X107850000Y-92247000D01*
X107850000Y-74807000D02*
X106680000Y-73637000D01*
X101600000Y-94941000D02*
X101600000Y-98695000D01*
X202438000Y-114382000D02*
X202692000Y-114636000D01*
X107850000Y-92247000D02*
X107850000Y-74807000D01*
X202438000Y-107895000D02*
X202438000Y-114382000D01*
X198628000Y-104593000D02*
X198228000Y-104593000D01*
X103886000Y-92655000D02*
X101600000Y-94941000D01*
X201168000Y-106625000D02*
X202438000Y-107895000D01*
%TO.N,/CPU/DB7*%
X226618800Y-113162800D02*
X227584000Y-114128000D01*
X96520000Y-120341000D02*
X96520000Y-113935000D01*
X188468000Y-119833000D02*
X193065400Y-119833000D01*
X97944000Y-92655000D02*
X97690000Y-92909000D01*
X226618800Y-103067000D02*
X226618800Y-113162800D01*
X193065400Y-119833000D02*
X193122400Y-119776000D01*
X195828702Y-118290000D02*
X196347298Y-118290000D01*
X196404498Y-118232800D02*
X199085200Y-118232800D01*
X124968000Y-120572000D02*
X113261000Y-120572000D01*
X97690000Y-92909000D02*
X97690000Y-112765000D01*
X187729000Y-120572000D02*
X188468000Y-119833000D01*
X199085200Y-118232800D02*
X199898000Y-117420000D01*
X193643400Y-119334010D02*
X193643400Y-119255000D01*
X113261000Y-120572000D02*
X113030000Y-120341000D01*
X97690000Y-112765000D02*
X96520000Y-113935000D01*
X102726000Y-75051000D02*
X104140000Y-73637000D01*
X195771502Y-118232800D02*
X195828702Y-118290000D01*
X193201410Y-119776000D02*
X193643400Y-119334010D01*
X196347298Y-118290000D02*
X196404498Y-118232800D01*
X193122400Y-119776000D02*
X193201410Y-119776000D01*
X102726000Y-92699000D02*
X102726000Y-75051000D01*
X199898000Y-105863000D02*
X201168000Y-104593000D01*
X193643400Y-119255000D02*
X194665600Y-118232800D01*
X194665600Y-118232800D02*
X195771502Y-118232800D01*
X199898000Y-117420000D02*
X199898000Y-105863000D01*
%TO.N,/CPU/A15*%
X129743200Y-90146204D02*
X129743200Y-96878200D01*
X129743200Y-96878200D02*
X131560000Y-98695000D01*
X129794000Y-76653000D02*
X129743200Y-76703800D01*
X129743200Y-87607796D02*
X130146000Y-88010596D01*
X101600000Y-73637000D02*
X101600000Y-76516000D01*
X130146000Y-88010596D02*
X130146000Y-89743404D01*
X130146000Y-89743404D02*
X129743200Y-90146204D01*
X129743200Y-76703800D02*
X129743200Y-87607796D01*
%TO.N,/CPU/A10*%
X201168000Y-79370800D02*
X201168000Y-87067000D01*
X199525400Y-77202595D02*
X199525400Y-77728200D01*
X121400000Y-109685000D02*
X121412000Y-109673000D01*
X199525400Y-77728200D02*
X201168000Y-79370800D01*
X191592200Y-69795000D02*
X198340200Y-76543000D01*
X198340200Y-76543000D02*
X198865805Y-76543000D01*
X206248000Y-92147000D02*
X206248000Y-104593000D01*
X117856000Y-109673000D02*
X117856000Y-75891000D01*
X198865805Y-76543000D02*
X199525400Y-77202595D01*
X201168000Y-87067000D02*
X206248000Y-92147000D01*
X184404000Y-69795000D02*
X191592200Y-69795000D01*
X121400000Y-113935000D02*
X121400000Y-109685000D01*
%TO.N,~{MEMR}*%
X91440000Y-98695000D02*
X91440000Y-105355000D01*
X97646000Y-74763000D02*
X96520000Y-73637000D01*
X208788000Y-107504000D02*
X208788000Y-104593000D01*
X91440000Y-98695000D02*
X91440000Y-92655000D01*
X96520000Y-92655000D02*
X97646000Y-91529000D01*
X97646000Y-91529000D02*
X97646000Y-74763000D01*
%TO.N,/CPU/A11*%
X211328000Y-73351000D02*
X211328000Y-104593000D01*
X95394000Y-75051000D02*
X93980000Y-73637000D01*
X95504000Y-96465000D02*
X95394000Y-96355000D01*
X121400000Y-96477000D02*
X121412000Y-96465000D01*
X95394000Y-96355000D02*
X95394000Y-75051000D01*
X211074000Y-73097000D02*
X211328000Y-73351000D01*
X121400000Y-98695000D02*
X121400000Y-96477000D01*
%TO.N,/CPU/A9*%
X133580000Y-91893000D02*
X133834000Y-92147000D01*
X92710000Y-74907000D02*
X92710000Y-91893000D01*
X134100000Y-106762000D02*
X134100000Y-98695000D01*
X91440000Y-73637000D02*
X92710000Y-74907000D01*
X133858000Y-92147000D02*
X134100000Y-92389000D01*
X133834000Y-92147000D02*
X133858000Y-92147000D01*
X133350000Y-91893000D02*
X133580000Y-91893000D01*
X213614000Y-100412000D02*
X213614000Y-104339000D01*
X213614000Y-104339000D02*
X213868000Y-104593000D01*
X174244000Y-106762000D02*
X174244000Y-98497000D01*
X134100000Y-92389000D02*
X134100000Y-98695000D01*
%TO.N,/CPU/A8*%
X90170000Y-88154596D02*
X90170000Y-95820000D01*
X90584000Y-87740596D02*
X90170000Y-88154596D01*
X216408000Y-100774182D02*
X213360000Y-97726182D01*
X213360000Y-97726182D02*
X213360000Y-96973000D01*
X136640000Y-96199000D02*
X136640000Y-98695000D01*
X136652000Y-95820000D02*
X136652000Y-96187000D01*
X136652000Y-96187000D02*
X136640000Y-96199000D01*
X90584000Y-75321000D02*
X90584000Y-87740596D01*
X216408000Y-104593000D02*
X216408000Y-100774182D01*
X88900000Y-73637000D02*
X90584000Y-75321000D01*
%TO.N,/CPU/A13*%
X126480000Y-95715000D02*
X126480000Y-98695000D01*
X218948000Y-101543586D02*
X212599414Y-95195000D01*
X88044000Y-87740596D02*
X87630000Y-88154596D01*
X88044000Y-77321000D02*
X88044000Y-87740596D01*
X87630000Y-88154596D02*
X87630000Y-94179000D01*
X212599414Y-95195000D02*
X212344000Y-95195000D01*
X86360000Y-75637000D02*
X87884000Y-77161000D01*
X86360000Y-73637000D02*
X86360000Y-75637000D01*
X126492000Y-95703000D02*
X126480000Y-95715000D01*
X126492000Y-95195000D02*
X126492000Y-95703000D01*
X87884000Y-77161000D02*
X88044000Y-77321000D01*
X218948000Y-104593000D02*
X218948000Y-101543586D01*
%TO.N,/CPU/A14*%
X130048000Y-109927000D02*
X130048000Y-104313600D01*
X122783600Y-97538600D02*
X123940000Y-98695000D01*
X122783600Y-80437600D02*
X122783600Y-97538600D01*
X124002800Y-104313600D02*
X123940000Y-104250800D01*
X123940000Y-104250800D02*
X123940000Y-98695000D01*
%TO.N,+12MAIN*%
D42*
X251561600Y-138962000D02*
X197154800Y-138962000D01*
X166522400Y-152881200D02*
X165303200Y-154100400D01*
D44*
X253981000Y-111178000D02*
X255270000Y-112467000D01*
D42*
X195986400Y-140130400D02*
X195986400Y-146886800D01*
D44*
X253981000Y-95176000D02*
X253981000Y-111178000D01*
X151880000Y-92921000D02*
X152146000Y-92655000D01*
D42*
X195986400Y-146886800D02*
X189992000Y-152881200D01*
X255270000Y-135253600D02*
X251561600Y-138962000D01*
D44*
X252730000Y-93925000D02*
X253981000Y-95176000D01*
X151880000Y-98695000D02*
X151880000Y-92921000D01*
D42*
X197154800Y-138962000D02*
X195986400Y-140130400D01*
X189992000Y-152881200D02*
X166522400Y-152881200D01*
X165303200Y-154100400D02*
X165303200Y-157011600D01*
%TO.N,BTN2*%
D40*
X159500000Y-85555000D02*
X159512000Y-85543000D01*
X254508000Y-93417000D02*
X256540000Y-95449000D01*
X208127600Y-169797600D02*
X196697600Y-169797600D01*
X194769000Y-171726200D02*
X194769000Y-174507200D01*
X196697600Y-169797600D02*
X194769000Y-171726200D01*
X256540000Y-95449000D02*
X256540000Y-105609000D01*
%TO.N,Net-(U3-COMP)*%
D45*
X92760800Y-156640400D02*
X92760800Y-169899200D01*
X93802200Y-170940600D02*
X96012000Y-170940600D01*
X92760800Y-169899200D02*
X93802200Y-170940600D01*
%TO.N,~{RESET}*%
D40*
X241808000Y-91893000D02*
X241808000Y-95449000D01*
X220018000Y-69951000D02*
X220018000Y-91439000D01*
X220018000Y-91439000D02*
X220218000Y-91639000D01*
%TO.N,~{A4}*%
X222758000Y-72335000D02*
X222758000Y-70151000D01*
X229018000Y-100529000D02*
X228764000Y-100275000D01*
X228764000Y-100275000D02*
X228764000Y-72753000D01*
X222758000Y-70151000D02*
X222558000Y-69951000D01*
X228764000Y-72753000D02*
X228600000Y-72589000D01*
%TO.N,~{IOW}*%
X85090000Y-96465000D02*
X85090000Y-87321000D01*
X172415200Y-77211800D02*
X172415200Y-73956286D01*
X131560000Y-84769000D02*
X131560000Y-80767800D01*
X131572000Y-84781000D02*
X131560000Y-84769000D01*
X83820000Y-98695000D02*
X83820000Y-97735000D01*
X174913486Y-71458000D02*
X180644800Y-71458000D01*
X83820000Y-97735000D02*
X84582000Y-96973000D01*
X185826400Y-72131800D02*
X186385200Y-72690600D01*
X85090000Y-87321000D02*
X86106000Y-86305000D01*
X172415200Y-73956286D02*
X174913486Y-71458000D01*
X84582000Y-96973000D02*
X85090000Y-96465000D01*
X131560000Y-80767800D02*
X131560000Y-73637000D01*
X186385200Y-72690600D02*
X193548000Y-72690600D01*
%TO.N,~{IOR}*%
X88900000Y-98695000D02*
X88900000Y-94687000D01*
X130556000Y-94570000D02*
X131497200Y-94570000D01*
X131560000Y-94507200D02*
X131560000Y-88877000D01*
X131497200Y-94570000D02*
X131560000Y-94507200D01*
X132588000Y-81488000D02*
X132588000Y-87849000D01*
X132588000Y-87849000D02*
X131560000Y-88877000D01*
X133608500Y-80467500D02*
X132588000Y-81488000D01*
X88900000Y-94687000D02*
X89154000Y-94433000D01*
%TO.N,Net-(U1-CVOLT)*%
X195986400Y-158200600D02*
X193283200Y-155497400D01*
X195986400Y-159270000D02*
X195986400Y-158200600D01*
%TO.N,Net-(U3-RT{slash}CLK)*%
X89103200Y-173048800D02*
X86766400Y-173048800D01*
X89154000Y-173099600D02*
X89103200Y-173048800D01*
X86766400Y-173048800D02*
X86258400Y-172540800D01*
X99364800Y-173099600D02*
X89154000Y-173099600D01*
X86258400Y-172540800D02*
X86258400Y-159942400D01*
X99901022Y-172563378D02*
X99364800Y-173099600D01*
X99901022Y-170940600D02*
X99901022Y-172563378D01*
X86258400Y-159942400D02*
X84937600Y-158621600D01*
%TO.N,Net-(U3-PWRGD)*%
X91694000Y-158926400D02*
X91694000Y-156821902D01*
X123235156Y-157955556D02*
X123235156Y-170940600D01*
X121294000Y-156014400D02*
X123235156Y-157955556D01*
X91694000Y-156821902D02*
X92501502Y-156014400D01*
X92501502Y-156014400D02*
X121294000Y-156014400D01*
%TO.N,Net-(Q3-B)*%
X121361200Y-174217200D02*
X121361200Y-158723200D01*
X123235156Y-181100600D02*
X123235156Y-176091156D01*
X123235156Y-176091156D02*
X121361200Y-174217200D01*
%TO.N,Net-(U3-VSENSE)*%
X95402400Y-168680000D02*
X107035600Y-168680000D01*
X107679067Y-169323467D02*
X107679067Y-170940600D01*
X107035600Y-168680000D02*
X107679067Y-169323467D01*
X93980000Y-158113600D02*
X93980000Y-167257600D01*
X93980000Y-167257600D02*
X95402400Y-168680000D01*
%TO.N,Net-(U1-OUT)*%
X208472400Y-161771200D02*
X203645200Y-161771200D01*
X203645200Y-161771200D02*
X203606400Y-161810000D01*
%TO.N,Net-(U1-DISC)*%
X195986400Y-164350000D02*
X194094800Y-164350000D01*
X186385200Y-158740000D02*
X191176600Y-158740000D01*
X191176600Y-161431800D02*
X191176600Y-158740000D01*
X194094800Y-164350000D02*
X191176600Y-161431800D01*
%TO.N,Net-(Q3-C)*%
X153988667Y-166971600D02*
X126409200Y-166971600D01*
X122315600Y-151346400D02*
X110845600Y-151346400D01*
X124968000Y-165530400D02*
X124968000Y-153998800D01*
X124968000Y-153998800D02*
X122315600Y-151346400D01*
X110845600Y-151346400D02*
X110856400Y-151357200D01*
X110856400Y-151357200D02*
X110896400Y-151357200D01*
X126409200Y-166971600D02*
X124968000Y-165530400D01*
%TO.N,Net-(U5-~{STSTB})*%
X81280000Y-113935000D02*
X79502000Y-112157000D01*
X79502000Y-112157000D02*
X79502000Y-93925000D01*
%TO.N,HLDA*%
X83820000Y-113935000D02*
X83820000Y-103069000D01*
X169672000Y-103069000D02*
X169660000Y-103057000D01*
X169660000Y-103057000D02*
X169660000Y-98695000D01*
%TO.N,~{WR}*%
X86360000Y-113935000D02*
X86360000Y-116023000D01*
%TO.N,DBIN*%
X161798000Y-119301000D02*
X162040000Y-119059000D01*
X88900000Y-113935000D02*
X88900000Y-117039000D01*
X161798000Y-119325000D02*
X161798000Y-119301000D01*
X162040000Y-119059000D02*
X162040000Y-113935000D01*
%TO.N,/CPU/D4*%
X126238000Y-114177000D02*
X126480000Y-113935000D01*
%TO.N,/CPU/D7*%
X99060000Y-113935000D02*
X99060000Y-116140000D01*
X99060000Y-116140000D02*
X99822000Y-116902000D01*
X134100000Y-116902000D02*
X134100000Y-113935000D01*
%TO.N,/CPU/D3*%
X136640000Y-116902000D02*
X136640000Y-113935000D01*
X104140000Y-113935000D02*
X104140000Y-117410000D01*
%TO.N,/CPU/D0*%
X114200000Y-110572000D02*
X114300000Y-110472000D01*
X114300000Y-110472000D02*
X114300000Y-98695000D01*
%TO.N,/CPU/D1*%
X109374000Y-111197000D02*
X109220000Y-111043000D01*
X109220000Y-111043000D02*
X109220000Y-98695000D01*
%TO.N,/CPU/D5*%
X104140000Y-98695000D02*
X104140000Y-108012000D01*
X129020000Y-108415000D02*
X129020000Y-113935000D01*
X128651000Y-108022000D02*
X128651000Y-108046000D01*
X128651000Y-108046000D02*
X129020000Y-108415000D01*
%TO.N,/CPU/D6*%
X99060000Y-98695000D02*
X99060000Y-109165000D01*
X131318000Y-109165000D02*
X131560000Y-109407000D01*
X131560000Y-109407000D02*
X131560000Y-113935000D01*
%TO.N,~{MEMW}*%
X221488000Y-104593000D02*
X221488000Y-108403000D01*
X86360000Y-108657000D02*
X86360000Y-98695000D01*
%TO.N,Net-(D3-K)*%
D44*
X91033600Y-161669600D02*
X89458800Y-160094800D01*
X89458800Y-154263600D02*
X90993600Y-152728800D01*
X89458800Y-160094800D02*
X89458800Y-154263600D01*
%TO.N,Net-(U3-SS{slash}TR)*%
D45*
X83094200Y-162584000D02*
X83094200Y-161125400D01*
X83718400Y-160501200D02*
X83718400Y-158723200D01*
X83616800Y-160602800D02*
X83718400Y-160501200D01*
X83718400Y-158723200D02*
X83718400Y-158316800D01*
X83718400Y-158316800D02*
X84074000Y-157961200D01*
X83094200Y-161125400D02*
X83616800Y-160602800D01*
%TO.N,SCL*%
D40*
X210032600Y-67483600D02*
X214376000Y-71827000D01*
X245762000Y-108039000D02*
X247650000Y-109927000D01*
X214376000Y-89353000D02*
X221742000Y-96719000D01*
X221742000Y-96719000D02*
X221742000Y-97481000D01*
X249123200Y-169594400D02*
X249123200Y-146632800D01*
X187198000Y-68525000D02*
X188239400Y-67483600D01*
X254863600Y-175334800D02*
X249123200Y-169594400D01*
X151892000Y-78177000D02*
X151892000Y-85466800D01*
X171958000Y-70557000D02*
X173482000Y-69033000D01*
X245762000Y-97845000D02*
X245762000Y-108039000D01*
X249123200Y-146632800D02*
X248869200Y-146378800D01*
X188239400Y-67483600D02*
X210032600Y-67483600D01*
X173482000Y-69033000D02*
X175768000Y-69033000D01*
X214376000Y-71827000D02*
X214376000Y-89353000D01*
X245872000Y-97735000D02*
X245762000Y-97845000D01*
X259495300Y-175334800D02*
X254863600Y-175334800D01*
X260908800Y-176748300D02*
X259495300Y-175334800D01*
X151880000Y-85555000D02*
X151892000Y-85543000D01*
%TO.N,SDA*%
X177800000Y-69795000D02*
X174752000Y-69795000D01*
X254558800Y-178535200D02*
X262890000Y-178535200D01*
X213868000Y-90877000D02*
X213868000Y-72335000D01*
X248366400Y-148009600D02*
X248366400Y-169955200D01*
X243078000Y-107895000D02*
X245110000Y-109927000D01*
X187457298Y-69151000D02*
X184162702Y-69151000D01*
X213868000Y-72335000D02*
X209660600Y-68127600D01*
X209660600Y-68127600D02*
X188233210Y-68127600D01*
X253949200Y-177925600D02*
X254558800Y-178535200D01*
X187824000Y-68536810D02*
X187824000Y-68784298D01*
X184162702Y-69151000D02*
X183642000Y-69671702D01*
X188233210Y-68127600D02*
X187824000Y-68536810D01*
X183642000Y-69671702D02*
X183642000Y-70049000D01*
X253949200Y-175538000D02*
X253949200Y-177925600D01*
X174752000Y-69795000D02*
X172974000Y-71573000D01*
X263448800Y-177976400D02*
X263448800Y-176748300D01*
X248366400Y-169955200D02*
X253949200Y-175538000D01*
X262890000Y-178535200D02*
X263448800Y-177976400D01*
X154432000Y-79056000D02*
X154432000Y-85466800D01*
X243078000Y-98497000D02*
X243078000Y-107895000D01*
X220726000Y-97735000D02*
X213868000Y-90877000D01*
X247040400Y-146683600D02*
X248366400Y-148009600D01*
X154686000Y-78802000D02*
X154432000Y-79056000D01*
X154420000Y-85555000D02*
X154432000Y-85543000D01*
X187824000Y-68784298D02*
X187457298Y-69151000D01*
%TO.N,Net-(D1-K)*%
X130911600Y-134745600D02*
X137160000Y-128497200D01*
X137160000Y-128497200D02*
X188163200Y-128497200D01*
%TO.N,RESET*%
X148082000Y-112677000D02*
X149340000Y-113935000D01*
X239268000Y-95449000D02*
X239268000Y-92655000D01*
X178054000Y-79955000D02*
X177292000Y-79193000D01*
X134100000Y-78075400D02*
X134100000Y-73637000D01*
X134100000Y-73637000D02*
X134100000Y-69690000D01*
X134100000Y-69690000D02*
X134874000Y-68916000D01*
X185674000Y-92655000D02*
X185674000Y-82362596D01*
X185674000Y-82362596D02*
X183266404Y-79955000D01*
X183266404Y-79955000D02*
X178054000Y-79955000D01*
X148082000Y-78177000D02*
X148082000Y-112677000D01*
X177292000Y-79193000D02*
X177292000Y-74113000D01*
X176866000Y-73687000D02*
X175006000Y-73687000D01*
X148132800Y-78126200D02*
X148082000Y-78177000D01*
X134257247Y-78232647D02*
X134100000Y-78075400D01*
X177292000Y-74113000D02*
X176866000Y-73687000D01*
%TO.N,~{RESIN}*%
X236982000Y-80717000D02*
X236982000Y-80971000D01*
X243944000Y-174507200D02*
X250444000Y-174507200D01*
X198374000Y-80717000D02*
X198374000Y-77694400D01*
X237998000Y-107895000D02*
X240030000Y-109927000D01*
X237998000Y-81987000D02*
X237998000Y-107895000D01*
X243944000Y-147295600D02*
X243944000Y-174507200D01*
X236982000Y-80971000D02*
X237998000Y-81987000D01*
X243738400Y-147090000D02*
X243944000Y-147295600D01*
X194310000Y-87321000D02*
X194310000Y-80717000D01*
X198374000Y-77694400D02*
X198399400Y-77669000D01*
%TO.N,RDY*%
X171451450Y-92009952D02*
X171470048Y-92009952D01*
X171704000Y-82241000D02*
X172638000Y-81307000D01*
X171470048Y-92009952D02*
X171704000Y-91776000D01*
X172638000Y-81307000D02*
X175006000Y-81307000D01*
X171704000Y-91776000D02*
X171704000Y-82241000D01*
X165862000Y-91893000D02*
X165100000Y-92655000D01*
X165100000Y-92655000D02*
X164592000Y-92655000D01*
X164592000Y-92655000D02*
X164580000Y-92667000D01*
X164580000Y-92667000D02*
X164580000Y-98695000D01*
%TO.N,SYNC*%
X173228000Y-110943000D02*
X173228000Y-84527000D01*
X173228000Y-84527000D02*
X173908000Y-83847000D01*
X173908000Y-83847000D02*
X175006000Y-83847000D01*
X171958000Y-112213000D02*
X173228000Y-110943000D01*
%TO.N,PHI2*%
X182626000Y-88927000D02*
X183419200Y-88927000D01*
D44*
X184759600Y-105609000D02*
X184251600Y-106117000D01*
X156960000Y-106484600D02*
X156960000Y-113935000D01*
X184759600Y-90267400D02*
X184759600Y-105609000D01*
X157022800Y-105964600D02*
X157022800Y-106421800D01*
X183419200Y-88927000D02*
X184759600Y-90267400D01*
X157022800Y-106421800D02*
X156960000Y-106484600D01*
%TO.N,PHI1*%
X172466000Y-84143190D02*
X172466000Y-93349000D01*
X182626000Y-86387000D02*
X178835600Y-82596600D01*
X178835600Y-82596600D02*
X174012590Y-82596600D01*
X174012590Y-82596600D02*
X172466000Y-84143190D01*
X172466000Y-93349000D02*
X167120000Y-98695000D01*
%TO.N,BTN3*%
D40*
X235458000Y-107895000D02*
X240030000Y-112467000D01*
X212970000Y-83375000D02*
X212970000Y-91249000D01*
X213106000Y-82866000D02*
X213106000Y-83239000D01*
X212970000Y-91249000D02*
X219964000Y-98243000D01*
X206298800Y-170966000D02*
X197662800Y-170966000D01*
X197662800Y-170966000D02*
X197612000Y-170915200D01*
X212852000Y-82612000D02*
X213106000Y-82866000D01*
X162040000Y-85555000D02*
X162052000Y-85543000D01*
X213106000Y-83239000D02*
X212970000Y-83375000D01*
X235458000Y-99259000D02*
X235458000Y-107895000D01*
%TO.N,1WIRE*%
X164580000Y-85555000D02*
X164592000Y-85543000D01*
X164592000Y-83511000D02*
X164846000Y-83257000D01*
X164592000Y-85466800D02*
X164592000Y-88865000D01*
X164592000Y-85466800D02*
X164592000Y-83511000D01*
X164592000Y-88865000D02*
X164580000Y-88877000D01*
%TO.N,-5V*%
D44*
X257048000Y-115007000D02*
X257810000Y-114245000D01*
D41*
X184442600Y-145832200D02*
X184442600Y-148360000D01*
X191312800Y-128649600D02*
X191312800Y-128598800D01*
D44*
X149333000Y-120576000D02*
X163849000Y-120576000D01*
D41*
X182676800Y-144651600D02*
X183540400Y-145515200D01*
X261010400Y-134237600D02*
X259994400Y-135253600D01*
D44*
X146800000Y-113935000D02*
X146800000Y-118043000D01*
X163849000Y-120576000D02*
X167640000Y-116785000D01*
D41*
X259943600Y-128598800D02*
X261010400Y-129665600D01*
X190296800Y-142772000D02*
X190296800Y-129665600D01*
X183540400Y-145515200D02*
X184150000Y-145515200D01*
X187553600Y-145515200D02*
X190296800Y-142772000D01*
X183540400Y-145515200D02*
X187553600Y-145515200D01*
D44*
X251460000Y-94941000D02*
X251460000Y-114194200D01*
D41*
X261010400Y-129665600D02*
X261010400Y-134237600D01*
D44*
X257810000Y-114245000D02*
X257810000Y-112467000D01*
D41*
X146132608Y-134745600D02*
X146132608Y-143667408D01*
D44*
X187137058Y-110749942D02*
X187137058Y-103891942D01*
X252272800Y-115007000D02*
X257048000Y-115007000D01*
X187137058Y-103891942D02*
X200406000Y-90623000D01*
X148082000Y-119325000D02*
X149333000Y-120576000D01*
X250698000Y-93671000D02*
X250698000Y-94179000D01*
D41*
X191312800Y-128598800D02*
X259943600Y-128598800D01*
D44*
X251460000Y-114194200D02*
X252272800Y-115007000D01*
D41*
X259994400Y-135253600D02*
X257810000Y-135253600D01*
D44*
X146800000Y-118043000D02*
X148082000Y-119325000D01*
X250698000Y-94179000D02*
X251460000Y-94941000D01*
D41*
X147116800Y-144651600D02*
X182676800Y-144651600D01*
X190296800Y-129665600D02*
X191312800Y-128649600D01*
D44*
X186750942Y-111136058D02*
X187137058Y-110749942D01*
D41*
X146132608Y-143667408D02*
X147116800Y-144651600D01*
X184454800Y-145820000D02*
X184442600Y-145832200D01*
X184150000Y-145515200D02*
X184454800Y-145820000D01*
%TO.N,INTE*%
D40*
X159500000Y-119579000D02*
X159500000Y-113935000D01*
X189264000Y-120746000D02*
X239371000Y-120746000D01*
X188976000Y-120458000D02*
X189264000Y-120746000D01*
X241394000Y-112766116D02*
X241394000Y-103483000D01*
X240732000Y-119385000D02*
X240732000Y-113428116D01*
X239371000Y-120746000D02*
X240732000Y-119385000D01*
X240732000Y-113428116D02*
X241394000Y-112766116D01*
X241394000Y-103483000D02*
X241808000Y-103069000D01*
%TO.N,Net-(U9C-Y)*%
X244348000Y-103069000D02*
X244348000Y-95449000D01*
%TD*%
M02*
