M48
; DRILL file KiCad 10.0.3 date 2026-05-25T21:33:35
; FORMAT={-:-/ absolute / metric / decimal}
; #@! TF.CreationDate,2026-05-25T21:33:35+03:00
; #@! TF.GenerationSoftware,Kicad,Pcbnew,10.0.3
; #@! TF.FileFunction,Plated,1,2,PTH
FMAT,2
METRIC
; #@! TA.AperFunction,Plated,PTH,ViaDrill
T1C0.300
; #@! TA.AperFunction,Plated,PTH,ComponentDrill
T2C0.500
; #@! TA.AperFunction,Plated,PTH,ComponentDrill
T3C0.750
; #@! TA.AperFunction,Plated,PTH,ComponentDrill
T4C0.800
; #@! TA.AperFunction,Plated,PTH,ComponentDrill
T5C0.900
; #@! TA.AperFunction,Plated,PTH,ComponentDrill
T6C1.000
; #@! TA.AperFunction,Plated,PTH,ComponentDrill
T7C1.100
; #@! TA.AperFunction,Plated,PTH,ComponentDrill
T8C1.500
%
G90
G05
T1
X79.502Y-93.925
X83.82Y-103.069
X84.074Y-157.961
X84.938Y-158.622
X86.106Y-86.305
X86.36Y-96.719
X86.36Y-108.657
X86.36Y-116.023
X87.63Y-94.179
X87.63Y-106.117
X88.9Y-117.039
X89.154Y-94.433
X90.17Y-95.82
X91.034Y-161.67
X91.44Y-92.655
X91.44Y-105.355
X91.44Y-117.293
X91.694Y-84.781
X91.694Y-110.689
X91.694Y-158.926
X92.71Y-91.893
X92.761Y-156.64
X93.98Y-84.781
X93.98Y-158.114
X95.504Y-96.465
X96.52Y-85.172
X96.52Y-92.655
X96.52Y-101.545
X96.52Y-120.341
X97.944Y-92.655
X99.06Y-109.165
X99.822Y-116.902
X100.838Y-104.339
X101.6Y-76.516
X101.6Y-85.172
X101.854Y-109.673
X102.726Y-92.699
X103.886Y-92.655
X104.14Y-108.012
X104.14Y-117.41
X104.394Y-84.547
X105.31Y-106.879
X105.664Y-75.266
X106.68Y-103.831
X106.68Y-117.918
X107.181Y-94.042
X107.442Y-92.655
X108.591Y-92.608
X109.22Y-77.415
X109.374Y-111.197
X109.845Y-94.042
X111.66Y-106.879
X111.76Y-78.177
X111.76Y-92.655
X113.03Y-110.435
X113.03Y-120.341
X114.2Y-110.572
X114.3Y-119.579
X116.84Y-104.593
X116.84Y-109.673
X117.856Y-75.891
X117.856Y-109.673
X118.872Y-68.271
X118.872Y-86.305
X121.361Y-158.723
X121.412Y-96.465
X121.412Y-109.673
X122.784Y-80.438
X123.94Y-119.579
X124.003Y-104.314
X124.968Y-120.572
X125.273Y-81.047
X126.492Y-95.195
X128.651Y-108.022
X129.794Y-76.653
X130.048Y-104.314
X130.048Y-109.927
X130.556Y-94.57
X131.318Y-109.165
X131.56Y-80.768
X131.572Y-84.781
X131.775Y-104.263
X133.35Y-91.893
X133.608Y-80.468
X134.1Y-91.248
X134.1Y-106.762
X134.1Y-116.902
X134.112Y-82.378
X134.257Y-78.233
X134.874Y-68.916
X136.64Y-116.902
X136.652Y-95.82
X137.922Y-100.275
X139.18Y-91.248
X139.18Y-96.211
X139.192Y-84.273
X139.192Y-102.307
X140.208Y-96.465
X141.72Y-91.953
X141.72Y-106.137
X141.732Y-84.019
X141.732Y-108.032
X143.764Y-81.987
X144.78Y-111.451
X146.812Y-92.518
X146.812Y-93.788
X148.133Y-78.126
X149.606Y-109.673
X150.368Y-83.003
X151.88Y-119.591
X151.892Y-78.177
X152.146Y-92.655
X153.416Y-91.502
X154.42Y-105.888
X154.432Y-109.165
X154.686Y-78.802
X155.753Y-104.202
X156.972Y-75.637
X157.023Y-105.965
X159.258Y-92.401
X159.5Y-119.579
X159.512Y-110.924
X161.798Y-119.325
X164.846Y-83.257
X165.862Y-91.893
X167.64Y-116.785
X169.672Y-75.637
X169.672Y-103.069
X170.502Y-92.518
X171.451Y-92.01
X171.958Y-70.557
X171.958Y-112.213
X172.415Y-77.212
X172.974Y-71.573
X174.244Y-98.497
X174.244Y-106.762
X175.768Y-69.033
X176.022Y-99.122
X176.022Y-104.085
X176.53Y-111.705
X176.784Y-96.211
X177.8Y-69.795
X178.562Y-92.655
X178.816Y-73.859
X178.816Y-78.685
X179.883Y-104.755
X180.645Y-71.458
X181.229Y-113.102
X183.642Y-70.049
X183.957Y-94.24
X184.252Y-106.117
X184.404Y-69.795
X185.674Y-92.655
X185.826Y-72.132
X186.751Y-111.136
X187.198Y-68.525
X187.729Y-120.572
X188.163Y-128.497
X188.302Y-74.342
X188.976Y-120.458
X189.992Y-116.861
X191.008Y-101.799
X192.176Y-118.233
X192.278Y-115.769
X192.491Y-116.54
X193.548Y-72.691
X193.548Y-117.293
X194.31Y-80.717
X194.818Y-100.412
X195.072Y-118.858
X196.088Y-117.664
X197.358Y-99.767
X197.358Y-115.007
X197.612Y-170.915
X198.628Y-117.547
X200.406Y-90.623
X201.168Y-106.625
X201.168Y-110.435
X201.168Y-116.394
X202.438Y-99.259
X202.692Y-114.636
X206.248Y-109.165
X206.299Y-170.966
X208.128Y-169.798
X208.788Y-107.504
X208.788Y-109.673
X209.914Y-94.433
X211.074Y-73.097
X211.328Y-108.032
X212.09Y-96.211
X212.344Y-95.195
X212.852Y-82.612
X213.36Y-96.973
X213.614Y-100.412
X215.458Y-98.939
X216.154Y-107.524
X219.964Y-98.243
X220.218Y-91.639
X220.726Y-97.735
X221.488Y-108.403
X221.742Y-97.481
X222.758Y-72.335
X224.79Y-110.181
X225.298Y-102.307
X226.619Y-103.067
X227.584Y-114.128
X228.6Y-72.589
X229.018Y-100.529
X235.458Y-99.259
X236.982Y-80.717
X238.811Y-105.482
X239.268Y-92.655
X240.538Y-105.482
X241.808Y-91.893
X243.078Y-98.497
X243.738Y-147.09
X245.11Y-147.039
X245.872Y-97.735
X247.04Y-146.684
X248.869Y-146.379
X249.479Y-94.509
X250.698Y-93.671
X252.73Y-93.925
X254.508Y-93.417
X256.54Y-105.609
X261.01Y-119.274
T2
X234.645Y-147.75
X236.345Y-147.75
T3
X110.846Y-151.346
X110.846Y-152.616
X110.846Y-153.886
T4
X78.094Y-162.584
X78.094Y-166.75
X81.28Y-73.637
X81.28Y-88.877
X81.28Y-98.695
X81.28Y-113.935
X83.094Y-162.584
X83.094Y-166.75
X83.82Y-73.637
X83.82Y-88.877
X83.82Y-98.695
X83.82Y-113.935
X85.994Y-152.729
X86.004Y-148.619
X86.36Y-73.637
X86.36Y-88.877
X86.36Y-98.695
X86.36Y-113.935
X88.9Y-73.637
X88.9Y-88.877
X88.9Y-98.695
X88.9Y-113.935
X90.994Y-152.729
X91.004Y-148.619
X91.44Y-73.637
X91.44Y-88.877
X91.44Y-98.695
X91.44Y-113.935
X93.98Y-73.637
X93.98Y-88.877
X93.98Y-98.695
X93.98Y-113.935
X96.012Y-170.941
X96.012Y-181.101
X96.52Y-73.637
X96.52Y-88.877
X96.52Y-98.695
X96.52Y-113.935
X98.378Y-142.924
X99.06Y-73.637
X99.06Y-88.877
X99.06Y-98.695
X99.06Y-113.935
X99.901Y-170.941
X99.901Y-181.101
X101.6Y-73.637
X101.6Y-88.877
X101.6Y-98.695
X101.6Y-113.935
X103.378Y-142.924
X103.79Y-170.941
X103.79Y-181.101
X104.14Y-73.637
X104.14Y-88.877
X104.14Y-98.695
X104.14Y-113.935
X106.68Y-73.637
X106.68Y-88.877
X106.68Y-98.695
X106.68Y-113.935
X107.679Y-170.941
X107.679Y-181.101
X108.49Y-134.746
X109.22Y-73.637
X109.22Y-88.877
X109.22Y-98.695
X109.22Y-113.935
X109.225Y-162.482
X110.99Y-134.746
X111.568Y-170.941
X111.568Y-181.101
X111.76Y-73.637
X111.76Y-88.877
X111.76Y-98.695
X111.76Y-113.935
X112.725Y-162.482
X114.3Y-73.637
X114.3Y-88.877
X114.3Y-98.695
X114.3Y-113.935
X115.457Y-170.941
X115.457Y-181.101
X116.141Y-134.746
X119.346Y-170.941
X119.346Y-181.101
X121.4Y-73.637
X121.4Y-88.877
X121.4Y-98.695
X121.4Y-113.935
X123.235Y-170.941
X123.235Y-181.101
X123.94Y-73.637
X123.94Y-88.877
X123.94Y-98.695
X123.94Y-113.935
X126.301Y-134.746
X126.48Y-73.637
X126.48Y-88.877
X126.48Y-98.695
X126.48Y-113.935
X127.124Y-170.941
X127.124Y-181.101
X129.02Y-73.637
X129.02Y-88.877
X129.02Y-98.695
X129.02Y-113.935
X130.912Y-134.746
X131.013Y-170.941
X131.013Y-181.101
X131.56Y-73.637
X131.56Y-88.877
X131.56Y-98.695
X131.56Y-113.935
X134.1Y-73.637
X134.1Y-88.877
X134.1Y-98.695
X134.1Y-113.935
X136.64Y-73.637
X136.64Y-88.877
X136.64Y-98.695
X136.64Y-113.935
X139.18Y-73.637
X139.18Y-88.877
X139.18Y-98.695
X139.18Y-113.935
X141.072Y-134.746
X141.72Y-73.637
X141.72Y-88.877
X141.72Y-98.695
X141.72Y-113.935
X144.26Y-73.637
X144.26Y-88.877
X144.26Y-98.695
X144.26Y-113.935
X144.272Y-85.467
X146.133Y-134.746
X146.8Y-73.637
X146.8Y-88.877
X146.8Y-98.695
X146.8Y-113.935
X146.812Y-85.467
X148.633Y-134.746
X149.34Y-73.637
X149.34Y-88.877
X149.34Y-98.695
X149.34Y-113.935
X149.352Y-85.467
X151.88Y-73.637
X151.88Y-88.877
X151.88Y-98.695
X151.88Y-113.935
X151.892Y-85.467
X153.989Y-156.812
X153.989Y-166.972
X154.42Y-73.637
X154.42Y-88.877
X154.42Y-98.695
X154.42Y-113.935
X154.432Y-85.467
X155.263Y-138.911
X155.263Y-141.451
X156.96Y-73.637
X156.96Y-88.877
X156.96Y-98.695
X156.96Y-113.935
X156.972Y-85.467
X157.771Y-156.812
X157.771Y-166.972
X159.043Y-138.2
X159.043Y-148.36
X159.5Y-73.637
X159.5Y-88.877
X159.5Y-98.695
X159.5Y-113.935
X159.512Y-85.467
X162.04Y-73.637
X162.04Y-88.877
X162.04Y-98.695
X162.04Y-113.935
X162.052Y-85.467
X164.58Y-73.637
X164.58Y-88.877
X164.58Y-98.695
X164.58Y-113.935
X164.592Y-85.467
X167.12Y-73.637
X167.12Y-88.877
X167.12Y-98.695
X167.12Y-113.935
X167.132Y-85.467
X167.963Y-138.911
X167.963Y-141.451
X169.66Y-73.637
X169.66Y-88.877
X169.66Y-98.695
X169.66Y-113.935
X171.743Y-138.2
X171.743Y-148.36
X175.006Y-73.687
X175.006Y-76.227
X175.006Y-78.767
X175.006Y-81.307
X175.006Y-83.847
X175.006Y-86.387
X175.006Y-88.927
X175.006Y-91.467
X180.663Y-138.911
X180.663Y-141.451
X182.626Y-73.687
X182.626Y-76.227
X182.626Y-78.767
X182.626Y-81.307
X182.626Y-83.847
X182.626Y-86.387
X182.626Y-88.927
X182.626Y-91.467
X184.443Y-138.2
X184.443Y-148.36
X186.385Y-158.74
X186.385Y-168.9
X188.214Y-80.717
X188.239Y-77.669
X191.008Y-104.593
X191.008Y-112.213
X191.177Y-158.74
X191.177Y-168.9
X191.81Y-87.321
X193.283Y-155.497
X193.548Y-104.593
X193.548Y-112.213
X194.31Y-87.321
X195.986Y-159.27
X195.986Y-161.81
X195.986Y-164.35
X195.986Y-166.89
X196.088Y-104.593
X196.088Y-112.213
X198.283Y-155.497
X198.374Y-80.717
X198.399Y-77.669
X198.577Y-69.799
X198.577Y-74.799
X198.628Y-104.593
X198.628Y-112.213
X201.157Y-155.472
X201.168Y-104.593
X201.168Y-112.213
X203.606Y-159.27
X203.606Y-161.81
X203.606Y-164.35
X203.606Y-166.89
X203.708Y-104.593
X203.708Y-112.213
X204.0Y-76.5
X206.157Y-155.472
X206.248Y-104.593
X206.248Y-112.213
X208.472Y-161.771
X208.788Y-104.593
X208.788Y-112.213
X208.88Y-76.5
X210.972Y-161.771
X211.328Y-104.593
X211.328Y-112.213
X213.868Y-104.593
X213.868Y-112.213
X216.408Y-104.593
X216.408Y-112.213
X217.653Y-149.249
X217.653Y-159.409
X217.729Y-140.551
X217.729Y-145.551
X218.948Y-104.593
X218.948Y-112.213
X221.488Y-104.593
X221.488Y-112.213
X224.028Y-104.593
X224.028Y-112.213
X224.485Y-142.67
X224.485Y-145.21
X224.485Y-147.75
X224.485Y-150.29
X228.041Y-104.72
X228.041Y-109.72
X231.648Y-95.449
X231.648Y-103.069
X232.105Y-142.67
X232.105Y-145.21
X232.105Y-147.75
X232.105Y-150.29
X234.188Y-95.449
X234.188Y-103.069
X236.728Y-95.449
X236.728Y-103.069
X237.835Y-72.513
X238.862Y-140.551
X238.862Y-145.551
X238.862Y-149.249
X238.862Y-159.409
X239.091Y-76.932
X239.268Y-95.449
X239.268Y-103.069
X241.591Y-76.932
X241.808Y-95.449
X241.808Y-103.069
X242.835Y-72.513
X244.348Y-95.449
X244.348Y-103.069
X246.888Y-95.449
X246.888Y-103.069
X250.19Y-98.044
X250.19Y-103.044
T5
X156.063Y-133.628
X158.603Y-133.628
X168.763Y-133.628
X171.303Y-133.628
X181.463Y-133.628
X184.003Y-133.628
T6
X217.478Y-69.951
X217.478Y-118.211
X220.018Y-69.951
X220.018Y-118.211
X222.558Y-69.951
X222.558Y-118.211
X225.098Y-69.951
X225.098Y-118.211
X227.638Y-69.951
X227.638Y-118.211
X230.178Y-69.951
X230.178Y-118.211
X232.718Y-118.211
X235.258Y-69.951
X235.258Y-118.211
X237.798Y-69.951
X239.318Y-118.211
X240.03Y-109.927
X240.03Y-112.467
X240.03Y-132.714
X240.03Y-135.254
X240.338Y-69.951
X241.858Y-118.211
X242.57Y-109.927
X242.57Y-112.467
X242.57Y-132.714
X242.57Y-135.254
X242.878Y-69.951
X244.398Y-118.211
X245.11Y-109.927
X245.11Y-112.467
X245.11Y-132.714
X245.11Y-135.254
X245.418Y-69.951
X246.938Y-118.211
X247.04Y-162.248
X247.04Y-169.848
X247.65Y-109.927
X247.65Y-112.467
X247.65Y-132.714
X247.65Y-135.254
X247.958Y-69.951
X249.478Y-118.211
X250.19Y-109.927
X250.19Y-112.467
X250.19Y-132.714
X250.19Y-135.254
X252.018Y-118.211
X252.73Y-109.927
X252.73Y-112.467
X252.73Y-132.714
X252.73Y-135.254
X253.474Y-85.797
X253.474Y-88.337
X254.558Y-118.211
X255.27Y-109.927
X255.27Y-112.467
X255.27Y-132.714
X255.27Y-135.254
X255.829Y-176.748
X257.098Y-118.211
X257.81Y-109.927
X257.81Y-112.467
X257.81Y-132.714
X257.81Y-135.254
X258.064Y-85.797
X258.064Y-88.337
X258.369Y-176.748
X260.909Y-176.748
X263.449Y-176.748
T7
X125.933Y-141.111
X128.473Y-141.111
X131.013Y-141.111
X143.916Y-157.012
X146.456Y-157.012
X148.996Y-157.012
X162.763Y-157.012
X165.303Y-157.012
X167.843Y-157.012
X183.594Y-174.507
X183.594Y-179.007
X190.094Y-174.507
X190.094Y-179.007
X194.769Y-174.507
X194.769Y-179.007
X201.269Y-174.507
X201.269Y-179.007
X205.944Y-174.507
X205.944Y-179.007
X212.444Y-174.507
X212.444Y-179.007
X243.944Y-174.507
X243.944Y-179.007
X250.444Y-174.507
X250.444Y-179.007
T8
X228.295Y-158.28
X228.295Y-179.08
T6
G00X84.988Y-138.838
M15
G01X84.988Y-141.038
M16
G05
G00X89.488Y-144.738
M15
G01X87.288Y-144.738
M16
G05
G00X91.288Y-138.638
M15
G01X91.288Y-141.238
M16
G05
M30
