M48
; DRILL file {KiCad 9.0.7} date 2026-02-05T00:09:05+0300
; FORMAT={-:-/ absolute / metric / decimal}
; #@! TF.CreationDate,2026-02-05T00:09:05+03:00
; #@! TF.GenerationSoftware,Kicad,Pcbnew,9.0.7
; #@! TF.FileFunction,Plated,1,2,PTH
FMAT,2
METRIC
; #@! TA.AperFunction,Plated,PTH,ViaDrill
T1C0.300
; #@! TA.AperFunction,Plated,PTH,ComponentDrill
T2C0.500
; #@! TA.AperFunction,Plated,PTH,ComponentDrill
T3C0.800
; #@! TA.AperFunction,Plated,PTH,ComponentDrill
T4C0.900
; #@! TA.AperFunction,Plated,PTH,ComponentDrill
T5C1.000
; #@! TA.AperFunction,Plated,PTH,ComponentDrill
T6C1.100
; #@! TA.AperFunction,Plated,PTH,ComponentDrill
T7C1.500
%
G90
G05
T1
X79.502Y-158.369
X83.82Y-157.607
X83.82Y-167.513
X84.074Y-99.517
X84.938Y-100.178
X86.106Y-150.749
X86.36Y-161.163
X86.36Y-173.101
X86.36Y-180.467
X87.63Y-158.623
X87.63Y-170.561
X88.9Y-181.483
X89.154Y-158.877
X90.17Y-160.264
X91.034Y-103.226
X91.44Y-157.099
X91.44Y-169.799
X91.44Y-181.737
X91.694Y-100.482
X91.694Y-149.225
X91.694Y-175.133
X92.71Y-156.337
X92.761Y-98.196
X93.98Y-99.67
X93.98Y-149.225
X95.504Y-160.909
X96.52Y-149.616
X96.52Y-157.099
X96.52Y-165.989
X96.52Y-184.785
X97.944Y-157.099
X99.06Y-173.609
X99.822Y-181.346
X100.838Y-168.783
X101.6Y-140.96
X101.6Y-149.616
X101.854Y-174.117
X102.726Y-157.143
X103.886Y-157.099
X104.14Y-172.456
X104.14Y-181.854
X104.394Y-148.991
X105.31Y-171.323
X105.664Y-139.71
X106.68Y-168.275
X106.68Y-182.362
X107.181Y-158.486
X107.442Y-157.099
X108.591Y-157.052
X109.22Y-141.859
X109.374Y-175.641
X109.845Y-158.486
X111.66Y-171.323
X111.76Y-142.621
X111.76Y-157.099
X113.03Y-174.879
X113.03Y-184.785
X114.046Y-149.225
X114.2Y-175.016
X114.3Y-184.023
X115.57Y-157.099
X116.84Y-169.037
X116.84Y-174.117
X117.367Y-88.9
X117.367Y-90.78
X117.399Y-94.183
X117.415Y-86.919
X117.45Y-104.902
X117.45Y-106.782
X117.5Y-101.143
X117.5Y-103.022
X117.602Y-99.212
X117.847Y-89.814
X117.847Y-91.694
X117.856Y-140.335
X117.856Y-174.117
X117.895Y-87.833
X117.93Y-105.816
X117.93Y-107.696
X117.981Y-102.057
X117.981Y-103.937
X118.082Y-100.127
X118.367Y-90.78
X118.41Y-88.9
X118.415Y-86.919
X118.45Y-106.782
X118.493Y-104.902
X118.5Y-103.022
X118.544Y-101.143
X118.602Y-99.212
X118.847Y-91.694
X118.872Y-132.715
X118.872Y-150.749
X118.891Y-89.814
X118.895Y-87.833
X118.93Y-107.696
X118.974Y-105.816
X118.981Y-103.937
X119.024Y-102.057
X119.082Y-100.127
X119.367Y-90.78
X119.41Y-88.9
X119.415Y-86.919
X119.45Y-106.782
X119.493Y-104.902
X119.5Y-103.022
X119.544Y-101.143
X119.602Y-99.212
X119.634Y-94.183
X119.847Y-91.694
X119.891Y-89.814
X119.895Y-87.833
X119.93Y-107.696
X119.974Y-105.816
X119.981Y-103.937
X120.024Y-102.057
X120.367Y-90.78
X120.41Y-88.9
X120.415Y-86.919
X120.847Y-91.694
X120.891Y-89.814
X120.895Y-87.833
X121.361Y-100.279
X121.367Y-90.78
X121.41Y-88.9
X121.412Y-160.909
X121.412Y-174.117
X121.53Y-86.919
X121.818Y-94.234
X121.847Y-91.694
X121.891Y-89.814
X122.01Y-87.833
X122.367Y-90.78
X122.41Y-88.9
X122.53Y-86.919
X123.698Y-158.115
X123.94Y-184.023
X124.968Y-185.016
X126.45Y-104.394
X126.45Y-106.274
X126.492Y-159.639
X126.93Y-105.308
X126.93Y-107.188
X127.45Y-106.274
X127.494Y-104.394
X127.93Y-107.188
X127.974Y-105.308
X128.45Y-106.274
X128.494Y-104.394
X128.651Y-172.466
X128.93Y-107.188
X128.974Y-105.308
X129.032Y-157.099
X129.549Y-104.394
X129.549Y-106.274
X129.794Y-141.097
X130.029Y-105.308
X130.029Y-107.188
X130.048Y-174.371
X130.549Y-106.274
X130.556Y-159.014
X130.592Y-104.394
X131.073Y-105.308
X131.318Y-173.609
X131.549Y-106.274
X131.56Y-145.212
X131.572Y-149.225
X131.592Y-104.394
X132.073Y-105.308
X133.35Y-156.337
X133.608Y-144.911
X134.1Y-155.692
X134.1Y-171.206
X134.1Y-181.346
X134.112Y-146.822
X134.257Y-142.677
X134.511Y-98.196
X134.518Y-100.025
X134.518Y-101.854
X134.537Y-94.437
X134.537Y-96.317
X134.585Y-92.456
X134.588Y-88.697
X134.588Y-90.576
X134.636Y-86.716
X134.874Y-100.94
X134.874Y-133.36
X134.992Y-99.111
X135.018Y-95.352
X135.018Y-97.231
X135.026Y-102.768
X135.066Y-93.37
X135.068Y-89.611
X135.068Y-91.491
X135.116Y-87.63
X135.476Y-100.025
X135.511Y-98.196
X135.527Y-101.854
X135.537Y-96.317
X135.581Y-94.437
X135.585Y-92.456
X135.588Y-90.576
X135.632Y-88.697
X135.636Y-86.716
X135.957Y-100.94
X135.992Y-99.111
X136.008Y-102.768
X136.018Y-97.231
X136.061Y-95.352
X136.066Y-93.37
X136.068Y-91.491
X136.112Y-89.611
X136.116Y-87.63
X136.476Y-100.025
X136.527Y-101.854
X136.537Y-96.317
X136.543Y-98.196
X136.581Y-94.437
X136.585Y-92.456
X136.588Y-90.576
X136.632Y-88.697
X136.636Y-86.716
X136.64Y-181.346
X136.652Y-160.264
X136.934Y-121.158
X136.934Y-123.038
X136.957Y-100.94
X136.982Y-117.297
X136.982Y-119.177
X137.008Y-102.768
X137.018Y-97.231
X137.024Y-99.111
X137.032Y-113.538
X137.032Y-115.418
X137.061Y-95.352
X137.066Y-93.37
X137.068Y-91.491
X137.112Y-89.611
X137.116Y-87.63
X137.134Y-111.608
X137.414Y-122.072
X137.414Y-123.952
X137.462Y-118.212
X137.462Y-120.091
X137.513Y-114.452
X137.513Y-116.332
X137.537Y-96.317
X137.543Y-98.196
X137.581Y-94.437
X137.585Y-92.456
X137.588Y-90.576
X137.61Y-100.076
X137.614Y-110.642
X137.614Y-112.522
X137.632Y-88.697
X137.636Y-86.716
X137.922Y-164.719
X137.934Y-123.038
X137.977Y-121.158
X137.982Y-119.177
X138.018Y-97.231
X138.024Y-99.111
X138.025Y-117.297
X138.032Y-115.418
X138.061Y-95.352
X138.066Y-93.37
X138.068Y-91.491
X138.076Y-113.538
X138.09Y-100.99
X138.112Y-89.611
X138.116Y-87.63
X138.134Y-111.608
X138.414Y-123.952
X138.458Y-122.072
X138.462Y-120.091
X138.474Y-98.196
X138.506Y-118.212
X138.513Y-116.332
X138.537Y-96.317
X138.556Y-114.452
X138.581Y-94.437
X138.588Y-90.576
X138.61Y-100.076
X138.614Y-112.522
X138.632Y-88.697
X138.658Y-110.642
X138.7Y-92.456
X138.751Y-86.716
X138.934Y-123.038
X138.954Y-99.111
X138.977Y-121.158
X138.982Y-119.177
X139.018Y-97.231
X139.025Y-117.297
X139.032Y-115.418
X139.061Y-95.352
X139.068Y-91.491
X139.076Y-113.538
X139.09Y-100.99
X139.112Y-89.611
X139.134Y-111.608
X139.178Y-109.728
X139.18Y-155.692
X139.18Y-160.655
X139.18Y-93.37
X139.192Y-148.717
X139.192Y-166.751
X139.231Y-87.63
X139.414Y-123.952
X139.458Y-122.072
X139.462Y-120.091
X139.474Y-98.196
X139.506Y-118.212
X139.513Y-116.332
X139.537Y-96.317
X139.556Y-114.452
X139.581Y-94.437
X139.588Y-90.576
X139.614Y-112.522
X139.632Y-88.697
X139.658Y-110.642
X139.7Y-92.456
X139.751Y-86.716
X139.934Y-123.038
X139.954Y-99.111
X139.977Y-121.158
X139.982Y-119.177
X140.025Y-117.297
X140.032Y-115.418
X140.076Y-113.538
X140.096Y-91.542
X140.096Y-93.421
X140.099Y-97.231
X140.106Y-89.662
X140.134Y-111.608
X140.157Y-87.681
X140.178Y-109.728
X140.198Y-95.402
X140.208Y-160.909
X140.414Y-123.952
X140.458Y-122.072
X140.462Y-120.091
X140.506Y-118.212
X140.513Y-116.332
X140.556Y-114.452
X140.577Y-92.456
X140.577Y-94.336
X140.58Y-98.146
X140.614Y-112.522
X140.63Y-90.627
X140.658Y-110.642
X140.678Y-96.317
X140.681Y-88.697
X140.868Y-86.716
X140.934Y-123.038
X140.977Y-121.158
X141.096Y-93.421
X141.096Y-119.177
X141.099Y-97.231
X141.14Y-91.542
X141.15Y-89.713
X141.198Y-95.402
X141.201Y-87.782
X141.414Y-123.952
X141.458Y-122.072
X141.577Y-94.336
X141.577Y-120.091
X141.58Y-98.146
X141.62Y-92.456
X141.63Y-90.627
X141.678Y-96.317
X141.681Y-88.697
X141.72Y-156.397
X141.72Y-170.581
X141.732Y-86.716
X141.732Y-148.463
X141.732Y-172.476
X141.934Y-123.038
X141.977Y-121.158
X142.096Y-93.421
X142.096Y-119.177
X142.14Y-91.542
X142.15Y-89.713
X142.198Y-95.402
X142.201Y-87.782
X142.414Y-123.952
X142.458Y-122.072
X142.577Y-94.336
X142.577Y-120.091
X142.62Y-92.456
X142.678Y-96.317
X142.748Y-88.697
X142.764Y-90.678
X142.934Y-123.038
X142.977Y-121.158
X143.096Y-93.421
X143.096Y-119.177
X143.14Y-91.542
X143.198Y-95.402
X143.284Y-89.764
X143.414Y-123.952
X143.458Y-122.072
X143.577Y-94.336
X143.577Y-120.091
X143.62Y-92.456
X143.764Y-90.678
X143.764Y-146.431
X143.934Y-123.038
X143.977Y-121.158
X144.096Y-93.421
X144.096Y-119.177
X144.14Y-91.542
X144.198Y-95.402
X144.284Y-89.764
X144.414Y-123.952
X144.458Y-122.072
X144.577Y-94.336
X144.577Y-120.091
X144.62Y-92.456
X144.729Y-90.678
X144.78Y-175.895
X144.934Y-123.038
X144.977Y-121.158
X145.096Y-93.421
X145.14Y-91.542
X145.198Y-95.402
X145.414Y-123.952
X145.458Y-122.072
X145.542Y-120.091
X145.644Y-92.456
X145.934Y-123.038
X145.977Y-121.158
X146.414Y-123.952
X146.458Y-122.072
X146.507Y-120.142
X146.812Y-156.962
X146.812Y-158.232
X146.934Y-123.038
X146.977Y-121.158
X147.414Y-123.952
X147.458Y-122.072
X147.523Y-120.193
X147.934Y-123.038
X147.954Y-119.329
X147.977Y-121.158
X148.133Y-142.57
X148.414Y-123.952
X148.435Y-120.244
X148.458Y-122.072
X148.934Y-123.038
X148.954Y-119.329
X148.977Y-121.158
X149.414Y-123.952
X149.435Y-120.244
X149.458Y-122.072
X149.606Y-174.117
X149.934Y-123.038
X149.954Y-119.329
X149.977Y-121.158
X150.368Y-147.447
X150.414Y-123.952
X150.435Y-120.244
X150.458Y-122.072
X150.934Y-123.038
X150.954Y-119.329
X150.977Y-121.158
X151.333Y-99.466
X151.414Y-123.952
X151.435Y-120.244
X151.458Y-122.072
X151.88Y-184.035
X151.892Y-142.621
X151.934Y-123.038
X151.977Y-121.158
X151.994Y-119.38
X152.146Y-157.099
X152.414Y-123.952
X152.458Y-122.072
X152.461Y-120.294
X152.505Y-118.415
X152.563Y-116.586
X152.606Y-114.706
X152.614Y-112.928
X152.934Y-123.038
X152.977Y-121.158
X152.981Y-119.38
X153.024Y-117.5
X153.082Y-115.672
X153.126Y-113.792
X153.133Y-112.014
X153.414Y-123.952
X153.416Y-155.946
X153.458Y-122.072
X153.461Y-120.294
X153.505Y-118.415
X153.563Y-116.586
X153.606Y-114.706
X153.614Y-112.928
X153.934Y-123.038
X153.977Y-121.158
X153.981Y-119.38
X154.024Y-117.5
X154.082Y-115.672
X154.126Y-113.792
X154.133Y-112.014
X154.414Y-123.952
X154.42Y-169.916
X154.432Y-173.609
X154.458Y-122.072
X154.461Y-120.294
X154.505Y-118.415
X154.563Y-116.586
X154.606Y-114.706
X154.614Y-112.928
X154.686Y-143.246
X154.934Y-123.038
X154.977Y-121.158
X154.981Y-119.38
X155.024Y-117.5
X155.082Y-115.672
X155.126Y-113.792
X155.133Y-112.014
X155.414Y-123.952
X155.458Y-122.072
X155.461Y-120.294
X155.505Y-118.415
X155.563Y-116.586
X155.606Y-114.706
X155.614Y-112.928
X155.702Y-168.783
X155.934Y-123.038
X155.977Y-121.158
X155.981Y-119.38
X156.024Y-117.5
X156.082Y-115.672
X156.126Y-113.792
X156.133Y-112.014
X156.414Y-123.952
X156.458Y-122.072
X156.461Y-120.294
X156.505Y-118.415
X156.563Y-116.586
X156.606Y-114.706
X156.614Y-112.928
X156.934Y-123.038
X156.972Y-100.127
X156.972Y-140.081
X156.977Y-121.158
X156.981Y-119.38
X157.023Y-170.409
X157.024Y-117.5
X157.082Y-115.672
X157.126Y-113.792
X157.133Y-112.014
X157.414Y-123.952
X157.458Y-122.072
X157.461Y-120.294
X157.505Y-118.415
X157.563Y-116.586
X157.606Y-114.706
X157.614Y-112.928
X157.934Y-123.038
X157.977Y-121.158
X157.981Y-119.38
X158.024Y-117.5
X158.082Y-115.672
X158.126Y-113.792
X158.133Y-112.014
X158.414Y-123.952
X158.458Y-122.072
X158.461Y-120.294
X158.505Y-118.415
X158.563Y-116.586
X158.606Y-114.706
X158.614Y-112.928
X158.934Y-123.038
X158.977Y-121.158
X158.981Y-119.38
X159.024Y-117.5
X159.082Y-115.672
X159.126Y-113.792
X159.133Y-112.014
X159.258Y-156.845
X159.414Y-123.952
X159.458Y-122.072
X159.461Y-120.294
X159.5Y-184.023
X159.505Y-118.415
X159.512Y-175.368
X159.563Y-116.586
X159.606Y-114.706
X159.614Y-112.928
X159.934Y-123.038
X159.977Y-121.158
X159.994Y-119.329
X160.223Y-98.45
X160.414Y-123.952
X160.458Y-122.072
X160.474Y-120.244
X160.934Y-123.038
X160.977Y-121.158
X160.994Y-119.329
X161.414Y-123.952
X161.458Y-122.072
X161.474Y-120.244
X161.798Y-183.769
X161.934Y-123.038
X161.977Y-121.158
X161.994Y-119.329
X162.414Y-123.952
X162.458Y-122.072
X162.474Y-120.244
X162.934Y-123.038
X162.977Y-121.158
X162.994Y-119.329
X163.414Y-123.952
X163.458Y-122.072
X163.474Y-120.244
X163.934Y-123.038
X163.977Y-121.158
X164.414Y-123.952
X164.458Y-122.072
X164.488Y-120.193
X164.846Y-147.701
X164.934Y-123.038
X164.977Y-121.158
X165.414Y-123.952
X165.458Y-122.072
X165.488Y-120.193
X165.862Y-156.337
X165.934Y-123.038
X165.977Y-121.158
X166.414Y-123.952
X166.458Y-122.072
X166.488Y-120.193
X166.934Y-123.038
X166.977Y-121.158
X167.004Y-119.228
X167.284Y-93.32
X167.414Y-123.952
X167.458Y-122.072
X167.485Y-120.142
X167.64Y-181.229
X167.934Y-123.038
X167.977Y-121.158
X168.004Y-119.228
X168.414Y-123.952
X168.458Y-122.072
X168.485Y-120.142
X168.934Y-123.038
X168.977Y-121.158
X169.004Y-119.228
X169.414Y-123.952
X169.458Y-122.072
X169.485Y-120.142
X169.672Y-140.081
X169.672Y-167.513
X169.934Y-123.038
X169.977Y-121.158
X170.004Y-119.228
X170.293Y-95.91
X170.411Y-99.517
X170.414Y-123.952
X170.418Y-97.688
X170.458Y-122.072
X170.485Y-120.142
X170.502Y-156.962
X170.84Y-96.825
X170.891Y-100.432
X170.898Y-98.603
X170.934Y-123.038
X170.977Y-121.158
X171.02Y-119.228
X171.274Y-105.207
X171.391Y-95.91
X171.399Y-93.32
X171.411Y-99.517
X171.414Y-123.952
X171.418Y-97.688
X171.451Y-156.454
X171.458Y-122.072
X171.501Y-120.142
X171.707Y-108.102
X171.751Y-106.223
X171.786Y-104.343
X171.829Y-102.464
X171.887Y-100.533
X171.931Y-98.654
X171.934Y-123.038
X171.938Y-96.825
X171.958Y-135.001
X171.958Y-176.657
X171.977Y-121.158
X172.012Y-119.278
X172.056Y-117.399
X172.114Y-115.468
X172.157Y-113.589
X172.164Y-111.76
X172.188Y-109.017
X172.231Y-107.137
X172.266Y-105.258
X172.31Y-103.378
X172.368Y-101.448
X172.391Y-95.91
X172.411Y-99.568
X172.414Y-123.952
X172.415Y-141.656
X172.418Y-97.739
X172.458Y-122.072
X172.492Y-120.193
X172.536Y-118.313
X172.594Y-116.383
X172.638Y-114.503
X172.645Y-112.674
X172.707Y-108.102
X172.751Y-106.223
X172.786Y-104.343
X172.829Y-102.464
X172.887Y-100.533
X172.931Y-98.654
X172.934Y-123.038
X172.938Y-96.825
X172.974Y-136.017
X172.977Y-121.158
X173.012Y-119.278
X173.056Y-117.399
X173.114Y-115.468
X173.157Y-113.589
X173.164Y-111.76
X173.188Y-109.017
X173.231Y-107.137
X173.266Y-105.258
X173.31Y-103.378
X173.368Y-101.448
X173.391Y-95.91
X173.411Y-99.568
X173.414Y-123.952
X173.418Y-97.739
X173.458Y-122.072
X173.492Y-120.193
X173.536Y-118.313
X173.594Y-116.383
X173.638Y-114.503
X173.645Y-112.674
X173.707Y-108.102
X173.751Y-106.223
X173.786Y-104.343
X173.829Y-102.464
X173.887Y-100.533
X173.931Y-98.654
X173.934Y-123.038
X173.938Y-96.825
X173.977Y-121.158
X174.012Y-119.278
X174.056Y-117.399
X174.114Y-115.468
X174.157Y-113.589
X174.164Y-111.76
X174.188Y-109.017
X174.231Y-107.137
X174.244Y-162.941
X174.244Y-171.206
X174.266Y-105.258
X174.31Y-103.378
X174.368Y-101.448
X174.391Y-95.91
X174.411Y-99.568
X174.414Y-123.952
X174.418Y-97.739
X174.447Y-90.576
X174.458Y-122.072
X174.492Y-120.193
X174.536Y-118.313
X174.594Y-116.383
X174.638Y-114.503
X174.645Y-112.674
X174.707Y-108.102
X174.751Y-106.223
X174.786Y-104.343
X174.829Y-102.464
X174.887Y-100.533
X174.931Y-98.654
X174.934Y-123.038
X174.938Y-96.825
X174.977Y-121.158
X175.012Y-119.278
X175.056Y-117.399
X175.114Y-115.468
X175.157Y-113.589
X175.164Y-111.76
X175.188Y-109.017
X175.209Y-93.32
X175.231Y-107.137
X175.266Y-105.258
X175.31Y-103.378
X175.368Y-101.448
X175.391Y-95.91
X175.411Y-99.568
X175.414Y-123.952
X175.418Y-97.739
X175.458Y-122.072
X175.492Y-120.193
X175.536Y-118.313
X175.594Y-116.383
X175.638Y-114.503
X175.645Y-112.674
X175.707Y-108.102
X175.751Y-106.223
X175.768Y-133.477
X175.786Y-104.343
X175.829Y-102.464
X175.887Y-100.533
X175.931Y-98.654
X175.934Y-123.038
X175.938Y-96.825
X175.977Y-121.158
X176.012Y-119.278
X176.022Y-163.566
X176.022Y-168.529
X176.056Y-117.399
X176.114Y-115.468
X176.157Y-113.589
X176.164Y-111.76
X176.188Y-109.017
X176.231Y-107.137
X176.266Y-105.258
X176.31Y-103.378
X176.368Y-101.448
X176.391Y-95.91
X176.411Y-99.568
X176.414Y-123.952
X176.418Y-97.739
X176.458Y-122.072
X176.492Y-120.193
X176.53Y-176.149
X176.536Y-118.313
X176.594Y-116.383
X176.638Y-114.503
X176.645Y-112.674
X176.707Y-108.102
X176.751Y-106.223
X176.784Y-160.655
X176.786Y-104.343
X176.829Y-102.464
X176.887Y-100.533
X176.931Y-98.654
X176.934Y-123.038
X176.938Y-96.825
X176.977Y-121.158
X177.012Y-119.278
X177.056Y-117.399
X177.114Y-115.468
X177.157Y-113.589
X177.164Y-111.76
X177.188Y-109.017
X177.231Y-107.137
X177.266Y-105.258
X177.31Y-103.378
X177.368Y-101.448
X177.391Y-95.91
X177.411Y-99.568
X177.414Y-123.952
X177.418Y-97.739
X177.458Y-122.072
X177.492Y-120.193
X177.536Y-118.313
X177.594Y-116.383
X177.638Y-114.503
X177.645Y-112.674
X177.707Y-108.102
X177.751Y-106.223
X177.786Y-104.343
X177.8Y-134.239
X177.829Y-102.464
X177.887Y-100.533
X177.931Y-98.654
X177.934Y-123.038
X177.938Y-96.825
X177.977Y-121.158
X178.012Y-119.278
X178.056Y-117.399
X178.114Y-115.468
X178.157Y-113.589
X178.164Y-111.76
X178.188Y-109.017
X178.231Y-107.137
X178.266Y-105.258
X178.31Y-103.378
X178.368Y-101.448
X178.391Y-95.91
X178.411Y-99.568
X178.414Y-123.952
X178.418Y-97.739
X178.458Y-122.072
X178.492Y-120.193
X178.536Y-118.313
X178.562Y-157.099
X178.594Y-116.383
X178.638Y-114.503
X178.645Y-112.674
X178.707Y-108.102
X178.751Y-106.223
X178.786Y-104.343
X178.816Y-138.303
X178.816Y-143.129
X178.829Y-102.464
X178.887Y-100.533
X178.931Y-98.654
X178.934Y-123.038
X178.938Y-96.825
X178.977Y-121.158
X179.012Y-119.278
X179.056Y-117.399
X179.114Y-115.468
X179.157Y-113.589
X179.164Y-111.76
X179.188Y-109.017
X179.231Y-107.137
X179.266Y-105.258
X179.31Y-103.378
X179.368Y-101.448
X179.391Y-95.91
X179.411Y-99.568
X179.414Y-123.952
X179.418Y-97.739
X179.426Y-93.37
X179.458Y-122.072
X179.492Y-120.193
X179.536Y-118.313
X179.594Y-116.383
X179.638Y-114.503
X179.645Y-112.674
X179.707Y-108.102
X179.751Y-106.223
X179.786Y-104.343
X179.829Y-102.464
X179.887Y-100.533
X179.931Y-98.654
X179.934Y-123.038
X179.938Y-96.825
X179.977Y-121.158
X180.012Y-119.278
X180.056Y-117.399
X180.114Y-115.468
X180.157Y-113.589
X180.164Y-111.76
X180.188Y-109.017
X180.231Y-107.137
X180.266Y-105.258
X180.31Y-103.378
X180.368Y-101.448
X180.391Y-95.91
X180.411Y-99.568
X180.414Y-123.952
X180.418Y-97.739
X180.458Y-122.072
X180.492Y-90.526
X180.492Y-120.193
X180.536Y-118.313
X180.594Y-116.383
X180.638Y-114.503
X180.645Y-112.674
X180.645Y-135.902
X180.723Y-108.102
X180.751Y-106.223
X180.802Y-104.343
X180.829Y-102.464
X180.903Y-100.533
X180.931Y-98.654
X180.938Y-96.825
X180.95Y-123.038
X180.977Y-121.158
X181.028Y-119.278
X181.056Y-117.399
X181.13Y-115.468
X181.157Y-113.589
X181.164Y-111.76
X181.229Y-177.546
X183.642Y-134.493
X183.957Y-158.684
X184.252Y-170.561
X184.404Y-134.239
X185.674Y-157.099
X185.826Y-136.576
X186.751Y-175.58
X187.198Y-132.969
X187.706Y-185.016
X188.163Y-70.053
X188.468Y-182.753
X188.976Y-184.902
X191.008Y-166.243
X192.278Y-180.213
X192.532Y-183.769
X193.548Y-137.135
X193.548Y-181.737
X194.31Y-145.161
X194.818Y-164.856
X196.088Y-182.753
X197.358Y-164.211
X197.358Y-179.451
X197.612Y-112.471
X198.628Y-181.991
X200.406Y-155.067
X201.168Y-171.069
X201.168Y-174.879
X201.168Y-180.838
X202.438Y-163.703
X202.692Y-179.08
X202.946Y-142.367
X206.248Y-173.609
X206.299Y-112.522
X208.128Y-111.354
X208.788Y-171.948
X208.788Y-174.117
X209.914Y-158.877
X211.074Y-137.541
X211.328Y-172.476
X212.09Y-160.655
X212.344Y-150.241
X212.344Y-159.639
X212.852Y-147.056
X213.36Y-161.417
X213.614Y-164.856
X215.458Y-163.383
X216.154Y-171.968
X219.964Y-162.687
X220.218Y-156.083
X220.726Y-162.179
X221.488Y-172.847
X221.742Y-161.925
X222.758Y-136.779
X224.79Y-174.625
X225.298Y-166.751
X227.584Y-167.513
X227.584Y-178.572
X228.6Y-137.033
X229.018Y-164.973
X235.458Y-163.703
X236.982Y-145.161
X239.268Y-157.099
X241.808Y-156.337
X242.316Y-170.307
X243.078Y-162.941
X243.738Y-88.646
X245.11Y-88.595
X245.872Y-162.179
X247.04Y-88.24
X248.869Y-87.935
X250.698Y-158.623
X252.73Y-158.369
X254.508Y-157.861
X256.54Y-170.053
X261.01Y-183.718
T2
X234.645Y-89.306
X236.345Y-89.306
T3
X78.094Y-104.14
X78.094Y-108.306
X81.28Y-138.081
X81.28Y-153.321
X81.28Y-163.139
X81.28Y-178.379
X83.094Y-104.14
X83.094Y-108.306
X83.82Y-138.081
X83.82Y-153.321
X83.82Y-163.139
X83.82Y-178.379
X85.994Y-94.285
X86.004Y-90.175
X86.36Y-138.081
X86.36Y-153.321
X86.36Y-163.139
X86.36Y-178.379
X88.9Y-138.081
X88.9Y-153.321
X88.9Y-163.139
X88.9Y-178.379
X90.994Y-94.285
X91.004Y-90.175
X91.44Y-138.081
X91.44Y-153.321
X91.44Y-163.139
X91.44Y-178.379
X93.98Y-138.081
X93.98Y-153.321
X93.98Y-163.139
X93.98Y-178.379
X96.012Y-112.497
X96.012Y-122.657
X96.52Y-138.081
X96.52Y-153.321
X96.52Y-163.139
X96.52Y-178.379
X98.378Y-84.48
X99.06Y-138.081
X99.06Y-153.321
X99.06Y-163.139
X99.06Y-178.379
X99.901Y-112.497
X99.901Y-122.657
X101.6Y-138.081
X101.6Y-153.321
X101.6Y-163.139
X101.6Y-178.379
X103.378Y-84.48
X103.79Y-112.497
X103.79Y-122.657
X104.14Y-138.081
X104.14Y-153.321
X104.14Y-163.139
X104.14Y-178.379
X106.68Y-138.081
X106.68Y-153.321
X106.68Y-163.139
X106.68Y-178.379
X107.679Y-112.497
X107.679Y-122.657
X108.49Y-76.302
X109.22Y-138.081
X109.22Y-153.321
X109.22Y-163.139
X109.22Y-178.379
X109.225Y-104.038
X110.99Y-76.302
X111.568Y-112.497
X111.568Y-122.657
X111.76Y-138.081
X111.76Y-153.321
X111.76Y-163.139
X111.76Y-178.379
X112.725Y-104.038
X114.3Y-138.081
X114.3Y-153.321
X114.3Y-163.139
X114.3Y-178.379
X115.457Y-112.497
X115.457Y-122.657
X116.141Y-76.302
X119.346Y-112.497
X119.346Y-122.657
X121.4Y-138.081
X121.4Y-153.321
X121.4Y-163.139
X121.4Y-178.379
X123.235Y-112.497
X123.235Y-122.657
X123.94Y-138.081
X123.94Y-153.321
X123.94Y-163.139
X123.94Y-178.379
X126.301Y-76.302
X126.48Y-138.081
X126.48Y-153.321
X126.48Y-163.139
X126.48Y-178.379
X127.124Y-112.497
X127.124Y-122.657
X129.02Y-138.081
X129.02Y-153.321
X129.02Y-163.139
X129.02Y-178.379
X130.912Y-76.302
X131.013Y-112.497
X131.013Y-122.657
X131.56Y-138.081
X131.56Y-153.321
X131.56Y-163.139
X131.56Y-178.379
X134.1Y-138.081
X134.1Y-153.321
X134.1Y-163.139
X134.1Y-178.379
X136.64Y-138.081
X136.64Y-153.321
X136.64Y-163.139
X136.64Y-178.379
X139.18Y-138.081
X139.18Y-153.321
X139.18Y-163.139
X139.18Y-178.379
X141.072Y-76.302
X141.72Y-138.081
X141.72Y-153.321
X141.72Y-163.139
X141.72Y-178.379
X144.26Y-138.081
X144.26Y-153.321
X144.26Y-163.139
X144.26Y-178.379
X146.133Y-76.302
X146.8Y-138.081
X146.8Y-153.321
X146.8Y-163.139
X146.8Y-178.379
X146.812Y-149.987
X148.633Y-76.302
X149.34Y-138.081
X149.34Y-153.321
X149.34Y-163.139
X149.34Y-178.379
X149.352Y-149.987
X151.88Y-138.081
X151.88Y-153.321
X151.88Y-163.139
X151.88Y-178.379
X151.892Y-149.987
X153.989Y-98.368
X153.989Y-108.528
X154.42Y-138.081
X154.42Y-153.321
X154.42Y-163.139
X154.42Y-178.379
X154.432Y-149.987
X155.263Y-80.467
X155.263Y-83.007
X156.96Y-138.081
X156.96Y-153.321
X156.96Y-163.139
X156.96Y-178.379
X156.972Y-149.987
X157.771Y-98.368
X157.771Y-108.528
X159.043Y-79.756
X159.043Y-89.916
X159.5Y-138.081
X159.5Y-153.321
X159.5Y-163.139
X159.5Y-178.379
X159.512Y-149.987
X162.04Y-138.081
X162.04Y-153.321
X162.04Y-163.139
X162.04Y-178.379
X162.052Y-149.987
X164.58Y-138.081
X164.58Y-153.321
X164.58Y-163.139
X164.58Y-178.379
X164.592Y-149.987
X167.12Y-138.081
X167.12Y-153.321
X167.12Y-163.139
X167.12Y-178.379
X167.132Y-149.987
X167.963Y-80.467
X167.963Y-83.007
X169.66Y-138.081
X169.66Y-153.321
X169.66Y-163.139
X169.66Y-178.379
X169.672Y-149.987
X171.743Y-79.756
X171.743Y-89.916
X175.006Y-138.131
X175.006Y-140.671
X175.006Y-143.211
X175.006Y-145.751
X175.006Y-148.291
X175.006Y-150.831
X175.006Y-153.371
X175.006Y-155.911
X180.663Y-80.467
X180.663Y-83.007
X182.626Y-138.131
X182.626Y-140.671
X182.626Y-143.211
X182.626Y-145.751
X182.626Y-148.291
X182.626Y-150.831
X182.626Y-153.371
X182.626Y-155.911
X184.443Y-79.756
X184.443Y-89.916
X186.385Y-100.296
X186.385Y-110.456
X188.214Y-145.161
X188.239Y-142.113
X188.302Y-135.509
X188.302Y-138.811
X191.008Y-169.037
X191.008Y-176.657
X191.177Y-100.296
X191.177Y-110.456
X191.81Y-151.765
X193.283Y-97.053
X193.548Y-169.037
X193.548Y-176.657
X194.31Y-151.765
X195.986Y-100.826
X195.986Y-103.366
X195.986Y-105.906
X195.986Y-108.446
X196.088Y-169.037
X196.088Y-176.657
X198.283Y-97.053
X198.374Y-145.161
X198.399Y-142.113
X198.462Y-135.509
X198.462Y-138.811
X198.628Y-169.037
X198.628Y-176.657
X201.157Y-97.028
X201.168Y-169.037
X201.168Y-176.657
X202.946Y-134.947
X202.946Y-139.827
X203.606Y-100.826
X203.606Y-103.366
X203.606Y-105.906
X203.606Y-108.446
X203.708Y-169.037
X203.708Y-176.657
X206.157Y-97.028
X206.248Y-169.037
X206.248Y-176.657
X207.86Y-134.787
X207.86Y-139.787
X208.472Y-103.327
X208.788Y-169.037
X208.788Y-176.657
X210.972Y-103.327
X211.328Y-169.037
X211.328Y-176.657
X213.868Y-169.037
X213.868Y-176.657
X216.408Y-169.037
X216.408Y-176.657
X217.653Y-90.805
X217.653Y-100.965
X217.729Y-82.107
X217.729Y-87.107
X218.948Y-169.037
X218.948Y-176.657
X221.488Y-169.037
X221.488Y-176.657
X224.028Y-169.037
X224.028Y-176.657
X224.485Y-84.226
X224.485Y-86.766
X224.485Y-89.306
X224.485Y-91.846
X231.648Y-159.893
X231.648Y-167.513
X232.105Y-84.226
X232.105Y-86.766
X232.105Y-89.306
X232.105Y-91.846
X234.188Y-159.893
X234.188Y-167.513
X236.728Y-159.893
X236.728Y-167.513
X238.862Y-82.107
X238.862Y-87.107
X238.862Y-90.805
X238.862Y-100.965
X239.268Y-159.893
X239.268Y-167.513
X241.808Y-159.893
X241.808Y-167.513
X244.348Y-159.893
X244.348Y-167.513
X246.888Y-159.893
X246.888Y-167.513
T4
X156.063Y-75.184
X158.603Y-75.184
X168.763Y-75.184
X171.303Y-75.184
X181.463Y-75.184
X184.003Y-75.184
T5
X84.328Y-143.701
X84.328Y-147.701
X86.868Y-143.701
X86.868Y-147.701
X89.408Y-143.701
X89.408Y-147.701
X217.478Y-134.395
X217.478Y-182.655
X220.018Y-134.395
X220.018Y-182.655
X222.558Y-134.395
X222.558Y-182.655
X225.098Y-134.395
X225.098Y-182.655
X227.638Y-134.395
X227.638Y-182.655
X230.178Y-134.395
X230.178Y-182.655
X232.718Y-182.655
X235.258Y-134.395
X235.258Y-182.655
X237.798Y-134.395
X239.318Y-182.655
X240.03Y-74.27
X240.03Y-76.81
X240.03Y-174.371
X240.03Y-176.911
X240.338Y-134.395
X241.858Y-182.655
X242.57Y-74.27
X242.57Y-76.81
X242.57Y-174.371
X242.57Y-176.911
X242.878Y-134.395
X244.398Y-182.655
X245.11Y-74.27
X245.11Y-76.81
X245.11Y-174.371
X245.11Y-176.911
X245.418Y-134.395
X246.938Y-182.655
X247.04Y-103.804
X247.04Y-111.404
X247.65Y-74.27
X247.65Y-76.81
X247.65Y-174.371
X247.65Y-176.911
X247.958Y-134.395
X249.478Y-182.655
X250.19Y-74.27
X250.19Y-76.81
X250.19Y-174.371
X250.19Y-176.911
X252.018Y-182.655
X252.73Y-74.27
X252.73Y-76.81
X252.73Y-174.371
X252.73Y-176.911
X253.474Y-150.241
X253.474Y-152.781
X254.558Y-182.655
X255.27Y-74.27
X255.27Y-76.81
X255.27Y-174.371
X255.27Y-176.911
X255.829Y-118.304
X257.098Y-182.655
X257.81Y-74.27
X257.81Y-76.81
X257.81Y-174.371
X257.81Y-176.911
X258.064Y-150.241
X258.064Y-152.781
X258.369Y-118.304
X260.909Y-118.304
X263.449Y-118.304
T6
X110.846Y-90.402
X110.846Y-92.902
X110.846Y-95.402
X125.933Y-82.667
X128.473Y-82.667
X131.013Y-82.667
X143.916Y-98.568
X146.456Y-98.568
X148.996Y-98.568
X162.763Y-98.568
X165.303Y-98.568
X167.843Y-98.568
X183.594Y-116.063
X183.594Y-120.563
X190.094Y-116.063
X190.094Y-120.563
X194.769Y-116.063
X194.769Y-120.563
X201.269Y-116.063
X201.269Y-120.563
X205.944Y-116.063
X205.944Y-120.563
X212.444Y-116.063
X212.444Y-120.563
X243.944Y-116.063
X243.944Y-120.563
X250.444Y-116.063
X250.444Y-120.563
T7
X228.295Y-99.836
X228.295Y-120.636
T5
G00X84.988Y-80.394
M15
G01X84.988Y-82.594
M16
G05
G00X89.488Y-86.294
M15
G01X87.288Y-86.294
M16
G05
G00X91.288Y-80.194
M15
G01X91.288Y-82.794
M16
G05
M30
