M48
; DRILL file {KiCad 9.0.7} date 2026-02-05T00:09:05+0300
; FORMAT={-:-/ absolute / metric / decimal}
; #@! TF.CreationDate,2026-02-05T00:09:05+03:00
; #@! TF.GenerationSoftware,Kicad,Pcbnew,9.0.7
; #@! TF.FileFunction,NonPlated,1,2,NPTH
FMAT,2
METRIC
; #@! TA.AperFunction,NonPlated,NPTH,ComponentDrill
T1C0.500
; #@! TA.AperFunction,NonPlated,NPTH,ComponentDrill
T2C2.700
; #@! TA.AperFunction,NonPlated,NPTH,ComponentDrill
T3C3.500
%
G90
G05
T1
X75.216Y-126.408
X75.216Y-128.608
X76.016Y-126.408
X76.016Y-128.608
X76.816Y-126.408
X76.816Y-128.608
X77.616Y-126.408
X77.616Y-128.608
X78.416Y-126.408
X78.416Y-128.608
X79.216Y-126.408
X79.216Y-128.608
X102.721Y-126.408
X102.721Y-128.608
X103.521Y-126.408
X103.521Y-128.608
X104.321Y-126.408
X104.321Y-128.608
X105.121Y-126.408
X105.121Y-128.608
X105.921Y-126.408
X105.921Y-128.608
X106.721Y-126.408
X106.721Y-128.608
X130.225Y-126.408
X130.225Y-128.608
X131.025Y-126.408
X131.025Y-128.608
X131.825Y-126.408
X131.825Y-128.608
X132.625Y-126.408
X132.625Y-128.608
X133.425Y-126.408
X133.425Y-128.608
X134.225Y-126.408
X134.225Y-128.608
X157.73Y-126.408
X157.73Y-128.608
X158.53Y-126.408
X158.53Y-128.608
X159.33Y-126.408
X159.33Y-128.608
X160.13Y-126.408
X160.13Y-128.608
X160.93Y-126.408
X160.93Y-128.608
X161.73Y-126.408
X161.73Y-128.608
X185.234Y-126.408
X185.234Y-128.608
X186.034Y-126.408
X186.034Y-128.608
X186.834Y-126.408
X186.834Y-128.608
X187.634Y-126.408
X187.634Y-128.608
X188.434Y-126.408
X188.434Y-128.608
X189.234Y-126.408
X189.234Y-128.608
X212.739Y-126.408
X212.739Y-128.608
X213.539Y-126.408
X213.539Y-128.608
X214.339Y-126.408
X214.339Y-128.608
X215.139Y-126.408
X215.139Y-128.608
X215.939Y-126.408
X215.939Y-128.608
X216.739Y-126.408
X216.739Y-128.608
X240.243Y-126.408
X240.243Y-128.608
X241.043Y-126.408
X241.043Y-128.608
X241.843Y-126.408
X241.843Y-128.608
X242.643Y-126.408
X242.643Y-128.608
X243.443Y-126.408
X243.443Y-128.608
X244.243Y-126.408
X244.243Y-128.608
X267.748Y-126.408
X267.748Y-128.608
X268.548Y-126.408
X268.548Y-128.608
X269.348Y-126.408
X269.348Y-128.608
X270.148Y-126.408
X270.148Y-128.608
X270.948Y-126.408
X270.948Y-128.608
X271.748Y-126.408
X271.748Y-128.608
T2
X77.616Y-71.564
X77.616Y-122.008
X77.616Y-133.008
X77.616Y-183.452
X269.348Y-71.564
X269.348Y-122.008
X269.348Y-133.008
X269.348Y-183.452
T3
X128.473Y-99.327
X146.456Y-115.228
X165.303Y-115.228
M30
