%TF.GenerationSoftware,KiCad,Pcbnew,9.0.7*%
%TF.CreationDate,2026-02-05T00:09:01+03:00*%
%TF.ProjectId,8080clock,38303830-636c-46f6-936b-2e6b69636164,rev?*%
%TF.SameCoordinates,Original*%
%TF.FileFunction,Copper,L1,Top*%
%TF.FilePolarity,Positive*%
%FSLAX46Y46*%
G04 Gerber Fmt 4.6, Leading zero omitted, Abs format (unit mm)*
G04 Created by KiCad (PCBNEW 9.0.7) date 2026-02-05 00:09:01*
%MOMM*%
%LPD*%
G01*
G04 APERTURE LIST*
G04 Aperture macros list*
%AMRoundRect*
0 Rectangle with rounded corners*
0 $1 Rounding radius*
0 $2 $3 $4 $5 $6 $7 $8 $9 X,Y pos of 4 corners*
0 Add a 4 corners polygon primitive as box body*
4,1,4,$2,$3,$4,$5,$6,$7,$8,$9,$2,$3,0*
0 Add four circle primitives for the rounded corners*
1,1,$1+$1,$2,$3*
1,1,$1+$1,$4,$5*
1,1,$1+$1,$6,$7*
1,1,$1+$1,$8,$9*
0 Add four rect primitives between the rounded corners*
20,1,$1+$1,$2,$3,$4,$5,0*
20,1,$1+$1,$4,$5,$6,$7,0*
20,1,$1+$1,$6,$7,$8,$9,0*
20,1,$1+$1,$8,$9,$2,$3,0*%
G04 Aperture macros list end*
%TA.AperFunction,ComponentPad*%
%ADD10C,1.400000*%
%TD*%
%TA.AperFunction,ComponentPad*%
%ADD11C,1.600000*%
%TD*%
%TA.AperFunction,ComponentPad*%
%ADD12RoundRect,0.250000X-0.550000X0.550000X-0.550000X-0.550000X0.550000X-0.550000X0.550000X0.550000X0*%
%TD*%
%TA.AperFunction,ComponentPad*%
%ADD13C,2.000000*%
%TD*%
%TA.AperFunction,ComponentPad*%
%ADD14R,2.000000X2.000000*%
%TD*%
%TA.AperFunction,SMDPad,CuDef*%
%ADD15RoundRect,0.250000X-0.650000X0.412500X-0.650000X-0.412500X0.650000X-0.412500X0.650000X0.412500X0*%
%TD*%
%TA.AperFunction,ComponentPad*%
%ADD16RoundRect,0.250000X0.550000X-0.950000X0.550000X0.950000X-0.550000X0.950000X-0.550000X-0.950000X0*%
%TD*%
%TA.AperFunction,ComponentPad*%
%ADD17O,1.600000X2.400000*%
%TD*%
%TA.AperFunction,ComponentPad*%
%ADD18R,1.905000X2.000000*%
%TD*%
%TA.AperFunction,ComponentPad*%
%ADD19O,1.905000X2.000000*%
%TD*%
%TA.AperFunction,ComponentPad*%
%ADD20O,1.600000X1.600000*%
%TD*%
%TA.AperFunction,ComponentPad*%
%ADD21R,1.800000X1.800000*%
%TD*%
%TA.AperFunction,ComponentPad*%
%ADD22C,1.800000*%
%TD*%
%TA.AperFunction,ComponentPad*%
%ADD23RoundRect,0.250000X0.950000X0.550000X-0.950000X0.550000X-0.950000X-0.550000X0.950000X-0.550000X0*%
%TD*%
%TA.AperFunction,ComponentPad*%
%ADD24O,2.400000X1.600000*%
%TD*%
%TA.AperFunction,ComponentPad*%
%ADD25RoundRect,0.250000X0.550000X0.550000X-0.550000X0.550000X-0.550000X-0.550000X0.550000X-0.550000X0*%
%TD*%
%TA.AperFunction,SMDPad,CuDef*%
%ADD26R,2.000000X2.800000*%
%TD*%
%TA.AperFunction,ComponentPad*%
%ADD27R,2.000000X4.600000*%
%TD*%
%TA.AperFunction,ComponentPad*%
%ADD28O,2.000000X4.200000*%
%TD*%
%TA.AperFunction,ComponentPad*%
%ADD29O,4.200000X2.000000*%
%TD*%
%TA.AperFunction,SMDPad,CuDef*%
%ADD30RoundRect,0.075000X-0.650000X-0.075000X0.650000X-0.075000X0.650000X0.075000X-0.650000X0.075000X0*%
%TD*%
%TA.AperFunction,HeatsinkPad*%
%ADD31R,1.570000X1.880000*%
%TD*%
%TA.AperFunction,ComponentPad*%
%ADD32R,1.700000X1.700000*%
%TD*%
%TA.AperFunction,ComponentPad*%
%ADD33C,1.700000*%
%TD*%
%TA.AperFunction,ComponentPad*%
%ADD34RoundRect,0.250000X-0.550000X-0.550000X0.550000X-0.550000X0.550000X0.550000X-0.550000X0.550000X0*%
%TD*%
%TA.AperFunction,ComponentPad*%
%ADD35RoundRect,0.250000X-0.950000X-0.550000X0.950000X-0.550000X0.950000X0.550000X-0.950000X0.550000X0*%
%TD*%
%TA.AperFunction,SMDPad,CuDef*%
%ADD36RoundRect,0.250000X-1.400000X-2.000000X1.400000X-2.000000X1.400000X2.000000X-1.400000X2.000000X0*%
%TD*%
%TA.AperFunction,ComponentPad*%
%ADD37C,1.000000*%
%TD*%
%TA.AperFunction,SMDPad,CuDef*%
%ADD38RoundRect,0.250000X-0.750000X-2.250000X0.750000X-2.250000X0.750000X2.250000X-0.750000X2.250000X0*%
%TD*%
%TA.AperFunction,ComponentPad*%
%ADD39RoundRect,0.250000X0.550000X-0.550000X0.550000X0.550000X-0.550000X0.550000X-0.550000X-0.550000X0*%
%TD*%
%TA.AperFunction,ComponentPad*%
%ADD40R,1.600000X1.600000*%
%TD*%
%TA.AperFunction,ComponentPad*%
%ADD41RoundRect,0.250000X0.600000X-0.600000X0.600000X0.600000X-0.600000X0.600000X-0.600000X-0.600000X0*%
%TD*%
%TA.AperFunction,ComponentPad*%
%ADD42C,1.500000*%
%TD*%
%TA.AperFunction,ViaPad*%
%ADD43C,0.600000*%
%TD*%
%TA.AperFunction,Conductor*%
%ADD44C,1.000000*%
%TD*%
%TA.AperFunction,Conductor*%
%ADD45C,0.500000*%
%TD*%
%TA.AperFunction,Conductor*%
%ADD46C,0.250000*%
%TD*%
%TA.AperFunction,Conductor*%
%ADD47C,0.400000*%
%TD*%
%TA.AperFunction,Conductor*%
%ADD48C,0.800000*%
%TD*%
%TA.AperFunction,Conductor*%
%ADD49C,0.300000*%
%TD*%
G04 APERTURE END LIST*
D10*
%TO.P,JP5,1,A*%
%TO.N,Net-(D6-K)*%
X180662600Y-80467200D03*
%TO.P,JP5,2,B*%
%TO.N,Net-(JP5-B)*%
X180662600Y-83007200D03*
%TD*%
D11*
%TO.P,C3,1*%
%TO.N,GND*%
X201157200Y-97028000D03*
%TO.P,C3,2*%
%TO.N,Net-(U1-THR)*%
X206157200Y-97028000D03*
%TD*%
D12*
%TO.P,D8,1,K*%
%TO.N,Net-(D8-K)*%
X217652600Y-90805000D03*
D11*
%TO.P,D8,2,A*%
%TO.N,Net-(D8-A)*%
X217652600Y-100965000D03*
%TD*%
D13*
%TO.P,SW1,1,1*%
%TO.N,GND*%
X212444400Y-120563200D03*
X205944400Y-120563200D03*
%TO.P,SW1,2,2*%
%TO.N,BTN1*%
X212444400Y-116063200D03*
X205944400Y-116063200D03*
%TD*%
D14*
%TO.P,LS1,1,1*%
%TO.N,LS1*%
X247040400Y-103804400D03*
D13*
%TO.P,LS1,2,2*%
%TO.N,GND*%
X247040400Y-111404400D03*
%TD*%
D15*
%TO.P,C15,1*%
%TO.N,+12V*%
X78181200Y-98005500D03*
%TO.P,C15,2*%
%TO.N,GND*%
X78181200Y-101130500D03*
%TD*%
D16*
%TO.P,U8,1,VPP*%
%TO.N,Net-(JP2-C)*%
X81280000Y-153321000D03*
D17*
%TO.P,U8,2,A12*%
%TO.N,/CPU/A14*%
X83820000Y-153321000D03*
%TO.P,U8,3,A7*%
%TO.N,/CPU/A7*%
X86360000Y-153321000D03*
%TO.P,U8,4,A6*%
%TO.N,/CPU/A6*%
X88900000Y-153321000D03*
%TO.P,U8,5,A5*%
%TO.N,/CPU/A5*%
X91440000Y-153321000D03*
%TO.P,U8,6,A4*%
%TO.N,/CPU/A4*%
X93980000Y-153321000D03*
%TO.P,U8,7,A3*%
%TO.N,/CPU/A3*%
X96520000Y-153321000D03*
%TO.P,U8,8,A2*%
%TO.N,/CPU/A2*%
X99060000Y-153321000D03*
%TO.P,U8,9,A1*%
%TO.N,/CPU/A1*%
X101600000Y-153321000D03*
%TO.P,U8,10,A0*%
%TO.N,/CPU/A0*%
X104140000Y-153321000D03*
%TO.P,U8,11,Q0*%
%TO.N,/CPU/DB0*%
X106680000Y-153321000D03*
%TO.P,U8,12,Q1*%
%TO.N,/CPU/DB1*%
X109220000Y-153321000D03*
%TO.P,U8,13,Q2*%
%TO.N,/CPU/DB2*%
X111760000Y-153321000D03*
%TO.P,U8,14,GND*%
%TO.N,GND*%
X114300000Y-153321000D03*
%TO.P,U8,15,Q3*%
%TO.N,/CPU/DB3*%
X114300000Y-138081000D03*
%TO.P,U8,16,Q4*%
%TO.N,/CPU/DB4*%
X111760000Y-138081000D03*
%TO.P,U8,17,Q5*%
%TO.N,/CPU/DB5*%
X109220000Y-138081000D03*
%TO.P,U8,18,Q6*%
%TO.N,/CPU/DB6*%
X106680000Y-138081000D03*
%TO.P,U8,19,Q7*%
%TO.N,/CPU/DB7*%
X104140000Y-138081000D03*
%TO.P,U8,20,~{CE}*%
%TO.N,/CPU/A15*%
X101600000Y-138081000D03*
%TO.P,U8,21,A10*%
%TO.N,/CPU/A10*%
X99060000Y-138081000D03*
%TO.P,U8,22,~{OE}*%
%TO.N,~{MEMR}*%
X96520000Y-138081000D03*
%TO.P,U8,23,A11*%
%TO.N,/CPU/A11*%
X93980000Y-138081000D03*
%TO.P,U8,24,A9*%
%TO.N,/CPU/A9*%
X91440000Y-138081000D03*
%TO.P,U8,25,A8*%
%TO.N,/CPU/A8*%
X88900000Y-138081000D03*
%TO.P,U8,26,A13*%
%TO.N,/CPU/A13*%
X86360000Y-138081000D03*
%TO.P,U8,27,A14*%
%TO.N,Net-(JP1-C)*%
X83820000Y-138081000D03*
%TO.P,U8,28,VCC*%
%TO.N,+5MAIN*%
X81280000Y-138081000D03*
%TD*%
D18*
%TO.P,Q1,1,G*%
%TO.N,Net-(Q1-G)*%
X167843200Y-98567600D03*
D19*
%TO.P,Q1,2,D*%
%TO.N,+12MAIN*%
X165303200Y-98567600D03*
%TO.P,Q1,3,S*%
%TO.N,+12V*%
X162763200Y-98567600D03*
%TD*%
D13*
%TO.P,SW2,1,1*%
%TO.N,GND*%
X201269000Y-120563200D03*
X194769000Y-120563200D03*
%TO.P,SW2,2,2*%
%TO.N,BTN2*%
X201269000Y-116063200D03*
X194769000Y-116063200D03*
%TD*%
D11*
%TO.P,C25,1*%
%TO.N,GND*%
X217728800Y-82107400D03*
%TO.P,C25,2*%
%TO.N,Net-(D8-K)*%
X217728800Y-87107400D03*
%TD*%
%TO.P,R12,1*%
%TO.N,Net-(C17-Pad1)*%
X96012000Y-122656600D03*
%TO.P,R12,2*%
%TO.N,Net-(U3-COMP)*%
X96012000Y-112496600D03*
%TD*%
D20*
%TO.P,SCR1,*%
%TO.N,*%
X217478000Y-134395000D03*
X217478000Y-182655000D03*
X220018000Y-182655000D03*
X235258000Y-134395000D03*
X240338000Y-134395000D03*
X247958000Y-134395000D03*
X254558000Y-182655000D03*
X257098000Y-182655000D03*
%TO.P,SCR1,1,5V*%
%TO.N,+5MAIN*%
X242878000Y-134395000D03*
%TO.P,SCR1,2,3V3*%
%TO.N,unconnected-(SCR1-3V3-Pad2)*%
X245418000Y-134395000D03*
%TO.P,SCR1,3,GND*%
%TO.N,GND*%
X237798000Y-134395000D03*
%TO.P,SCR1,4,LCD_D0*%
%TO.N,/CPU/DB0*%
X239318000Y-182655000D03*
%TO.P,SCR1,5,LCD_D1*%
%TO.N,/CPU/DB1*%
X241858000Y-182655000D03*
%TO.P,SCR1,6,LCD_D2*%
%TO.N,/CPU/DB2*%
X222558000Y-182655000D03*
%TO.P,SCR1,7,LCD_D3*%
%TO.N,/CPU/DB3*%
X225098000Y-182655000D03*
%TO.P,SCR1,8,LCD_D4*%
%TO.N,/CPU/DB4*%
X227638000Y-182655000D03*
%TO.P,SCR1,9,LCD_D5*%
%TO.N,/CPU/DB5*%
X230178000Y-182655000D03*
%TO.P,SCR1,10,LCD_D6*%
%TO.N,/CPU/DB6*%
X232718000Y-182655000D03*
%TO.P,SCR1,11,LCD_D7*%
%TO.N,/CPU/DB7*%
X235258000Y-182655000D03*
%TO.P,SCR1,12,LCD_RST*%
%TO.N,~{RESET}*%
X220018000Y-134395000D03*
%TO.P,SCR1,13,LCD_CS*%
%TO.N,~{A4}*%
X222558000Y-134395000D03*
%TO.P,SCR1,14,LCD_RS*%
%TO.N,/CPU/A0*%
X225098000Y-134395000D03*
%TO.P,SCR1,15,LCD_WR*%
%TO.N,~{IOW}*%
X227638000Y-134395000D03*
%TO.P,SCR1,16,LCD_RD*%
%TO.N,~{IOR}*%
X230178000Y-134395000D03*
%TO.P,SCR1,17,SD_SS*%
%TO.N,unconnected-(SCR1-SD_SS-Pad17)*%
X244398000Y-182655000D03*
%TO.P,SCR1,18,SD_DI*%
%TO.N,unconnected-(SCR1-SD_DI-Pad18)*%
X246938000Y-182655000D03*
%TO.P,SCR1,19,SD_DO*%
%TO.N,unconnected-(SCR1-SD_DO-Pad19)*%
X249478000Y-182655000D03*
%TO.P,SCR1,20,SD_SCK*%
%TO.N,unconnected-(SCR1-SD_SCK-Pad20)*%
X252018000Y-182655000D03*
%TD*%
D15*
%TO.P,C10,1*%
%TO.N,+5V*%
X95808800Y-94335600D03*
%TO.P,C10,2*%
%TO.N,GND*%
X95808800Y-97460600D03*
%TD*%
D11*
%TO.P,C4,1*%
%TO.N,GND*%
X198283200Y-97053400D03*
%TO.P,C4,2*%
%TO.N,Net-(U1-CVOLT)*%
X193283200Y-97053400D03*
%TD*%
%TO.P,R16,1*%
%TO.N,Net-(JP4-B)*%
X171742600Y-79756000D03*
%TO.P,R16,2*%
%TO.N,+12MAIN*%
X171742600Y-89916000D03*
%TD*%
%TO.P,R11,1*%
%TO.N,Net-(U3-RT{slash}CLK)*%
X99901022Y-112496600D03*
%TO.P,R11,2*%
%TO.N,GND*%
X99901022Y-122656600D03*
%TD*%
%TO.P,R14,1*%
%TO.N,Net-(Q1-G)*%
X131013200Y-122656600D03*
%TO.P,R14,2*%
%TO.N,+12V*%
X131013200Y-112496600D03*
%TD*%
D21*
%TO.P,D6,1,K*%
%TO.N,Net-(D6-K)*%
X184002600Y-75184000D03*
D22*
%TO.P,D6,2,A*%
%TO.N,GND*%
X181462600Y-75184000D03*
%TD*%
D11*
%TO.P,R6,1*%
%TO.N,Net-(U3-PWRGD)*%
X123235156Y-112496600D03*
%TO.P,R6,2*%
%TO.N,Net-(Q3-\u0411)*%
X123235156Y-122656600D03*
%TD*%
%TO.P,R7,1*%
%TO.N,Net-(R7-Pad1)*%
X107679067Y-122656600D03*
%TO.P,R7,2*%
%TO.N,Net-(U3-VSENSE)*%
X107679067Y-112496600D03*
%TD*%
D10*
%TO.P,JP3,1,A*%
%TO.N,Net-(D4-A)*%
X155262600Y-80467200D03*
%TO.P,JP3,2,B*%
%TO.N,Net-(JP3-B)*%
X155262600Y-83007200D03*
%TD*%
D15*
%TO.P,C14,1*%
%TO.N,+12V*%
X82092800Y-98005500D03*
%TO.P,C14,2*%
%TO.N,GND*%
X82092800Y-101130500D03*
%TD*%
D23*
%TO.P,U1,1,GND*%
%TO.N,GND*%
X203606400Y-108446000D03*
D24*
%TO.P,U1,2,TRIG*%
%TO.N,Net-(U1-THR)*%
X203606400Y-105906000D03*
%TO.P,U1,3,OUT*%
%TO.N,Net-(U1-OUT)*%
X203606400Y-103366000D03*
%TO.P,U1,4,RST*%
%TO.N,+12V*%
X203606400Y-100826000D03*
%TO.P,U1,5,CVOLT*%
%TO.N,Net-(U1-CVOLT)*%
X195986400Y-100826000D03*
%TO.P,U1,6,THR*%
%TO.N,Net-(U1-THR)*%
X195986400Y-103366000D03*
%TO.P,U1,7,DISC*%
%TO.N,Net-(U1-DISC)*%
X195986400Y-105906000D03*
%TO.P,U1,8,VCC*%
%TO.N,+12V*%
X195986400Y-108446000D03*
%TD*%
D11*
%TO.P,R13,1*%
%TO.N,Net-(Q3-\u041A)*%
X153988667Y-108527600D03*
%TO.P,R13,2*%
%TO.N,Net-(Q2-G)*%
X153988667Y-98367600D03*
%TD*%
D16*
%TO.P,U6,1,~{STSTB}*%
%TO.N,Net-(U5-~{STSTB})*%
X81280000Y-178379000D03*
D17*
%TO.P,U6,2,HLDA*%
%TO.N,HLDA*%
X83820000Y-178379000D03*
%TO.P,U6,3,~{WR}*%
%TO.N,~{WR}*%
X86360000Y-178379000D03*
%TO.P,U6,4,DBIN*%
%TO.N,DBIN*%
X88900000Y-178379000D03*
%TO.P,U6,5,DB4*%
%TO.N,/CPU/DB4*%
X91440000Y-178379000D03*
%TO.P,U6,6,D4*%
%TO.N,/CPU/D4*%
X93980000Y-178379000D03*
%TO.P,U6,7,DB7*%
%TO.N,/CPU/DB7*%
X96520000Y-178379000D03*
%TO.P,U6,8,D7*%
%TO.N,/CPU/D7*%
X99060000Y-178379000D03*
%TO.P,U6,9,DB3*%
%TO.N,/CPU/DB3*%
X101600000Y-178379000D03*
%TO.P,U6,10,D3*%
%TO.N,/CPU/D3*%
X104140000Y-178379000D03*
%TO.P,U6,11,DB2*%
%TO.N,/CPU/DB2*%
X106680000Y-178379000D03*
%TO.P,U6,12,D2*%
%TO.N,/CPU/D2*%
X109220000Y-178379000D03*
%TO.P,U6,13,DB0*%
%TO.N,/CPU/DB0*%
X111760000Y-178379000D03*
%TO.P,U6,14,GND*%
%TO.N,GND*%
X114300000Y-178379000D03*
%TO.P,U6,15,D0*%
%TO.N,/CPU/D0*%
X114300000Y-163139000D03*
%TO.P,U6,16,DB1*%
%TO.N,/CPU/DB1*%
X111760000Y-163139000D03*
%TO.P,U6,17,D1*%
%TO.N,/CPU/D1*%
X109220000Y-163139000D03*
%TO.P,U6,18,DB5*%
%TO.N,/CPU/DB5*%
X106680000Y-163139000D03*
%TO.P,U6,19,D5*%
%TO.N,/CPU/D5*%
X104140000Y-163139000D03*
%TO.P,U6,20,DB6*%
%TO.N,/CPU/DB6*%
X101600000Y-163139000D03*
%TO.P,U6,21,D6*%
%TO.N,/CPU/D6*%
X99060000Y-163139000D03*
%TO.P,U6,22,~{BUSEN}*%
%TO.N,GND*%
X96520000Y-163139000D03*
%TO.P,U6,23,~{INTA}*%
%TO.N,unconnected-(U6-~{INTA}-Pad23)*%
X93980000Y-163139000D03*
%TO.P,U6,24,~{MEMR}*%
%TO.N,~{MEMR}*%
X91440000Y-163139000D03*
%TO.P,U6,25,~{I/OR}*%
%TO.N,~{IOR}*%
X88900000Y-163139000D03*
%TO.P,U6,26,~{MEMW}*%
%TO.N,~{MEMW}*%
X86360000Y-163139000D03*
%TO.P,U6,27,~{I/OW}*%
%TO.N,~{IOW}*%
X83820000Y-163139000D03*
%TO.P,U6,28,VCC*%
%TO.N,+5MAIN*%
X81280000Y-163139000D03*
%TD*%
D25*
%TO.P,C1,1*%
%TO.N,+12V*%
X103378000Y-84480400D03*
D11*
%TO.P,C1,2*%
%TO.N,GND*%
X98378000Y-84480400D03*
%TD*%
D18*
%TO.P,Q2,1,G*%
%TO.N,Net-(Q2-G)*%
X148996400Y-98567600D03*
D19*
%TO.P,Q2,2,D*%
%TO.N,+5MAIN*%
X146456400Y-98567600D03*
%TO.P,Q2,3,S*%
%TO.N,+5V*%
X143916400Y-98567600D03*
%TD*%
D15*
%TO.P,C18,1*%
%TO.N,+5V*%
X105156000Y-94335600D03*
%TO.P,C18,2*%
%TO.N,GND*%
X105156000Y-97460600D03*
%TD*%
D11*
%TO.P,R2,1*%
%TO.N,Net-(U1-DISC)*%
X191176600Y-100296000D03*
%TO.P,R2,2*%
%TO.N,Net-(U1-THR)*%
X191176600Y-110456000D03*
%TD*%
D26*
%TO.P,L1,1,1*%
%TO.N,Net-(D3-K)*%
X95467200Y-105613200D03*
%TO.P,L1,2,2*%
%TO.N,+5V*%
X103567200Y-105613200D03*
%TD*%
D27*
%TO.P,J1,1,1*%
%TO.N,+12V*%
X91287600Y-81493600D03*
D28*
%TO.P,J1,2,2*%
%TO.N,GND*%
X84987600Y-81493600D03*
D29*
%TO.P,J1,3,3*%
X88387600Y-86293600D03*
%TD*%
D11*
%TO.P,R3,1*%
%TO.N,+5V*%
X119346133Y-112496600D03*
%TO.P,R3,2*%
%TO.N,Net-(R3-Pad2)*%
X119346133Y-122656600D03*
%TD*%
D14*
%TO.P,J2,1,+*%
%TO.N,Net-(D8-A)*%
X228295200Y-99835745D03*
D13*
%TO.P,J2,2,-*%
%TO.N,GND*%
X228295200Y-120635745D03*
%TD*%
D30*
%TO.P,U3,1,BOOT*%
%TO.N,Net-(U3-BOOT)*%
X86283800Y-98022000D03*
%TO.P,U3,2,VIN*%
%TO.N,+12V*%
X86283800Y-98522000D03*
%TO.P,U3,3,EN*%
%TO.N,unconnected-(U3-EN-Pad3)*%
X86283800Y-99022000D03*
%TO.P,U3,4,SS/TR*%
%TO.N,Net-(U3-SS{slash}TR)*%
X86283800Y-99522000D03*
%TO.P,U3,5,RT/CLK*%
%TO.N,Net-(U3-RT{slash}CLK)*%
X86283800Y-100022000D03*
%TO.P,U3,6,PWRGD*%
%TO.N,Net-(U3-PWRGD)*%
X90583800Y-100022000D03*
%TO.P,U3,7,VSENSE*%
%TO.N,Net-(U3-VSENSE)*%
X90583800Y-99522000D03*
%TO.P,U3,8,COMP*%
%TO.N,Net-(U3-COMP)*%
X90583800Y-99022000D03*
%TO.P,U3,9,GND@1*%
%TO.N,GND*%
X90583800Y-98522000D03*
%TO.P,U3,10,PH*%
%TO.N,Net-(D3-K)*%
X90583800Y-98022000D03*
D31*
%TO.P,U3,11,GND@2*%
%TO.N,GND*%
X88433800Y-99022000D03*
%TD*%
D11*
%TO.P,R9,1*%
%TO.N,Net-(R7-Pad1)*%
X103790044Y-122656600D03*
%TO.P,R9,2*%
%TO.N,GND*%
X103790044Y-112496600D03*
%TD*%
D32*
%TO.P,J9,1,Pin_1*%
%TO.N,+5MAIN*%
X255828800Y-118304300D03*
D33*
%TO.P,J9,2,Pin_2*%
%TO.N,GND*%
X258368800Y-118304300D03*
%TO.P,J9,3,Pin_3*%
%TO.N,SCL*%
X260908800Y-118304300D03*
%TO.P,J9,4,Pin_4*%
%TO.N,SDA*%
X263448800Y-118304300D03*
%TD*%
D15*
%TO.P,C12,1*%
%TO.N,+5V*%
X102040267Y-94335600D03*
%TO.P,C12,2*%
%TO.N,GND*%
X102040267Y-97460600D03*
%TD*%
D11*
%TO.P,C26,1*%
%TO.N,Net-(U11-OSCI)*%
X238861600Y-87107400D03*
%TO.P,C26,2*%
%TO.N,GND*%
X238861600Y-82107400D03*
%TD*%
%TO.P,C7,1*%
%TO.N,Net-(U3-BOOT)*%
X85993600Y-94284800D03*
%TO.P,C7,2*%
%TO.N,Net-(D3-K)*%
X90993600Y-94284800D03*
%TD*%
D34*
%TO.P,C2,1*%
%TO.N,Net-(U1-OUT)*%
X208472400Y-103327200D03*
D11*
%TO.P,C2,2*%
%TO.N,Net-(D1-K)*%
X210972400Y-103327200D03*
%TD*%
D35*
%TO.P,U5,1,RST*%
%TO.N,RESET*%
X175006000Y-138131000D03*
D24*
%TO.P,U5,2,~{RESIN}*%
%TO.N,~{RESIN}*%
X175006000Y-140671000D03*
%TO.P,U5,3,RDYIN*%
%TO.N,+5MAIN*%
X175006000Y-143211000D03*
%TO.P,U5,4,RDY*%
%TO.N,RDY*%
X175006000Y-145751000D03*
%TO.P,U5,5,SYNC*%
%TO.N,SYNC*%
X175006000Y-148291000D03*
%TO.P,U5,6,PHI2(TTL)*%
%TO.N,unconnected-(U5-PHI2(TTL)-Pad6)*%
X175006000Y-150831000D03*
%TO.P,U5,7,~{STSTB}*%
%TO.N,Net-(U5-~{STSTB})*%
X175006000Y-153371000D03*
%TO.P,U5,8,GND*%
%TO.N,GND*%
X175006000Y-155911000D03*
%TO.P,U5,9,VDD*%
%TO.N,+12MAIN*%
X182626000Y-155911000D03*
%TO.P,U5,10,PHI2*%
%TO.N,PHI2*%
X182626000Y-153371000D03*
%TO.P,U5,11,PHI1*%
%TO.N,PHI1*%
X182626000Y-150831000D03*
%TO.P,U5,12,OSC*%
%TO.N,unconnected-(U5-OSC-Pad12)*%
X182626000Y-148291000D03*
%TO.P,U5,13,TANK*%
%TO.N,unconnected-(U5-TANK-Pad13)*%
X182626000Y-145751000D03*
%TO.P,U5,14,XTAL2*%
%TO.N,Net-(U5-XTAL2)*%
X182626000Y-143211000D03*
%TO.P,U5,15,XTAL1*%
%TO.N,Net-(U5-XTAL1)*%
X182626000Y-140671000D03*
%TO.P,U5,16,VCC*%
%TO.N,+5MAIN*%
X182626000Y-138131000D03*
%TD*%
D16*
%TO.P,U10,1,PA3*%
%TO.N,55_D3*%
X121400000Y-153321000D03*
D17*
%TO.P,U10,2,PA2*%
%TO.N,55_D2*%
X123940000Y-153321000D03*
%TO.P,U10,3,PA1*%
%TO.N,55_D1*%
X126480000Y-153321000D03*
%TO.P,U10,4,PA0*%
%TO.N,55_D0*%
X129020000Y-153321000D03*
%TO.P,U10,5,~{RD}*%
%TO.N,~{IOR}*%
X131560000Y-153321000D03*
%TO.P,U10,6,~{CS}*%
%TO.N,/CPU/A4*%
X134100000Y-153321000D03*
%TO.P,U10,7,GND*%
%TO.N,GND*%
X136640000Y-153321000D03*
%TO.P,U10,8,A1*%
%TO.N,/CPU/A1*%
X139180000Y-153321000D03*
%TO.P,U10,9,A0*%
%TO.N,/CPU/A0*%
X141720000Y-153321000D03*
%TO.P,U10,10,PC7*%
%TO.N,unconnected-(U10-PC7-Pad10)*%
X144260000Y-153321000D03*
%TO.P,U10,11,PC6*%
%TO.N,unconnected-(U10-PC6-Pad11)*%
X146800000Y-153321000D03*
%TO.P,U10,12,PC5*%
%TO.N,UNKWN*%
X149340000Y-153321000D03*
%TO.P,U10,13,PC4*%
%TO.N,SCL*%
X151880000Y-153321000D03*
%TO.P,U10,14,PC0*%
%TO.N,SDA*%
X154420000Y-153321000D03*
%TO.P,U10,15,PC1*%
%TO.N,BTN1*%
X156960000Y-153321000D03*
%TO.P,U10,16,PC2*%
%TO.N,BTN2*%
X159500000Y-153321000D03*
%TO.P,U10,17,PC3*%
%TO.N,BTN3*%
X162040000Y-153321000D03*
%TO.P,U10,18,PB0*%
%TO.N,1WIRE*%
X164580000Y-153321000D03*
%TO.P,U10,19,PB1*%
%TO.N,unconnected-(U10-PB1-Pad19)*%
X167120000Y-153321000D03*
%TO.P,U10,20,PB2*%
%TO.N,unconnected-(U10-PB2-Pad20)*%
X169660000Y-153321000D03*
%TO.P,U10,21,PB3*%
%TO.N,unconnected-(U10-PB3-Pad21)*%
X169660000Y-138081000D03*
%TO.P,U10,22,PB4*%
%TO.N,unconnected-(U10-PB4-Pad22)*%
X167120000Y-138081000D03*
%TO.P,U10,23,PB5*%
%TO.N,unconnected-(U10-PB5-Pad23)*%
X164580000Y-138081000D03*
%TO.P,U10,24,PB6*%
%TO.N,unconnected-(U10-PB6-Pad24)*%
X162040000Y-138081000D03*
%TO.P,U10,25,PB7*%
%TO.N,unconnected-(U10-PB7-Pad25)*%
X159500000Y-138081000D03*
%TO.P,U10,26,VCC*%
%TO.N,+5MAIN*%
X156960000Y-138081000D03*
%TO.P,U10,27,D7*%
%TO.N,/CPU/DB7*%
X154420000Y-138081000D03*
%TO.P,U10,28,D6*%
%TO.N,/CPU/DB6*%
X151880000Y-138081000D03*
%TO.P,U10,29,D5*%
%TO.N,/CPU/DB5*%
X149340000Y-138081000D03*
%TO.P,U10,30,D4*%
%TO.N,/CPU/DB4*%
X146800000Y-138081000D03*
%TO.P,U10,31,D3*%
%TO.N,/CPU/DB3*%
X144260000Y-138081000D03*
%TO.P,U10,32,D2*%
%TO.N,/CPU/DB2*%
X141720000Y-138081000D03*
%TO.P,U10,33,D1*%
%TO.N,/CPU/DB1*%
X139180000Y-138081000D03*
%TO.P,U10,34,D0*%
%TO.N,/CPU/DB0*%
X136640000Y-138081000D03*
%TO.P,U10,35,RESET*%
%TO.N,RESET*%
X134100000Y-138081000D03*
%TO.P,U10,36,~{WR}*%
%TO.N,~{IOW}*%
X131560000Y-138081000D03*
%TO.P,U10,37,PA7*%
%TO.N,55_D7*%
X129020000Y-138081000D03*
%TO.P,U10,38,PA6*%
%TO.N,55_D6*%
X126480000Y-138081000D03*
%TO.P,U10,39,PA5*%
%TO.N,55_D5*%
X123940000Y-138081000D03*
%TO.P,U10,40,PA4*%
%TO.N,55_D4*%
X121400000Y-138081000D03*
%TD*%
D11*
%TO.P,C13,1*%
%TO.N,Net-(U3-COMP)*%
X91004400Y-90175000D03*
%TO.P,C13,2*%
%TO.N,GND*%
X86004400Y-90175000D03*
%TD*%
%TO.P,C16,1*%
%TO.N,Net-(U3-SS{slash}TR)*%
X83094200Y-104140000D03*
%TO.P,C16,2*%
%TO.N,GND*%
X78094200Y-104140000D03*
%TD*%
D21*
%TO.P,D5,1,K*%
%TO.N,GND*%
X171302600Y-75184000D03*
D22*
%TO.P,D5,2,A*%
%TO.N,Net-(D5-A)*%
X168762600Y-75184000D03*
%TD*%
D13*
%TO.P,SW4,1,1*%
%TO.N,~{RESIN}*%
X243944000Y-116063200D03*
X250444000Y-116063200D03*
%TO.P,SW4,2,2*%
%TO.N,GND*%
X243944000Y-120563200D03*
X250444000Y-120563200D03*
%TD*%
D11*
%TO.P,R15,1*%
%TO.N,Net-(JP3-B)*%
X159042600Y-79756000D03*
%TO.P,R15,2*%
%TO.N,+5MAIN*%
X159042600Y-89916000D03*
%TD*%
D25*
%TO.P,C5,1*%
%TO.N,GND*%
X110989808Y-76301600D03*
D11*
%TO.P,C5,2*%
%TO.N,Net-(D1-A)*%
X108489808Y-76301600D03*
%TD*%
%TO.P,R4,1*%
%TO.N,Net-(R3-Pad2)*%
X115457111Y-122656600D03*
%TO.P,R4,2*%
%TO.N,+5V*%
X115457111Y-112496600D03*
%TD*%
D18*
%TO.P,U2,1,GND*%
%TO.N,GND*%
X131013200Y-82667200D03*
D19*
%TO.P,U2,2,IN*%
%TO.N,Net-(D1-A)*%
X128473200Y-82667200D03*
%TO.P,U2,3,OUT*%
%TO.N,-5V*%
X125933200Y-82667200D03*
%TD*%
D25*
%TO.P,D2,1,K*%
%TO.N,GND*%
X141071600Y-76301600D03*
D11*
%TO.P,D2,2,A*%
%TO.N,Net-(D1-K)*%
X130911600Y-76301600D03*
%TD*%
%TO.P,R1,1*%
%TO.N,+12V*%
X186385200Y-110456000D03*
%TO.P,R1,2*%
%TO.N,Net-(U1-DISC)*%
X186385200Y-100296000D03*
%TD*%
D10*
%TO.P,JP4,1,A*%
%TO.N,Net-(D5-A)*%
X167962600Y-80467200D03*
%TO.P,JP4,2,B*%
%TO.N,Net-(JP4-B)*%
X167962600Y-83007200D03*
%TD*%
D25*
%TO.P,D1,1,K*%
%TO.N,Net-(D1-K)*%
X126300591Y-76301600D03*
D11*
%TO.P,D1,2,A*%
%TO.N,Net-(D1-A)*%
X116140591Y-76301600D03*
%TD*%
D23*
%TO.P,U11,1,OSCI*%
%TO.N,Net-(U11-OSCI)*%
X232105200Y-91846400D03*
D24*
%TO.P,U11,2,OSCO*%
%TO.N,Net-(U11-OSCO)*%
X232105200Y-89306400D03*
%TO.P,U11,3,~{INT}*%
%TO.N,unconnected-(U11-~{INT}-Pad3)*%
X232105200Y-86766400D03*
%TO.P,U11,4,Vss*%
%TO.N,GND*%
X232105200Y-84226400D03*
%TO.P,U11,5,SDA*%
%TO.N,SDA*%
X224485200Y-84226400D03*
%TO.P,U11,6,SCL*%
%TO.N,SCL*%
X224485200Y-86766400D03*
%TO.P,U11,7,CLKOUT*%
%TO.N,unconnected-(U11-CLKOUT-Pad7)*%
X224485200Y-89306400D03*
%TO.P,U11,8,Vdd*%
%TO.N,Net-(D8-K)*%
X224485200Y-91846400D03*
%TD*%
D25*
%TO.P,C8,1*%
%TO.N,+5V*%
X112725200Y-104038400D03*
D11*
%TO.P,C8,2*%
%TO.N,GND*%
X109225200Y-104038400D03*
%TD*%
D36*
%TO.P,D3,1,K*%
%TO.N,Net-(D3-K)*%
X88493600Y-104718400D03*
%TO.P,D3,2,A*%
%TO.N,GND*%
X88493600Y-113518400D03*
%TD*%
D11*
%TO.P,R8,1*%
%TO.N,Net-(Q3-\u0411)*%
X127124178Y-122656600D03*
%TO.P,R8,2*%
%TO.N,+12V*%
X127124178Y-112496600D03*
%TD*%
D37*
%TO.P,Y2,1,OSC1*%
%TO.N,Net-(U11-OSCO)*%
X234645200Y-89306400D03*
%TO.P,Y2,2,OSC2*%
%TO.N,Net-(U11-OSCI)*%
X236345200Y-89306400D03*
D38*
%TO.P,Y2,3,CASE*%
%TO.N,GND*%
X235495200Y-93806400D03*
%TD*%
D11*
%TO.P,R17,1*%
%TO.N,Net-(JP5-B)*%
X184442600Y-79756000D03*
%TO.P,R17,2*%
%TO.N,-5V*%
X184442600Y-89916000D03*
%TD*%
%TO.P,C17,1*%
%TO.N,Net-(C17-Pad1)*%
X83094200Y-108305600D03*
%TO.P,C17,2*%
%TO.N,GND*%
X78094200Y-108305600D03*
%TD*%
D16*
%TO.P,U12,1,A10*%
%TO.N,/CPU/A10*%
X121400000Y-178379000D03*
D17*
%TO.P,U12,2,GND*%
%TO.N,GND*%
X123940000Y-178379000D03*
%TO.P,U12,3,D4*%
%TO.N,/CPU/D4*%
X126480000Y-178379000D03*
%TO.P,U12,4,D5*%
%TO.N,/CPU/D5*%
X129020000Y-178379000D03*
%TO.P,U12,5,D6*%
%TO.N,/CPU/D6*%
X131560000Y-178379000D03*
%TO.P,U12,6,D7*%
%TO.N,/CPU/D7*%
X134100000Y-178379000D03*
%TO.P,U12,7,D3*%
%TO.N,/CPU/D3*%
X136640000Y-178379000D03*
%TO.P,U12,8,D2*%
%TO.N,/CPU/D2*%
X139180000Y-178379000D03*
%TO.P,U12,9,D1*%
%TO.N,/CPU/D1*%
X141720000Y-178379000D03*
%TO.P,U12,10,D0*%
%TO.N,/CPU/D0*%
X144260000Y-178379000D03*
%TO.P,U12,11,-5V*%
%TO.N,-5V*%
X146800000Y-178379000D03*
%TO.P,U12,12,RESET*%
%TO.N,RESET*%
X149340000Y-178379000D03*
%TO.P,U12,13,HOLD*%
%TO.N,GND*%
X151880000Y-178379000D03*
%TO.P,U12,14,INT*%
X154420000Y-178379000D03*
%TO.P,U12,15,F2*%
%TO.N,PHI2*%
X156960000Y-178379000D03*
%TO.P,U12,16,INTE*%
%TO.N,INTE*%
X159500000Y-178379000D03*
%TO.P,U12,17,DBIN*%
%TO.N,DBIN*%
X162040000Y-178379000D03*
%TO.P,U12,18,WR*%
%TO.N,~{WR}*%
X164580000Y-178379000D03*
%TO.P,U12,19,SYNC*%
%TO.N,SYNC*%
X167120000Y-178379000D03*
%TO.P,U12,20,+5V*%
%TO.N,+5MAIN*%
X169660000Y-178379000D03*
%TO.P,U12,21,HLDA*%
%TO.N,HLDA*%
X169660000Y-163139000D03*
%TO.P,U12,22,F1*%
%TO.N,PHI1*%
X167120000Y-163139000D03*
%TO.P,U12,23,READY*%
%TO.N,RDY*%
X164580000Y-163139000D03*
%TO.P,U12,24,WAIT*%
%TO.N,unconnected-(U12-WAIT-Pad24)*%
X162040000Y-163139000D03*
%TO.P,U12,25,A0*%
%TO.N,/CPU/A0*%
X159500000Y-163139000D03*
%TO.P,U12,26,A1*%
%TO.N,/CPU/A1*%
X156960000Y-163139000D03*
%TO.P,U12,27,A2*%
%TO.N,/CPU/A2*%
X154420000Y-163139000D03*
%TO.P,U12,28,+12V*%
%TO.N,+12MAIN*%
X151880000Y-163139000D03*
%TO.P,U12,29,A3*%
%TO.N,/CPU/A3*%
X149340000Y-163139000D03*
%TO.P,U12,30,A4*%
%TO.N,/CPU/A4*%
X146800000Y-163139000D03*
%TO.P,U12,31,A5*%
%TO.N,/CPU/A5*%
X144260000Y-163139000D03*
%TO.P,U12,32,A6*%
%TO.N,/CPU/A6*%
X141720000Y-163139000D03*
%TO.P,U12,33,A7*%
%TO.N,/CPU/A7*%
X139180000Y-163139000D03*
%TO.P,U12,34,A8*%
%TO.N,/CPU/A8*%
X136640000Y-163139000D03*
%TO.P,U12,35,A9*%
%TO.N,/CPU/A9*%
X134100000Y-163139000D03*
%TO.P,U12,36,A15*%
%TO.N,/CPU/A15*%
X131560000Y-163139000D03*
%TO.P,U12,37,A12*%
%TO.N,/CPU/A12*%
X129020000Y-163139000D03*
%TO.P,U12,38,A13*%
%TO.N,/CPU/A13*%
X126480000Y-163139000D03*
%TO.P,U12,39,A14*%
%TO.N,/CPU/A14*%
X123940000Y-163139000D03*
%TO.P,U12,40,A11*%
%TO.N,/CPU/A11*%
X121400000Y-163139000D03*
%TD*%
D21*
%TO.P,Q3,1,\u042D*%
%TO.N,GND*%
X110845600Y-90402400D03*
D22*
%TO.P,Q3,2,\u041A*%
%TO.N,Net-(Q3-\u041A)*%
X110845600Y-92902400D03*
%TO.P,Q3,3,\u0411*%
%TO.N,Net-(Q3-\u0411)*%
X110845600Y-95402400D03*
%TD*%
D11*
%TO.P,R10,1*%
%TO.N,Net-(Q3-\u041A)*%
X157770933Y-108527600D03*
%TO.P,R10,2*%
%TO.N,Net-(Q1-G)*%
X157770933Y-98367600D03*
%TD*%
%TO.P,R5,1*%
%TO.N,Net-(U3-VSENSE)*%
X111568089Y-112496600D03*
%TO.P,R5,2*%
%TO.N,Net-(R3-Pad2)*%
X111568089Y-122656600D03*
%TD*%
D25*
%TO.P,C6,1*%
%TO.N,GND*%
X148632608Y-76301600D03*
D11*
%TO.P,C6,2*%
%TO.N,-5V*%
X146132608Y-76301600D03*
%TD*%
D21*
%TO.P,D4,1,K*%
%TO.N,GND*%
X158602600Y-75184000D03*
D22*
%TO.P,D4,2,A*%
%TO.N,Net-(D4-A)*%
X156062600Y-75184000D03*
%TD*%
D13*
%TO.P,SW3,1,1*%
%TO.N,GND*%
X190093600Y-120563200D03*
X183593600Y-120563200D03*
%TO.P,SW3,2,2*%
%TO.N,BTN3*%
X190093600Y-116063200D03*
X183593600Y-116063200D03*
%TD*%
D15*
%TO.P,C11,1*%
%TO.N,+5V*%
X98924533Y-94335600D03*
%TO.P,C11,2*%
%TO.N,GND*%
X98924533Y-97460600D03*
%TD*%
D16*
%TO.P,U9,1,A*%
%TO.N,/CPU/A15*%
X231648000Y-167513000D03*
D17*
%TO.P,U9,2,Y*%
%TO.N,Net-(U7-~{CE})*%
X234188000Y-167513000D03*
%TO.P,U9,3,A*%
%TO.N,/CPU/A4*%
X236728000Y-167513000D03*
%TO.P,U9,4,Y*%
%TO.N,~{A4}*%
X239268000Y-167513000D03*
%TO.P,U9,5,A*%
%TO.N,INTE*%
X241808000Y-167513000D03*
%TO.P,U9,6,Y*%
%TO.N,Net-(U9C-Y)*%
X244348000Y-167513000D03*
%TO.P,U9,7,GND*%
%TO.N,GND*%
X246888000Y-167513000D03*
%TO.P,U9,8,Y*%
%TO.N,LS1*%
X246888000Y-159893000D03*
%TO.P,U9,9,A*%
%TO.N,Net-(U9C-Y)*%
X244348000Y-159893000D03*
%TO.P,U9,10,Y*%
%TO.N,~{RESET}*%
X241808000Y-159893000D03*
%TO.P,U9,11,A*%
%TO.N,RESET*%
X239268000Y-159893000D03*
%TO.P,U9,12*%
%TO.N,N/C*%
X236728000Y-159893000D03*
%TO.P,U9,13*%
X234188000Y-159893000D03*
%TO.P,U9,14,VCC*%
%TO.N,+5MAIN*%
X231648000Y-159893000D03*
%TD*%
D39*
%TO.P,D9,1,K*%
%TO.N,Net-(D8-K)*%
X238861600Y-100965000D03*
D11*
%TO.P,D9,2,A*%
%TO.N,+5MAIN*%
X238861600Y-90805000D03*
%TD*%
%TO.P,C27,1*%
%TO.N,Net-(Y1-OSC2)*%
X207860000Y-134787000D03*
%TO.P,C27,2*%
%TO.N,Net-(U5-XTAL1)*%
X207860000Y-139787000D03*
%TD*%
%TO.P,R19,1*%
%TO.N,GND*%
X188302000Y-135509000D03*
%TO.P,R19,2*%
%TO.N,Net-(Y1-OSC2)*%
X198462000Y-135509000D03*
%TD*%
D32*
%TO.P,J7,1,Pin_1*%
%TO.N,1WIRE*%
X253474000Y-150241000D03*
D33*
%TO.P,J7,2,Pin_2*%
%TO.N,GND*%
X253474000Y-152781000D03*
%TD*%
D40*
%TO.P,RN1,1,common*%
%TO.N,+5MAIN*%
X169672000Y-149987000D03*
D11*
%TO.P,RN1,2,R1*%
%TO.N,unconnected-(RN1-R1-Pad2)*%
X167132000Y-149987000D03*
%TO.P,RN1,3,R2*%
%TO.N,1WIRE*%
X164592000Y-149987000D03*
%TO.P,RN1,4,R3*%
%TO.N,BTN3*%
X162052000Y-149987000D03*
%TO.P,RN1,5,R4*%
%TO.N,BTN2*%
X159512000Y-149987000D03*
%TO.P,RN1,6,R5*%
%TO.N,BTN1*%
X156972000Y-149987000D03*
%TO.P,RN1,7,R6*%
%TO.N,SDA*%
X154432000Y-149987000D03*
%TO.P,RN1,8,R7*%
%TO.N,SCL*%
X151892000Y-149987000D03*
%TO.P,RN1,9,R8*%
%TO.N,unconnected-(RN1-R8-Pad9)*%
X149352000Y-149987000D03*
%TO.P,RN1,10,R9*%
%TO.N,unconnected-(RN1-R9-Pad10)*%
X146812000Y-149987000D03*
%TD*%
D41*
%TO.P,J6,1,Pin_1*%
%TO.N,-5V*%
X257810000Y-176911000D03*
D33*
%TO.P,J6,2,Pin_2*%
%TO.N,GND*%
X257810000Y-174371000D03*
%TO.P,J6,3,Pin_3*%
%TO.N,+12MAIN*%
X255270000Y-176911000D03*
%TO.P,J6,4,Pin_4*%
%TO.N,GND*%
X255270000Y-174371000D03*
%TO.P,J6,5,Pin_5*%
%TO.N,+5MAIN*%
X252730000Y-176911000D03*
%TO.P,J6,6,Pin_6*%
%TO.N,GND*%
X252730000Y-174371000D03*
%TO.P,J6,7,Pin_7*%
%TO.N,+5MAIN*%
X250190000Y-176911000D03*
%TO.P,J6,8,Pin_8*%
%TO.N,GND*%
X250190000Y-174371000D03*
%TO.P,J6,9,Pin_9*%
%TO.N,+5MAIN*%
X247650000Y-176911000D03*
%TO.P,J6,10,Pin_10*%
%TO.N,SCL*%
X247650000Y-174371000D03*
%TO.P,J6,11,Pin_11*%
%TO.N,LS1*%
X245110000Y-176911000D03*
%TO.P,J6,12,Pin_12*%
%TO.N,SDA*%
X245110000Y-174371000D03*
%TO.P,J6,13,Pin_13*%
%TO.N,BTN1*%
X242570000Y-176911000D03*
%TO.P,J6,14,Pin_14*%
%TO.N,BTN2*%
X242570000Y-174371000D03*
%TO.P,J6,15,Pin_15*%
%TO.N,BTN3*%
X240030000Y-176911000D03*
%TO.P,J6,16,Pin_16*%
%TO.N,~{RESIN}*%
X240030000Y-174371000D03*
%TD*%
D11*
%TO.P,R18,1*%
%TO.N,~{RESIN}*%
X198399400Y-142113000D03*
%TO.P,R18,2*%
%TO.N,+5MAIN*%
X188239400Y-142113000D03*
%TD*%
D42*
%TO.P,Y1,1,OSC1*%
%TO.N,Net-(U5-XTAL2)*%
X202946000Y-139827000D03*
%TO.P,Y1,2,OSC2*%
%TO.N,Net-(Y1-OSC2)*%
X202946000Y-134947000D03*
%TD*%
D16*
%TO.P,U7,1,A14*%
%TO.N,/CPU/A12*%
X224028000Y-176657000D03*
D17*
%TO.P,U7,2,A12*%
%TO.N,/CPU/A14*%
X221488000Y-176657000D03*
%TO.P,U7,3,A7*%
%TO.N,/CPU/A7*%
X218948000Y-176657000D03*
%TO.P,U7,4,A6*%
%TO.N,/CPU/A6*%
X216408000Y-176657000D03*
%TO.P,U7,5,A5*%
%TO.N,/CPU/A5*%
X213868000Y-176657000D03*
%TO.P,U7,6,A4*%
%TO.N,/CPU/A4*%
X211328000Y-176657000D03*
%TO.P,U7,7,A3*%
%TO.N,/CPU/A3*%
X208788000Y-176657000D03*
%TO.P,U7,8,A2*%
%TO.N,/CPU/A2*%
X206248000Y-176657000D03*
%TO.P,U7,9,A1*%
%TO.N,/CPU/A1*%
X203708000Y-176657000D03*
%TO.P,U7,10,A0*%
%TO.N,/CPU/A0*%
X201168000Y-176657000D03*
%TO.P,U7,11,I/O0*%
%TO.N,/CPU/DB0*%
X198628000Y-176657000D03*
%TO.P,U7,12,I/O1*%
%TO.N,/CPU/DB1*%
X196088000Y-176657000D03*
%TO.P,U7,13,I/O2*%
%TO.N,/CPU/DB2*%
X193548000Y-176657000D03*
%TO.P,U7,14,GND*%
%TO.N,GND*%
X191008000Y-176657000D03*
%TO.P,U7,15,I/O3*%
%TO.N,/CPU/DB3*%
X191008000Y-169037000D03*
%TO.P,U7,16,I/O4*%
%TO.N,/CPU/DB4*%
X193548000Y-169037000D03*
%TO.P,U7,17,I/O5*%
%TO.N,/CPU/DB5*%
X196088000Y-169037000D03*
%TO.P,U7,18,I/O6*%
%TO.N,/CPU/DB6*%
X198628000Y-169037000D03*
%TO.P,U7,19,I/O7*%
%TO.N,/CPU/DB7*%
X201168000Y-169037000D03*
%TO.P,U7,20,~{CE}*%
%TO.N,Net-(U7-~{CE})*%
X203708000Y-169037000D03*
%TO.P,U7,21,A10*%
%TO.N,/CPU/A10*%
X206248000Y-169037000D03*
%TO.P,U7,22,~{OE}*%
%TO.N,~{MEMR}*%
X208788000Y-169037000D03*
%TO.P,U7,23,A11*%
%TO.N,/CPU/A11*%
X211328000Y-169037000D03*
%TO.P,U7,24,A9*%
%TO.N,/CPU/A9*%
X213868000Y-169037000D03*
%TO.P,U7,25,A8*%
%TO.N,/CPU/A8*%
X216408000Y-169037000D03*
%TO.P,U7,26,A13*%
%TO.N,/CPU/A13*%
X218948000Y-169037000D03*
%TO.P,U7,27,~{WE}*%
%TO.N,~{MEMW}*%
X221488000Y-169037000D03*
%TO.P,U7,28,VCC*%
%TO.N,+5MAIN*%
X224028000Y-169037000D03*
%TD*%
D41*
%TO.P,J10,1,Pin_1*%
%TO.N,-5V*%
X257810000Y-76809600D03*
D33*
%TO.P,J10,2,Pin_2*%
%TO.N,GND*%
X257810000Y-74269600D03*
%TO.P,J10,3,Pin_3*%
%TO.N,+12MAIN*%
X255270000Y-76809600D03*
%TO.P,J10,4,Pin_4*%
%TO.N,GND*%
X255270000Y-74269600D03*
%TO.P,J10,5,Pin_5*%
%TO.N,+5MAIN*%
X252730000Y-76809600D03*
%TO.P,J10,6,Pin_6*%
%TO.N,GND*%
X252730000Y-74269600D03*
%TO.P,J10,7,Pin_7*%
%TO.N,+5MAIN*%
X250190000Y-76809600D03*
%TO.P,J10,8,Pin_8*%
%TO.N,GND*%
X250190000Y-74269600D03*
%TO.P,J10,9,Pin_9*%
%TO.N,+5MAIN*%
X247650000Y-76809600D03*
%TO.P,J10,10,Pin_10*%
%TO.N,SCL*%
X247650000Y-74269600D03*
%TO.P,J10,11,Pin_11*%
%TO.N,LS1*%
X245110000Y-76809600D03*
%TO.P,J10,12,Pin_12*%
%TO.N,SDA*%
X245110000Y-74269600D03*
%TO.P,J10,13,Pin_13*%
%TO.N,BTN1*%
X242570000Y-76809600D03*
%TO.P,J10,14,Pin_14*%
%TO.N,BTN2*%
X242570000Y-74269600D03*
%TO.P,J10,15,Pin_15*%
%TO.N,BTN3*%
X240030000Y-76809600D03*
%TO.P,J10,16,Pin_16*%
%TO.N,~{RESIN}*%
X240030000Y-74269600D03*
%TD*%
D25*
%TO.P,C9,1*%
%TO.N,~{RESIN}*%
X194310000Y-151765000D03*
D11*
%TO.P,C9,2*%
%TO.N,GND*%
X191810000Y-151765000D03*
%TD*%
D34*
%TO.P,D7,1,K*%
%TO.N,+5MAIN*%
X188214000Y-145161000D03*
D11*
%TO.P,D7,2,A*%
%TO.N,~{RESIN}*%
X198374000Y-145161000D03*
%TD*%
D32*
%TO.P,JP1,1,A*%
%TO.N,GND*%
X84328000Y-143701000D03*
D33*
%TO.P,JP1,2,C*%
%TO.N,Net-(JP1-C)*%
X86868000Y-143701000D03*
%TO.P,JP1,3,B*%
%TO.N,/CPU/A12*%
X89408000Y-143701000D03*
%TD*%
D11*
%TO.P,R20,1*%
%TO.N,GND*%
X188302000Y-138811000D03*
%TO.P,R20,2*%
%TO.N,Net-(U5-XTAL2)*%
X198462000Y-138811000D03*
%TD*%
D32*
%TO.P,J8,1,Pin_1*%
%TO.N,LS1*%
X258064000Y-150241000D03*
D33*
%TO.P,J8,2,Pin_2*%
%TO.N,GND*%
X258064000Y-152781000D03*
%TD*%
D32*
%TO.P,JP2,1,A*%
%TO.N,+5MAIN*%
X84328000Y-147701000D03*
D33*
%TO.P,JP2,2,C*%
%TO.N,Net-(JP2-C)*%
X86868000Y-147701000D03*
%TO.P,JP2,3,B*%
%TO.N,/CPU/A12*%
X89408000Y-147701000D03*
%TD*%
D43*
%TO.N,-5V*%
X186750942Y-175580058D03*
X250698000Y-158623000D03*
X200406000Y-155067000D03*
X167640000Y-181229000D03*
%TO.N,Net-(D3-K)*%
X91033600Y-103225600D03*
%TO.N,GND*%
X176637600Y-114503200D03*
X142576800Y-120091200D03*
X135068400Y-89611200D03*
X171707200Y-108102400D03*
X174231200Y-107137200D03*
X135026400Y-102768400D03*
X153082400Y-115671600D03*
X176367600Y-101447600D03*
X143096400Y-93421200D03*
X168414000Y-123952000D03*
X159133200Y-112014000D03*
X177930800Y-98653600D03*
X176164400Y-111760000D03*
X135636000Y-86715600D03*
X173930800Y-98653600D03*
X120414800Y-86918800D03*
X142096400Y-119176800D03*
X173390800Y-95910400D03*
X151414000Y-123952000D03*
X156562800Y-116586000D03*
X162474400Y-120243600D03*
X180231200Y-107137200D03*
X171390800Y-95910400D03*
X179266000Y-105257600D03*
X177938000Y-96824800D03*
X142096400Y-93421200D03*
X177933600Y-123037600D03*
X156977200Y-121158000D03*
X151333200Y-99466400D03*
X175594000Y-116382800D03*
X176977200Y-121158000D03*
X157933600Y-123037600D03*
X175930800Y-98653600D03*
X137585200Y-92456000D03*
X159933600Y-123037600D03*
X179055600Y-117398800D03*
X159504800Y-118414800D03*
X137543200Y-98196400D03*
X146507200Y-120142000D03*
X175829200Y-102463600D03*
X174750800Y-106222800D03*
X174977200Y-121158000D03*
X179187600Y-109016800D03*
X121529600Y-86918800D03*
X138700000Y-92456000D03*
X159606400Y-114706400D03*
X143283600Y-89763600D03*
X140933600Y-123037600D03*
X171399200Y-93319600D03*
X144576800Y-94335600D03*
X157562800Y-116586000D03*
X172707200Y-108102400D03*
X150977200Y-121158000D03*
X157606400Y-114706400D03*
X144198000Y-95402400D03*
X172164400Y-111760000D03*
X155126000Y-113792000D03*
X179457600Y-122072400D03*
X128974000Y-105308400D03*
X173829200Y-102463600D03*
X135511200Y-98196400D03*
X117980800Y-102057200D03*
X156933600Y-123037600D03*
X179933600Y-123037600D03*
X177164400Y-111760000D03*
X117398800Y-94183200D03*
X137631600Y-88696800D03*
X165414000Y-123952000D03*
X175414000Y-123952000D03*
X118544000Y-101142800D03*
X136017600Y-97231200D03*
X157133200Y-112014000D03*
X156980800Y-119380000D03*
X96520000Y-165989000D03*
X135068400Y-91490800D03*
X153414000Y-123952000D03*
X173536000Y-118313200D03*
X173157200Y-113588800D03*
X167414000Y-123952000D03*
X174887200Y-100533200D03*
X119410400Y-88900000D03*
X138610000Y-100076000D03*
X154082400Y-115671600D03*
X176266000Y-105257600D03*
X151434800Y-120243600D03*
X178266000Y-105257600D03*
X165933600Y-123037600D03*
X140576800Y-92456000D03*
X177266000Y-105257600D03*
X155414000Y-123952000D03*
X158126000Y-113792000D03*
X137580800Y-94437200D03*
X137512800Y-114452400D03*
X155562800Y-116586000D03*
X141620400Y-92456000D03*
X155606400Y-114706400D03*
X153504800Y-118414800D03*
X160223200Y-98450400D03*
X118414800Y-86918800D03*
X172536000Y-118313200D03*
X144977200Y-121158000D03*
X140576800Y-94335600D03*
X174785600Y-104343200D03*
X180938000Y-96824800D03*
X145977200Y-121158000D03*
X178457600Y-122072400D03*
X173187600Y-109016800D03*
X141576800Y-94335600D03*
X134518400Y-100025200D03*
X139556400Y-114452400D03*
X173785600Y-104343200D03*
X171750800Y-106222800D03*
X131072800Y-105308400D03*
X126450000Y-104394000D03*
X143457600Y-122072400D03*
X141933600Y-123037600D03*
X163414000Y-123952000D03*
X179425600Y-93370400D03*
X140457600Y-122072400D03*
X138537200Y-96316800D03*
X119602000Y-99212400D03*
X140025200Y-117297200D03*
X138512800Y-116332000D03*
X139231200Y-87630000D03*
X128930400Y-107188000D03*
X178644800Y-112674400D03*
X139977200Y-121158000D03*
X145933600Y-123037600D03*
X119930000Y-107696000D03*
X119082400Y-100126800D03*
X164933600Y-123037600D03*
X174933600Y-123037600D03*
X151977200Y-121158000D03*
X179113600Y-115468400D03*
X139090400Y-100990400D03*
X176930800Y-98653600D03*
X136636000Y-86715600D03*
X173492400Y-120192800D03*
X175644800Y-112674400D03*
X158461200Y-120294400D03*
X171418000Y-97688400D03*
X138954000Y-99110800D03*
X129548800Y-106273600D03*
X139473600Y-98196400D03*
X175418400Y-97739200D03*
X177418400Y-97739200D03*
X180536000Y-118313200D03*
X156972000Y-100126800D03*
X177707200Y-108102400D03*
X146933600Y-123037600D03*
X173750800Y-106222800D03*
X143933600Y-123037600D03*
X172938000Y-96824800D03*
X150933600Y-123037600D03*
X134537200Y-96316800D03*
X173933600Y-123037600D03*
X140134000Y-111607600D03*
X134585200Y-92456000D03*
X140177600Y-109728000D03*
X151933600Y-123037600D03*
X144096400Y-93421200D03*
X173977200Y-121158000D03*
X173113600Y-115468400D03*
X138032400Y-115417600D03*
X174418400Y-97739200D03*
X175367600Y-101447600D03*
X153980800Y-119380000D03*
X178930800Y-98653600D03*
X170414000Y-123952000D03*
X119847200Y-91694000D03*
X117366800Y-88900000D03*
X169977200Y-121158000D03*
X135585200Y-92456000D03*
X179637600Y-114503200D03*
X172644800Y-112674400D03*
X154933600Y-123037600D03*
X136068400Y-91490800D03*
X151993600Y-119380000D03*
X139025200Y-117297200D03*
X157414000Y-123952000D03*
X138750800Y-86715600D03*
X154980800Y-119380000D03*
X180492400Y-90525600D03*
X173707200Y-108102400D03*
X174414000Y-123952000D03*
X144933600Y-123037600D03*
X172187600Y-109016800D03*
X148977200Y-121158000D03*
X169933600Y-123037600D03*
X174113600Y-115468400D03*
X142576800Y-94335600D03*
X176418400Y-97739200D03*
X155977200Y-121158000D03*
X177977200Y-121158000D03*
X138076000Y-113538000D03*
X167284400Y-93319600D03*
X138588000Y-90576400D03*
X157504800Y-118414800D03*
X174644800Y-112674400D03*
X172418400Y-97739200D03*
X172933600Y-123037600D03*
X164457600Y-122072400D03*
X181028000Y-119278400D03*
X141414000Y-123952000D03*
X173231200Y-107137200D03*
X139700000Y-92456000D03*
X175157200Y-113588800D03*
X179414000Y-123952000D03*
X159994000Y-119329200D03*
X172055600Y-117398800D03*
X175492400Y-120192800D03*
X120895200Y-87833200D03*
X177113600Y-115468400D03*
X149457600Y-122072400D03*
X121818400Y-94234000D03*
X137061200Y-95351600D03*
X160414000Y-123952000D03*
X138061200Y-95351600D03*
X136588000Y-90576400D03*
X178157200Y-113588800D03*
X127450000Y-106273600D03*
X173309600Y-103378000D03*
X154562800Y-116586000D03*
X158457600Y-122072400D03*
X137636000Y-86715600D03*
X145542000Y-120091200D03*
X177785600Y-104343200D03*
X156504800Y-118414800D03*
X169484800Y-120142000D03*
X118973600Y-105816400D03*
X152613600Y-112928400D03*
X140630400Y-90627200D03*
X178309600Y-103378000D03*
X120366800Y-90779600D03*
X130029200Y-105308400D03*
X158562800Y-116586000D03*
X179829200Y-102463600D03*
X147977200Y-121158000D03*
X140556400Y-114452400D03*
X178938000Y-96824800D03*
X152980800Y-119380000D03*
X139017600Y-97231200D03*
X155082400Y-115671600D03*
X143620400Y-92456000D03*
X119634000Y-94183200D03*
X168977200Y-121158000D03*
X179157200Y-113588800D03*
X177829200Y-102463600D03*
X166457600Y-122072400D03*
X174367600Y-101447600D03*
X180903200Y-100533200D03*
X135116400Y-87630000D03*
X158504800Y-118414800D03*
X136007600Y-102768400D03*
X178637600Y-114503200D03*
X162994000Y-119329200D03*
X181164400Y-111760000D03*
X179411200Y-99568000D03*
X117847200Y-89814400D03*
X127974000Y-105308400D03*
X175164400Y-111760000D03*
X179309600Y-103378000D03*
X178418400Y-97739200D03*
X160977200Y-121158000D03*
X171829200Y-102463600D03*
X154414000Y-123952000D03*
X143414000Y-123952000D03*
X175707200Y-108102400D03*
X170410800Y-99517200D03*
X176231200Y-107137200D03*
X139512800Y-116332000D03*
X178012000Y-119278400D03*
X137116400Y-87630000D03*
X157457600Y-122072400D03*
X145096400Y-93421200D03*
X136537200Y-96316800D03*
X131548800Y-106273600D03*
X172457600Y-122072400D03*
X138414000Y-123952000D03*
X149434800Y-120243600D03*
X137065600Y-93370400D03*
X135017600Y-97231200D03*
X172930800Y-98653600D03*
X171977200Y-121158000D03*
X140512800Y-116332000D03*
X117895200Y-87833200D03*
X122529600Y-86918800D03*
X141096400Y-119176800D03*
X153977200Y-121158000D03*
X175785600Y-104343200D03*
X176492400Y-120192800D03*
X172637600Y-114503200D03*
X176457600Y-122072400D03*
X170840400Y-96824800D03*
X176414000Y-123952000D03*
X177644800Y-112674400D03*
X136061200Y-95351600D03*
X156606400Y-114706400D03*
X162933600Y-123037600D03*
X155504800Y-118414800D03*
X118930000Y-107696000D03*
X170457600Y-122072400D03*
X157613600Y-112928400D03*
X137134000Y-111607600D03*
X140414000Y-123952000D03*
X155024400Y-117500400D03*
X158977200Y-121158000D03*
X121410400Y-88900000D03*
X147414000Y-123952000D03*
X159457600Y-122072400D03*
X176536000Y-118313200D03*
X175887200Y-100533200D03*
X177414000Y-123952000D03*
X142678400Y-96316800D03*
X146457600Y-122072400D03*
X137414000Y-123952000D03*
X139061200Y-95351600D03*
X177411200Y-99568000D03*
X179492400Y-120192800D03*
X174930800Y-98653600D03*
X142764000Y-90678000D03*
X136112000Y-89611200D03*
X173411200Y-99568000D03*
X142933600Y-123037600D03*
X167977200Y-121158000D03*
X178785600Y-104343200D03*
X141150000Y-89712800D03*
X172390800Y-95910400D03*
X136956800Y-100939600D03*
X122010000Y-87833200D03*
X140157200Y-87680800D03*
X142620400Y-92456000D03*
X117366800Y-90779600D03*
X180829200Y-102463600D03*
X171274400Y-105206800D03*
X134991600Y-99110800D03*
X178492400Y-120192800D03*
X158082400Y-115671600D03*
X143198000Y-95402400D03*
X136543200Y-98196400D03*
X180637600Y-114503200D03*
X170898400Y-98602800D03*
X139981600Y-119176800D03*
X180930800Y-98653600D03*
X146414000Y-123952000D03*
X158414000Y-123952000D03*
X139177600Y-109728000D03*
X173418400Y-97739200D03*
X146977200Y-121158000D03*
X175113600Y-115468400D03*
X143576800Y-120091200D03*
X175012000Y-119278400D03*
X173055600Y-117398800D03*
X139537200Y-96316800D03*
X154126000Y-113792000D03*
X140505600Y-118211600D03*
X128450000Y-106273600D03*
X178536000Y-118313200D03*
X175055600Y-117398800D03*
X174457600Y-122072400D03*
X166414000Y-123952000D03*
X114300000Y-184023000D03*
X138065600Y-93370400D03*
X140076000Y-113538000D03*
X139068400Y-91490800D03*
X144140000Y-91541600D03*
X119973600Y-105816400D03*
X142457600Y-122072400D03*
X174266000Y-105257600D03*
X136580800Y-94437200D03*
X137614400Y-110642400D03*
X157082400Y-115671600D03*
X176411200Y-99568000D03*
X161994000Y-119329200D03*
X179938000Y-96824800D03*
X179930800Y-98653600D03*
X178707200Y-108102400D03*
X179164400Y-111760000D03*
X128493600Y-104394000D03*
X168484800Y-120142000D03*
X180750800Y-106222800D03*
X138462000Y-120091200D03*
X135527200Y-101854000D03*
X173012000Y-119278400D03*
X180414000Y-123952000D03*
X156461200Y-120294400D03*
X167484800Y-120142000D03*
X167933600Y-123037600D03*
X121890800Y-89814400D03*
X134874000Y-100939600D03*
X139658000Y-110642400D03*
X140678400Y-96316800D03*
X118895200Y-87833200D03*
X159461200Y-120294400D03*
X119500400Y-103022400D03*
X126930400Y-107188000D03*
X174055600Y-117398800D03*
X180594000Y-116382800D03*
X138933600Y-123037600D03*
X180801600Y-104343200D03*
X149977200Y-121158000D03*
X118602000Y-99212400D03*
X177012000Y-119278400D03*
X160933600Y-123037600D03*
X173266000Y-105257600D03*
X180309600Y-103378000D03*
X118847200Y-91694000D03*
X177390800Y-95910400D03*
X173457600Y-122072400D03*
X180949600Y-123037600D03*
X144457600Y-122072400D03*
X163457600Y-122072400D03*
X139631600Y-88696800D03*
X178390800Y-95910400D03*
X135065600Y-93370400D03*
X143977200Y-121158000D03*
X176829200Y-102463600D03*
X139076000Y-113538000D03*
X119366800Y-90779600D03*
X138068400Y-91490800D03*
X180411200Y-99568000D03*
X143140000Y-91541600D03*
X152414000Y-123952000D03*
X117980800Y-103936800D03*
X165457600Y-122072400D03*
X173887200Y-100533200D03*
X180012000Y-119278400D03*
X148414000Y-123952000D03*
X141732000Y-86715600D03*
X172594000Y-116382800D03*
X117449600Y-104902000D03*
X170484800Y-120142000D03*
X157126000Y-113792000D03*
X119980800Y-103936800D03*
X169457600Y-122072400D03*
X175411200Y-99568000D03*
X155133200Y-112014000D03*
X159977200Y-121158000D03*
X178977200Y-121158000D03*
X145414000Y-123952000D03*
X118980800Y-103936800D03*
X172750800Y-106222800D03*
X144576800Y-120091200D03*
X179977200Y-121158000D03*
X119544000Y-101142800D03*
X119414800Y-86918800D03*
X172977200Y-121158000D03*
X152933600Y-123037600D03*
X176012000Y-119278400D03*
X176390800Y-95910400D03*
X117602000Y-99212400D03*
X137537200Y-96316800D03*
X172829200Y-102463600D03*
X117449600Y-106781600D03*
X117930000Y-105816400D03*
X122410400Y-88900000D03*
X141096400Y-93421200D03*
X118500400Y-103022400D03*
X159082400Y-115671600D03*
X136631600Y-88696800D03*
X167004400Y-119227600D03*
X140579600Y-98145600D03*
X177055600Y-117398800D03*
X166487600Y-120192800D03*
X177492400Y-120192800D03*
X153933600Y-123037600D03*
X139414000Y-123952000D03*
X170004400Y-119227600D03*
X141140000Y-91541600D03*
X175309600Y-103378000D03*
X172411200Y-99568000D03*
X170933600Y-123037600D03*
X117847200Y-91694000D03*
X179367600Y-101447600D03*
X140977200Y-121158000D03*
X176594000Y-116382800D03*
X127493600Y-104394000D03*
X118366800Y-90779600D03*
X172492400Y-120192800D03*
X140681200Y-88696800D03*
X180367600Y-101447600D03*
X153461200Y-120294400D03*
X138090400Y-100990400D03*
X180055600Y-117398800D03*
X173414000Y-123952000D03*
X140658000Y-110642400D03*
X137462000Y-118211600D03*
X177367600Y-101447600D03*
X139032400Y-115417600D03*
X145140000Y-91541600D03*
X140096400Y-91541600D03*
X118890800Y-89814400D03*
X165487600Y-120192800D03*
X137032400Y-113538000D03*
X156082400Y-115671600D03*
X140106400Y-89662000D03*
X180390800Y-95910400D03*
X176938000Y-96824800D03*
X153126000Y-113792000D03*
X153613600Y-112928400D03*
X141630400Y-90627200D03*
X176887200Y-100533200D03*
X173644800Y-112674400D03*
X171930800Y-98653600D03*
X137023600Y-99110800D03*
X158933600Y-123037600D03*
X158980800Y-119380000D03*
X141576800Y-120091200D03*
X170293200Y-95910400D03*
X180113600Y-115468400D03*
X141457600Y-122072400D03*
X174411200Y-99568000D03*
X138017600Y-97231200D03*
X148933600Y-123037600D03*
X172012000Y-119278400D03*
X174707200Y-108102400D03*
X176055600Y-117398800D03*
X159414000Y-123952000D03*
X168933600Y-123037600D03*
X152977200Y-121158000D03*
X140462000Y-120091200D03*
X174309600Y-103378000D03*
X174187600Y-109016800D03*
X126450000Y-106273600D03*
X164977200Y-121158000D03*
X137981600Y-119176800D03*
X156133200Y-112014000D03*
X136933600Y-123037600D03*
X140099200Y-97231200D03*
X136981600Y-117297200D03*
X180164400Y-111760000D03*
X180723200Y-108102400D03*
X141678400Y-96316800D03*
X176785600Y-104343200D03*
X134518400Y-101854000D03*
X135991600Y-99110800D03*
X176113600Y-115468400D03*
X154606400Y-114706400D03*
X118493200Y-104902000D03*
X149933600Y-123037600D03*
X176750800Y-106222800D03*
X144283600Y-89763600D03*
X120024400Y-102057200D03*
X138473600Y-98196400D03*
X138658000Y-110642400D03*
X134636000Y-86715600D03*
X138116400Y-87630000D03*
X135580800Y-94437200D03*
X134511200Y-98196400D03*
X176187600Y-109016800D03*
X120847200Y-91694000D03*
X158133200Y-112014000D03*
X152606400Y-114706400D03*
X119895200Y-87833200D03*
X142140000Y-91541600D03*
X161474400Y-120243600D03*
X154457600Y-122072400D03*
X174536000Y-118313200D03*
X175750800Y-106222800D03*
X153024400Y-117500400D03*
X179644800Y-112674400D03*
X139112000Y-89611200D03*
X119493200Y-104902000D03*
X163933600Y-123037600D03*
X161457600Y-122072400D03*
X150414000Y-123952000D03*
X175390800Y-95910400D03*
X178164400Y-111760000D03*
X161977200Y-121158000D03*
X153133200Y-112014000D03*
X149954400Y-119329200D03*
X141198000Y-95402400D03*
X147933600Y-123037600D03*
X134537200Y-94437200D03*
X180266000Y-105257600D03*
X174012000Y-119278400D03*
X151880000Y-184035000D03*
X156613600Y-112928400D03*
X140096400Y-93421200D03*
X137414000Y-122072400D03*
X170977200Y-121158000D03*
X178187600Y-109016800D03*
X152461200Y-120294400D03*
X172887200Y-100533200D03*
X142414000Y-123952000D03*
X174390800Y-95910400D03*
X117414800Y-86918800D03*
X155980800Y-119380000D03*
X156457600Y-122072400D03*
X175933600Y-123037600D03*
X144729200Y-90678000D03*
X138977200Y-121158000D03*
X153606400Y-114706400D03*
X137068400Y-91490800D03*
X174164400Y-111760000D03*
X149414000Y-123952000D03*
X123940000Y-184023000D03*
X138023600Y-99110800D03*
X137462000Y-120091200D03*
X121847200Y-91694000D03*
X139614400Y-112522000D03*
X137112000Y-89611200D03*
X175187600Y-109016800D03*
X137017600Y-97231200D03*
X118872000Y-132715000D03*
X139505600Y-118211600D03*
X141977200Y-121158000D03*
X171933600Y-123037600D03*
X171500800Y-120142000D03*
X162977200Y-121158000D03*
X132072800Y-105308400D03*
X171414000Y-123952000D03*
X134588000Y-90576400D03*
X163474400Y-120243600D03*
X157980800Y-119380000D03*
X148457600Y-122072400D03*
X178414000Y-123952000D03*
X178367600Y-101447600D03*
X138614400Y-112522000D03*
X161414000Y-123952000D03*
X136933600Y-121158000D03*
X172785600Y-104343200D03*
X147954400Y-119329200D03*
X154977200Y-121158000D03*
X155461200Y-120294400D03*
X164487600Y-120192800D03*
X171785600Y-104343200D03*
X141099200Y-97231200D03*
X136116400Y-87630000D03*
X172231200Y-107137200D03*
X137933600Y-123037600D03*
X171020400Y-119227600D03*
X158024400Y-117500400D03*
X174594000Y-116382800D03*
X137588000Y-90576400D03*
X178113600Y-115468400D03*
X178594000Y-116382800D03*
X180157200Y-113588800D03*
X173637600Y-114503200D03*
X178231200Y-107137200D03*
X135631600Y-88696800D03*
X139180400Y-93370400D03*
X127930400Y-107188000D03*
X177750800Y-106222800D03*
X118449600Y-106781600D03*
X175457600Y-122072400D03*
X138457600Y-122072400D03*
X119449600Y-106781600D03*
X151457600Y-122072400D03*
X120890800Y-89814400D03*
X178933600Y-123037600D03*
X165977200Y-121158000D03*
X118082400Y-100126800D03*
X122366800Y-90779600D03*
X177157200Y-113588800D03*
X147523200Y-120192800D03*
X169414000Y-123952000D03*
X175977200Y-121158000D03*
X135956800Y-100939600D03*
X117500400Y-101142800D03*
X177309600Y-103378000D03*
X181157200Y-113588800D03*
X142200800Y-87782400D03*
X178055600Y-117398800D03*
X138134000Y-111607600D03*
X167457600Y-122072400D03*
X153457600Y-122072400D03*
X134588000Y-88696800D03*
X136065600Y-93370400D03*
X172157200Y-113588800D03*
X178829200Y-102463600D03*
X136981600Y-119176800D03*
X157024400Y-117500400D03*
X140032400Y-115417600D03*
X148954400Y-119329200D03*
X157461200Y-120294400D03*
X175637600Y-114503200D03*
X173164400Y-111760000D03*
X137977200Y-121158000D03*
X142198000Y-95402400D03*
X160474400Y-120243600D03*
X139580800Y-94437200D03*
X178750800Y-106222800D03*
X179887200Y-100533200D03*
X147457600Y-122072400D03*
X150457600Y-122072400D03*
X141579600Y-98145600D03*
X137610000Y-100076000D03*
X179418400Y-97739200D03*
X172266000Y-105257600D03*
X172367600Y-101447600D03*
X150954400Y-119329200D03*
X161933600Y-123037600D03*
X176309600Y-103378000D03*
X142977200Y-121158000D03*
X152562800Y-116586000D03*
X179707200Y-108102400D03*
X153562800Y-116586000D03*
X142150000Y-89712800D03*
X152504800Y-118414800D03*
X139457600Y-122072400D03*
X135017600Y-95351600D03*
X171938000Y-96824800D03*
X172309600Y-103378000D03*
X179785600Y-104343200D03*
X117500400Y-103022400D03*
X181129600Y-115468400D03*
X179390800Y-95910400D03*
X175536000Y-118313200D03*
X139750800Y-86715600D03*
X154024400Y-117500400D03*
X139933600Y-123037600D03*
X178887200Y-100533200D03*
X162457600Y-122072400D03*
X164414000Y-123952000D03*
X158606400Y-114706400D03*
X139588000Y-90576400D03*
X170891200Y-100431600D03*
X176933600Y-123037600D03*
X176707200Y-108102400D03*
X130029200Y-107188000D03*
X175266000Y-105257600D03*
X130592400Y-104394000D03*
X140868400Y-86715600D03*
X159562800Y-116586000D03*
X135537200Y-96316800D03*
X159024400Y-117500400D03*
X136476400Y-100025200D03*
X180187600Y-109016800D03*
X174938000Y-96824800D03*
X138025200Y-117297200D03*
X142748000Y-88696800D03*
X139954000Y-99110800D03*
X138580800Y-94437200D03*
X180457600Y-122072400D03*
X154504800Y-118414800D03*
X159126000Y-113792000D03*
X152457600Y-122072400D03*
X173594000Y-116382800D03*
X166977200Y-121158000D03*
X138981600Y-119176800D03*
X135588000Y-90576400D03*
X177536000Y-118313200D03*
X117930000Y-107696000D03*
X156414000Y-123952000D03*
X168457600Y-122072400D03*
X143576800Y-94335600D03*
X140614400Y-112522000D03*
X145198000Y-95402400D03*
X179012000Y-119278400D03*
X140198000Y-95402400D03*
X175938000Y-96824800D03*
X173367600Y-101447600D03*
X160994000Y-119329200D03*
X121366800Y-90779600D03*
X179536000Y-118313200D03*
X155933600Y-123037600D03*
X168004400Y-119227600D03*
X138112000Y-89611200D03*
X171887200Y-100533200D03*
X141681200Y-88696800D03*
X174492400Y-120192800D03*
X180644800Y-112674400D03*
X137032400Y-115417600D03*
X155457600Y-122072400D03*
X156024400Y-117500400D03*
X154133200Y-112014000D03*
X175209200Y-93319600D03*
X177187600Y-109016800D03*
X175231200Y-107137200D03*
X166933600Y-123037600D03*
X177637600Y-114503200D03*
X143764000Y-90678000D03*
X136585200Y-92456000D03*
X131592400Y-104394000D03*
X172113600Y-115468400D03*
X119024400Y-102057200D03*
X176157200Y-113588800D03*
X171457600Y-122072400D03*
X118872000Y-150749000D03*
X154461200Y-120294400D03*
X155613600Y-112928400D03*
X177594000Y-116382800D03*
X139462000Y-120091200D03*
X144620400Y-92456000D03*
X159613600Y-112928400D03*
X143096400Y-119176800D03*
X180977200Y-121158000D03*
X145457600Y-122072400D03*
X120410400Y-88900000D03*
X137007600Y-102768400D03*
X137512800Y-116332000D03*
X180492400Y-120192800D03*
X144414000Y-123952000D03*
X129548800Y-104394000D03*
X174157200Y-113588800D03*
X177887200Y-100533200D03*
X158613600Y-112928400D03*
X162414000Y-123952000D03*
X119890800Y-89814400D03*
X181055600Y-117398800D03*
X126930400Y-105308400D03*
X170418000Y-97688400D03*
X163977200Y-121158000D03*
X174637600Y-114503200D03*
X144096400Y-119176800D03*
X135476400Y-100025200D03*
X174447200Y-90576400D03*
X174829200Y-102463600D03*
X177457600Y-122072400D03*
X156126000Y-113792000D03*
X130548800Y-106273600D03*
X141200800Y-87782400D03*
X176644800Y-112674400D03*
X154613600Y-112928400D03*
X136527200Y-101854000D03*
X138631600Y-88696800D03*
X171410800Y-99517200D03*
X179594000Y-116382800D03*
X172414000Y-123952000D03*
X180418400Y-97739200D03*
X118410400Y-88900000D03*
X173938000Y-96824800D03*
X157977200Y-121158000D03*
X177231200Y-107137200D03*
X138556400Y-114452400D03*
X179750800Y-106222800D03*
X169004400Y-119227600D03*
X150434800Y-120243600D03*
X138505600Y-118211600D03*
X179231200Y-107137200D03*
X148434800Y-120243600D03*
X139134000Y-111607600D03*
X178411200Y-99568000D03*
X137614400Y-112522000D03*
X145643600Y-92456000D03*
X160457600Y-122072400D03*
%TO.N,INTE*%
X159500000Y-184023000D03*
X188976000Y-184902000D03*
%TO.N,+5MAIN*%
X169672000Y-140081000D03*
X261010400Y-183718200D03*
X178816000Y-138303000D03*
X178816000Y-143129000D03*
X156972000Y-140081000D03*
%TO.N,PHI2*%
X184251600Y-170561000D03*
X157022800Y-170408600D03*
%TO.N,RDY*%
X171451450Y-156453952D03*
X165862000Y-156337000D03*
%TO.N,RESET*%
X185674000Y-157099000D03*
X148132800Y-142570200D03*
X134257247Y-142676647D03*
X239268000Y-157099000D03*
X134874000Y-133360000D03*
%TO.N,SCL*%
X245872000Y-162179000D03*
X171958000Y-135001000D03*
X248869200Y-87934800D03*
X175768000Y-133477000D03*
X151892000Y-142621000D03*
X187198000Y-132969000D03*
X221742000Y-161925000D03*
%TO.N,SDA*%
X247040400Y-88239600D03*
X177800000Y-134239000D03*
X243078000Y-162941000D03*
X154686000Y-143246000D03*
X183642000Y-134493000D03*
X220726000Y-162179000D03*
X172974000Y-136017000D03*
%TO.N,SYNC*%
X171958000Y-176657000D03*
%TO.N,~{MEMR}*%
X208788000Y-171948000D03*
X96520000Y-157099000D03*
X91440000Y-157099000D03*
X91440000Y-169799000D03*
%TO.N,~{MEMW}*%
X86360000Y-173101000D03*
X221488000Y-172847000D03*
%TO.N,/CPU/DB0*%
X140208000Y-160909000D03*
X105664000Y-139710000D03*
X111660000Y-171323000D03*
X198628000Y-181991000D03*
X197358000Y-164211000D03*
X105310000Y-171323000D03*
%TO.N,/CPU/DB3*%
X116840000Y-169037000D03*
X225298000Y-166751000D03*
X101854000Y-174117000D03*
X116840000Y-174117000D03*
X191008000Y-166243000D03*
%TO.N,/CPU/A0*%
X141732000Y-148463000D03*
X224790000Y-174625000D03*
X159258000Y-156845000D03*
X201168000Y-180838000D03*
X104394000Y-148991000D03*
X141720000Y-156397000D03*
X159512000Y-175368000D03*
X201168000Y-174879000D03*
X181229000Y-177546000D03*
X192532000Y-183769000D03*
%TO.N,/CPU/DB5*%
X106680000Y-168275000D03*
X107181000Y-158486000D03*
X197358000Y-179451000D03*
X109845000Y-158486000D03*
%TO.N,/CPU/DB2*%
X106680000Y-182362000D03*
X111760000Y-157099000D03*
X193548000Y-181737000D03*
X111760000Y-142621000D03*
X108591137Y-157051802D03*
%TO.N,/CPU/DB1*%
X194818000Y-164856000D03*
X109220000Y-141859000D03*
X196088000Y-182753000D03*
X137922000Y-164719000D03*
%TO.N,/CPU/DB6*%
X107442000Y-157099000D03*
X202692000Y-179080000D03*
X103886000Y-157099000D03*
X201168000Y-171069000D03*
%TO.N,/CPU/DB4*%
X91440000Y-181737000D03*
X113030000Y-174879000D03*
X188468000Y-182753000D03*
X91694000Y-175133000D03*
X192278000Y-180213000D03*
%TO.N,/CPU/DB7*%
X97944000Y-157099000D03*
X187706000Y-185016000D03*
X102726000Y-157143000D03*
X113030000Y-184785000D03*
X227584000Y-167513000D03*
X96520000Y-184785000D03*
X124968000Y-185016000D03*
X227584000Y-178572000D03*
%TO.N,+12MAIN*%
X252730000Y-158369000D03*
X152146000Y-157099000D03*
%TO.N,Net-(Q3-\u0411)*%
X121361200Y-100279200D03*
%TO.N,Net-(U5-XTAL2)*%
X202946000Y-142367000D03*
%TO.N,/CPU/A12*%
X130048000Y-174371000D03*
X129032000Y-157099000D03*
X114046000Y-149225000D03*
X115570000Y-157099000D03*
%TO.N,Net-(U5-~{STSTB})*%
X79502000Y-158369000D03*
%TO.N,/CPU/A1*%
X153416000Y-155946000D03*
X176022000Y-163566000D03*
X202438000Y-163703000D03*
X139180000Y-155692000D03*
X176022000Y-168529000D03*
X139192000Y-148717000D03*
X101600000Y-149616000D03*
X155702000Y-168783000D03*
%TO.N,/CPU/A10*%
X121412000Y-174117000D03*
X117856000Y-174117000D03*
X117856000Y-140335000D03*
X184404000Y-134239000D03*
%TO.N,/CPU/A2*%
X206248000Y-173609000D03*
X154420000Y-169916000D03*
X154432000Y-173609000D03*
X100838000Y-168783000D03*
%TO.N,/CPU/A11*%
X95504000Y-160909000D03*
X121412000Y-160909000D03*
X211074000Y-137541000D03*
%TO.N,/CPU/A4*%
X134112000Y-146822000D03*
X209914000Y-158877000D03*
X211328000Y-172476000D03*
X93980000Y-149225000D03*
X146812000Y-156962000D03*
X134100000Y-155692000D03*
X146812000Y-158232000D03*
%TO.N,/CPU/A7*%
X215458058Y-163382942D03*
X139192000Y-166751000D03*
X139180000Y-160655000D03*
X86360000Y-161163000D03*
%TO.N,/CPU/A8*%
X136652000Y-160264000D03*
X90170000Y-160264000D03*
X213360000Y-161417000D03*
%TO.N,/CPU/A6*%
X141720000Y-170581000D03*
X141732000Y-172476000D03*
X216154000Y-171968000D03*
X87630000Y-170561000D03*
%TO.N,/CPU/A3*%
X96520000Y-149616000D03*
X150368000Y-147447000D03*
X208788000Y-174117000D03*
X149606000Y-174117000D03*
%TO.N,/CPU/A14*%
X123698000Y-158115000D03*
X212344000Y-150241000D03*
X83820000Y-157607000D03*
%TO.N,/CPU/A5*%
X176784000Y-160655000D03*
X176530000Y-176149000D03*
X212090000Y-160655000D03*
X144780000Y-175895000D03*
X143764000Y-146431000D03*
X91694000Y-149225000D03*
%TO.N,/CPU/A9*%
X133350000Y-156337000D03*
X174244000Y-162941000D03*
X174244000Y-171206000D03*
X213614000Y-164856000D03*
X92710000Y-156337000D03*
X134100000Y-171206000D03*
%TO.N,/CPU/A13*%
X87630000Y-158623000D03*
X126492000Y-159639000D03*
X212344000Y-159639000D03*
%TO.N,/CPU/A15*%
X101600000Y-140960000D03*
X129794000Y-141097000D03*
%TO.N,/CPU/D5*%
X104140000Y-172456000D03*
X128651000Y-172466000D03*
%TO.N,HLDA*%
X83820000Y-167513000D03*
X169672000Y-167513000D03*
%TO.N,DBIN*%
X161798000Y-183769000D03*
X88900000Y-181483000D03*
%TO.N,~{IOR}*%
X133608500Y-144911500D03*
X89154000Y-158877000D03*
X130556000Y-159014000D03*
%TO.N,/CPU/D6*%
X131318000Y-173609000D03*
X99060000Y-173609000D03*
%TO.N,~{WR}*%
X86360000Y-180467000D03*
%TO.N,~{IOW}*%
X185826400Y-136575800D03*
X193548000Y-137134600D03*
X86106000Y-150749000D03*
X172415200Y-141655800D03*
X131572000Y-149225000D03*
X131560000Y-145211800D03*
X180644800Y-135902000D03*
%TO.N,/CPU/D7*%
X99822000Y-181346000D03*
X134100000Y-181346000D03*
%TO.N,/CPU/D1*%
X109374000Y-175641000D03*
%TO.N,/CPU/D3*%
X104140000Y-181854000D03*
X136640000Y-181346000D03*
%TO.N,/CPU/D0*%
X114200000Y-175016000D03*
%TO.N,BTN1*%
X170502500Y-156962000D03*
X183956942Y-158683942D03*
X178562000Y-157099000D03*
%TO.N,Net-(U3-COMP)*%
X92760800Y-98196400D03*
%TO.N,Net-(U3-SS{slash}TR)*%
X84074000Y-99517200D03*
%TO.N,Net-(U3-VSENSE)*%
X93980000Y-99669600D03*
%TO.N,Net-(U3-PWRGD)*%
X91694000Y-100482400D03*
%TO.N,Net-(U3-RT{slash}CLK)*%
X84937600Y-100177600D03*
%TO.N,Net-(D1-K)*%
X188163200Y-70053200D03*
%TO.N,~{RESIN}*%
X194310000Y-145161000D03*
X236982000Y-145161000D03*
X243738400Y-88646000D03*
%TO.N,BTN2*%
X208127600Y-111353600D03*
X254508000Y-157861000D03*
X242316000Y-170307000D03*
X256540000Y-170053000D03*
%TO.N,1WIRE*%
X164846000Y-147701000D03*
%TO.N,BTN3*%
X212852000Y-147056000D03*
X206298800Y-112522000D03*
X219964000Y-162687000D03*
X235458000Y-163703000D03*
X197612000Y-112471200D03*
%TO.N,~{RESET}*%
X241808000Y-156337000D03*
X220218000Y-156083000D03*
%TO.N,~{A4}*%
X229018000Y-164973000D03*
X222758000Y-136779000D03*
X228600000Y-137033000D03*
%TO.N,LS1*%
X245110000Y-88595200D03*
%TD*%
D44*
%TO.N,+12V*%
X103378000Y-82143600D02*
X102717600Y-81483200D01*
D45*
X195986400Y-109931200D02*
X194208400Y-111709200D01*
D44*
X137058400Y-107696000D02*
X143662400Y-101092000D01*
X162763200Y-97536000D02*
X162763200Y-98567600D01*
X156565600Y-96723200D02*
X161950400Y-96723200D01*
X154736800Y-101092000D02*
X155803600Y-100025200D01*
X134467600Y-107696000D02*
X137058400Y-107696000D01*
X131013200Y-111150400D02*
X134467600Y-107696000D01*
X91287600Y-80873600D02*
X88442800Y-78028800D01*
D45*
X195986400Y-108446000D02*
X195986400Y-109931200D01*
X187604400Y-111675200D02*
X186385200Y-110456000D01*
X127124178Y-112496600D02*
X131013200Y-112496600D01*
D46*
X86283800Y-98522000D02*
X82609300Y-98522000D01*
D44*
X102717600Y-81483200D02*
X102707200Y-81493600D01*
X155803600Y-97485200D02*
X156565600Y-96723200D01*
X161950400Y-96723200D02*
X162763200Y-97536000D01*
X155803600Y-100025200D02*
X155803600Y-97485200D01*
X103378000Y-84480400D02*
X103378000Y-82143600D01*
X81381600Y-78028800D02*
X78181200Y-81229200D01*
D45*
X194208400Y-111709200D02*
X187604400Y-111709200D01*
D44*
X102707200Y-81493600D02*
X91287600Y-81493600D01*
D45*
X187604400Y-111709200D02*
X187604400Y-111675200D01*
D44*
X88442800Y-78028800D02*
X81381600Y-78028800D01*
X78181200Y-98005500D02*
X82092800Y-98005500D01*
D46*
X82609300Y-98522000D02*
X82092800Y-98005500D01*
D44*
X143662400Y-101092000D02*
X154736800Y-101092000D01*
X78181200Y-81229200D02*
X78181200Y-98005500D01*
X131013200Y-112496600D02*
X131013200Y-111150400D01*
X91287600Y-81493600D02*
X91287600Y-80873600D01*
D46*
%TO.N,Net-(U1-THR)*%
X206157200Y-105551600D02*
X205802800Y-105906000D01*
X192188400Y-103366000D02*
X191176600Y-104377800D01*
X191176600Y-104377800D02*
X191176600Y-110456000D01*
X205802800Y-105906000D02*
X203606400Y-105906000D01*
X195986400Y-103366000D02*
X192188400Y-103366000D01*
X206157200Y-97028000D02*
X206157200Y-105551600D01*
D47*
%TO.N,-5V*%
X181102000Y-181229000D02*
X167640000Y-181229000D01*
X247142000Y-154559000D02*
X250698000Y-158115000D01*
D48*
X133502400Y-79044800D02*
X128016000Y-79044800D01*
X128016000Y-79044800D02*
X125933200Y-81127600D01*
D47*
X200914000Y-154559000D02*
X247142000Y-154559000D01*
X200406000Y-155067000D02*
X200914000Y-154559000D01*
X186750942Y-175580058D02*
X181102000Y-181229000D01*
D48*
X138277600Y-74269600D02*
X133502400Y-79044800D01*
X146132608Y-76301600D02*
X144100608Y-74269600D01*
D47*
X250698000Y-158115000D02*
X250698000Y-158623000D01*
D48*
X144100608Y-74269600D02*
X138277600Y-74269600D01*
X125933200Y-81127600D02*
X125933200Y-82667200D01*
D46*
%TO.N,Net-(D3-K)*%
X94572400Y-104718400D02*
X95467200Y-105613200D01*
D47*
X88493600Y-104718400D02*
X89540800Y-104718400D01*
D49*
X90993600Y-94284800D02*
X90993600Y-97612200D01*
D47*
X89540800Y-104718400D02*
X91033600Y-103225600D01*
D46*
X90993600Y-97612200D02*
X90583800Y-98022000D01*
D47*
X88493600Y-104718400D02*
X94572400Y-104718400D01*
D48*
%TO.N,GND*%
X247040400Y-111404400D02*
X247040400Y-120512400D01*
X190461080Y-129909000D02*
X190447680Y-129895600D01*
X95808800Y-97460600D02*
X95808800Y-100330000D01*
X142798800Y-79298800D02*
X147828000Y-79298800D01*
X243944000Y-120563200D02*
X246989600Y-120563200D01*
X148632608Y-76301600D02*
X148632608Y-68473192D01*
X132951552Y-184023000D02*
X123940000Y-184023000D01*
X99212400Y-120446800D02*
X99901022Y-121135422D01*
X124587000Y-186551000D02*
X190373000Y-186551000D01*
X258064000Y-152781000D02*
X272288000Y-152781000D01*
X132979553Y-184051000D02*
X132951552Y-184023000D01*
X118872000Y-130810000D02*
X117970999Y-129908999D01*
X75426000Y-186551000D02*
X123317000Y-186551000D01*
X84886800Y-101498400D02*
X84518900Y-101130500D01*
X203606400Y-108446000D02*
X200546400Y-108446000D01*
X114554000Y-184277000D02*
X114300000Y-184023000D01*
X266530471Y-129899735D02*
X266521206Y-129909000D01*
X74537000Y-68465000D02*
X74517000Y-68485000D01*
X237998000Y-130048000D02*
X237859000Y-129909000D01*
X237998000Y-130048000D02*
X237998000Y-130810000D01*
X245470223Y-129909000D02*
X245456823Y-129895600D01*
X217965694Y-129909000D02*
X217956421Y-129899727D01*
X238137000Y-129909000D02*
X237998000Y-130048000D01*
X190447680Y-130098800D02*
X188468000Y-130098800D01*
X74517000Y-165989000D02*
X74517000Y-185642000D01*
X95808800Y-100330000D02*
X94640400Y-101498400D01*
X236742600Y-84226400D02*
X238861600Y-82107400D01*
X74517000Y-68485000D02*
X74517000Y-104190800D01*
X118872000Y-132715000D02*
X118872000Y-130810000D01*
X101493806Y-129909000D02*
X101280034Y-129909000D01*
X123952000Y-185916000D02*
X124587000Y-186551000D01*
X88493600Y-119634000D02*
X89306400Y-120446800D01*
X183540400Y-125107000D02*
X228396800Y-125107000D01*
X239051240Y-129895600D02*
X239040262Y-129899167D01*
X171302600Y-75184000D02*
X171302600Y-68815600D01*
X99901022Y-125078778D02*
X99872800Y-125107000D01*
X272288000Y-152781000D02*
X272288000Y-131318000D01*
X158602600Y-75184000D02*
X158602600Y-68561600D01*
X183593600Y-120563200D02*
X183593600Y-125053800D01*
X191008000Y-185916000D02*
X191578800Y-186486800D01*
X84518900Y-101130500D02*
X82092800Y-101130500D01*
X109225200Y-101529800D02*
X105156000Y-97460600D01*
X74517000Y-131731000D02*
X74517000Y-143637000D01*
X271094200Y-186486800D02*
X272288000Y-185293000D01*
X100482400Y-109188956D02*
X100482400Y-97460600D01*
X228295200Y-125005400D02*
X228396800Y-125107000D01*
X101501512Y-129901294D02*
X101493806Y-129909000D01*
X158602600Y-68561600D02*
X158699200Y-68465000D01*
X87482600Y-90175000D02*
X86004400Y-90175000D01*
X147828000Y-79298800D02*
X148632608Y-78494192D01*
X213011345Y-120635745D02*
X228295200Y-120635745D01*
X89306400Y-120446800D02*
X99212400Y-120446800D01*
X88433800Y-91126200D02*
X87482600Y-90175000D01*
X86004400Y-88676800D02*
X88387600Y-86293600D01*
X217942016Y-129899163D02*
X217774716Y-129844800D01*
X271881600Y-125120400D02*
X272338800Y-125120400D01*
X84987600Y-81493600D02*
X84987600Y-82893600D01*
X194769000Y-120563200D02*
X201269000Y-120563200D01*
X74567800Y-104140000D02*
X74517000Y-104190800D01*
X114300000Y-152173000D02*
X115724000Y-150749000D01*
X270865600Y-129895600D02*
X266555822Y-129895600D01*
X190447680Y-129895600D02*
X190447680Y-130098800D01*
X74517000Y-125107000D02*
X79667800Y-125107000D01*
X183593600Y-120563200D02*
X190093600Y-120563200D01*
X181462600Y-68510800D02*
X181508400Y-68465000D01*
X79248000Y-125107000D02*
X87223600Y-125107000D01*
X217956421Y-129899727D02*
X217942016Y-129899163D01*
X114300000Y-153321000D02*
X114300000Y-152173000D01*
X148632608Y-78494192D02*
X148632608Y-76301600D01*
X211519810Y-129901296D02*
X211512106Y-129909000D01*
X123698000Y-184277000D02*
X114554000Y-184277000D01*
X123940000Y-184023000D02*
X123940000Y-184035000D01*
X74517000Y-104190800D02*
X74517000Y-125107000D01*
X198283200Y-97053400D02*
X199847200Y-97053400D01*
X266521206Y-129909000D02*
X266293566Y-129909000D01*
X272288000Y-185293000D02*
X272288000Y-174167800D01*
X94202800Y-84480400D02*
X92389600Y-86293600D01*
X272447000Y-68465000D02*
X257810000Y-68465000D01*
X266544822Y-129899174D02*
X266530471Y-129899735D01*
X218678418Y-129927982D02*
X218193377Y-129909000D01*
X88433800Y-101101000D02*
X88036400Y-101498400D01*
X107947365Y-129908999D02*
X107938095Y-129899729D01*
X88433800Y-99022000D02*
X88433800Y-101101000D01*
X237859000Y-129909000D02*
X218698946Y-129909000D01*
X239025906Y-129899729D02*
X239016635Y-129909000D01*
X123940000Y-184035000D02*
X123698000Y-184277000D01*
X191008000Y-176657000D02*
X191008000Y-185916000D01*
X151428000Y-184035000D02*
X151412000Y-184051000D01*
X92389600Y-86293600D02*
X88387600Y-86293600D01*
X100758262Y-129909000D02*
X81176102Y-129909000D01*
X110816400Y-90373200D02*
X96469200Y-90373200D01*
X203606400Y-120512400D02*
X203555600Y-120563200D01*
X171653200Y-68465000D02*
X158699200Y-68465000D01*
X199847200Y-97053400D02*
X201131800Y-97053400D01*
X199999600Y-107899200D02*
X199999600Y-97205800D01*
X237998000Y-130810000D02*
X237744000Y-131064000D01*
X272447000Y-125012200D02*
X272447000Y-122986800D01*
X228295200Y-120635745D02*
X228295200Y-125005400D01*
X188468000Y-130810000D02*
X188468000Y-130098800D01*
X171302600Y-68815600D02*
X171653200Y-68465000D01*
X101280034Y-129909000D02*
X100777025Y-129926501D01*
X188302000Y-138811000D02*
X188302000Y-135509000D01*
X266555822Y-129895600D02*
X266544822Y-129899174D01*
X212938800Y-120563200D02*
X213011345Y-120635745D01*
X100482400Y-97460600D02*
X105156000Y-97460600D01*
X86004400Y-90175000D02*
X86004400Y-88676800D01*
X141071600Y-76301600D02*
X141071600Y-77571600D01*
X188302000Y-135509000D02*
X188302000Y-131152000D01*
X188468000Y-130810000D02*
X188214000Y-131064000D01*
X247040400Y-120512400D02*
X246989600Y-120563200D01*
X203555600Y-120563200D02*
X205944400Y-120563200D01*
X95808800Y-97460600D02*
X100482400Y-97460600D01*
X191578800Y-186486800D02*
X271094200Y-186486800D01*
X257810000Y-74269600D02*
X257810000Y-68465000D01*
X98378000Y-84480400D02*
X94202800Y-84480400D01*
X108175033Y-129908999D02*
X107947365Y-129908999D01*
X217779600Y-68465000D02*
X181508400Y-68465000D01*
X205944400Y-120563200D02*
X212444400Y-120563200D01*
X239040262Y-129899167D02*
X239025906Y-129899729D01*
X212444400Y-120563200D02*
X212938800Y-120563200D01*
X250139200Y-68465000D02*
X217779600Y-68465000D01*
X190093600Y-120563200D02*
X194769000Y-120563200D01*
X135028000Y-150749000D02*
X136640000Y-152361000D01*
X136640000Y-152361000D02*
X136640000Y-153321000D01*
X199999600Y-97205800D02*
X199847200Y-97053400D01*
X107756422Y-129844800D02*
X101688024Y-129844800D01*
X74581000Y-143701000D02*
X74517000Y-143637000D01*
X135976000Y-82667200D02*
X141071600Y-77571600D01*
X103153208Y-68465000D02*
X148640800Y-68465000D01*
X238788942Y-129909000D02*
X238303860Y-129927979D01*
X110845600Y-90402400D02*
X110816400Y-90373200D01*
D49*
X88433800Y-99022000D02*
X88933800Y-98522000D01*
D48*
X96520000Y-165989000D02*
X74517000Y-165989000D01*
X107938095Y-129899729D02*
X107923738Y-129899167D01*
X80251832Y-129844800D02*
X76403200Y-129844800D01*
X99872800Y-125107000D02*
X183540400Y-125107000D01*
X258368800Y-118304300D02*
X258368800Y-125056200D01*
X250444000Y-125107000D02*
X258318000Y-125107000D01*
X188468000Y-130098800D02*
X119583200Y-130098800D01*
X101515658Y-129900802D02*
X101501512Y-129901294D01*
X82092800Y-101130500D02*
X78181200Y-101130500D01*
X272338800Y-125120400D02*
X272447000Y-125012200D01*
X84987600Y-82893600D02*
X88387600Y-86293600D01*
X88493600Y-113518400D02*
X88493600Y-119634000D01*
D49*
X88933800Y-98522000D02*
X90583800Y-98522000D01*
D48*
X250190000Y-68515800D02*
X250139200Y-68465000D01*
X81176102Y-129909000D02*
X81155585Y-129927973D01*
X99901022Y-122656600D02*
X99901022Y-125078778D01*
X80442794Y-129909000D02*
X80433529Y-129899735D01*
X108680666Y-129908999D02*
X108660140Y-129927979D01*
X190373000Y-186551000D02*
X191008000Y-185916000D01*
X181462600Y-75184000D02*
X181462600Y-68510800D01*
X246989600Y-120563200D02*
X250444000Y-120563200D01*
X80433529Y-129899735D02*
X80419178Y-129899174D01*
X200546400Y-108446000D02*
X199999600Y-107899200D01*
X201269000Y-120563200D02*
X203555600Y-120563200D01*
X211298345Y-129909000D02*
X210795303Y-129926498D01*
X217728800Y-82107400D02*
X217728800Y-68515800D01*
X201131800Y-97053400D02*
X201157200Y-97028000D01*
X99901022Y-121135422D02*
X99901022Y-122656600D01*
X110989808Y-76301600D02*
X111099600Y-76191808D01*
X123317000Y-186551000D02*
X123952000Y-185916000D01*
X246888000Y-167513000D02*
X272288000Y-167513000D01*
X250190000Y-174371000D02*
X257810000Y-174371000D01*
X74517000Y-185642000D02*
X75426000Y-186551000D01*
X257810000Y-68465000D02*
X250139200Y-68465000D01*
X238303860Y-129927979D02*
X238283335Y-129909000D01*
X272288000Y-174167800D02*
X272288000Y-167513000D01*
X243871455Y-120635745D02*
X243944000Y-120563200D01*
X151880000Y-184035000D02*
X151428000Y-184035000D01*
X103790044Y-112496600D02*
X100482400Y-109188956D01*
X117970999Y-129908999D02*
X108680666Y-129908999D01*
X103153208Y-68465000D02*
X74537000Y-68465000D01*
X265787898Y-129909000D02*
X245470223Y-129909000D01*
X100777025Y-129926501D02*
X100758262Y-129909000D01*
X228396800Y-125107000D02*
X250444000Y-125107000D01*
X158699200Y-68465000D02*
X148640800Y-68465000D01*
X257810000Y-174371000D02*
X272084800Y-174371000D01*
X84328000Y-143701000D02*
X74581000Y-143701000D01*
X250444000Y-120563200D02*
X250444000Y-125107000D01*
X123940000Y-184023000D02*
X123952000Y-184035000D01*
X218193377Y-129909000D02*
X217965694Y-129909000D01*
X141071600Y-77571600D02*
X142798800Y-79298800D01*
X123952000Y-184035000D02*
X123952000Y-185916000D01*
X87223600Y-125107000D02*
X99872800Y-125107000D01*
X107923738Y-129899167D02*
X107756422Y-129844800D01*
X272288000Y-167513000D02*
X272288000Y-152781000D01*
X101688024Y-129844800D02*
X101515658Y-129900802D01*
X80670434Y-129909000D02*
X80442794Y-129909000D01*
X265808415Y-129927973D02*
X265787898Y-129909000D01*
X108660140Y-129927979D02*
X108175033Y-129908999D01*
X81155585Y-129927973D02*
X80670434Y-129909000D01*
X238283335Y-129909000D02*
X238137000Y-129909000D01*
X211512106Y-129909000D02*
X211298345Y-129909000D01*
X245456823Y-129895600D02*
X239051240Y-129895600D01*
X211706318Y-129844800D02*
X211533939Y-129900805D01*
X228295200Y-120635745D02*
X235495200Y-113435745D01*
X188302000Y-131152000D02*
X188214000Y-131064000D01*
X272288000Y-131318000D02*
X270865600Y-129895600D01*
X210795303Y-129926498D02*
X210776544Y-129909000D01*
X217774716Y-129844800D02*
X211706318Y-129844800D01*
X218698946Y-129909000D02*
X218678418Y-129927982D01*
X239016635Y-129909000D02*
X238788942Y-129909000D01*
X235495200Y-113435745D02*
X235495200Y-93806400D01*
X272084800Y-174371000D02*
X272288000Y-174167800D01*
X250190000Y-74269600D02*
X250190000Y-68515800D01*
X94640400Y-101498400D02*
X88036400Y-101498400D01*
X131013200Y-82667200D02*
X135976000Y-82667200D01*
X151412000Y-184051000D02*
X132979553Y-184051000D01*
X78094200Y-104140000D02*
X78094200Y-101217500D01*
X237798000Y-134395000D02*
X237798000Y-131118000D01*
X211533939Y-129900805D02*
X211519810Y-129901296D01*
X74517000Y-143637000D02*
X74517000Y-165989000D01*
X96469200Y-90373200D02*
X92389600Y-86293600D01*
X119583200Y-130098800D02*
X118872000Y-130810000D01*
X181508400Y-68465000D02*
X171653200Y-68465000D01*
X78094200Y-104140000D02*
X74567800Y-104140000D01*
X258368800Y-125056200D02*
X258318000Y-125107000D01*
X88036400Y-101498400D02*
X84886800Y-101498400D01*
X266293566Y-129909000D02*
X265808415Y-129927973D01*
X115724000Y-150749000D02*
X118872000Y-150749000D01*
X78094200Y-101217500D02*
X78181200Y-101130500D01*
X148632608Y-68473192D02*
X148640800Y-68465000D01*
X118872000Y-150749000D02*
X135028000Y-150749000D01*
X111099600Y-76191808D02*
X111099600Y-68465000D01*
X237798000Y-131118000D02*
X237744000Y-131064000D01*
X183593600Y-125053800D02*
X183540400Y-125107000D01*
X228295200Y-120635745D02*
X243871455Y-120635745D01*
X258318000Y-125107000D02*
X271868200Y-125107000D01*
X232105200Y-84226400D02*
X236742600Y-84226400D01*
X109225200Y-104038400D02*
X109225200Y-101529800D01*
X210776544Y-129909000D02*
X190461080Y-129909000D01*
X217728800Y-68515800D02*
X217779600Y-68465000D01*
X88433800Y-99022000D02*
X88433800Y-91126200D01*
X272447000Y-122986800D02*
X272447000Y-68465000D01*
X76403200Y-129844800D02*
X74517000Y-131731000D01*
X203606400Y-108446000D02*
X203606400Y-120512400D01*
D46*
%TO.N,INTE*%
X159500000Y-184023000D02*
X159871000Y-184394000D01*
X188351000Y-184277000D02*
X188976000Y-184902000D01*
X187559702Y-184277000D02*
X188351000Y-184277000D01*
X187442702Y-184394000D02*
X187559702Y-184277000D01*
X159871000Y-184394000D02*
X187442702Y-184394000D01*
D48*
%TO.N,+5V*%
X119346133Y-111285867D02*
X119346133Y-112496600D01*
X95808800Y-94335600D02*
X98924533Y-94335600D01*
X129844800Y-109677200D02*
X120954800Y-109677200D01*
X136296400Y-105968800D02*
X133553200Y-105968800D01*
X120954800Y-109677200D02*
X119346133Y-111285867D01*
X111048800Y-108407200D02*
X112725200Y-106730800D01*
X143916400Y-98567600D02*
X143697600Y-98567600D01*
X133553200Y-105968800D02*
X129844800Y-109677200D01*
X115457111Y-107633911D02*
X115457111Y-112496600D01*
X106781600Y-94335600D02*
X105156000Y-94335600D01*
X110185200Y-98196400D02*
X108712000Y-98196400D01*
X112725200Y-104038400D02*
X112725200Y-100736400D01*
X104241600Y-105613200D02*
X107035600Y-108407200D01*
X115457111Y-112496600D02*
X119346133Y-112496600D01*
X114554000Y-106730800D02*
X115457111Y-107633911D01*
X103567200Y-105613200D02*
X104241600Y-105613200D01*
X107289600Y-96774000D02*
X107289600Y-94843600D01*
X112725200Y-106730800D02*
X112725200Y-104038400D01*
X108712000Y-98196400D02*
X107289600Y-96774000D01*
X107289600Y-94843600D02*
X106781600Y-94335600D01*
X107035600Y-108407200D02*
X111048800Y-108407200D01*
X102040267Y-94335600D02*
X105156000Y-94335600D01*
X98924533Y-94335600D02*
X102040267Y-94335600D01*
X143697600Y-98567600D02*
X136296400Y-105968800D01*
X112725200Y-106730800D02*
X114554000Y-106730800D01*
X112725200Y-100736400D02*
X110185200Y-98196400D01*
D46*
%TO.N,Net-(C17-Pad1)*%
X96012000Y-122656600D02*
X85979000Y-122656600D01*
X83094200Y-119771800D02*
X83094200Y-108305600D01*
X85979000Y-122656600D02*
X83094200Y-119771800D01*
D48*
%TO.N,+5MAIN*%
X238861600Y-90805000D02*
X248640600Y-90805000D01*
X250190000Y-176911000D02*
X252730000Y-176911000D01*
X156972000Y-140081000D02*
X169672000Y-140081000D01*
X178734000Y-143211000D02*
X178816000Y-143129000D01*
X146456400Y-94691200D02*
X146456400Y-98567600D01*
X175006000Y-143211000D02*
X178734000Y-143211000D01*
X248640600Y-90805000D02*
X250190000Y-89255600D01*
X159042600Y-89916000D02*
X151231600Y-89916000D01*
X255828800Y-79908400D02*
X252730000Y-76809600D01*
X247650000Y-176911000D02*
X250190000Y-176911000D01*
X255828800Y-118304300D02*
X255828800Y-79908400D01*
X151231600Y-89916000D02*
X146456400Y-94691200D01*
X254181000Y-178362000D02*
X255654200Y-178362000D01*
X182454000Y-138303000D02*
X182626000Y-138131000D01*
X255654200Y-178362000D02*
X261010400Y-183718200D01*
X250190000Y-89255600D02*
X250190000Y-76809600D01*
X178816000Y-138303000D02*
X182454000Y-138303000D01*
X252730000Y-176911000D02*
X254181000Y-178362000D01*
D46*
%TO.N,Net-(D8-K)*%
X224485200Y-91846400D02*
X218694000Y-91846400D01*
X217728800Y-90728800D02*
X217652600Y-90805000D01*
X217728800Y-87107400D02*
X217728800Y-90728800D01*
X218694000Y-91846400D02*
X217652600Y-90805000D01*
%TO.N,Net-(U11-OSCI)*%
X236345200Y-90044800D02*
X236345200Y-89306400D01*
X236345200Y-88012800D02*
X236345200Y-89306400D01*
X232105200Y-91846400D02*
X233426000Y-90525600D01*
X238861600Y-87107400D02*
X237250600Y-87107400D01*
X233426000Y-90525600D02*
X235864400Y-90525600D01*
X237250600Y-87107400D02*
X236345200Y-88012800D01*
X235864400Y-90525600D02*
X236345200Y-90044800D01*
D47*
%TO.N,PHI2*%
X184251600Y-170561000D02*
X184099200Y-170408600D01*
X184099200Y-170408600D02*
X157022800Y-170408600D01*
D46*
%TO.N,RDY*%
X171451450Y-156453952D02*
X171334498Y-156337000D01*
X171334498Y-156337000D02*
X165862000Y-156337000D01*
%TO.N,RESET*%
X134963600Y-143383000D02*
X147320000Y-143383000D01*
X172857000Y-133360000D02*
X175006000Y-135509000D01*
X239268000Y-157099000D02*
X185674000Y-157099000D01*
X175006000Y-135509000D02*
X175006000Y-138131000D01*
X134257247Y-142676647D02*
X134963600Y-143383000D01*
X147320000Y-143383000D02*
X148132800Y-142570200D01*
X134874000Y-133360000D02*
X172857000Y-133360000D01*
%TO.N,SCL*%
X170586400Y-141198600D02*
X171958000Y-139827000D01*
X151892000Y-142621000D02*
X153314400Y-141198600D01*
X244856000Y-161925000D02*
X245618000Y-161925000D01*
X222199200Y-86004400D02*
X222199200Y-73710800D01*
X222199200Y-73710800D02*
X224840800Y-71069200D01*
X248869200Y-75488800D02*
X247650000Y-74269600D01*
X171958000Y-139827000D02*
X171958000Y-135001000D01*
X224485200Y-86766400D02*
X222961200Y-86766400D01*
X246888000Y-71069200D02*
X247650000Y-71831200D01*
X153314400Y-141198600D02*
X170586400Y-141198600D01*
X247650000Y-71831200D02*
X247650000Y-74269600D01*
X177568000Y-135277000D02*
X184890000Y-135277000D01*
X184890000Y-135277000D02*
X187198000Y-132969000D01*
X248869200Y-87934800D02*
X248869200Y-75488800D01*
X175768000Y-133477000D02*
X177568000Y-135277000D01*
X221742000Y-161925000D02*
X244856000Y-161925000D01*
X222961200Y-86766400D02*
X222199200Y-86004400D01*
X224840800Y-71069200D02*
X246888000Y-71069200D01*
X245618000Y-161925000D02*
X245872000Y-162179000D01*
%TO.N,SDA*%
X246286000Y-75445600D02*
X246286000Y-87485200D01*
X237880000Y-162551000D02*
X221098000Y-162551000D01*
X221098000Y-162551000D02*
X220726000Y-162179000D01*
X244602000Y-72440800D02*
X245110000Y-72948800D01*
X156108400Y-141823600D02*
X154686000Y-143246000D01*
X246286000Y-87485200D02*
X247040400Y-88239600D01*
X238270000Y-162941000D02*
X243078000Y-162941000D01*
X178054000Y-134493000D02*
X177800000Y-134239000D01*
X224485200Y-84226400D02*
X224485200Y-74066400D01*
X172974000Y-136017000D02*
X172974000Y-139448810D01*
X172974000Y-139448810D02*
X170599210Y-141823600D01*
X237880000Y-162551000D02*
X238270000Y-162941000D01*
X183642000Y-134493000D02*
X178054000Y-134493000D01*
X224485200Y-74066400D02*
X226110800Y-72440800D01*
X226110800Y-72440800D02*
X244602000Y-72440800D01*
X245110000Y-72948800D02*
X245110000Y-74269600D01*
X245110000Y-74269600D02*
X246286000Y-75445600D01*
X170599210Y-141823600D02*
X156108400Y-141823600D01*
%TO.N,SYNC*%
X167120000Y-177939000D02*
X167120000Y-178379000D01*
X171958000Y-176657000D02*
X168402000Y-176657000D01*
X168402000Y-176657000D02*
X167120000Y-177939000D01*
%TO.N,~{MEMR}*%
X105569298Y-171949000D02*
X105050702Y-171949000D01*
X104932702Y-171831000D02*
X93472000Y-171831000D01*
X93472000Y-171831000D02*
X91440000Y-169799000D01*
X91440000Y-157099000D02*
X96520000Y-157099000D01*
X208788000Y-171948000D02*
X208661596Y-171948000D01*
X105687298Y-171831000D02*
X105569298Y-171949000D01*
X208544596Y-171831000D02*
X112037298Y-171831000D01*
X111919298Y-171949000D02*
X111400702Y-171949000D01*
X111282702Y-171831000D02*
X105687298Y-171831000D01*
X111400702Y-171949000D02*
X111282702Y-171831000D01*
X112037298Y-171831000D02*
X111919298Y-171949000D01*
X105050702Y-171949000D02*
X104932702Y-171831000D01*
X208661596Y-171948000D02*
X208544596Y-171831000D01*
%TO.N,~{MEMW}*%
X206259810Y-172983000D02*
X206180810Y-172904000D01*
X206507298Y-172983000D02*
X206259810Y-172983000D01*
X154172702Y-172983000D02*
X154054702Y-173101000D01*
X102243108Y-172983000D02*
X86478000Y-172983000D01*
X104399298Y-173082000D02*
X102342108Y-173082000D01*
X128391702Y-173092000D02*
X128206702Y-172907000D01*
X154420190Y-172983000D02*
X154172702Y-172983000D01*
X131454000Y-172983000D02*
X131318000Y-172847000D01*
X102342108Y-173082000D02*
X102243108Y-172983000D01*
X130819000Y-173092000D02*
X128391702Y-173092000D01*
X131064000Y-172847000D02*
X130819000Y-173092000D01*
X221488000Y-172847000D02*
X221234000Y-173101000D01*
X131577298Y-172983000D02*
X131454000Y-172983000D01*
X154499190Y-172904000D02*
X154420190Y-172983000D01*
X154054702Y-173101000D02*
X131695298Y-173101000D01*
X131318000Y-172847000D02*
X131064000Y-172847000D01*
X131695298Y-173101000D02*
X131577298Y-172983000D01*
X86478000Y-172983000D02*
X86360000Y-173101000D01*
X221234000Y-173101000D02*
X206625298Y-173101000D01*
X206625298Y-173101000D02*
X206507298Y-172983000D01*
X206180810Y-172904000D02*
X154499190Y-172904000D01*
X104574298Y-172907000D02*
X104399298Y-173082000D01*
X128206702Y-172907000D02*
X104574298Y-172907000D01*
%TO.N,Net-(U5-XTAL1)*%
X182761000Y-140536000D02*
X182626000Y-140671000D01*
X197460210Y-140536000D02*
X182761000Y-140536000D01*
X197827210Y-140903000D02*
X197460210Y-140536000D01*
X207860000Y-139787000D02*
X206744000Y-140903000D01*
X206744000Y-140903000D02*
X197827210Y-140903000D01*
%TO.N,Net-(Y1-OSC2)*%
X207700000Y-134947000D02*
X207860000Y-134787000D01*
X202946000Y-134947000D02*
X207700000Y-134947000D01*
X198462000Y-135509000D02*
X202384000Y-135509000D01*
X202384000Y-135509000D02*
X202946000Y-134947000D01*
%TO.N,/CPU/DB0*%
X170942000Y-160909000D02*
X140208000Y-160909000D01*
X206615108Y-183955000D02*
X206994108Y-184334000D01*
X198628000Y-182499000D02*
X200084000Y-183955000D01*
X238192000Y-183781000D02*
X239318000Y-182655000D01*
X230953190Y-184334000D02*
X231506190Y-183781000D01*
X174244000Y-164211000D02*
X170942000Y-160909000D01*
X197358000Y-164211000D02*
X174244000Y-164211000D01*
X136640000Y-138081000D02*
X135011000Y-139710000D01*
X105310000Y-171323000D02*
X111660000Y-171323000D01*
X198628000Y-181991000D02*
X198628000Y-182499000D01*
X200084000Y-183955000D02*
X206615108Y-183955000D01*
X206994108Y-184334000D02*
X230953190Y-184334000D01*
X135011000Y-139710000D02*
X105664000Y-139710000D01*
X231506190Y-183781000D02*
X238192000Y-183781000D01*
%TO.N,/CPU/DB3*%
X190500000Y-169545000D02*
X154934298Y-169545000D01*
X154160702Y-169290000D02*
X153985702Y-169465000D01*
X225298000Y-166751000D02*
X200406000Y-166751000D01*
X116364000Y-136017000D02*
X142196000Y-136017000D01*
X154679298Y-169290000D02*
X154160702Y-169290000D01*
X142196000Y-136017000D02*
X144260000Y-138081000D01*
X191008000Y-169037000D02*
X190500000Y-169545000D01*
X154934298Y-169545000D02*
X154679298Y-169290000D01*
X199898000Y-166243000D02*
X191008000Y-166243000D01*
X200406000Y-166751000D02*
X199898000Y-166243000D01*
X116840000Y-174117000D02*
X101854000Y-174117000D01*
X117268000Y-169465000D02*
X116840000Y-169037000D01*
X114300000Y-138081000D02*
X116364000Y-136017000D01*
X153985702Y-169465000D02*
X117268000Y-169465000D01*
%TO.N,/CPU/A0*%
X224790000Y-174625000D02*
X224536000Y-174879000D01*
X142163000Y-156394000D02*
X142160000Y-156397000D01*
X147132298Y-156397000D02*
X147071298Y-156336000D01*
X142160000Y-156397000D02*
X141720000Y-156397000D01*
X224536000Y-174879000D02*
X201168000Y-174879000D01*
X193561702Y-180838000D02*
X192532000Y-181867702D01*
X147071298Y-156336000D02*
X146552702Y-156336000D01*
X112522000Y-148971000D02*
X112502000Y-148991000D01*
X113402000Y-148091000D02*
X112522000Y-148971000D01*
X112502000Y-148991000D02*
X104394000Y-148991000D01*
X152460000Y-156397000D02*
X147132298Y-156397000D01*
X152908000Y-156845000D02*
X152460000Y-156397000D01*
X181229000Y-177546000D02*
X179051000Y-175368000D01*
X146239810Y-156397000D02*
X146236810Y-156394000D01*
X159258000Y-156845000D02*
X152908000Y-156845000D01*
X179051000Y-175368000D02*
X159512000Y-175368000D01*
X146491702Y-156397000D02*
X146239810Y-156397000D01*
X141732000Y-148463000D02*
X141360000Y-148091000D01*
X146236810Y-156394000D02*
X142163000Y-156394000D01*
X201168000Y-180838000D02*
X193561702Y-180838000D01*
X146552702Y-156336000D02*
X146491702Y-156397000D01*
X141360000Y-148091000D02*
X113402000Y-148091000D01*
X192532000Y-181867702D02*
X192532000Y-183769000D01*
%TO.N,/CPU/DB5*%
X107126108Y-168100000D02*
X106855000Y-168100000D01*
X156718892Y-168021000D02*
X107205108Y-168021000D01*
X200660000Y-179705000D02*
X197612000Y-179705000D01*
X230178000Y-182655000D02*
X227228000Y-179705000D01*
X146260000Y-135001000D02*
X149340000Y-138081000D01*
X196088000Y-169037000D02*
X194562000Y-167511000D01*
X169294702Y-168021000D02*
X157733108Y-168021000D01*
X109845000Y-158486000D02*
X109845000Y-158332000D01*
X170559298Y-167511000D02*
X169931298Y-168139000D01*
X169412702Y-168139000D02*
X169294702Y-168021000D01*
X156779892Y-168082000D02*
X156718892Y-168021000D01*
X169931298Y-168139000D02*
X169412702Y-168139000D01*
X109845000Y-158332000D02*
X109791000Y-158386000D01*
X107205108Y-168021000D02*
X107126108Y-168100000D01*
X194562000Y-167511000D02*
X170559298Y-167511000D01*
X106855000Y-168100000D02*
X106680000Y-168275000D01*
X157672108Y-168082000D02*
X156779892Y-168082000D01*
X107281000Y-158386000D02*
X107181000Y-158486000D01*
X109791000Y-158386000D02*
X107281000Y-158386000D01*
X109220000Y-138081000D02*
X112300000Y-135001000D01*
X227228000Y-179705000D02*
X200660000Y-179705000D01*
X112300000Y-135001000D02*
X146260000Y-135001000D01*
X197612000Y-179705000D02*
X197358000Y-179451000D01*
X157733108Y-168021000D02*
X157672108Y-168082000D01*
%TO.N,/CPU/DB2*%
X134724108Y-182245000D02*
X181356000Y-182245000D01*
X133475892Y-182245000D02*
X133653892Y-182423000D01*
X198250702Y-181483000D02*
X198368702Y-181365000D01*
X193802000Y-181483000D02*
X198250702Y-181483000D01*
X193548000Y-181737000D02*
X193802000Y-181483000D01*
X188470000Y-175131000D02*
X192022000Y-175131000D01*
X133653892Y-182423000D02*
X134546108Y-182423000D01*
X108638335Y-157099000D02*
X111760000Y-157099000D01*
X221386000Y-181483000D02*
X222558000Y-182655000D01*
X107051000Y-182245000D02*
X133475892Y-182245000D01*
X134241810Y-141808200D02*
X133740010Y-142310000D01*
X141720000Y-138081000D02*
X137992800Y-141808200D01*
X198368702Y-181365000D02*
X198887298Y-181365000D01*
X192022000Y-175131000D02*
X193548000Y-176657000D01*
X181356000Y-182245000D02*
X188470000Y-175131000D01*
X108591137Y-157051802D02*
X108638335Y-157099000D01*
X137992800Y-141808200D02*
X134241810Y-141808200D01*
X106680000Y-182362000D02*
X106934000Y-182362000D01*
X133740010Y-142310000D02*
X112071000Y-142310000D01*
X106934000Y-182362000D02*
X107051000Y-182245000D01*
X198887298Y-181365000D02*
X199005298Y-181483000D01*
X199005298Y-181483000D02*
X221386000Y-181483000D01*
X134546108Y-182423000D02*
X134724108Y-182245000D01*
X112071000Y-142310000D02*
X111760000Y-142621000D01*
%TO.N,/CPU/DB1*%
X197741000Y-184406000D02*
X206428298Y-184406000D01*
X231140000Y-184785000D02*
X231693000Y-184232000D01*
X206428298Y-184406000D02*
X206807298Y-184785000D01*
X133553200Y-141859000D02*
X109220000Y-141859000D01*
X136214800Y-141046200D02*
X134366000Y-141046200D01*
X139180000Y-138081000D02*
X136214800Y-141046200D01*
X240281000Y-184232000D02*
X241858000Y-182655000D01*
X231693000Y-184232000D02*
X240281000Y-184232000D01*
X134366000Y-141046200D02*
X133553200Y-141859000D01*
X206807298Y-184785000D02*
X231140000Y-184785000D01*
X138059000Y-164856000D02*
X137922000Y-164719000D01*
X196088000Y-182753000D02*
X197741000Y-184406000D01*
X194818000Y-164856000D02*
X138059000Y-164856000D01*
%TO.N,/CPU/DB6*%
X198628000Y-169037000D02*
X196596000Y-167005000D01*
X198882000Y-171069000D02*
X198628000Y-170815000D01*
X148292000Y-134493000D02*
X151880000Y-138081000D01*
X101600000Y-165481000D02*
X101600000Y-163139000D01*
X110268000Y-134493000D02*
X148292000Y-134493000D01*
X106680000Y-138081000D02*
X110268000Y-134493000D01*
X189230000Y-167005000D02*
X188350000Y-166125000D01*
X198628000Y-170815000D02*
X198628000Y-169037000D01*
X196596000Y-167005000D02*
X189230000Y-167005000D01*
X107442000Y-157099000D02*
X103886000Y-157099000D01*
X202946000Y-179197000D02*
X202809000Y-179197000D01*
X229260000Y-179197000D02*
X202946000Y-179197000D01*
X188350000Y-166125000D02*
X102244000Y-166125000D01*
X102244000Y-166125000D02*
X101600000Y-165481000D01*
X201168000Y-171069000D02*
X198882000Y-171069000D01*
X202809000Y-179197000D02*
X202692000Y-179080000D01*
X232718000Y-182655000D02*
X229260000Y-179197000D01*
%TO.N,/CPU/DB4*%
X114389000Y-135509000D02*
X144171000Y-135509000D01*
X133467082Y-182874000D02*
X134732918Y-182874000D01*
X133346082Y-182753000D02*
X133467082Y-182874000D01*
X91440000Y-181737000D02*
X92710000Y-183007000D01*
X113030000Y-174879000D02*
X91948000Y-174879000D01*
X134732918Y-182874000D02*
X134853918Y-182753000D01*
X107174298Y-183007000D02*
X107428298Y-182753000D01*
X111760000Y-138081000D02*
X114332000Y-135509000D01*
X134853918Y-182753000D02*
X188468000Y-182753000D01*
X114332000Y-135509000D02*
X114389000Y-135509000D01*
X225196000Y-180213000D02*
X192278000Y-180213000D01*
X107428298Y-182753000D02*
X133346082Y-182753000D01*
X227638000Y-182655000D02*
X225196000Y-180213000D01*
X91948000Y-174879000D02*
X91694000Y-175133000D01*
X144228000Y-135509000D02*
X146800000Y-138081000D01*
X92710000Y-183007000D02*
X107174298Y-183007000D01*
%TO.N,/CPU/DB7*%
X97944000Y-157099000D02*
X102682000Y-157099000D01*
X227582000Y-167511000D02*
X227584000Y-167513000D01*
X235258000Y-182655000D02*
X231175000Y-178572000D01*
X108236000Y-133985000D02*
X150324000Y-133985000D01*
X202694000Y-167511000D02*
X227582000Y-167511000D01*
X201168000Y-169037000D02*
X202694000Y-167511000D01*
X187706000Y-185016000D02*
X187683000Y-185039000D01*
X113030000Y-184785000D02*
X96520000Y-184785000D01*
X150324000Y-133985000D02*
X154420000Y-138081000D01*
X102682000Y-157099000D02*
X102726000Y-157143000D01*
X124991000Y-185039000D02*
X124968000Y-185016000D01*
X231175000Y-178572000D02*
X227584000Y-178572000D01*
X104140000Y-138081000D02*
X108236000Y-133985000D01*
X187683000Y-185039000D02*
X124991000Y-185039000D01*
D45*
%TO.N,+12MAIN*%
X167894000Y-89916000D02*
X165303200Y-92506800D01*
D47*
X172549496Y-157703000D02*
X172961496Y-158115000D01*
X152146000Y-157099000D02*
X152636000Y-157589000D01*
X169944124Y-157607000D02*
X169983124Y-157646000D01*
X187198000Y-148463000D02*
X197358000Y-148463000D01*
X172961496Y-158115000D02*
X180422000Y-158115000D01*
X186436000Y-149225000D02*
X187198000Y-148463000D01*
X170340876Y-157646000D02*
X170397876Y-157703000D01*
X170397876Y-157703000D02*
X172549496Y-157703000D01*
X186436000Y-152101000D02*
X186436000Y-149225000D01*
X182626000Y-155911000D02*
X186436000Y-152101000D01*
X165148620Y-157607000D02*
X169944124Y-157607000D01*
D45*
X171742600Y-89916000D02*
X167894000Y-89916000D01*
D47*
X165130620Y-157589000D02*
X165148620Y-157607000D01*
X169983124Y-157646000D02*
X170340876Y-157646000D01*
X247650000Y-148463000D02*
X249682000Y-150495000D01*
X152636000Y-157589000D02*
X165130620Y-157589000D01*
X197358000Y-148463000D02*
X247650000Y-148463000D01*
X249682000Y-155321000D02*
X252730000Y-158369000D01*
X249682000Y-150495000D02*
X249682000Y-155321000D01*
X180422000Y-158115000D02*
X182626000Y-155911000D01*
D45*
X165303200Y-92506800D02*
X165303200Y-98567600D01*
D46*
%TO.N,Net-(Q1-G)*%
X133451600Y-111302800D02*
X133451600Y-121869200D01*
X166979600Y-101092000D02*
X167843200Y-100228400D01*
X135178800Y-109575600D02*
X133451600Y-111302800D01*
X160495333Y-101092000D02*
X166979600Y-101092000D01*
X157770933Y-98367600D02*
X157770933Y-100547067D01*
X155549600Y-102768400D02*
X144526000Y-102768400D01*
X167843200Y-100228400D02*
X167843200Y-98567600D01*
X144526000Y-102768400D02*
X137718800Y-109575600D01*
X157770933Y-98367600D02*
X160495333Y-101092000D01*
X132664200Y-122656600D02*
X131013200Y-122656600D01*
X133451600Y-121869200D02*
X132664200Y-122656600D01*
X157770933Y-100547067D02*
X155549600Y-102768400D01*
X137718800Y-109575600D02*
X135178800Y-109575600D01*
%TO.N,Net-(Q2-G)*%
X149196400Y-98367600D02*
X148996400Y-98567600D01*
X153988667Y-98367600D02*
X149196400Y-98367600D01*
%TO.N,Net-(R3-Pad2)*%
X115457111Y-122656600D02*
X119346133Y-122656600D01*
X111568089Y-122656600D02*
X115457111Y-122656600D01*
%TO.N,Net-(Q3-\u041A)*%
X153988667Y-108527600D02*
X157770933Y-108527600D01*
%TO.N,Net-(R7-Pad1)*%
X103790044Y-122656600D02*
X107679067Y-122656600D01*
%TO.N,Net-(Q3-\u0411)*%
X110896400Y-95453200D02*
X110845600Y-95402400D01*
X123235156Y-122656600D02*
X127124178Y-122656600D01*
X120396000Y-95453200D02*
X110896400Y-95453200D01*
X121361200Y-96418400D02*
X120396000Y-95453200D01*
X121361200Y-100279200D02*
X121361200Y-96418400D01*
%TO.N,Net-(U5-XTAL2)*%
X199478000Y-139827000D02*
X198462000Y-138811000D01*
X182654000Y-143239000D02*
X202074000Y-143239000D01*
X202946000Y-139827000D02*
X199478000Y-139827000D01*
X182626000Y-143211000D02*
X182654000Y-143239000D01*
X202074000Y-143239000D02*
X202946000Y-142367000D01*
%TO.N,Net-(JP1-C)*%
X86868000Y-143701000D02*
X83820000Y-140653000D01*
X83820000Y-140653000D02*
X83820000Y-138081000D01*
%TO.N,Net-(JP2-C)*%
X85752000Y-149987000D02*
X86868000Y-148871000D01*
X86868000Y-148871000D02*
X86868000Y-147701000D01*
X82450000Y-149987000D02*
X85752000Y-149987000D01*
X81280000Y-153321000D02*
X81280000Y-151157000D01*
X81280000Y-151157000D02*
X82450000Y-149987000D01*
%TO.N,/CPU/A12*%
X186826000Y-174743000D02*
X141342000Y-174743000D01*
X89408000Y-149733000D02*
X89408000Y-147701000D01*
X194674000Y-175790596D02*
X193508404Y-174625000D01*
X195091000Y-178454000D02*
X195072000Y-178435000D01*
X194674000Y-178037000D02*
X194674000Y-175790596D01*
X114046000Y-149225000D02*
X113030000Y-150241000D01*
X195072000Y-178435000D02*
X194674000Y-178037000D01*
X129032000Y-157099000D02*
X115570000Y-157099000D01*
X89408000Y-147701000D02*
X89408000Y-143701000D01*
X186944000Y-174625000D02*
X186826000Y-174743000D01*
X113030000Y-150241000D02*
X89916000Y-150241000D01*
X141342000Y-174743000D02*
X140970000Y-174371000D01*
X193508404Y-174625000D02*
X186944000Y-174625000D01*
X89916000Y-150241000D02*
X89408000Y-149733000D01*
X222231000Y-178454000D02*
X195091000Y-178454000D01*
X224028000Y-176657000D02*
X222231000Y-178454000D01*
X140970000Y-174371000D02*
X130048000Y-174371000D01*
%TO.N,Net-(U5-~{STSTB})*%
X138554000Y-155575000D02*
X138554000Y-155432702D01*
X165602702Y-155711000D02*
X166121298Y-155711000D01*
X138554000Y-155432702D02*
X138920702Y-155066000D01*
X166239298Y-155829000D02*
X171443702Y-155829000D01*
X172198298Y-155829000D02*
X172548000Y-155829000D01*
X172548000Y-155829000D02*
X175006000Y-153371000D01*
X139806810Y-155321000D02*
X153924000Y-155321000D01*
X134923810Y-155495000D02*
X135003810Y-155575000D01*
X153924000Y-155321000D02*
X154432000Y-155829000D01*
X134359298Y-155066000D02*
X134726000Y-155432702D01*
X166121298Y-155711000D02*
X166239298Y-155829000D01*
X79502000Y-158369000D02*
X82296000Y-155575000D01*
X133474000Y-155575000D02*
X133474000Y-155432702D01*
X138920702Y-155066000D02*
X139439298Y-155066000D01*
X165484702Y-155829000D02*
X165602702Y-155711000D01*
X135003810Y-155575000D02*
X138554000Y-155575000D01*
X133474000Y-155432702D02*
X133840702Y-155066000D01*
X139439298Y-155066000D02*
X139614298Y-155241000D01*
X154432000Y-155829000D02*
X165484702Y-155829000D01*
X133840702Y-155066000D02*
X134359298Y-155066000D01*
X171443702Y-155829000D02*
X171561702Y-155711000D01*
X139614298Y-155241000D02*
X139726810Y-155241000D01*
X134726000Y-155432702D02*
X134726000Y-155495000D01*
X134726000Y-155495000D02*
X134923810Y-155495000D01*
X82296000Y-155575000D02*
X133474000Y-155575000D01*
X139726810Y-155241000D02*
X139806810Y-155321000D01*
X172080298Y-155711000D02*
X172198298Y-155829000D01*
X171561702Y-155711000D02*
X172080298Y-155711000D01*
%TO.N,/CPU/A1*%
X117230000Y-148599000D02*
X117348000Y-148717000D01*
X101600000Y-149616000D02*
X112639000Y-149616000D01*
X153416000Y-155946000D02*
X153242000Y-155772000D01*
X139540000Y-155692000D02*
X139180000Y-155692000D01*
X113030000Y-149225000D02*
X113656000Y-148599000D01*
X117466000Y-148599000D02*
X139074000Y-148599000D01*
X175768000Y-168783000D02*
X155702000Y-168783000D01*
X113656000Y-148599000D02*
X117230000Y-148599000D01*
X139074000Y-148599000D02*
X139192000Y-148717000D01*
X153242000Y-155772000D02*
X139620000Y-155772000D01*
X202438000Y-163703000D02*
X202301000Y-163566000D01*
X117348000Y-148717000D02*
X117466000Y-148599000D01*
X139620000Y-155772000D02*
X139540000Y-155692000D01*
X112639000Y-149616000D02*
X113030000Y-149225000D01*
X176022000Y-168529000D02*
X175768000Y-168783000D01*
X202301000Y-163566000D02*
X176022000Y-163566000D01*
%TO.N,/CPU/A10*%
X121412000Y-174117000D02*
X117856000Y-174117000D01*
X103607000Y-133534000D02*
X99060000Y-138081000D01*
X99314000Y-140335000D02*
X99060000Y-140081000D01*
X99060000Y-140081000D02*
X99060000Y-138081000D01*
X184404000Y-134239000D02*
X182880000Y-132715000D01*
X134633702Y-132715000D02*
X133814702Y-133534000D01*
X117856000Y-140335000D02*
X99314000Y-140335000D01*
X133814702Y-133534000D02*
X103607000Y-133534000D01*
X134633702Y-132689600D02*
X134633702Y-132715000D01*
X182880000Y-132715000D02*
X182880000Y-132689600D01*
X182880000Y-132689600D02*
X134633702Y-132689600D01*
%TO.N,Net-(U7-~{CE})*%
X204978000Y-171323000D02*
X203708000Y-170053000D01*
X234188000Y-167513000D02*
X230378000Y-171323000D01*
X230378000Y-171323000D02*
X204978000Y-171323000D01*
X203708000Y-170053000D02*
X203708000Y-169037000D01*
%TO.N,/CPU/A2*%
X154686000Y-173355000D02*
X205994000Y-173355000D01*
X205994000Y-173355000D02*
X206248000Y-173609000D01*
X101971000Y-169916000D02*
X154420000Y-169916000D01*
X154432000Y-173609000D02*
X154686000Y-173355000D01*
X100838000Y-168783000D02*
X101971000Y-169916000D01*
%TO.N,/CPU/A11*%
X185982800Y-140085000D02*
X195595595Y-140085000D01*
X173425000Y-139217400D02*
X173770886Y-139217400D01*
X154945298Y-143872000D02*
X154977098Y-143840200D01*
X111500702Y-143247000D02*
X112019298Y-143247000D01*
X147805410Y-143535400D02*
X154090102Y-143535400D01*
X111433502Y-143179800D02*
X111500702Y-143247000D01*
X173810486Y-139257000D02*
X176201514Y-139257000D01*
X154090102Y-143535400D02*
X154426702Y-143872000D01*
X134461400Y-143834000D02*
X147506810Y-143834000D01*
X198139595Y-137541000D02*
X211074000Y-137541000D01*
X154426702Y-143872000D02*
X154945298Y-143872000D01*
X154977098Y-143840200D02*
X156159200Y-143840200D01*
X170786020Y-142274600D02*
X173425000Y-139635620D01*
X147506810Y-143834000D02*
X147805410Y-143535400D01*
X178453514Y-137005000D02*
X184376000Y-137005000D01*
X185013600Y-139115800D02*
X185982800Y-140085000D01*
X176201514Y-139257000D02*
X178453514Y-137005000D01*
X121412000Y-160909000D02*
X95504000Y-160909000D01*
X173425000Y-139635620D02*
X173425000Y-139217400D01*
X185013600Y-137642600D02*
X185013600Y-139115800D01*
X157724800Y-142274600D02*
X170786020Y-142274600D01*
X184376000Y-137005000D02*
X185013600Y-137642600D01*
X133807200Y-143179800D02*
X134461400Y-143834000D01*
X93980000Y-138081000D02*
X99078800Y-143179800D01*
X156159200Y-143840200D02*
X157724800Y-142274600D01*
X173770886Y-139217400D02*
X173810486Y-139257000D01*
X112086498Y-143179800D02*
X133807200Y-143179800D01*
X99078800Y-143179800D02*
X111433502Y-143179800D01*
X112019298Y-143247000D02*
X112086498Y-143179800D01*
X195595595Y-140085000D02*
X198139595Y-137541000D01*
%TO.N,/CPU/A4*%
X135636000Y-156845000D02*
X141282702Y-156845000D01*
X141979298Y-157023000D02*
X142154298Y-156848000D01*
X134100000Y-155692000D02*
X134354000Y-155946000D01*
X221865298Y-172339000D02*
X231902000Y-172339000D01*
X134737000Y-155946000D02*
X135636000Y-156845000D01*
X96383000Y-146822000D02*
X134112000Y-146822000D01*
X146929000Y-158115000D02*
X146812000Y-158232000D01*
X147698190Y-158255000D02*
X147558190Y-158115000D01*
X141460702Y-157023000D02*
X141979298Y-157023000D01*
X221228702Y-172221000D02*
X221747298Y-172221000D01*
X93980000Y-149225000D02*
X96383000Y-146822000D01*
X142349810Y-156845000D02*
X146050000Y-156845000D01*
X141282702Y-156845000D02*
X141460702Y-157023000D01*
X209804000Y-158877000D02*
X209296000Y-159385000D01*
X142346810Y-156848000D02*
X142349810Y-156845000D01*
X209914000Y-158877000D02*
X209804000Y-158877000D01*
X146050000Y-156845000D02*
X146167000Y-156962000D01*
X211719000Y-172476000D02*
X211836000Y-172593000D01*
X209296000Y-159385000D02*
X172849810Y-159385000D01*
X220856702Y-172593000D02*
X221228702Y-172221000D01*
X148139000Y-158680000D02*
X147714000Y-158255000D01*
X172849810Y-159385000D02*
X172144810Y-158680000D01*
X172144810Y-158680000D02*
X148139000Y-158680000D01*
X142154298Y-156848000D02*
X142346810Y-156848000D01*
X146167000Y-156962000D02*
X146812000Y-156962000D01*
X211836000Y-172593000D02*
X220856702Y-172593000D01*
X134354000Y-155946000D02*
X134737000Y-155946000D01*
X211328000Y-172476000D02*
X211719000Y-172476000D01*
X221747298Y-172221000D02*
X221865298Y-172339000D01*
X147558190Y-158115000D02*
X146929000Y-158115000D01*
X231902000Y-172339000D02*
X236728000Y-167513000D01*
X147714000Y-158255000D02*
X147698190Y-158255000D01*
%TO.N,/CPU/A7*%
X97790000Y-163861404D02*
X97790000Y-161925000D01*
X215458058Y-163382942D02*
X214254116Y-162179000D01*
X172974000Y-162179000D02*
X170942000Y-160147000D01*
X139180000Y-160413000D02*
X139180000Y-160655000D01*
X97400000Y-161535000D02*
X86732000Y-161535000D01*
X214254116Y-162179000D02*
X172974000Y-162179000D01*
X86732000Y-161535000D02*
X86360000Y-161163000D01*
X97790000Y-161925000D02*
X97400000Y-161535000D01*
X139446000Y-160147000D02*
X139180000Y-160413000D01*
X139192000Y-166751000D02*
X100679596Y-166751000D01*
X170942000Y-160147000D02*
X139446000Y-160147000D01*
X100679596Y-166751000D02*
X97790000Y-163861404D01*
%TO.N,/CPU/A8*%
X136652000Y-160264000D02*
X90170000Y-160264000D01*
X173365000Y-161417000D02*
X213360000Y-161417000D01*
X136652000Y-160264000D02*
X137220000Y-159696000D01*
X171644000Y-159696000D02*
X173365000Y-161417000D01*
X137220000Y-159696000D02*
X171644000Y-159696000D01*
%TO.N,/CPU/A6*%
X209047298Y-172574000D02*
X208528702Y-172574000D01*
X89148702Y-169042298D02*
X100212000Y-169042298D01*
X101750702Y-170581000D02*
X141720000Y-170581000D01*
X141755000Y-172453000D02*
X141732000Y-172476000D01*
X216154000Y-171968000D02*
X216036000Y-171850000D01*
X216036000Y-171850000D02*
X209771298Y-171850000D01*
X209771298Y-171850000D02*
X209047298Y-172574000D01*
X100212000Y-169042298D02*
X101750702Y-170581000D01*
X208407702Y-172453000D02*
X141755000Y-172453000D01*
X87630000Y-170561000D02*
X89148702Y-169042298D01*
X208528702Y-172574000D02*
X208407702Y-172453000D01*
%TO.N,/CPU/A3*%
X110744000Y-148463000D02*
X111760000Y-147447000D01*
X206507298Y-174235000D02*
X205988702Y-174235000D01*
X111760000Y-147447000D02*
X116586000Y-147447000D01*
X110646000Y-148365000D02*
X110744000Y-148463000D01*
X100330000Y-149479000D02*
X100838000Y-148971000D01*
X100838000Y-148971000D02*
X103124000Y-148971000D01*
X208788000Y-174117000D02*
X206625298Y-174117000D01*
X103124000Y-148971000D02*
X103730000Y-148365000D01*
X205988702Y-174235000D02*
X205616702Y-173863000D01*
X154172702Y-174235000D02*
X154054702Y-174117000D01*
X154691298Y-174235000D02*
X154172702Y-174235000D01*
X154054702Y-174117000D02*
X149606000Y-174117000D01*
X206625298Y-174117000D02*
X206507298Y-174235000D01*
X96520000Y-149616000D02*
X100193000Y-149616000D01*
X116586000Y-147447000D02*
X150368000Y-147447000D01*
X155063298Y-173863000D02*
X154691298Y-174235000D01*
X100193000Y-149616000D02*
X100330000Y-149479000D01*
X205616702Y-173863000D02*
X155063298Y-173863000D01*
X103730000Y-148365000D02*
X110646000Y-148365000D01*
%TO.N,/CPU/A14*%
X172979620Y-158877000D02*
X172331620Y-158229000D01*
X84074000Y-157861000D02*
X123444000Y-157861000D01*
X170123000Y-158172000D02*
X164969744Y-158172000D01*
X147688000Y-157607000D02*
X147072298Y-157607000D01*
X212344000Y-150241000D02*
X211808000Y-149705000D01*
X146552702Y-157606000D02*
X146551702Y-157607000D01*
X128654702Y-157607000D02*
X124206000Y-157607000D01*
X189512000Y-149705000D02*
X188722000Y-150495000D01*
X188722000Y-150495000D02*
X188722000Y-153035000D01*
X83820000Y-157607000D02*
X84074000Y-157861000D01*
X164912744Y-158115000D02*
X148211810Y-158115000D01*
X123444000Y-157861000D02*
X123698000Y-158115000D01*
X148211810Y-158115000D02*
X147900810Y-157804000D01*
X128772702Y-157725000D02*
X128654702Y-157607000D01*
X170180000Y-158229000D02*
X170123000Y-158172000D01*
X147885000Y-157804000D02*
X147688000Y-157607000D01*
X147072298Y-157607000D02*
X147071298Y-157606000D01*
X147071298Y-157606000D02*
X146552702Y-157606000D01*
X172331620Y-158229000D02*
X170180000Y-158229000D01*
X146551702Y-157607000D02*
X129409298Y-157607000D01*
X188722000Y-153035000D02*
X182880000Y-158877000D01*
X182880000Y-158877000D02*
X172979620Y-158877000D01*
X164969744Y-158172000D02*
X164912744Y-158115000D01*
X129409298Y-157607000D02*
X129291298Y-157725000D01*
X129291298Y-157725000D02*
X128772702Y-157725000D01*
X147900810Y-157804000D02*
X147885000Y-157804000D01*
X124206000Y-157607000D02*
X123698000Y-158115000D01*
X211808000Y-149705000D02*
X189512000Y-149705000D01*
%TO.N,/CPU/A5*%
X144780000Y-175895000D02*
X145034000Y-176149000D01*
X212090000Y-160655000D02*
X176784000Y-160655000D01*
X128270000Y-146177000D02*
X143510000Y-146177000D01*
X91694000Y-149225000D02*
X94742000Y-146177000D01*
X171580702Y-176149000D02*
X171698702Y-176031000D01*
X145034000Y-176149000D02*
X171580702Y-176149000D01*
X172335298Y-176149000D02*
X176530000Y-176149000D01*
X171698702Y-176031000D02*
X172217298Y-176031000D01*
X94742000Y-146177000D02*
X128270000Y-146177000D01*
X143510000Y-146177000D02*
X143764000Y-146431000D01*
X172217298Y-176031000D02*
X172335298Y-176149000D01*
%TO.N,/CPU/A9*%
X213614000Y-164856000D02*
X213614000Y-163195000D01*
X134100000Y-171206000D02*
X174244000Y-171206000D01*
X213614000Y-163195000D02*
X213360000Y-162941000D01*
X92710000Y-156337000D02*
X133350000Y-156337000D01*
X213360000Y-162941000D02*
X174244000Y-162941000D01*
%TO.N,/CPU/A13*%
X171958000Y-159131000D02*
X146812000Y-159131000D01*
X146304000Y-158623000D02*
X138938000Y-158623000D01*
X87630000Y-158623000D02*
X88646000Y-159639000D01*
X172720000Y-159893000D02*
X171958000Y-159131000D01*
X132283200Y-159639000D02*
X126492000Y-159639000D01*
X88646000Y-159639000D02*
X126492000Y-159639000D01*
X212344000Y-159639000D02*
X212090000Y-159893000D01*
X212090000Y-159893000D02*
X172720000Y-159893000D01*
X138938000Y-158623000D02*
X138430000Y-159131000D01*
X138430000Y-159131000D02*
X132791200Y-159131000D01*
X146812000Y-159131000D02*
X146304000Y-158623000D01*
X132791200Y-159131000D02*
X132283200Y-159639000D01*
%TO.N,/CPU/A15*%
X131765000Y-165674000D02*
X131560000Y-165469000D01*
X190382000Y-165989000D02*
X188851810Y-165989000D01*
X230124000Y-165989000D02*
X200281810Y-165989000D01*
X188851810Y-165989000D02*
X188536810Y-165674000D01*
X200281810Y-165989000D02*
X200084810Y-165792000D01*
X190382000Y-165983702D02*
X190382000Y-165989000D01*
X188536810Y-165674000D02*
X131765000Y-165674000D01*
X131560000Y-165469000D02*
X131560000Y-163139000D01*
X200084810Y-165792000D02*
X191442298Y-165792000D01*
X190748702Y-165617000D02*
X190382000Y-165983702D01*
X231648000Y-167513000D02*
X230124000Y-165989000D01*
X101600000Y-140960000D02*
X129657000Y-140960000D01*
X129657000Y-140960000D02*
X129794000Y-141097000D01*
X191442298Y-165792000D02*
X191267298Y-165617000D01*
X191267298Y-165617000D02*
X190748702Y-165617000D01*
%TO.N,Net-(U11-OSCO)*%
X232105200Y-89306400D02*
X234645200Y-89306400D01*
%TO.N,/CPU/D5*%
X105817108Y-172339000D02*
X111152892Y-172339000D01*
X112106108Y-172400000D02*
X112167108Y-172339000D01*
X104863892Y-172400000D02*
X105756108Y-172400000D01*
X128524000Y-172339000D02*
X128651000Y-172466000D01*
X104802892Y-172339000D02*
X104863892Y-172400000D01*
X112167108Y-172339000D02*
X128524000Y-172339000D01*
X111152892Y-172339000D02*
X111213892Y-172400000D01*
X104140000Y-172456000D02*
X104531000Y-172456000D01*
X105756108Y-172400000D02*
X105817108Y-172339000D01*
X111213892Y-172400000D02*
X112106108Y-172400000D01*
X104531000Y-172456000D02*
X104648000Y-172339000D01*
X104648000Y-172339000D02*
X104802892Y-172339000D01*
%TO.N,/CPU/D4*%
X94234000Y-180213000D02*
X93980000Y-179959000D01*
X93980000Y-179959000D02*
X93980000Y-178379000D01*
X126238000Y-180213000D02*
X126480000Y-179971000D01*
X126238000Y-180213000D02*
X94234000Y-180213000D01*
X126480000Y-179971000D02*
X126480000Y-178379000D01*
%TO.N,HLDA*%
X106302702Y-167767000D02*
X106420702Y-167649000D01*
X107075298Y-167513000D02*
X156848702Y-167513000D01*
X156966702Y-167631000D02*
X157485298Y-167631000D01*
X84074000Y-167767000D02*
X106302702Y-167767000D01*
X106420702Y-167649000D02*
X106939298Y-167649000D01*
X156848702Y-167513000D02*
X156966702Y-167631000D01*
X106939298Y-167649000D02*
X107075298Y-167513000D01*
X83820000Y-167513000D02*
X84074000Y-167767000D01*
X157603298Y-167513000D02*
X169672000Y-167513000D01*
X157485298Y-167631000D02*
X157603298Y-167513000D01*
%TO.N,DBIN*%
X135040728Y-183204000D02*
X161233000Y-183204000D01*
X134919728Y-183325000D02*
X135040728Y-183204000D01*
X89698000Y-183551000D02*
X107268108Y-183551000D01*
X88900000Y-182753000D02*
X89698000Y-183551000D01*
X133280272Y-183325000D02*
X134919728Y-183325000D01*
X161233000Y-183204000D02*
X161798000Y-183769000D01*
X88900000Y-181483000D02*
X88900000Y-182753000D01*
X107615108Y-183204000D02*
X133159272Y-183204000D01*
X107268108Y-183551000D02*
X107615108Y-183204000D01*
X133159272Y-183204000D02*
X133280272Y-183325000D01*
%TO.N,~{IOR}*%
X126751298Y-159013000D02*
X126232702Y-159013000D01*
X133613000Y-144907000D02*
X153873200Y-144907000D01*
X175872404Y-144625000D02*
X176256004Y-145008600D01*
X186444886Y-145008600D02*
X187763486Y-143690000D01*
X187763486Y-143690000D02*
X230071000Y-143690000D01*
X126232702Y-159013000D02*
X126133702Y-159112000D01*
X230071000Y-143690000D02*
X230178000Y-143583000D01*
X230178000Y-143583000D02*
X230178000Y-134395000D01*
X181759596Y-144625000D02*
X183492404Y-144625000D01*
X181375996Y-145008600D02*
X181759596Y-144625000D01*
X183876004Y-145008600D02*
X186444886Y-145008600D01*
X183492404Y-144625000D02*
X183876004Y-145008600D01*
X133608500Y-144911500D02*
X133613000Y-144907000D01*
X176256004Y-145008600D02*
X181375996Y-145008600D01*
X153974800Y-145008600D02*
X173755996Y-145008600D01*
X130458000Y-159112000D02*
X126850298Y-159112000D01*
X173755996Y-145008600D02*
X174139596Y-144625000D01*
X153873200Y-144907000D02*
X153974800Y-145008600D01*
X126850298Y-159112000D02*
X126751298Y-159013000D01*
X130556000Y-159014000D02*
X130458000Y-159112000D01*
X126133702Y-159112000D02*
X89389000Y-159112000D01*
X89389000Y-159112000D02*
X89154000Y-158877000D01*
X174139596Y-144625000D02*
X175872404Y-144625000D01*
%TO.N,/CPU/D6*%
X116462702Y-173609000D02*
X116580702Y-173491000D01*
X117478702Y-173609000D02*
X117596702Y-173491000D01*
X117217298Y-173609000D02*
X117478702Y-173609000D01*
X116580702Y-173491000D02*
X117099298Y-173491000D01*
X101594702Y-173491000D02*
X102113298Y-173491000D01*
X99060000Y-173609000D02*
X101476702Y-173609000D01*
X118115298Y-173491000D02*
X118233298Y-173609000D01*
X102113298Y-173491000D02*
X102231298Y-173609000D01*
X121789298Y-173609000D02*
X131318000Y-173609000D01*
X121034702Y-173609000D02*
X121152702Y-173491000D01*
X117099298Y-173491000D02*
X117217298Y-173609000D01*
X117596702Y-173491000D02*
X118115298Y-173491000D01*
X121671298Y-173491000D02*
X121789298Y-173609000D01*
X121152702Y-173491000D02*
X121671298Y-173491000D01*
X102231298Y-173609000D02*
X116462702Y-173609000D01*
X101476702Y-173609000D02*
X101594702Y-173491000D01*
X118233298Y-173609000D02*
X121034702Y-173609000D01*
%TO.N,~{WR}*%
X86360000Y-180721000D02*
X86360000Y-180467000D01*
X164580000Y-178379000D02*
X164580000Y-180225000D01*
X164580000Y-180225000D02*
X164084000Y-180721000D01*
X164084000Y-180721000D02*
X86360000Y-180721000D01*
%TO.N,~{IOW}*%
X113538000Y-150749000D02*
X114554000Y-149733000D01*
X169615000Y-144456000D02*
X172415200Y-141655800D01*
X223130702Y-135521000D02*
X226512000Y-135521000D01*
X193548000Y-137134600D02*
X193767600Y-136915000D01*
X86106000Y-150749000D02*
X113538000Y-150749000D01*
X226512000Y-135521000D02*
X227638000Y-134395000D01*
X134038298Y-144456000D02*
X169615000Y-144456000D01*
X221736702Y-136915000D02*
X223130702Y-135521000D01*
X133867798Y-144285500D02*
X134038298Y-144456000D01*
X180644800Y-135902000D02*
X185152600Y-135902000D01*
X131560000Y-145211800D02*
X132486300Y-144285500D01*
X115062000Y-149225000D02*
X131572000Y-149225000D01*
X185152600Y-135902000D02*
X185826400Y-136575800D01*
X193767600Y-136915000D02*
X221736702Y-136915000D01*
X114554000Y-149733000D02*
X115062000Y-149225000D01*
X132486300Y-144285500D02*
X133867798Y-144285500D01*
%TO.N,/CPU/D7*%
X99939000Y-181229000D02*
X99822000Y-181346000D01*
X134100000Y-181346000D02*
X133983000Y-181229000D01*
X133983000Y-181229000D02*
X99939000Y-181229000D01*
%TO.N,/CPU/D1*%
X138982000Y-175641000D02*
X109374000Y-175641000D01*
X141720000Y-178379000D02*
X138982000Y-175641000D01*
%TO.N,/CPU/D3*%
X136640000Y-181495000D02*
X136640000Y-181346000D01*
X134594298Y-181737000D02*
X136398000Y-181737000D01*
X133605702Y-181737000D02*
X133840702Y-181972000D01*
X136398000Y-181737000D02*
X136640000Y-181495000D01*
X104609000Y-181854000D02*
X104726000Y-181737000D01*
X133840702Y-181972000D02*
X134359298Y-181972000D01*
X104726000Y-181737000D02*
X133605702Y-181737000D01*
X134359298Y-181972000D02*
X134594298Y-181737000D01*
X104140000Y-181854000D02*
X104609000Y-181854000D01*
%TO.N,/CPU/D2*%
X109220000Y-178379000D02*
X111450000Y-176149000D01*
X136950000Y-176149000D02*
X139180000Y-178379000D01*
X111450000Y-176149000D02*
X136950000Y-176149000D01*
%TO.N,/CPU/D0*%
X114200000Y-175016000D02*
X140897000Y-175016000D01*
X140897000Y-175016000D02*
X144260000Y-178379000D01*
%TO.N,BTN1*%
X240394000Y-164575000D02*
X240284000Y-164465000D01*
X241350800Y-78028800D02*
X231063800Y-78028800D01*
X241394000Y-169091404D02*
X240394000Y-168091404D01*
X205944400Y-116063200D02*
X212444400Y-116063200D01*
X217744298Y-164154000D02*
X211451298Y-157861000D01*
X170502500Y-156962000D02*
X170688000Y-156962000D01*
X211451298Y-157861000D02*
X188214000Y-157861000D01*
X242570000Y-176911000D02*
X241394000Y-175735000D01*
X229362000Y-79730600D02*
X229362000Y-96116945D01*
X240394000Y-168091404D02*
X240394000Y-164575000D01*
X184779884Y-157861000D02*
X188214000Y-157861000D01*
X229362000Y-96116945D02*
X212444400Y-113034545D01*
X230575000Y-164154000D02*
X217744298Y-164154000D01*
X170688000Y-156962000D02*
X170825000Y-157099000D01*
X212444400Y-113034545D02*
X212444400Y-116063200D01*
X231063800Y-78028800D02*
X229362000Y-79730600D01*
X230886000Y-164465000D02*
X230575000Y-164154000D01*
X183956942Y-158683942D02*
X184779884Y-157861000D01*
X240284000Y-164465000D02*
X230886000Y-164465000D01*
X241394000Y-175735000D02*
X241394000Y-169091404D01*
X242570000Y-76809600D02*
X241350800Y-78028800D01*
X170825000Y-157099000D02*
X178562000Y-157099000D01*
D49*
%TO.N,Net-(U3-BOOT)*%
X85993600Y-94284800D02*
X85993600Y-97731800D01*
D46*
X85993600Y-97731800D02*
X86283800Y-98022000D01*
D49*
%TO.N,Net-(U3-COMP)*%
X91004400Y-90175000D02*
X92760800Y-91931400D01*
D46*
X91935200Y-99022000D02*
X90583800Y-99022000D01*
D49*
X92760800Y-98196400D02*
X91935200Y-99022000D01*
X92760800Y-91931400D02*
X92760800Y-98196400D01*
D46*
%TO.N,Net-(U3-SS{slash}TR)*%
X84074000Y-99517200D02*
X86279000Y-99517200D01*
X86279000Y-99517200D02*
X86283800Y-99522000D01*
%TO.N,Net-(U3-VSENSE)*%
X107679067Y-112496600D02*
X111568089Y-112496600D01*
X93832400Y-99522000D02*
X93980000Y-99669600D01*
X90583800Y-99522000D02*
X93832400Y-99522000D01*
%TO.N,Net-(U3-PWRGD)*%
X90583800Y-100022000D02*
X91233600Y-100022000D01*
X91233600Y-100022000D02*
X91694000Y-100482400D01*
%TO.N,Net-(U3-RT{slash}CLK)*%
X86128200Y-100177600D02*
X86283800Y-100022000D01*
X84937600Y-100177600D02*
X86128200Y-100177600D01*
%TO.N,Net-(D1-K)*%
X188163200Y-70053200D02*
X209194400Y-70053200D01*
X126300591Y-76301600D02*
X130911600Y-76301600D01*
X211074000Y-71932800D02*
X210972400Y-72034400D01*
X210972400Y-72034400D02*
X210972400Y-103327200D01*
X209194400Y-70053200D02*
X211074000Y-71932800D01*
D47*
%TO.N,Net-(D1-A)*%
X115417600Y-78689200D02*
X109524800Y-78689200D01*
X109524800Y-78689200D02*
X108489808Y-77654208D01*
X128473200Y-84683600D02*
X127863600Y-85293200D01*
X118008400Y-85293200D02*
X116140591Y-83425391D01*
X108489808Y-77654208D02*
X108489808Y-76301600D01*
X116140591Y-76301600D02*
X116140591Y-77966209D01*
X128473200Y-82667200D02*
X128473200Y-84683600D01*
X127863600Y-85293200D02*
X118008400Y-85293200D01*
X116140591Y-77966209D02*
X115417600Y-78689200D01*
X116140591Y-83425391D02*
X116140591Y-77966209D01*
D46*
%TO.N,~{RESIN}*%
X240030000Y-74269600D02*
X241206000Y-73093600D01*
X241206000Y-73093600D02*
X243245116Y-73093600D01*
X236982000Y-145161000D02*
X198374000Y-145161000D01*
X198374000Y-142138400D02*
X198399400Y-142113000D01*
X175006000Y-140671000D02*
X176132000Y-141797000D01*
X243245116Y-73093600D02*
X243746000Y-73594484D01*
X186949000Y-141797000D02*
X187759000Y-140987000D01*
X197273400Y-140987000D02*
X198399400Y-142113000D01*
X176132000Y-141797000D02*
X186949000Y-141797000D01*
X243746000Y-73594484D02*
X243746000Y-88638400D01*
X194310000Y-145161000D02*
X198374000Y-145161000D01*
X243746000Y-88638400D02*
X243738400Y-88646000D01*
X187759000Y-140987000D02*
X197273400Y-140987000D01*
%TO.N,BTN2*%
X185910000Y-151883124D02*
X185910000Y-149007124D01*
X174139596Y-152245000D02*
X185548124Y-152245000D01*
X161026000Y-154847000D02*
X171537596Y-154847000D01*
X248648000Y-147937000D02*
X250444000Y-149733000D01*
X229616000Y-75438000D02*
X227228400Y-77825600D01*
X159500000Y-153321000D02*
X161026000Y-154847000D01*
X242570000Y-74269600D02*
X241394000Y-75445600D01*
X185910000Y-149007124D02*
X186980124Y-147937000D01*
X229623600Y-75445600D02*
X229616000Y-75438000D01*
X242570000Y-170053000D02*
X242316000Y-170307000D01*
X227228400Y-77825600D02*
X227228400Y-94792800D01*
X186980124Y-147937000D02*
X199390000Y-147937000D01*
X241394000Y-75445600D02*
X229623600Y-75445600D01*
X210667600Y-111353600D02*
X208127600Y-111353600D01*
X211836000Y-147937000D02*
X248648000Y-147937000D01*
X250444000Y-153797000D02*
X254508000Y-157861000D01*
X256540000Y-170053000D02*
X242570000Y-170053000D01*
X185548124Y-152245000D02*
X185910000Y-151883124D01*
X199390000Y-147937000D02*
X211836000Y-147937000D01*
X194769000Y-116063200D02*
X201269000Y-116063200D01*
X250444000Y-149733000D02*
X250444000Y-153797000D01*
X171537596Y-154847000D02*
X174139596Y-152245000D01*
X227228400Y-94792800D02*
X210667600Y-111353600D01*
%TO.N,1WIRE*%
X181567596Y-146685000D02*
X181759596Y-146877000D01*
X183938404Y-146431000D02*
X249664000Y-146431000D01*
X183492404Y-146877000D02*
X183938404Y-146431000D01*
X173947596Y-146685000D02*
X174139596Y-146877000D01*
X175872404Y-146877000D02*
X176064404Y-146685000D01*
X174139596Y-146877000D02*
X175872404Y-146877000D01*
X181759596Y-146877000D02*
X183492404Y-146877000D01*
X165862000Y-146685000D02*
X173947596Y-146685000D01*
X164846000Y-147701000D02*
X165862000Y-146685000D01*
X249664000Y-146431000D02*
X253474000Y-150241000D01*
X176064404Y-146685000D02*
X181567596Y-146685000D01*
%TO.N,BTN3*%
X220980000Y-163703000D02*
X219964000Y-162687000D01*
X211836000Y-146939000D02*
X211328000Y-147447000D01*
X215595200Y-108356400D02*
X211429600Y-112522000D01*
X228396800Y-90678000D02*
X228396800Y-95554800D01*
X211429600Y-112522000D02*
X206298800Y-112522000D01*
X170400000Y-151511000D02*
X163850000Y-151511000D01*
X240030000Y-76809600D02*
X230479600Y-76809600D01*
X212735000Y-146939000D02*
X211836000Y-146939000D01*
X228396800Y-95554800D02*
X215595200Y-108356400D01*
X193685600Y-112471200D02*
X190093600Y-116063200D01*
X183593600Y-116063200D02*
X190093600Y-116063200D01*
X235458000Y-163703000D02*
X220980000Y-163703000D01*
X228396800Y-78892400D02*
X228396800Y-90678000D01*
X212852000Y-147056000D02*
X212735000Y-146939000D01*
X211328000Y-147447000D02*
X186436000Y-147447000D01*
X197612000Y-112471200D02*
X193685600Y-112471200D01*
X230479600Y-76809600D02*
X228396800Y-78892400D01*
X163850000Y-151511000D02*
X162040000Y-153321000D01*
X186436000Y-147447000D02*
X184404000Y-149479000D01*
X184404000Y-149479000D02*
X172432000Y-149479000D01*
X172432000Y-149479000D02*
X170400000Y-151511000D01*
%TO.N,~{RESET}*%
X220472000Y-156337000D02*
X241808000Y-156337000D01*
X220218000Y-156083000D02*
X220472000Y-156337000D01*
%TO.N,~{A4}*%
X229018000Y-164973000D02*
X236728000Y-164973000D01*
X223012000Y-137033000D02*
X222758000Y-136779000D01*
X236728000Y-164973000D02*
X239268000Y-167513000D01*
X228600000Y-137033000D02*
X223012000Y-137033000D01*
D45*
%TO.N,Net-(JP3-B)*%
X155791400Y-83007200D02*
X155262600Y-83007200D01*
X159042600Y-79756000D02*
X155791400Y-83007200D01*
%TO.N,Net-(JP4-B)*%
X171742600Y-79756000D02*
X168491400Y-83007200D01*
X168491400Y-83007200D02*
X167962600Y-83007200D01*
%TO.N,Net-(JP5-B)*%
X184442600Y-79756000D02*
X181191400Y-83007200D01*
X181191400Y-83007200D02*
X180662600Y-83007200D01*
%TO.N,Net-(D4-A)*%
X155262600Y-75984000D02*
X155262600Y-80467200D01*
X156062600Y-75184000D02*
X155262600Y-75984000D01*
%TO.N,Net-(D5-A)*%
X167962600Y-80467200D02*
X167962600Y-75984000D01*
X167962600Y-75984000D02*
X168762600Y-75184000D01*
%TO.N,Net-(D6-K)*%
X181914800Y-77266800D02*
X183489600Y-77266800D01*
X183489600Y-77266800D02*
X183489600Y-77216000D01*
X184002600Y-76703000D02*
X184002600Y-75184000D01*
X180662600Y-80467200D02*
X180662600Y-78519000D01*
X180662600Y-78519000D02*
X181914800Y-77266800D01*
X183489600Y-77216000D02*
X184002600Y-76703000D01*
D46*
%TO.N,LS1*%
X254508000Y-159893000D02*
X255778000Y-158623000D01*
X245110000Y-76809600D02*
X245110000Y-88595200D01*
X255778000Y-158623000D02*
X255778000Y-150749000D01*
X255778000Y-150749000D02*
X256286000Y-150241000D01*
X256286000Y-150241000D02*
X258064000Y-150241000D01*
X246888000Y-159893000D02*
X254508000Y-159893000D01*
%TD*%
%TA.AperFunction,Conductor*%
%TO.N,GND*%
G36*
X117424141Y-85750859D02*
G01*
X117491160Y-85770595D01*
X117511721Y-85787178D01*
X117561853Y-85837311D01*
X117561854Y-85837312D01*
X117676592Y-85913977D01*
X117804067Y-85966778D01*
X117804072Y-85966780D01*
X117804076Y-85966780D01*
X117804077Y-85966781D01*
X117939403Y-85993700D01*
X117939406Y-85993700D01*
X127932596Y-85993700D01*
X128023640Y-85975589D01*
X128067928Y-85966780D01*
X128168372Y-85925175D01*
X128195407Y-85913977D01*
X128195408Y-85913976D01*
X128195411Y-85913975D01*
X128310143Y-85837314D01*
X128351613Y-85795843D01*
X128412934Y-85762359D01*
X128439379Y-85759526D01*
X181282825Y-85801102D01*
X181349848Y-85820839D01*
X181395561Y-85873679D01*
X181406726Y-85925175D01*
X181383488Y-125135473D01*
X181363764Y-125202501D01*
X181310933Y-125248225D01*
X181259488Y-125259400D01*
X136805051Y-125259400D01*
X136738012Y-125239715D01*
X136692257Y-125186911D01*
X136681053Y-125136022D01*
X136630683Y-115096472D01*
X144455900Y-115096472D01*
X144455900Y-115358727D01*
X144482523Y-115560939D01*
X144490130Y-115618716D01*
X144558002Y-115872018D01*
X144558005Y-115872028D01*
X144658353Y-116114290D01*
X144658358Y-116114300D01*
X144789475Y-116341403D01*
X144949118Y-116549451D01*
X144949126Y-116549460D01*
X145134540Y-116734874D01*
X145134548Y-116734881D01*
X145342596Y-116894524D01*
X145569699Y-117025641D01*
X145569709Y-117025646D01*
X145811971Y-117125994D01*
X145811981Y-117125998D01*
X146065284Y-117193870D01*
X146325280Y-117228100D01*
X146325287Y-117228100D01*
X146587513Y-117228100D01*
X146587520Y-117228100D01*
X146847516Y-117193870D01*
X147100819Y-117125998D01*
X147343097Y-117025643D01*
X147570203Y-116894524D01*
X147778251Y-116734882D01*
X147778255Y-116734877D01*
X147778260Y-116734874D01*
X147963674Y-116549460D01*
X147963677Y-116549455D01*
X147963682Y-116549451D01*
X148123324Y-116341403D01*
X148254443Y-116114297D01*
X148354798Y-115872019D01*
X148422670Y-115618716D01*
X148456900Y-115358720D01*
X148456900Y-115096480D01*
X148456899Y-115096472D01*
X163302700Y-115096472D01*
X163302700Y-115358727D01*
X163329323Y-115560939D01*
X163336930Y-115618716D01*
X163404802Y-115872018D01*
X163404805Y-115872028D01*
X163505153Y-116114290D01*
X163505158Y-116114300D01*
X163636275Y-116341403D01*
X163795918Y-116549451D01*
X163795926Y-116549460D01*
X163981340Y-116734874D01*
X163981348Y-116734881D01*
X164189396Y-116894524D01*
X164416499Y-117025641D01*
X164416509Y-117025646D01*
X164658771Y-117125994D01*
X164658781Y-117125998D01*
X164912084Y-117193870D01*
X165172080Y-117228100D01*
X165172087Y-117228100D01*
X165434313Y-117228100D01*
X165434320Y-117228100D01*
X165694316Y-117193870D01*
X165947619Y-117125998D01*
X166189897Y-117025643D01*
X166417003Y-116894524D01*
X166625051Y-116734882D01*
X166625055Y-116734877D01*
X166625060Y-116734874D01*
X166810474Y-116549460D01*
X166810477Y-116549455D01*
X166810482Y-116549451D01*
X166970124Y-116341403D01*
X167101243Y-116114297D01*
X167201598Y-115872019D01*
X167269470Y-115618716D01*
X167303700Y-115358720D01*
X167303700Y-115096480D01*
X167303247Y-115093043D01*
X167302160Y-115084788D01*
X167269470Y-114836484D01*
X167201598Y-114583181D01*
X167201594Y-114583171D01*
X167101246Y-114340909D01*
X167101241Y-114340899D01*
X166970124Y-114113796D01*
X166810481Y-113905748D01*
X166810474Y-113905740D01*
X166625060Y-113720326D01*
X166625051Y-113720318D01*
X166417003Y-113560675D01*
X166189900Y-113429558D01*
X166189890Y-113429553D01*
X165947628Y-113329205D01*
X165947621Y-113329203D01*
X165947619Y-113329202D01*
X165694316Y-113261330D01*
X165636539Y-113253723D01*
X165434327Y-113227100D01*
X165434320Y-113227100D01*
X165172080Y-113227100D01*
X165172072Y-113227100D01*
X164940972Y-113257526D01*
X164912084Y-113261330D01*
X164658781Y-113329202D01*
X164658771Y-113329205D01*
X164416509Y-113429553D01*
X164416499Y-113429558D01*
X164189396Y-113560675D01*
X163981348Y-113720318D01*
X163795918Y-113905748D01*
X163636275Y-114113796D01*
X163505158Y-114340899D01*
X163505153Y-114340909D01*
X163404805Y-114583171D01*
X163404802Y-114583181D01*
X163336930Y-114836485D01*
X163302700Y-115096472D01*
X148456899Y-115096472D01*
X148456447Y-115093043D01*
X148455360Y-115084788D01*
X148422670Y-114836484D01*
X148354798Y-114583181D01*
X148354794Y-114583171D01*
X148254446Y-114340909D01*
X148254441Y-114340899D01*
X148123324Y-114113796D01*
X147963681Y-113905748D01*
X147963674Y-113905740D01*
X147778260Y-113720326D01*
X147778251Y-113720318D01*
X147570203Y-113560675D01*
X147343100Y-113429558D01*
X147343090Y-113429553D01*
X147100828Y-113329205D01*
X147100821Y-113329203D01*
X147100819Y-113329202D01*
X146847516Y-113261330D01*
X146789739Y-113253723D01*
X146587527Y-113227100D01*
X146587520Y-113227100D01*
X146325280Y-113227100D01*
X146325272Y-113227100D01*
X146094172Y-113257526D01*
X146065284Y-113261330D01*
X145811981Y-113329202D01*
X145811971Y-113329205D01*
X145569709Y-113429553D01*
X145569699Y-113429558D01*
X145342596Y-113560675D01*
X145134548Y-113720318D01*
X144949118Y-113905748D01*
X144789475Y-114113796D01*
X144658358Y-114340899D01*
X144658353Y-114340909D01*
X144558005Y-114583171D01*
X144558002Y-114583181D01*
X144490130Y-114836485D01*
X144455900Y-115096472D01*
X136630683Y-115096472D01*
X136630666Y-115093043D01*
X136621304Y-113227100D01*
X136606747Y-110325720D01*
X136626095Y-110258585D01*
X136678668Y-110212565D01*
X136730745Y-110201100D01*
X137780408Y-110201100D01*
X137780408Y-110201099D01*
X137844512Y-110188349D01*
X137901252Y-110177063D01*
X137934592Y-110163252D01*
X138015086Y-110129912D01*
X138066309Y-110095684D01*
X138117533Y-110061458D01*
X138204658Y-109974333D01*
X138204658Y-109974331D01*
X138214866Y-109964124D01*
X138214867Y-109964121D01*
X139753741Y-108425248D01*
X152688167Y-108425248D01*
X152688167Y-108629951D01*
X152720189Y-108832134D01*
X152783448Y-109026823D01*
X152847358Y-109152253D01*
X152854073Y-109165431D01*
X152876382Y-109209213D01*
X152996695Y-109374813D01*
X153141453Y-109519571D01*
X153296416Y-109632156D01*
X153307057Y-109639887D01*
X153423274Y-109699103D01*
X153489443Y-109732818D01*
X153489445Y-109732818D01*
X153489448Y-109732820D01*
X153593804Y-109766727D01*
X153684132Y-109796077D01*
X153785224Y-109812088D01*
X153886315Y-109828100D01*
X153886316Y-109828100D01*
X154091018Y-109828100D01*
X154091019Y-109828100D01*
X154293201Y-109796077D01*
X154487886Y-109732820D01*
X154670277Y-109639887D01*
X154763257Y-109572332D01*
X154835880Y-109519571D01*
X154835882Y-109519568D01*
X154835886Y-109519566D01*
X154980633Y-109374819D01*
X154980635Y-109374815D01*
X154980638Y-109374813D01*
X155103818Y-109205269D01*
X155105490Y-109206484D01*
X155150875Y-109165431D01*
X155204782Y-109153100D01*
X156554818Y-109153100D01*
X156621857Y-109172785D01*
X156654539Y-109206171D01*
X156655782Y-109205269D01*
X156778961Y-109374813D01*
X156923719Y-109519571D01*
X157078682Y-109632156D01*
X157089323Y-109639887D01*
X157205540Y-109699103D01*
X157271709Y-109732818D01*
X157271711Y-109732818D01*
X157271714Y-109732820D01*
X157376070Y-109766727D01*
X157466398Y-109796077D01*
X157567490Y-109812088D01*
X157668581Y-109828100D01*
X157668582Y-109828100D01*
X157873284Y-109828100D01*
X157873285Y-109828100D01*
X158075467Y-109796077D01*
X158270152Y-109732820D01*
X158452543Y-109639887D01*
X158545523Y-109572332D01*
X158618146Y-109519571D01*
X158618148Y-109519568D01*
X158618152Y-109519566D01*
X158762899Y-109374819D01*
X158762901Y-109374815D01*
X158762904Y-109374813D01*
X158815665Y-109302190D01*
X158883220Y-109209210D01*
X158976153Y-109026819D01*
X159039410Y-108832134D01*
X159071433Y-108629952D01*
X159071433Y-108425248D01*
X159056946Y-108333782D01*
X159039410Y-108223065D01*
X158976151Y-108028376D01*
X158942436Y-107962207D01*
X158883220Y-107845990D01*
X158875489Y-107835349D01*
X158762904Y-107680386D01*
X158618146Y-107535628D01*
X158452546Y-107415315D01*
X158452545Y-107415314D01*
X158452543Y-107415313D01*
X158395586Y-107386291D01*
X158270156Y-107322381D01*
X158075467Y-107259122D01*
X157900928Y-107231478D01*
X157873285Y-107227100D01*
X157668581Y-107227100D01*
X157644262Y-107230951D01*
X157466398Y-107259122D01*
X157271709Y-107322381D01*
X157089319Y-107415315D01*
X156923719Y-107535628D01*
X156778961Y-107680386D01*
X156655782Y-107849931D01*
X156654109Y-107848715D01*
X156608725Y-107889769D01*
X156554818Y-107902100D01*
X155204782Y-107902100D01*
X155137743Y-107882415D01*
X155105060Y-107849028D01*
X155103818Y-107849931D01*
X154980638Y-107680386D01*
X154835880Y-107535628D01*
X154670280Y-107415315D01*
X154670279Y-107415314D01*
X154670277Y-107415313D01*
X154613320Y-107386291D01*
X154487890Y-107322381D01*
X154293201Y-107259122D01*
X154118662Y-107231478D01*
X154091019Y-107227100D01*
X153886315Y-107227100D01*
X153861996Y-107230951D01*
X153684132Y-107259122D01*
X153489443Y-107322381D01*
X153307053Y-107415315D01*
X153141453Y-107535628D01*
X152996695Y-107680386D01*
X152876382Y-107845986D01*
X152783448Y-108028376D01*
X152720189Y-108223065D01*
X152688167Y-108425248D01*
X139753741Y-108425248D01*
X144748772Y-103430219D01*
X144810095Y-103396734D01*
X144836453Y-103393900D01*
X155611207Y-103393900D01*
X155671629Y-103381881D01*
X155732052Y-103369863D01*
X155765392Y-103356052D01*
X155845886Y-103322712D01*
X155897109Y-103288484D01*
X155948333Y-103254258D01*
X156035458Y-103167133D01*
X156035459Y-103167131D01*
X156042525Y-103160065D01*
X156042528Y-103160061D01*
X158169662Y-101032927D01*
X158169666Y-101032925D01*
X158256791Y-100945800D01*
X158325244Y-100843353D01*
X158372396Y-100729519D01*
X158396433Y-100608673D01*
X158396433Y-100177052D01*
X158416118Y-100110013D01*
X158468922Y-100064258D01*
X158538080Y-100054314D01*
X158601636Y-100083339D01*
X158608114Y-100089371D01*
X160096595Y-101577854D01*
X160096598Y-101577857D01*
X160147823Y-101612084D01*
X160199047Y-101646311D01*
X160312881Y-101693463D01*
X160433721Y-101717499D01*
X160433725Y-101717500D01*
X160433726Y-101717500D01*
X167041207Y-101717500D01*
X167101629Y-101705481D01*
X167162052Y-101693463D01*
X167195392Y-101679652D01*
X167275886Y-101646312D01*
X167327109Y-101612084D01*
X167378333Y-101577858D01*
X167465458Y-101490733D01*
X167465459Y-101490731D01*
X167472525Y-101483665D01*
X167472528Y-101483661D01*
X168241929Y-100714260D01*
X168241933Y-100714258D01*
X168329058Y-100627133D01*
X168397511Y-100524686D01*
X168397512Y-100524685D01*
X168397513Y-100524682D01*
X168397515Y-100524679D01*
X168418110Y-100474956D01*
X168444663Y-100410851D01*
X168468700Y-100290007D01*
X168468700Y-100192099D01*
X168488385Y-100125060D01*
X168541189Y-100079305D01*
X168592700Y-100068099D01*
X168843571Y-100068099D01*
X168843572Y-100068099D01*
X168903183Y-100061691D01*
X169038031Y-100011396D01*
X169153246Y-99925146D01*
X169239496Y-99809931D01*
X169289791Y-99675083D01*
X169296200Y-99615473D01*
X169296199Y-97519728D01*
X169289791Y-97460117D01*
X169281559Y-97438047D01*
X169239497Y-97325271D01*
X169239493Y-97325264D01*
X169153247Y-97210055D01*
X169153244Y-97210052D01*
X169038035Y-97123806D01*
X169038028Y-97123802D01*
X168903182Y-97073508D01*
X168903183Y-97073508D01*
X168843583Y-97067101D01*
X168843581Y-97067100D01*
X168843573Y-97067100D01*
X168843564Y-97067100D01*
X166842829Y-97067100D01*
X166842823Y-97067101D01*
X166783216Y-97073508D01*
X166648371Y-97123802D01*
X166648364Y-97123806D01*
X166533155Y-97210052D01*
X166533152Y-97210055D01*
X166446906Y-97325264D01*
X166446903Y-97325270D01*
X166436508Y-97353141D01*
X166421183Y-97373611D01*
X166409250Y-97396228D01*
X166400592Y-97401116D01*
X166394636Y-97409074D01*
X166370680Y-97418009D01*
X166348411Y-97430585D01*
X166338485Y-97430017D01*
X166329172Y-97433491D01*
X166304184Y-97428055D01*
X166278655Y-97426595D01*
X166265454Y-97419629D01*
X166260899Y-97418639D01*
X166247450Y-97410131D01*
X166104813Y-97306499D01*
X166062149Y-97251170D01*
X166053700Y-97206182D01*
X166053700Y-92869029D01*
X166073385Y-92801990D01*
X166090019Y-92781348D01*
X168168548Y-90702819D01*
X168229871Y-90669334D01*
X168256229Y-90666500D01*
X170617182Y-90666500D01*
X170684221Y-90686185D01*
X170717500Y-90717615D01*
X170750628Y-90763212D01*
X170750632Y-90763217D01*
X170895386Y-90907971D01*
X171050349Y-91020556D01*
X171060990Y-91028287D01*
X171177207Y-91087503D01*
X171243376Y-91121218D01*
X171243378Y-91121218D01*
X171243381Y-91121220D01*
X171347737Y-91155127D01*
X171438065Y-91184477D01*
X171539157Y-91200488D01*
X171640248Y-91216500D01*
X171640249Y-91216500D01*
X171844951Y-91216500D01*
X171844952Y-91216500D01*
X172047134Y-91184477D01*
X172241819Y-91121220D01*
X172424210Y-91028287D01*
X172517190Y-90960732D01*
X172589813Y-90907971D01*
X172589815Y-90907968D01*
X172589819Y-90907966D01*
X172734566Y-90763219D01*
X172734568Y-90763215D01*
X172734571Y-90763213D01*
X172804836Y-90666500D01*
X172854887Y-90597610D01*
X172947820Y-90415219D01*
X173011077Y-90220534D01*
X173043100Y-90018352D01*
X173043100Y-89813648D01*
X173011077Y-89611466D01*
X172947820Y-89416781D01*
X172947818Y-89416778D01*
X172947818Y-89416776D01*
X172905156Y-89333048D01*
X172854887Y-89234390D01*
X172841915Y-89216535D01*
X172734571Y-89068786D01*
X172589813Y-88924028D01*
X172424213Y-88803715D01*
X172424212Y-88803714D01*
X172424210Y-88803713D01*
X172367253Y-88774691D01*
X172241823Y-88710781D01*
X172047134Y-88647522D01*
X171872595Y-88619878D01*
X171844952Y-88615500D01*
X171640248Y-88615500D01*
X171615929Y-88619351D01*
X171438065Y-88647522D01*
X171243376Y-88710781D01*
X171060986Y-88803715D01*
X170895386Y-88924028D01*
X170750632Y-89068782D01*
X170750628Y-89068787D01*
X170717500Y-89114385D01*
X170662171Y-89157051D01*
X170617182Y-89165500D01*
X167820080Y-89165500D01*
X167675092Y-89194340D01*
X167675082Y-89194343D01*
X167538511Y-89250912D01*
X167538498Y-89250919D01*
X167415584Y-89333048D01*
X167415580Y-89333051D01*
X164720250Y-92028380D01*
X164720244Y-92028388D01*
X164671012Y-92102068D01*
X164671013Y-92102069D01*
X164638121Y-92151296D01*
X164638114Y-92151308D01*
X164581542Y-92287886D01*
X164581540Y-92287892D01*
X164552700Y-92432879D01*
X164552700Y-97206182D01*
X164533015Y-97273221D01*
X164501586Y-97306499D01*
X164356634Y-97411814D01*
X164356632Y-97411816D01*
X164356631Y-97411816D01*
X164194915Y-97573532D01*
X164133518Y-97658038D01*
X164114969Y-97672340D01*
X164099509Y-97689933D01*
X164087816Y-97693277D01*
X164078187Y-97700703D01*
X164054852Y-97702707D01*
X164032333Y-97709149D01*
X164020689Y-97705641D01*
X164008574Y-97706682D01*
X163987858Y-97695751D01*
X163965433Y-97688996D01*
X163953441Y-97677591D01*
X163946779Y-97674076D01*
X163938922Y-97665698D01*
X163935748Y-97661982D01*
X163871486Y-97573534D01*
X163793880Y-97495928D01*
X163790725Y-97492235D01*
X163778342Y-97464611D01*
X163763837Y-97438047D01*
X163763386Y-97435880D01*
X163746928Y-97353141D01*
X163725251Y-97244165D01*
X163696003Y-97173553D01*
X163649835Y-97062092D01*
X163649828Y-97062079D01*
X163540339Y-96898218D01*
X163540336Y-96898214D01*
X163397886Y-96755764D01*
X163397855Y-96755735D01*
X162731879Y-96089759D01*
X162731859Y-96089737D01*
X162588185Y-95946063D01*
X162588181Y-95946060D01*
X162424320Y-95836571D01*
X162424311Y-95836566D01*
X162351715Y-95806496D01*
X162295565Y-95783238D01*
X162242236Y-95761149D01*
X162242232Y-95761148D01*
X162242228Y-95761146D01*
X162145588Y-95741924D01*
X162048944Y-95722700D01*
X162048941Y-95722700D01*
X156467059Y-95722700D01*
X156467055Y-95722700D01*
X156370412Y-95741924D01*
X156273767Y-95761147D01*
X156273761Y-95761149D01*
X156220434Y-95783237D01*
X156220434Y-95783238D01*
X156177518Y-95801014D01*
X156091684Y-95836568D01*
X156091683Y-95836568D01*
X155968645Y-95918779D01*
X155968646Y-95918780D01*
X155927818Y-95946059D01*
X155927815Y-95946062D01*
X155232708Y-96641171D01*
X155165820Y-96708059D01*
X155165818Y-96708061D01*
X155118144Y-96755735D01*
X155026459Y-96847419D01*
X154916971Y-97011280D01*
X154916964Y-97011293D01*
X154893849Y-97067099D01*
X154893849Y-97067100D01*
X154893849Y-97067101D01*
X154891195Y-97073509D01*
X154849756Y-97173551D01*
X154849755Y-97173553D01*
X154841846Y-97192646D01*
X154798004Y-97247049D01*
X154731710Y-97269112D01*
X154670991Y-97255676D01*
X154487890Y-97162382D01*
X154487889Y-97162381D01*
X154487886Y-97162380D01*
X154407702Y-97136326D01*
X154293201Y-97099122D01*
X154118662Y-97071478D01*
X154091019Y-97067100D01*
X153886315Y-97067100D01*
X153861996Y-97070951D01*
X153684132Y-97099122D01*
X153489443Y-97162381D01*
X153307053Y-97255315D01*
X153141453Y-97375628D01*
X152996695Y-97520386D01*
X152873516Y-97689931D01*
X152871843Y-97688715D01*
X152826459Y-97729769D01*
X152772552Y-97742100D01*
X150573399Y-97742100D01*
X150506360Y-97722415D01*
X150460605Y-97669611D01*
X150449399Y-97618100D01*
X150449399Y-97519729D01*
X150449398Y-97519723D01*
X150446443Y-97492235D01*
X150442991Y-97460117D01*
X150434759Y-97438047D01*
X150392697Y-97325271D01*
X150392693Y-97325264D01*
X150306447Y-97210055D01*
X150306444Y-97210052D01*
X150191235Y-97123806D01*
X150191228Y-97123802D01*
X150056382Y-97073508D01*
X150056383Y-97073508D01*
X149996783Y-97067101D01*
X149996781Y-97067100D01*
X149996773Y-97067100D01*
X149996764Y-97067100D01*
X147996029Y-97067100D01*
X147996023Y-97067101D01*
X147936416Y-97073508D01*
X147801571Y-97123802D01*
X147801564Y-97123806D01*
X147686355Y-97210052D01*
X147686352Y-97210055D01*
X147600106Y-97325264D01*
X147600103Y-97325269D01*
X147597082Y-97333371D01*
X147555210Y-97389304D01*
X147489746Y-97413721D01*
X147421473Y-97398869D01*
X147372068Y-97349464D01*
X147356900Y-97290037D01*
X147356900Y-95115561D01*
X147376585Y-95048522D01*
X147393219Y-95027880D01*
X151568280Y-90852819D01*
X151629603Y-90819334D01*
X151655961Y-90816500D01*
X158052553Y-90816500D01*
X158119592Y-90836185D01*
X158140234Y-90852819D01*
X158195386Y-90907971D01*
X158350349Y-91020556D01*
X158360990Y-91028287D01*
X158477207Y-91087503D01*
X158543376Y-91121218D01*
X158543378Y-91121218D01*
X158543381Y-91121220D01*
X158647737Y-91155127D01*
X158738065Y-91184477D01*
X158839157Y-91200488D01*
X158940248Y-91216500D01*
X158940249Y-91216500D01*
X159144951Y-91216500D01*
X159144952Y-91216500D01*
X159347134Y-91184477D01*
X159541819Y-91121220D01*
X159724210Y-91028287D01*
X159817190Y-90960732D01*
X159889813Y-90907971D01*
X159889815Y-90907968D01*
X159889819Y-90907966D01*
X160034566Y-90763219D01*
X160034568Y-90763215D01*
X160034571Y-90763213D01*
X160104836Y-90666500D01*
X160154887Y-90597610D01*
X160247820Y-90415219D01*
X160311077Y-90220534D01*
X160343100Y-90018352D01*
X160343100Y-89813648D01*
X160311077Y-89611466D01*
X160247820Y-89416781D01*
X160247818Y-89416778D01*
X160247818Y-89416776D01*
X160205156Y-89333048D01*
X160154887Y-89234390D01*
X160141915Y-89216535D01*
X160034571Y-89068786D01*
X159889813Y-88924028D01*
X159724213Y-88803715D01*
X159724212Y-88803714D01*
X159724210Y-88803713D01*
X159667253Y-88774691D01*
X159541823Y-88710781D01*
X159347134Y-88647522D01*
X159172595Y-88619878D01*
X159144952Y-88615500D01*
X158940248Y-88615500D01*
X158915929Y-88619351D01*
X158738065Y-88647522D01*
X158543376Y-88710781D01*
X158360986Y-88803715D01*
X158195386Y-88924028D01*
X158195382Y-88924032D01*
X158140234Y-88979181D01*
X158078911Y-89012666D01*
X158052553Y-89015500D01*
X151142904Y-89015500D01*
X150968939Y-89050103D01*
X150968923Y-89050108D01*
X150853053Y-89098102D01*
X150853054Y-89098103D01*
X150805054Y-89117986D01*
X150657565Y-89216535D01*
X150657561Y-89216538D01*
X145756938Y-94117160D01*
X145756937Y-94117161D01*
X145717464Y-94176239D01*
X145717463Y-94176240D01*
X145658385Y-94264655D01*
X145624446Y-94346593D01*
X145590506Y-94428529D01*
X145590503Y-94428541D01*
X145555900Y-94602503D01*
X145555900Y-97315305D01*
X145536215Y-97382344D01*
X145512437Y-97409591D01*
X145509831Y-97411816D01*
X145348115Y-97573532D01*
X145286718Y-97658038D01*
X145231387Y-97700703D01*
X145161774Y-97706682D01*
X145099979Y-97674076D01*
X145086082Y-97658038D01*
X145057065Y-97618100D01*
X145024686Y-97573534D01*
X144862966Y-97411814D01*
X144677938Y-97277383D01*
X144612734Y-97244160D01*
X144474155Y-97173550D01*
X144256648Y-97102878D01*
X144071212Y-97073508D01*
X144030754Y-97067100D01*
X143802046Y-97067100D01*
X143761588Y-97073508D01*
X143576153Y-97102878D01*
X143576150Y-97102878D01*
X143358644Y-97173550D01*
X143154861Y-97277383D01*
X143088951Y-97325270D01*
X142969834Y-97411814D01*
X142969832Y-97411816D01*
X142969831Y-97411816D01*
X142808116Y-97573531D01*
X142808116Y-97573532D01*
X142808114Y-97573534D01*
X142775735Y-97618100D01*
X142673683Y-97758561D01*
X142569850Y-97962344D01*
X142499178Y-98179850D01*
X142499178Y-98179853D01*
X142463400Y-98405746D01*
X142463400Y-98476938D01*
X142443715Y-98543977D01*
X142427081Y-98564619D01*
X135959719Y-105031981D01*
X135898396Y-105065466D01*
X135872038Y-105068300D01*
X133464504Y-105068300D01*
X133290539Y-105102903D01*
X133290523Y-105102908D01*
X133174653Y-105150902D01*
X133174654Y-105150903D01*
X133126654Y-105170786D01*
X132979165Y-105269335D01*
X132979161Y-105269338D01*
X129508119Y-108740381D01*
X129446796Y-108773866D01*
X129420438Y-108776700D01*
X120866104Y-108776700D01*
X120692139Y-108811303D01*
X120692123Y-108811308D01*
X120576253Y-108859302D01*
X120576254Y-108859303D01*
X120528254Y-108879186D01*
X120427520Y-108946494D01*
X120427512Y-108946499D01*
X120422125Y-108950100D01*
X120380765Y-108977736D01*
X120335531Y-109022969D01*
X120331144Y-109026617D01*
X120304089Y-109038310D01*
X120278228Y-109052431D01*
X120269303Y-109053345D01*
X120267008Y-109054337D01*
X120264174Y-109053870D01*
X120250624Y-109055258D01*
X116558513Y-109018058D01*
X116491675Y-108997699D01*
X116446454Y-108944436D01*
X116435781Y-108891901D01*
X116636010Y-97428802D01*
X116657465Y-96200534D01*
X116678317Y-96133849D01*
X116731912Y-96089023D01*
X116781446Y-96078700D01*
X120085548Y-96078700D01*
X120152587Y-96098385D01*
X120173229Y-96115019D01*
X120699381Y-96641171D01*
X120732866Y-96702494D01*
X120735700Y-96728852D01*
X120735700Y-99736850D01*
X120716015Y-99803889D01*
X120714826Y-99805703D01*
X120694002Y-99836868D01*
X120651809Y-99900015D01*
X120651802Y-99900028D01*
X120591464Y-100045698D01*
X120591461Y-100045710D01*
X120560700Y-100200353D01*
X120560700Y-100358046D01*
X120591461Y-100512689D01*
X120591464Y-100512701D01*
X120651802Y-100658372D01*
X120651809Y-100658385D01*
X120739410Y-100789488D01*
X120739413Y-100789492D01*
X120850907Y-100900986D01*
X120850911Y-100900989D01*
X120982014Y-100988590D01*
X120982027Y-100988597D01*
X121089046Y-101032925D01*
X121127703Y-101048937D01*
X121282353Y-101079699D01*
X121282356Y-101079700D01*
X121282358Y-101079700D01*
X121440044Y-101079700D01*
X121440045Y-101079699D01*
X121594697Y-101048937D01*
X121740379Y-100988594D01*
X121871489Y-100900989D01*
X121982989Y-100789489D01*
X122070594Y-100658379D01*
X122130937Y-100512697D01*
X122161700Y-100358042D01*
X122161700Y-100200358D01*
X122161700Y-100200355D01*
X122161699Y-100200353D01*
X122146460Y-100123742D01*
X122130937Y-100045703D01*
X122128140Y-100038950D01*
X122070597Y-99900028D01*
X122070596Y-99900027D01*
X122070594Y-99900021D01*
X122007597Y-99805739D01*
X121986720Y-99739063D01*
X121986700Y-99736850D01*
X121986700Y-99196072D01*
X126472700Y-99196072D01*
X126472700Y-99458327D01*
X126488027Y-99574737D01*
X126506930Y-99718316D01*
X126572131Y-99961649D01*
X126574802Y-99971618D01*
X126574805Y-99971628D01*
X126675153Y-100213890D01*
X126675158Y-100213900D01*
X126806275Y-100441003D01*
X126965918Y-100649051D01*
X126965926Y-100649060D01*
X127151340Y-100834474D01*
X127151348Y-100834481D01*
X127359396Y-100994124D01*
X127586499Y-101125241D01*
X127586509Y-101125246D01*
X127828771Y-101225594D01*
X127828781Y-101225598D01*
X128082084Y-101293470D01*
X128342080Y-101327700D01*
X128342087Y-101327700D01*
X128604313Y-101327700D01*
X128604320Y-101327700D01*
X128864316Y-101293470D01*
X129117619Y-101225598D01*
X129359897Y-101125243D01*
X129587003Y-100994124D01*
X129795051Y-100834482D01*
X129795055Y-100834477D01*
X129795060Y-100834474D01*
X129980474Y-100649060D01*
X129980477Y-100649055D01*
X129980482Y-100649051D01*
X130140124Y-100441003D01*
X130271243Y-100213897D01*
X130371598Y-99971619D01*
X130439470Y-99718316D01*
X130473700Y-99458320D01*
X130473700Y-99196080D01*
X130439470Y-98936084D01*
X130371598Y-98682781D01*
X130369281Y-98677188D01*
X130271246Y-98440509D01*
X130271241Y-98440499D01*
X130140124Y-98213396D01*
X129980481Y-98005348D01*
X129980474Y-98005340D01*
X129795060Y-97819926D01*
X129795051Y-97819918D01*
X129587003Y-97660275D01*
X129359900Y-97529158D01*
X129359890Y-97529153D01*
X129117628Y-97428805D01*
X129117621Y-97428803D01*
X129117619Y-97428802D01*
X128864316Y-97360930D01*
X128805154Y-97353141D01*
X128604327Y-97326700D01*
X128604320Y-97326700D01*
X128342080Y-97326700D01*
X128342072Y-97326700D01*
X128117912Y-97356213D01*
X128082084Y-97360930D01*
X127869061Y-97418009D01*
X127828781Y-97428802D01*
X127828771Y-97428805D01*
X127586509Y-97529153D01*
X127586499Y-97529158D01*
X127359396Y-97660275D01*
X127151348Y-97819918D01*
X126965918Y-98005348D01*
X126806275Y-98213396D01*
X126675158Y-98440499D01*
X126675153Y-98440509D01*
X126574805Y-98682771D01*
X126574802Y-98682781D01*
X126506930Y-98936085D01*
X126472700Y-99196072D01*
X121986700Y-99196072D01*
X121986700Y-96356796D01*
X121986700Y-96356794D01*
X121962663Y-96235948D01*
X121947994Y-96200534D01*
X121945004Y-96193315D01*
X121945001Y-96193309D01*
X121943132Y-96188797D01*
X121915512Y-96122115D01*
X121890991Y-96085418D01*
X121847058Y-96019667D01*
X121847056Y-96019664D01*
X121756837Y-95929445D01*
X121756806Y-95929416D01*
X120889150Y-95061760D01*
X120881860Y-95054470D01*
X120881858Y-95054467D01*
X120794733Y-94967342D01*
X120743509Y-94933115D01*
X120692286Y-94898888D01*
X120692283Y-94898886D01*
X120692280Y-94898885D01*
X120618603Y-94868368D01*
X120618601Y-94868367D01*
X120611792Y-94865547D01*
X120578452Y-94851737D01*
X120518029Y-94839718D01*
X120513306Y-94838778D01*
X120513304Y-94838778D01*
X120457610Y-94827700D01*
X120457607Y-94827700D01*
X120457606Y-94827700D01*
X116807630Y-94827700D01*
X116740591Y-94808015D01*
X116694836Y-94755211D01*
X116683649Y-94701534D01*
X116837143Y-85913977D01*
X116837870Y-85872328D01*
X116858722Y-85805644D01*
X116912317Y-85760818D01*
X116961943Y-85750495D01*
X117424141Y-85750859D01*
G37*
%TD.AperFunction*%
%TA.AperFunction,Conductor*%
G36*
X156958810Y-99398588D02*
G01*
X156969671Y-99399200D01*
X157000895Y-99415640D01*
X157089323Y-99479887D01*
X157089854Y-99480157D01*
X157094234Y-99483334D01*
X157112759Y-99507316D01*
X157133088Y-99529777D01*
X157133902Y-99534688D01*
X157136946Y-99538628D01*
X157145433Y-99583714D01*
X157145433Y-100236615D01*
X157125748Y-100303654D01*
X157109118Y-100324291D01*
X157022568Y-100410842D01*
X156958454Y-100474956D01*
X156897131Y-100508440D01*
X156827439Y-100503456D01*
X156771506Y-100461584D01*
X156747089Y-100396120D01*
X156756212Y-100339822D01*
X156765651Y-100317036D01*
X156804100Y-100123740D01*
X156804100Y-99926660D01*
X156804100Y-99516024D01*
X156807632Y-99503993D01*
X156806549Y-99491501D01*
X156817290Y-99471101D01*
X156823785Y-99448985D01*
X156833260Y-99440774D01*
X156839103Y-99429679D01*
X156859168Y-99418324D01*
X156876589Y-99403230D01*
X156888997Y-99401445D01*
X156899912Y-99395270D01*
X156922930Y-99396566D01*
X156945747Y-99393286D01*
X156958810Y-99398588D01*
G37*
%TD.AperFunction*%
%TA.AperFunction,Conductor*%
G36*
X161402935Y-97743385D02*
G01*
X161448690Y-97796189D01*
X161458634Y-97865347D01*
X161446381Y-97903995D01*
X161416650Y-97962344D01*
X161345978Y-98179850D01*
X161345978Y-98179853D01*
X161340665Y-98213397D01*
X161310200Y-98405746D01*
X161310200Y-98729454D01*
X161319034Y-98785228D01*
X161345978Y-98955346D01*
X161345978Y-98955349D01*
X161416650Y-99172855D01*
X161416652Y-99172858D01*
X161520483Y-99376638D01*
X161654914Y-99561666D01*
X161816634Y-99723386D01*
X162001662Y-99857817D01*
X162133799Y-99925144D01*
X162205444Y-99961649D01*
X162422951Y-100032321D01*
X162422952Y-100032321D01*
X162422955Y-100032322D01*
X162648846Y-100068100D01*
X162648847Y-100068100D01*
X162877553Y-100068100D01*
X162877554Y-100068100D01*
X163103445Y-100032322D01*
X163103448Y-100032321D01*
X163103449Y-100032321D01*
X163320955Y-99961649D01*
X163320955Y-99961648D01*
X163320958Y-99961648D01*
X163524738Y-99857817D01*
X163709766Y-99723386D01*
X163871486Y-99561666D01*
X163932883Y-99477159D01*
X163988212Y-99434496D01*
X164057825Y-99428517D01*
X164119620Y-99461123D01*
X164133514Y-99477156D01*
X164194914Y-99561666D01*
X164356634Y-99723386D01*
X164541662Y-99857817D01*
X164673799Y-99925144D01*
X164745444Y-99961649D01*
X164962951Y-100032321D01*
X164962952Y-100032321D01*
X164962955Y-100032322D01*
X165188846Y-100068100D01*
X165188847Y-100068100D01*
X165417553Y-100068100D01*
X165417554Y-100068100D01*
X165643445Y-100032322D01*
X165643448Y-100032321D01*
X165643449Y-100032321D01*
X165860955Y-99961649D01*
X165860955Y-99961648D01*
X165860958Y-99961648D01*
X166064738Y-99857817D01*
X166247445Y-99725072D01*
X166313246Y-99701594D01*
X166381300Y-99717419D01*
X166429995Y-99767524D01*
X166436508Y-99782059D01*
X166446902Y-99809928D01*
X166446906Y-99809935D01*
X166533152Y-99925144D01*
X166533155Y-99925147D01*
X166648364Y-100011393D01*
X166648371Y-100011397D01*
X166658592Y-100015209D01*
X166783217Y-100061691D01*
X166834420Y-100067196D01*
X166848879Y-100073185D01*
X166864495Y-100074302D01*
X166880497Y-100086280D01*
X166898967Y-100093931D01*
X166907896Y-100106791D01*
X166920429Y-100116173D01*
X166927414Y-100134902D01*
X166938816Y-100151323D01*
X166939375Y-100166968D01*
X166944846Y-100181637D01*
X166940597Y-100201169D01*
X166941311Y-100221148D01*
X166933123Y-100235525D01*
X166929995Y-100249910D01*
X166908844Y-100278165D01*
X166869982Y-100317028D01*
X166756827Y-100430182D01*
X166695507Y-100463666D01*
X166669148Y-100466500D01*
X160805786Y-100466500D01*
X160738747Y-100446815D01*
X160718105Y-100430181D01*
X159073151Y-98785228D01*
X159039666Y-98723905D01*
X159040174Y-98677188D01*
X159038648Y-98676947D01*
X159062191Y-98528300D01*
X159071433Y-98469952D01*
X159071433Y-98265248D01*
X159039410Y-98063065D01*
X159006683Y-97962344D01*
X158981882Y-97886015D01*
X158979888Y-97816178D01*
X159015968Y-97756345D01*
X159078668Y-97725516D01*
X159099814Y-97723700D01*
X161335896Y-97723700D01*
X161402935Y-97743385D01*
G37*
%TD.AperFunction*%
%TA.AperFunction,Conductor*%
G36*
X152839591Y-99012785D02*
G01*
X152872273Y-99046171D01*
X152873516Y-99045269D01*
X152996695Y-99214813D01*
X153141453Y-99359571D01*
X153277372Y-99458320D01*
X153307057Y-99479887D01*
X153414610Y-99534688D01*
X153489443Y-99572818D01*
X153489445Y-99572818D01*
X153489448Y-99572820D01*
X153593804Y-99606727D01*
X153684132Y-99636077D01*
X153785224Y-99652088D01*
X153886315Y-99668100D01*
X153886316Y-99668100D01*
X154091018Y-99668100D01*
X154091019Y-99668100D01*
X154293201Y-99636077D01*
X154487886Y-99572820D01*
X154510375Y-99561360D01*
X154579044Y-99548463D01*
X154643785Y-99574737D01*
X154684044Y-99631843D01*
X154687038Y-99701648D01*
X154654354Y-99759525D01*
X154358699Y-100055181D01*
X154297376Y-100088666D01*
X154271018Y-100091500D01*
X150429636Y-100091500D01*
X150362597Y-100071815D01*
X150316842Y-100019011D01*
X150306898Y-99949853D01*
X150330369Y-99893189D01*
X150335528Y-99886297D01*
X150392696Y-99809931D01*
X150442991Y-99675083D01*
X150449400Y-99615473D01*
X150449400Y-99117100D01*
X150469085Y-99050061D01*
X150521889Y-99004306D01*
X150573400Y-98993100D01*
X152772552Y-98993100D01*
X152839591Y-99012785D01*
G37*
%TD.AperFunction*%
%TD*%
M02*
