%TF.GenerationSoftware,KiCad,Pcbnew,9.0.7*%
%TF.CreationDate,2026-02-05T00:09:01+03:00*%
%TF.ProjectId,8080clock,38303830-636c-46f6-936b-2e6b69636164,rev?*%
%TF.SameCoordinates,Original*%
%TF.FileFunction,Copper,L2,Bot*%
%TF.FilePolarity,Positive*%
%FSLAX46Y46*%
G04 Gerber Fmt 4.6, Leading zero omitted, Abs format (unit mm)*
G04 Created by KiCad (PCBNEW 9.0.7) date 2026-02-05 00:09:01*
%MOMM*%
%LPD*%
G01*
G04 APERTURE LIST*
G04 Aperture macros list*
%AMRoundRect*
0 Rectangle with rounded corners*
0 $1 Rounding radius*
0 $2 $3 $4 $5 $6 $7 $8 $9 X,Y pos of 4 corners*
0 Add a 4 corners polygon primitive as box body*
4,1,4,$2,$3,$4,$5,$6,$7,$8,$9,$2,$3,0*
0 Add four circle primitives for the rounded corners*
1,1,$1+$1,$2,$3*
1,1,$1+$1,$4,$5*
1,1,$1+$1,$6,$7*
1,1,$1+$1,$8,$9*
0 Add four rect primitives between the rounded corners*
20,1,$1+$1,$2,$3,$4,$5,0*
20,1,$1+$1,$4,$5,$6,$7,0*
20,1,$1+$1,$6,$7,$8,$9,0*
20,1,$1+$1,$8,$9,$2,$3,0*%
G04 Aperture macros list end*
%TA.AperFunction,ComponentPad*%
%ADD10C,1.400000*%
%TD*%
%TA.AperFunction,ComponentPad*%
%ADD11C,1.600000*%
%TD*%
%TA.AperFunction,ComponentPad*%
%ADD12RoundRect,0.250000X-0.550000X0.550000X-0.550000X-0.550000X0.550000X-0.550000X0.550000X0.550000X0*%
%TD*%
%TA.AperFunction,ComponentPad*%
%ADD13C,2.000000*%
%TD*%
%TA.AperFunction,ComponentPad*%
%ADD14R,2.000000X2.000000*%
%TD*%
%TA.AperFunction,ComponentPad*%
%ADD15RoundRect,0.250000X0.550000X-0.950000X0.550000X0.950000X-0.550000X0.950000X-0.550000X-0.950000X0*%
%TD*%
%TA.AperFunction,ComponentPad*%
%ADD16O,1.600000X2.400000*%
%TD*%
%TA.AperFunction,ComponentPad*%
%ADD17R,1.905000X2.000000*%
%TD*%
%TA.AperFunction,ComponentPad*%
%ADD18O,1.905000X2.000000*%
%TD*%
%TA.AperFunction,ComponentPad*%
%ADD19O,1.600000X1.600000*%
%TD*%
%TA.AperFunction,ComponentPad*%
%ADD20R,1.800000X1.800000*%
%TD*%
%TA.AperFunction,ComponentPad*%
%ADD21C,1.800000*%
%TD*%
%TA.AperFunction,ComponentPad*%
%ADD22RoundRect,0.250000X0.950000X0.550000X-0.950000X0.550000X-0.950000X-0.550000X0.950000X-0.550000X0*%
%TD*%
%TA.AperFunction,ComponentPad*%
%ADD23O,2.400000X1.600000*%
%TD*%
%TA.AperFunction,ComponentPad*%
%ADD24RoundRect,0.250000X0.550000X0.550000X-0.550000X0.550000X-0.550000X-0.550000X0.550000X-0.550000X0*%
%TD*%
%TA.AperFunction,ComponentPad*%
%ADD25R,2.000000X4.600000*%
%TD*%
%TA.AperFunction,ComponentPad*%
%ADD26O,2.000000X4.200000*%
%TD*%
%TA.AperFunction,ComponentPad*%
%ADD27O,4.200000X2.000000*%
%TD*%
%TA.AperFunction,ComponentPad*%
%ADD28R,1.700000X1.700000*%
%TD*%
%TA.AperFunction,ComponentPad*%
%ADD29C,1.700000*%
%TD*%
%TA.AperFunction,ComponentPad*%
%ADD30RoundRect,0.250000X-0.550000X-0.550000X0.550000X-0.550000X0.550000X0.550000X-0.550000X0.550000X0*%
%TD*%
%TA.AperFunction,ComponentPad*%
%ADD31RoundRect,0.250000X-0.950000X-0.550000X0.950000X-0.550000X0.950000X0.550000X-0.950000X0.550000X0*%
%TD*%
%TA.AperFunction,ComponentPad*%
%ADD32C,1.000000*%
%TD*%
%TA.AperFunction,ComponentPad*%
%ADD33RoundRect,0.250000X0.550000X-0.550000X0.550000X0.550000X-0.550000X0.550000X-0.550000X-0.550000X0*%
%TD*%
%TA.AperFunction,ComponentPad*%
%ADD34R,1.600000X1.600000*%
%TD*%
%TA.AperFunction,ComponentPad*%
%ADD35RoundRect,0.250000X0.600000X-0.600000X0.600000X0.600000X-0.600000X0.600000X-0.600000X-0.600000X0*%
%TD*%
%TA.AperFunction,ComponentPad*%
%ADD36C,1.500000*%
%TD*%
%TA.AperFunction,ViaPad*%
%ADD37C,0.600000*%
%TD*%
%TA.AperFunction,Conductor*%
%ADD38C,0.500000*%
%TD*%
%TA.AperFunction,Conductor*%
%ADD39C,1.000000*%
%TD*%
%TA.AperFunction,Conductor*%
%ADD40C,0.250000*%
%TD*%
%TA.AperFunction,Conductor*%
%ADD41C,0.400000*%
%TD*%
%TA.AperFunction,Conductor*%
%ADD42C,0.800000*%
%TD*%
%TA.AperFunction,Conductor*%
%ADD43C,0.300000*%
%TD*%
G04 APERTURE END LIST*
D10*
%TO.P,JP5,1,A*%
%TO.N,Net-(D6-K)*%
X180662600Y-80467200D03*
%TO.P,JP5,2,B*%
%TO.N,Net-(JP5-B)*%
X180662600Y-83007200D03*
%TD*%
D11*
%TO.P,C3,1*%
%TO.N,GND*%
X201157200Y-97028000D03*
%TO.P,C3,2*%
%TO.N,Net-(U1-THR)*%
X206157200Y-97028000D03*
%TD*%
D12*
%TO.P,D8,1,K*%
%TO.N,Net-(D8-K)*%
X217652600Y-90805000D03*
D11*
%TO.P,D8,2,A*%
%TO.N,Net-(D8-A)*%
X217652600Y-100965000D03*
%TD*%
D13*
%TO.P,SW1,1,1*%
%TO.N,GND*%
X212444400Y-120563200D03*
X205944400Y-120563200D03*
%TO.P,SW1,2,2*%
%TO.N,BTN1*%
X212444400Y-116063200D03*
X205944400Y-116063200D03*
%TD*%
D14*
%TO.P,LS1,1,1*%
%TO.N,LS1*%
X247040400Y-103804400D03*
D13*
%TO.P,LS1,2,2*%
%TO.N,GND*%
X247040400Y-111404400D03*
%TD*%
D15*
%TO.P,U8,1,VPP*%
%TO.N,Net-(JP2-C)*%
X81280000Y-153321000D03*
D16*
%TO.P,U8,2,A12*%
%TO.N,/CPU/A14*%
X83820000Y-153321000D03*
%TO.P,U8,3,A7*%
%TO.N,/CPU/A7*%
X86360000Y-153321000D03*
%TO.P,U8,4,A6*%
%TO.N,/CPU/A6*%
X88900000Y-153321000D03*
%TO.P,U8,5,A5*%
%TO.N,/CPU/A5*%
X91440000Y-153321000D03*
%TO.P,U8,6,A4*%
%TO.N,/CPU/A4*%
X93980000Y-153321000D03*
%TO.P,U8,7,A3*%
%TO.N,/CPU/A3*%
X96520000Y-153321000D03*
%TO.P,U8,8,A2*%
%TO.N,/CPU/A2*%
X99060000Y-153321000D03*
%TO.P,U8,9,A1*%
%TO.N,/CPU/A1*%
X101600000Y-153321000D03*
%TO.P,U8,10,A0*%
%TO.N,/CPU/A0*%
X104140000Y-153321000D03*
%TO.P,U8,11,Q0*%
%TO.N,/CPU/DB0*%
X106680000Y-153321000D03*
%TO.P,U8,12,Q1*%
%TO.N,/CPU/DB1*%
X109220000Y-153321000D03*
%TO.P,U8,13,Q2*%
%TO.N,/CPU/DB2*%
X111760000Y-153321000D03*
%TO.P,U8,14,GND*%
%TO.N,GND*%
X114300000Y-153321000D03*
%TO.P,U8,15,Q3*%
%TO.N,/CPU/DB3*%
X114300000Y-138081000D03*
%TO.P,U8,16,Q4*%
%TO.N,/CPU/DB4*%
X111760000Y-138081000D03*
%TO.P,U8,17,Q5*%
%TO.N,/CPU/DB5*%
X109220000Y-138081000D03*
%TO.P,U8,18,Q6*%
%TO.N,/CPU/DB6*%
X106680000Y-138081000D03*
%TO.P,U8,19,Q7*%
%TO.N,/CPU/DB7*%
X104140000Y-138081000D03*
%TO.P,U8,20,~{CE}*%
%TO.N,/CPU/A15*%
X101600000Y-138081000D03*
%TO.P,U8,21,A10*%
%TO.N,/CPU/A10*%
X99060000Y-138081000D03*
%TO.P,U8,22,~{OE}*%
%TO.N,~{MEMR}*%
X96520000Y-138081000D03*
%TO.P,U8,23,A11*%
%TO.N,/CPU/A11*%
X93980000Y-138081000D03*
%TO.P,U8,24,A9*%
%TO.N,/CPU/A9*%
X91440000Y-138081000D03*
%TO.P,U8,25,A8*%
%TO.N,/CPU/A8*%
X88900000Y-138081000D03*
%TO.P,U8,26,A13*%
%TO.N,/CPU/A13*%
X86360000Y-138081000D03*
%TO.P,U8,27,A14*%
%TO.N,Net-(JP1-C)*%
X83820000Y-138081000D03*
%TO.P,U8,28,VCC*%
%TO.N,+5MAIN*%
X81280000Y-138081000D03*
%TD*%
D17*
%TO.P,Q1,1,G*%
%TO.N,Net-(Q1-G)*%
X167843200Y-98567600D03*
D18*
%TO.P,Q1,2,D*%
%TO.N,+12MAIN*%
X165303200Y-98567600D03*
%TO.P,Q1,3,S*%
%TO.N,+12V*%
X162763200Y-98567600D03*
%TD*%
D13*
%TO.P,SW2,1,1*%
%TO.N,GND*%
X201269000Y-120563200D03*
X194769000Y-120563200D03*
%TO.P,SW2,2,2*%
%TO.N,BTN2*%
X201269000Y-116063200D03*
X194769000Y-116063200D03*
%TD*%
D11*
%TO.P,C25,1*%
%TO.N,GND*%
X217728800Y-82107400D03*
%TO.P,C25,2*%
%TO.N,Net-(D8-K)*%
X217728800Y-87107400D03*
%TD*%
%TO.P,R12,1*%
%TO.N,Net-(C17-Pad1)*%
X96012000Y-122656600D03*
%TO.P,R12,2*%
%TO.N,Net-(U3-COMP)*%
X96012000Y-112496600D03*
%TD*%
D19*
%TO.P,SCR1,*%
%TO.N,*%
X217478000Y-134395000D03*
X217478000Y-182655000D03*
X220018000Y-182655000D03*
X235258000Y-134395000D03*
X240338000Y-134395000D03*
X247958000Y-134395000D03*
X254558000Y-182655000D03*
X257098000Y-182655000D03*
%TO.P,SCR1,1,5V*%
%TO.N,+5MAIN*%
X242878000Y-134395000D03*
%TO.P,SCR1,2,3V3*%
%TO.N,unconnected-(SCR1-3V3-Pad2)*%
X245418000Y-134395000D03*
%TO.P,SCR1,3,GND*%
%TO.N,GND*%
X237798000Y-134395000D03*
%TO.P,SCR1,4,LCD_D0*%
%TO.N,/CPU/DB0*%
X239318000Y-182655000D03*
%TO.P,SCR1,5,LCD_D1*%
%TO.N,/CPU/DB1*%
X241858000Y-182655000D03*
%TO.P,SCR1,6,LCD_D2*%
%TO.N,/CPU/DB2*%
X222558000Y-182655000D03*
%TO.P,SCR1,7,LCD_D3*%
%TO.N,/CPU/DB3*%
X225098000Y-182655000D03*
%TO.P,SCR1,8,LCD_D4*%
%TO.N,/CPU/DB4*%
X227638000Y-182655000D03*
%TO.P,SCR1,9,LCD_D5*%
%TO.N,/CPU/DB5*%
X230178000Y-182655000D03*
%TO.P,SCR1,10,LCD_D6*%
%TO.N,/CPU/DB6*%
X232718000Y-182655000D03*
%TO.P,SCR1,11,LCD_D7*%
%TO.N,/CPU/DB7*%
X235258000Y-182655000D03*
%TO.P,SCR1,12,LCD_RST*%
%TO.N,~{RESET}*%
X220018000Y-134395000D03*
%TO.P,SCR1,13,LCD_CS*%
%TO.N,~{A4}*%
X222558000Y-134395000D03*
%TO.P,SCR1,14,LCD_RS*%
%TO.N,/CPU/A0*%
X225098000Y-134395000D03*
%TO.P,SCR1,15,LCD_WR*%
%TO.N,~{IOW}*%
X227638000Y-134395000D03*
%TO.P,SCR1,16,LCD_RD*%
%TO.N,~{IOR}*%
X230178000Y-134395000D03*
%TO.P,SCR1,17,SD_SS*%
%TO.N,unconnected-(SCR1-SD_SS-Pad17)*%
X244398000Y-182655000D03*
%TO.P,SCR1,18,SD_DI*%
%TO.N,unconnected-(SCR1-SD_DI-Pad18)*%
X246938000Y-182655000D03*
%TO.P,SCR1,19,SD_DO*%
%TO.N,unconnected-(SCR1-SD_DO-Pad19)*%
X249478000Y-182655000D03*
%TO.P,SCR1,20,SD_SCK*%
%TO.N,unconnected-(SCR1-SD_SCK-Pad20)*%
X252018000Y-182655000D03*
%TD*%
D11*
%TO.P,C4,1*%
%TO.N,GND*%
X198283200Y-97053400D03*
%TO.P,C4,2*%
%TO.N,Net-(U1-CVOLT)*%
X193283200Y-97053400D03*
%TD*%
%TO.P,R16,1*%
%TO.N,Net-(JP4-B)*%
X171742600Y-79756000D03*
%TO.P,R16,2*%
%TO.N,+12MAIN*%
X171742600Y-89916000D03*
%TD*%
%TO.P,R11,1*%
%TO.N,Net-(U3-RT{slash}CLK)*%
X99901022Y-112496600D03*
%TO.P,R11,2*%
%TO.N,GND*%
X99901022Y-122656600D03*
%TD*%
%TO.P,R14,1*%
%TO.N,Net-(Q1-G)*%
X131013200Y-122656600D03*
%TO.P,R14,2*%
%TO.N,+12V*%
X131013200Y-112496600D03*
%TD*%
D20*
%TO.P,D6,1,K*%
%TO.N,Net-(D6-K)*%
X184002600Y-75184000D03*
D21*
%TO.P,D6,2,A*%
%TO.N,GND*%
X181462600Y-75184000D03*
%TD*%
D11*
%TO.P,R6,1*%
%TO.N,Net-(U3-PWRGD)*%
X123235156Y-112496600D03*
%TO.P,R6,2*%
%TO.N,Net-(Q3-\u0411)*%
X123235156Y-122656600D03*
%TD*%
%TO.P,R7,1*%
%TO.N,Net-(R7-Pad1)*%
X107679067Y-122656600D03*
%TO.P,R7,2*%
%TO.N,Net-(U3-VSENSE)*%
X107679067Y-112496600D03*
%TD*%
D10*
%TO.P,JP3,1,A*%
%TO.N,Net-(D4-A)*%
X155262600Y-80467200D03*
%TO.P,JP3,2,B*%
%TO.N,Net-(JP3-B)*%
X155262600Y-83007200D03*
%TD*%
D22*
%TO.P,U1,1,GND*%
%TO.N,GND*%
X203606400Y-108446000D03*
D23*
%TO.P,U1,2,TRIG*%
%TO.N,Net-(U1-THR)*%
X203606400Y-105906000D03*
%TO.P,U1,3,OUT*%
%TO.N,Net-(U1-OUT)*%
X203606400Y-103366000D03*
%TO.P,U1,4,RST*%
%TO.N,+12V*%
X203606400Y-100826000D03*
%TO.P,U1,5,CVOLT*%
%TO.N,Net-(U1-CVOLT)*%
X195986400Y-100826000D03*
%TO.P,U1,6,THR*%
%TO.N,Net-(U1-THR)*%
X195986400Y-103366000D03*
%TO.P,U1,7,DISC*%
%TO.N,Net-(U1-DISC)*%
X195986400Y-105906000D03*
%TO.P,U1,8,VCC*%
%TO.N,+12V*%
X195986400Y-108446000D03*
%TD*%
D11*
%TO.P,R13,1*%
%TO.N,Net-(Q3-\u041A)*%
X153988667Y-108527600D03*
%TO.P,R13,2*%
%TO.N,Net-(Q2-G)*%
X153988667Y-98367600D03*
%TD*%
D15*
%TO.P,U6,1,~{STSTB}*%
%TO.N,Net-(U5-~{STSTB})*%
X81280000Y-178379000D03*
D16*
%TO.P,U6,2,HLDA*%
%TO.N,HLDA*%
X83820000Y-178379000D03*
%TO.P,U6,3,~{WR}*%
%TO.N,~{WR}*%
X86360000Y-178379000D03*
%TO.P,U6,4,DBIN*%
%TO.N,DBIN*%
X88900000Y-178379000D03*
%TO.P,U6,5,DB4*%
%TO.N,/CPU/DB4*%
X91440000Y-178379000D03*
%TO.P,U6,6,D4*%
%TO.N,/CPU/D4*%
X93980000Y-178379000D03*
%TO.P,U6,7,DB7*%
%TO.N,/CPU/DB7*%
X96520000Y-178379000D03*
%TO.P,U6,8,D7*%
%TO.N,/CPU/D7*%
X99060000Y-178379000D03*
%TO.P,U6,9,DB3*%
%TO.N,/CPU/DB3*%
X101600000Y-178379000D03*
%TO.P,U6,10,D3*%
%TO.N,/CPU/D3*%
X104140000Y-178379000D03*
%TO.P,U6,11,DB2*%
%TO.N,/CPU/DB2*%
X106680000Y-178379000D03*
%TO.P,U6,12,D2*%
%TO.N,/CPU/D2*%
X109220000Y-178379000D03*
%TO.P,U6,13,DB0*%
%TO.N,/CPU/DB0*%
X111760000Y-178379000D03*
%TO.P,U6,14,GND*%
%TO.N,GND*%
X114300000Y-178379000D03*
%TO.P,U6,15,D0*%
%TO.N,/CPU/D0*%
X114300000Y-163139000D03*
%TO.P,U6,16,DB1*%
%TO.N,/CPU/DB1*%
X111760000Y-163139000D03*
%TO.P,U6,17,D1*%
%TO.N,/CPU/D1*%
X109220000Y-163139000D03*
%TO.P,U6,18,DB5*%
%TO.N,/CPU/DB5*%
X106680000Y-163139000D03*
%TO.P,U6,19,D5*%
%TO.N,/CPU/D5*%
X104140000Y-163139000D03*
%TO.P,U6,20,DB6*%
%TO.N,/CPU/DB6*%
X101600000Y-163139000D03*
%TO.P,U6,21,D6*%
%TO.N,/CPU/D6*%
X99060000Y-163139000D03*
%TO.P,U6,22,~{BUSEN}*%
%TO.N,GND*%
X96520000Y-163139000D03*
%TO.P,U6,23,~{INTA}*%
%TO.N,unconnected-(U6-~{INTA}-Pad23)*%
X93980000Y-163139000D03*
%TO.P,U6,24,~{MEMR}*%
%TO.N,~{MEMR}*%
X91440000Y-163139000D03*
%TO.P,U6,25,~{I/OR}*%
%TO.N,~{IOR}*%
X88900000Y-163139000D03*
%TO.P,U6,26,~{MEMW}*%
%TO.N,~{MEMW}*%
X86360000Y-163139000D03*
%TO.P,U6,27,~{I/OW}*%
%TO.N,~{IOW}*%
X83820000Y-163139000D03*
%TO.P,U6,28,VCC*%
%TO.N,+5MAIN*%
X81280000Y-163139000D03*
%TD*%
D24*
%TO.P,C1,1*%
%TO.N,+12V*%
X103378000Y-84480400D03*
D11*
%TO.P,C1,2*%
%TO.N,GND*%
X98378000Y-84480400D03*
%TD*%
D17*
%TO.P,Q2,1,G*%
%TO.N,Net-(Q2-G)*%
X148996400Y-98567600D03*
D18*
%TO.P,Q2,2,D*%
%TO.N,+5MAIN*%
X146456400Y-98567600D03*
%TO.P,Q2,3,S*%
%TO.N,+5V*%
X143916400Y-98567600D03*
%TD*%
D11*
%TO.P,R2,1*%
%TO.N,Net-(U1-DISC)*%
X191176600Y-100296000D03*
%TO.P,R2,2*%
%TO.N,Net-(U1-THR)*%
X191176600Y-110456000D03*
%TD*%
D25*
%TO.P,J1,1,1*%
%TO.N,+12V*%
X91287600Y-81493600D03*
D26*
%TO.P,J1,2,2*%
%TO.N,GND*%
X84987600Y-81493600D03*
D27*
%TO.P,J1,3,3*%
X88387600Y-86293600D03*
%TD*%
D11*
%TO.P,R3,1*%
%TO.N,+5V*%
X119346133Y-112496600D03*
%TO.P,R3,2*%
%TO.N,Net-(R3-Pad2)*%
X119346133Y-122656600D03*
%TD*%
D14*
%TO.P,J2,1,+*%
%TO.N,Net-(D8-A)*%
X228295200Y-99835745D03*
D13*
%TO.P,J2,2,-*%
%TO.N,GND*%
X228295200Y-120635745D03*
%TD*%
D11*
%TO.P,R9,1*%
%TO.N,Net-(R7-Pad1)*%
X103790044Y-122656600D03*
%TO.P,R9,2*%
%TO.N,GND*%
X103790044Y-112496600D03*
%TD*%
D28*
%TO.P,J9,1,Pin_1*%
%TO.N,+5MAIN*%
X255828800Y-118304300D03*
D29*
%TO.P,J9,2,Pin_2*%
%TO.N,GND*%
X258368800Y-118304300D03*
%TO.P,J9,3,Pin_3*%
%TO.N,SCL*%
X260908800Y-118304300D03*
%TO.P,J9,4,Pin_4*%
%TO.N,SDA*%
X263448800Y-118304300D03*
%TD*%
D11*
%TO.P,C26,1*%
%TO.N,Net-(U11-OSCI)*%
X238861600Y-87107400D03*
%TO.P,C26,2*%
%TO.N,GND*%
X238861600Y-82107400D03*
%TD*%
%TO.P,C7,1*%
%TO.N,Net-(U3-BOOT)*%
X85993600Y-94284800D03*
%TO.P,C7,2*%
%TO.N,Net-(D3-K)*%
X90993600Y-94284800D03*
%TD*%
D30*
%TO.P,C2,1*%
%TO.N,Net-(U1-OUT)*%
X208472400Y-103327200D03*
D11*
%TO.P,C2,2*%
%TO.N,Net-(D1-K)*%
X210972400Y-103327200D03*
%TD*%
D31*
%TO.P,U5,1,RST*%
%TO.N,RESET*%
X175006000Y-138131000D03*
D23*
%TO.P,U5,2,~{RESIN}*%
%TO.N,~{RESIN}*%
X175006000Y-140671000D03*
%TO.P,U5,3,RDYIN*%
%TO.N,+5MAIN*%
X175006000Y-143211000D03*
%TO.P,U5,4,RDY*%
%TO.N,RDY*%
X175006000Y-145751000D03*
%TO.P,U5,5,SYNC*%
%TO.N,SYNC*%
X175006000Y-148291000D03*
%TO.P,U5,6,PHI2(TTL)*%
%TO.N,unconnected-(U5-PHI2(TTL)-Pad6)*%
X175006000Y-150831000D03*
%TO.P,U5,7,~{STSTB}*%
%TO.N,Net-(U5-~{STSTB})*%
X175006000Y-153371000D03*
%TO.P,U5,8,GND*%
%TO.N,GND*%
X175006000Y-155911000D03*
%TO.P,U5,9,VDD*%
%TO.N,+12MAIN*%
X182626000Y-155911000D03*
%TO.P,U5,10,PHI2*%
%TO.N,PHI2*%
X182626000Y-153371000D03*
%TO.P,U5,11,PHI1*%
%TO.N,PHI1*%
X182626000Y-150831000D03*
%TO.P,U5,12,OSC*%
%TO.N,unconnected-(U5-OSC-Pad12)*%
X182626000Y-148291000D03*
%TO.P,U5,13,TANK*%
%TO.N,unconnected-(U5-TANK-Pad13)*%
X182626000Y-145751000D03*
%TO.P,U5,14,XTAL2*%
%TO.N,Net-(U5-XTAL2)*%
X182626000Y-143211000D03*
%TO.P,U5,15,XTAL1*%
%TO.N,Net-(U5-XTAL1)*%
X182626000Y-140671000D03*
%TO.P,U5,16,VCC*%
%TO.N,+5MAIN*%
X182626000Y-138131000D03*
%TD*%
D15*
%TO.P,U10,1,PA3*%
%TO.N,55_D3*%
X121400000Y-153321000D03*
D16*
%TO.P,U10,2,PA2*%
%TO.N,55_D2*%
X123940000Y-153321000D03*
%TO.P,U10,3,PA1*%
%TO.N,55_D1*%
X126480000Y-153321000D03*
%TO.P,U10,4,PA0*%
%TO.N,55_D0*%
X129020000Y-153321000D03*
%TO.P,U10,5,~{RD}*%
%TO.N,~{IOR}*%
X131560000Y-153321000D03*
%TO.P,U10,6,~{CS}*%
%TO.N,/CPU/A4*%
X134100000Y-153321000D03*
%TO.P,U10,7,GND*%
%TO.N,GND*%
X136640000Y-153321000D03*
%TO.P,U10,8,A1*%
%TO.N,/CPU/A1*%
X139180000Y-153321000D03*
%TO.P,U10,9,A0*%
%TO.N,/CPU/A0*%
X141720000Y-153321000D03*
%TO.P,U10,10,PC7*%
%TO.N,unconnected-(U10-PC7-Pad10)*%
X144260000Y-153321000D03*
%TO.P,U10,11,PC6*%
%TO.N,unconnected-(U10-PC6-Pad11)*%
X146800000Y-153321000D03*
%TO.P,U10,12,PC5*%
%TO.N,UNKWN*%
X149340000Y-153321000D03*
%TO.P,U10,13,PC4*%
%TO.N,SCL*%
X151880000Y-153321000D03*
%TO.P,U10,14,PC0*%
%TO.N,SDA*%
X154420000Y-153321000D03*
%TO.P,U10,15,PC1*%
%TO.N,BTN1*%
X156960000Y-153321000D03*
%TO.P,U10,16,PC2*%
%TO.N,BTN2*%
X159500000Y-153321000D03*
%TO.P,U10,17,PC3*%
%TO.N,BTN3*%
X162040000Y-153321000D03*
%TO.P,U10,18,PB0*%
%TO.N,1WIRE*%
X164580000Y-153321000D03*
%TO.P,U10,19,PB1*%
%TO.N,unconnected-(U10-PB1-Pad19)*%
X167120000Y-153321000D03*
%TO.P,U10,20,PB2*%
%TO.N,unconnected-(U10-PB2-Pad20)*%
X169660000Y-153321000D03*
%TO.P,U10,21,PB3*%
%TO.N,unconnected-(U10-PB3-Pad21)*%
X169660000Y-138081000D03*
%TO.P,U10,22,PB4*%
%TO.N,unconnected-(U10-PB4-Pad22)*%
X167120000Y-138081000D03*
%TO.P,U10,23,PB5*%
%TO.N,unconnected-(U10-PB5-Pad23)*%
X164580000Y-138081000D03*
%TO.P,U10,24,PB6*%
%TO.N,unconnected-(U10-PB6-Pad24)*%
X162040000Y-138081000D03*
%TO.P,U10,25,PB7*%
%TO.N,unconnected-(U10-PB7-Pad25)*%
X159500000Y-138081000D03*
%TO.P,U10,26,VCC*%
%TO.N,+5MAIN*%
X156960000Y-138081000D03*
%TO.P,U10,27,D7*%
%TO.N,/CPU/DB7*%
X154420000Y-138081000D03*
%TO.P,U10,28,D6*%
%TO.N,/CPU/DB6*%
X151880000Y-138081000D03*
%TO.P,U10,29,D5*%
%TO.N,/CPU/DB5*%
X149340000Y-138081000D03*
%TO.P,U10,30,D4*%
%TO.N,/CPU/DB4*%
X146800000Y-138081000D03*
%TO.P,U10,31,D3*%
%TO.N,/CPU/DB3*%
X144260000Y-138081000D03*
%TO.P,U10,32,D2*%
%TO.N,/CPU/DB2*%
X141720000Y-138081000D03*
%TO.P,U10,33,D1*%
%TO.N,/CPU/DB1*%
X139180000Y-138081000D03*
%TO.P,U10,34,D0*%
%TO.N,/CPU/DB0*%
X136640000Y-138081000D03*
%TO.P,U10,35,RESET*%
%TO.N,RESET*%
X134100000Y-138081000D03*
%TO.P,U10,36,~{WR}*%
%TO.N,~{IOW}*%
X131560000Y-138081000D03*
%TO.P,U10,37,PA7*%
%TO.N,55_D7*%
X129020000Y-138081000D03*
%TO.P,U10,38,PA6*%
%TO.N,55_D6*%
X126480000Y-138081000D03*
%TO.P,U10,39,PA5*%
%TO.N,55_D5*%
X123940000Y-138081000D03*
%TO.P,U10,40,PA4*%
%TO.N,55_D4*%
X121400000Y-138081000D03*
%TD*%
D11*
%TO.P,C13,1*%
%TO.N,Net-(U3-COMP)*%
X91004400Y-90175000D03*
%TO.P,C13,2*%
%TO.N,GND*%
X86004400Y-90175000D03*
%TD*%
%TO.P,C16,1*%
%TO.N,Net-(U3-SS{slash}TR)*%
X83094200Y-104140000D03*
%TO.P,C16,2*%
%TO.N,GND*%
X78094200Y-104140000D03*
%TD*%
D20*
%TO.P,D5,1,K*%
%TO.N,GND*%
X171302600Y-75184000D03*
D21*
%TO.P,D5,2,A*%
%TO.N,Net-(D5-A)*%
X168762600Y-75184000D03*
%TD*%
D13*
%TO.P,SW4,1,1*%
%TO.N,~{RESIN}*%
X243944000Y-116063200D03*
X250444000Y-116063200D03*
%TO.P,SW4,2,2*%
%TO.N,GND*%
X243944000Y-120563200D03*
X250444000Y-120563200D03*
%TD*%
D11*
%TO.P,R15,1*%
%TO.N,Net-(JP3-B)*%
X159042600Y-79756000D03*
%TO.P,R15,2*%
%TO.N,+5MAIN*%
X159042600Y-89916000D03*
%TD*%
D24*
%TO.P,C5,1*%
%TO.N,GND*%
X110989808Y-76301600D03*
D11*
%TO.P,C5,2*%
%TO.N,Net-(D1-A)*%
X108489808Y-76301600D03*
%TD*%
%TO.P,R4,1*%
%TO.N,Net-(R3-Pad2)*%
X115457111Y-122656600D03*
%TO.P,R4,2*%
%TO.N,+5V*%
X115457111Y-112496600D03*
%TD*%
D17*
%TO.P,U2,1,GND*%
%TO.N,GND*%
X131013200Y-82667200D03*
D18*
%TO.P,U2,2,IN*%
%TO.N,Net-(D1-A)*%
X128473200Y-82667200D03*
%TO.P,U2,3,OUT*%
%TO.N,-5V*%
X125933200Y-82667200D03*
%TD*%
D24*
%TO.P,D2,1,K*%
%TO.N,GND*%
X141071600Y-76301600D03*
D11*
%TO.P,D2,2,A*%
%TO.N,Net-(D1-K)*%
X130911600Y-76301600D03*
%TD*%
%TO.P,R1,1*%
%TO.N,+12V*%
X186385200Y-110456000D03*
%TO.P,R1,2*%
%TO.N,Net-(U1-DISC)*%
X186385200Y-100296000D03*
%TD*%
D10*
%TO.P,JP4,1,A*%
%TO.N,Net-(D5-A)*%
X167962600Y-80467200D03*
%TO.P,JP4,2,B*%
%TO.N,Net-(JP4-B)*%
X167962600Y-83007200D03*
%TD*%
D24*
%TO.P,D1,1,K*%
%TO.N,Net-(D1-K)*%
X126300591Y-76301600D03*
D11*
%TO.P,D1,2,A*%
%TO.N,Net-(D1-A)*%
X116140591Y-76301600D03*
%TD*%
D22*
%TO.P,U11,1,OSCI*%
%TO.N,Net-(U11-OSCI)*%
X232105200Y-91846400D03*
D23*
%TO.P,U11,2,OSCO*%
%TO.N,Net-(U11-OSCO)*%
X232105200Y-89306400D03*
%TO.P,U11,3,~{INT}*%
%TO.N,unconnected-(U11-~{INT}-Pad3)*%
X232105200Y-86766400D03*
%TO.P,U11,4,Vss*%
%TO.N,GND*%
X232105200Y-84226400D03*
%TO.P,U11,5,SDA*%
%TO.N,SDA*%
X224485200Y-84226400D03*
%TO.P,U11,6,SCL*%
%TO.N,SCL*%
X224485200Y-86766400D03*
%TO.P,U11,7,CLKOUT*%
%TO.N,unconnected-(U11-CLKOUT-Pad7)*%
X224485200Y-89306400D03*
%TO.P,U11,8,Vdd*%
%TO.N,Net-(D8-K)*%
X224485200Y-91846400D03*
%TD*%
D24*
%TO.P,C8,1*%
%TO.N,+5V*%
X112725200Y-104038400D03*
D11*
%TO.P,C8,2*%
%TO.N,GND*%
X109225200Y-104038400D03*
%TD*%
%TO.P,R8,1*%
%TO.N,Net-(Q3-\u0411)*%
X127124178Y-122656600D03*
%TO.P,R8,2*%
%TO.N,+12V*%
X127124178Y-112496600D03*
%TD*%
D32*
%TO.P,Y2,1,OSC1*%
%TO.N,Net-(U11-OSCO)*%
X234645200Y-89306400D03*
%TO.P,Y2,2,OSC2*%
%TO.N,Net-(U11-OSCI)*%
X236345200Y-89306400D03*
%TD*%
D11*
%TO.P,R17,1*%
%TO.N,Net-(JP5-B)*%
X184442600Y-79756000D03*
%TO.P,R17,2*%
%TO.N,-5V*%
X184442600Y-89916000D03*
%TD*%
%TO.P,C17,1*%
%TO.N,Net-(C17-Pad1)*%
X83094200Y-108305600D03*
%TO.P,C17,2*%
%TO.N,GND*%
X78094200Y-108305600D03*
%TD*%
D15*
%TO.P,U12,1,A10*%
%TO.N,/CPU/A10*%
X121400000Y-178379000D03*
D16*
%TO.P,U12,2,GND*%
%TO.N,GND*%
X123940000Y-178379000D03*
%TO.P,U12,3,D4*%
%TO.N,/CPU/D4*%
X126480000Y-178379000D03*
%TO.P,U12,4,D5*%
%TO.N,/CPU/D5*%
X129020000Y-178379000D03*
%TO.P,U12,5,D6*%
%TO.N,/CPU/D6*%
X131560000Y-178379000D03*
%TO.P,U12,6,D7*%
%TO.N,/CPU/D7*%
X134100000Y-178379000D03*
%TO.P,U12,7,D3*%
%TO.N,/CPU/D3*%
X136640000Y-178379000D03*
%TO.P,U12,8,D2*%
%TO.N,/CPU/D2*%
X139180000Y-178379000D03*
%TO.P,U12,9,D1*%
%TO.N,/CPU/D1*%
X141720000Y-178379000D03*
%TO.P,U12,10,D0*%
%TO.N,/CPU/D0*%
X144260000Y-178379000D03*
%TO.P,U12,11,-5V*%
%TO.N,-5V*%
X146800000Y-178379000D03*
%TO.P,U12,12,RESET*%
%TO.N,RESET*%
X149340000Y-178379000D03*
%TO.P,U12,13,HOLD*%
%TO.N,GND*%
X151880000Y-178379000D03*
%TO.P,U12,14,INT*%
X154420000Y-178379000D03*
%TO.P,U12,15,F2*%
%TO.N,PHI2*%
X156960000Y-178379000D03*
%TO.P,U12,16,INTE*%
%TO.N,INTE*%
X159500000Y-178379000D03*
%TO.P,U12,17,DBIN*%
%TO.N,DBIN*%
X162040000Y-178379000D03*
%TO.P,U12,18,WR*%
%TO.N,~{WR}*%
X164580000Y-178379000D03*
%TO.P,U12,19,SYNC*%
%TO.N,SYNC*%
X167120000Y-178379000D03*
%TO.P,U12,20,+5V*%
%TO.N,+5MAIN*%
X169660000Y-178379000D03*
%TO.P,U12,21,HLDA*%
%TO.N,HLDA*%
X169660000Y-163139000D03*
%TO.P,U12,22,F1*%
%TO.N,PHI1*%
X167120000Y-163139000D03*
%TO.P,U12,23,READY*%
%TO.N,RDY*%
X164580000Y-163139000D03*
%TO.P,U12,24,WAIT*%
%TO.N,unconnected-(U12-WAIT-Pad24)*%
X162040000Y-163139000D03*
%TO.P,U12,25,A0*%
%TO.N,/CPU/A0*%
X159500000Y-163139000D03*
%TO.P,U12,26,A1*%
%TO.N,/CPU/A1*%
X156960000Y-163139000D03*
%TO.P,U12,27,A2*%
%TO.N,/CPU/A2*%
X154420000Y-163139000D03*
%TO.P,U12,28,+12V*%
%TO.N,+12MAIN*%
X151880000Y-163139000D03*
%TO.P,U12,29,A3*%
%TO.N,/CPU/A3*%
X149340000Y-163139000D03*
%TO.P,U12,30,A4*%
%TO.N,/CPU/A4*%
X146800000Y-163139000D03*
%TO.P,U12,31,A5*%
%TO.N,/CPU/A5*%
X144260000Y-163139000D03*
%TO.P,U12,32,A6*%
%TO.N,/CPU/A6*%
X141720000Y-163139000D03*
%TO.P,U12,33,A7*%
%TO.N,/CPU/A7*%
X139180000Y-163139000D03*
%TO.P,U12,34,A8*%
%TO.N,/CPU/A8*%
X136640000Y-163139000D03*
%TO.P,U12,35,A9*%
%TO.N,/CPU/A9*%
X134100000Y-163139000D03*
%TO.P,U12,36,A15*%
%TO.N,/CPU/A15*%
X131560000Y-163139000D03*
%TO.P,U12,37,A12*%
%TO.N,/CPU/A12*%
X129020000Y-163139000D03*
%TO.P,U12,38,A13*%
%TO.N,/CPU/A13*%
X126480000Y-163139000D03*
%TO.P,U12,39,A14*%
%TO.N,/CPU/A14*%
X123940000Y-163139000D03*
%TO.P,U12,40,A11*%
%TO.N,/CPU/A11*%
X121400000Y-163139000D03*
%TD*%
D20*
%TO.P,Q3,1,\u042D*%
%TO.N,GND*%
X110845600Y-90402400D03*
D21*
%TO.P,Q3,2,\u041A*%
%TO.N,Net-(Q3-\u041A)*%
X110845600Y-92902400D03*
%TO.P,Q3,3,\u0411*%
%TO.N,Net-(Q3-\u0411)*%
X110845600Y-95402400D03*
%TD*%
D11*
%TO.P,R10,1*%
%TO.N,Net-(Q3-\u041A)*%
X157770933Y-108527600D03*
%TO.P,R10,2*%
%TO.N,Net-(Q1-G)*%
X157770933Y-98367600D03*
%TD*%
%TO.P,R5,1*%
%TO.N,Net-(U3-VSENSE)*%
X111568089Y-112496600D03*
%TO.P,R5,2*%
%TO.N,Net-(R3-Pad2)*%
X111568089Y-122656600D03*
%TD*%
D24*
%TO.P,C6,1*%
%TO.N,GND*%
X148632608Y-76301600D03*
D11*
%TO.P,C6,2*%
%TO.N,-5V*%
X146132608Y-76301600D03*
%TD*%
D20*
%TO.P,D4,1,K*%
%TO.N,GND*%
X158602600Y-75184000D03*
D21*
%TO.P,D4,2,A*%
%TO.N,Net-(D4-A)*%
X156062600Y-75184000D03*
%TD*%
D13*
%TO.P,SW3,1,1*%
%TO.N,GND*%
X190093600Y-120563200D03*
X183593600Y-120563200D03*
%TO.P,SW3,2,2*%
%TO.N,BTN3*%
X190093600Y-116063200D03*
X183593600Y-116063200D03*
%TD*%
D15*
%TO.P,U9,1,A*%
%TO.N,/CPU/A15*%
X231648000Y-167513000D03*
D16*
%TO.P,U9,2,Y*%
%TO.N,Net-(U7-~{CE})*%
X234188000Y-167513000D03*
%TO.P,U9,3,A*%
%TO.N,/CPU/A4*%
X236728000Y-167513000D03*
%TO.P,U9,4,Y*%
%TO.N,~{A4}*%
X239268000Y-167513000D03*
%TO.P,U9,5,A*%
%TO.N,INTE*%
X241808000Y-167513000D03*
%TO.P,U9,6,Y*%
%TO.N,Net-(U9C-Y)*%
X244348000Y-167513000D03*
%TO.P,U9,7,GND*%
%TO.N,GND*%
X246888000Y-167513000D03*
%TO.P,U9,8,Y*%
%TO.N,LS1*%
X246888000Y-159893000D03*
%TO.P,U9,9,A*%
%TO.N,Net-(U9C-Y)*%
X244348000Y-159893000D03*
%TO.P,U9,10,Y*%
%TO.N,~{RESET}*%
X241808000Y-159893000D03*
%TO.P,U9,11,A*%
%TO.N,RESET*%
X239268000Y-159893000D03*
%TO.P,U9,12*%
%TO.N,N/C*%
X236728000Y-159893000D03*
%TO.P,U9,13*%
X234188000Y-159893000D03*
%TO.P,U9,14,VCC*%
%TO.N,+5MAIN*%
X231648000Y-159893000D03*
%TD*%
D33*
%TO.P,D9,1,K*%
%TO.N,Net-(D8-K)*%
X238861600Y-100965000D03*
D11*
%TO.P,D9,2,A*%
%TO.N,+5MAIN*%
X238861600Y-90805000D03*
%TD*%
%TO.P,C27,1*%
%TO.N,Net-(Y1-OSC2)*%
X207860000Y-134787000D03*
%TO.P,C27,2*%
%TO.N,Net-(U5-XTAL1)*%
X207860000Y-139787000D03*
%TD*%
%TO.P,R19,1*%
%TO.N,GND*%
X188302000Y-135509000D03*
%TO.P,R19,2*%
%TO.N,Net-(Y1-OSC2)*%
X198462000Y-135509000D03*
%TD*%
D28*
%TO.P,J7,1,Pin_1*%
%TO.N,1WIRE*%
X253474000Y-150241000D03*
D29*
%TO.P,J7,2,Pin_2*%
%TO.N,GND*%
X253474000Y-152781000D03*
%TD*%
D34*
%TO.P,RN1,1,common*%
%TO.N,+5MAIN*%
X169672000Y-149987000D03*
D11*
%TO.P,RN1,2,R1*%
%TO.N,unconnected-(RN1-R1-Pad2)*%
X167132000Y-149987000D03*
%TO.P,RN1,3,R2*%
%TO.N,1WIRE*%
X164592000Y-149987000D03*
%TO.P,RN1,4,R3*%
%TO.N,BTN3*%
X162052000Y-149987000D03*
%TO.P,RN1,5,R4*%
%TO.N,BTN2*%
X159512000Y-149987000D03*
%TO.P,RN1,6,R5*%
%TO.N,BTN1*%
X156972000Y-149987000D03*
%TO.P,RN1,7,R6*%
%TO.N,SDA*%
X154432000Y-149987000D03*
%TO.P,RN1,8,R7*%
%TO.N,SCL*%
X151892000Y-149987000D03*
%TO.P,RN1,9,R8*%
%TO.N,unconnected-(RN1-R8-Pad9)*%
X149352000Y-149987000D03*
%TO.P,RN1,10,R9*%
%TO.N,unconnected-(RN1-R9-Pad10)*%
X146812000Y-149987000D03*
%TD*%
D35*
%TO.P,J6,1,Pin_1*%
%TO.N,-5V*%
X257810000Y-176911000D03*
D29*
%TO.P,J6,2,Pin_2*%
%TO.N,GND*%
X257810000Y-174371000D03*
%TO.P,J6,3,Pin_3*%
%TO.N,+12MAIN*%
X255270000Y-176911000D03*
%TO.P,J6,4,Pin_4*%
%TO.N,GND*%
X255270000Y-174371000D03*
%TO.P,J6,5,Pin_5*%
%TO.N,+5MAIN*%
X252730000Y-176911000D03*
%TO.P,J6,6,Pin_6*%
%TO.N,GND*%
X252730000Y-174371000D03*
%TO.P,J6,7,Pin_7*%
%TO.N,+5MAIN*%
X250190000Y-176911000D03*
%TO.P,J6,8,Pin_8*%
%TO.N,GND*%
X250190000Y-174371000D03*
%TO.P,J6,9,Pin_9*%
%TO.N,+5MAIN*%
X247650000Y-176911000D03*
%TO.P,J6,10,Pin_10*%
%TO.N,SCL*%
X247650000Y-174371000D03*
%TO.P,J6,11,Pin_11*%
%TO.N,LS1*%
X245110000Y-176911000D03*
%TO.P,J6,12,Pin_12*%
%TO.N,SDA*%
X245110000Y-174371000D03*
%TO.P,J6,13,Pin_13*%
%TO.N,BTN1*%
X242570000Y-176911000D03*
%TO.P,J6,14,Pin_14*%
%TO.N,BTN2*%
X242570000Y-174371000D03*
%TO.P,J6,15,Pin_15*%
%TO.N,BTN3*%
X240030000Y-176911000D03*
%TO.P,J6,16,Pin_16*%
%TO.N,~{RESIN}*%
X240030000Y-174371000D03*
%TD*%
D11*
%TO.P,R18,1*%
%TO.N,~{RESIN}*%
X198399400Y-142113000D03*
%TO.P,R18,2*%
%TO.N,+5MAIN*%
X188239400Y-142113000D03*
%TD*%
D36*
%TO.P,Y1,1,OSC1*%
%TO.N,Net-(U5-XTAL2)*%
X202946000Y-139827000D03*
%TO.P,Y1,2,OSC2*%
%TO.N,Net-(Y1-OSC2)*%
X202946000Y-134947000D03*
%TD*%
D15*
%TO.P,U7,1,A14*%
%TO.N,/CPU/A12*%
X224028000Y-176657000D03*
D16*
%TO.P,U7,2,A12*%
%TO.N,/CPU/A14*%
X221488000Y-176657000D03*
%TO.P,U7,3,A7*%
%TO.N,/CPU/A7*%
X218948000Y-176657000D03*
%TO.P,U7,4,A6*%
%TO.N,/CPU/A6*%
X216408000Y-176657000D03*
%TO.P,U7,5,A5*%
%TO.N,/CPU/A5*%
X213868000Y-176657000D03*
%TO.P,U7,6,A4*%
%TO.N,/CPU/A4*%
X211328000Y-176657000D03*
%TO.P,U7,7,A3*%
%TO.N,/CPU/A3*%
X208788000Y-176657000D03*
%TO.P,U7,8,A2*%
%TO.N,/CPU/A2*%
X206248000Y-176657000D03*
%TO.P,U7,9,A1*%
%TO.N,/CPU/A1*%
X203708000Y-176657000D03*
%TO.P,U7,10,A0*%
%TO.N,/CPU/A0*%
X201168000Y-176657000D03*
%TO.P,U7,11,I/O0*%
%TO.N,/CPU/DB0*%
X198628000Y-176657000D03*
%TO.P,U7,12,I/O1*%
%TO.N,/CPU/DB1*%
X196088000Y-176657000D03*
%TO.P,U7,13,I/O2*%
%TO.N,/CPU/DB2*%
X193548000Y-176657000D03*
%TO.P,U7,14,GND*%
%TO.N,GND*%
X191008000Y-176657000D03*
%TO.P,U7,15,I/O3*%
%TO.N,/CPU/DB3*%
X191008000Y-169037000D03*
%TO.P,U7,16,I/O4*%
%TO.N,/CPU/DB4*%
X193548000Y-169037000D03*
%TO.P,U7,17,I/O5*%
%TO.N,/CPU/DB5*%
X196088000Y-169037000D03*
%TO.P,U7,18,I/O6*%
%TO.N,/CPU/DB6*%
X198628000Y-169037000D03*
%TO.P,U7,19,I/O7*%
%TO.N,/CPU/DB7*%
X201168000Y-169037000D03*
%TO.P,U7,20,~{CE}*%
%TO.N,Net-(U7-~{CE})*%
X203708000Y-169037000D03*
%TO.P,U7,21,A10*%
%TO.N,/CPU/A10*%
X206248000Y-169037000D03*
%TO.P,U7,22,~{OE}*%
%TO.N,~{MEMR}*%
X208788000Y-169037000D03*
%TO.P,U7,23,A11*%
%TO.N,/CPU/A11*%
X211328000Y-169037000D03*
%TO.P,U7,24,A9*%
%TO.N,/CPU/A9*%
X213868000Y-169037000D03*
%TO.P,U7,25,A8*%
%TO.N,/CPU/A8*%
X216408000Y-169037000D03*
%TO.P,U7,26,A13*%
%TO.N,/CPU/A13*%
X218948000Y-169037000D03*
%TO.P,U7,27,~{WE}*%
%TO.N,~{MEMW}*%
X221488000Y-169037000D03*
%TO.P,U7,28,VCC*%
%TO.N,+5MAIN*%
X224028000Y-169037000D03*
%TD*%
D35*
%TO.P,J10,1,Pin_1*%
%TO.N,-5V*%
X257810000Y-76809600D03*
D29*
%TO.P,J10,2,Pin_2*%
%TO.N,GND*%
X257810000Y-74269600D03*
%TO.P,J10,3,Pin_3*%
%TO.N,+12MAIN*%
X255270000Y-76809600D03*
%TO.P,J10,4,Pin_4*%
%TO.N,GND*%
X255270000Y-74269600D03*
%TO.P,J10,5,Pin_5*%
%TO.N,+5MAIN*%
X252730000Y-76809600D03*
%TO.P,J10,6,Pin_6*%
%TO.N,GND*%
X252730000Y-74269600D03*
%TO.P,J10,7,Pin_7*%
%TO.N,+5MAIN*%
X250190000Y-76809600D03*
%TO.P,J10,8,Pin_8*%
%TO.N,GND*%
X250190000Y-74269600D03*
%TO.P,J10,9,Pin_9*%
%TO.N,+5MAIN*%
X247650000Y-76809600D03*
%TO.P,J10,10,Pin_10*%
%TO.N,SCL*%
X247650000Y-74269600D03*
%TO.P,J10,11,Pin_11*%
%TO.N,LS1*%
X245110000Y-76809600D03*
%TO.P,J10,12,Pin_12*%
%TO.N,SDA*%
X245110000Y-74269600D03*
%TO.P,J10,13,Pin_13*%
%TO.N,BTN1*%
X242570000Y-76809600D03*
%TO.P,J10,14,Pin_14*%
%TO.N,BTN2*%
X242570000Y-74269600D03*
%TO.P,J10,15,Pin_15*%
%TO.N,BTN3*%
X240030000Y-76809600D03*
%TO.P,J10,16,Pin_16*%
%TO.N,~{RESIN}*%
X240030000Y-74269600D03*
%TD*%
D24*
%TO.P,C9,1*%
%TO.N,~{RESIN}*%
X194310000Y-151765000D03*
D11*
%TO.P,C9,2*%
%TO.N,GND*%
X191810000Y-151765000D03*
%TD*%
D30*
%TO.P,D7,1,K*%
%TO.N,+5MAIN*%
X188214000Y-145161000D03*
D11*
%TO.P,D7,2,A*%
%TO.N,~{RESIN}*%
X198374000Y-145161000D03*
%TD*%
D28*
%TO.P,JP1,1,A*%
%TO.N,GND*%
X84328000Y-143701000D03*
D29*
%TO.P,JP1,2,C*%
%TO.N,Net-(JP1-C)*%
X86868000Y-143701000D03*
%TO.P,JP1,3,B*%
%TO.N,/CPU/A12*%
X89408000Y-143701000D03*
%TD*%
D11*
%TO.P,R20,1*%
%TO.N,GND*%
X188302000Y-138811000D03*
%TO.P,R20,2*%
%TO.N,Net-(U5-XTAL2)*%
X198462000Y-138811000D03*
%TD*%
D28*
%TO.P,J8,1,Pin_1*%
%TO.N,LS1*%
X258064000Y-150241000D03*
D29*
%TO.P,J8,2,Pin_2*%
%TO.N,GND*%
X258064000Y-152781000D03*
%TD*%
D28*
%TO.P,JP2,1,A*%
%TO.N,+5MAIN*%
X84328000Y-147701000D03*
D29*
%TO.P,JP2,2,C*%
%TO.N,Net-(JP2-C)*%
X86868000Y-147701000D03*
%TO.P,JP2,3,B*%
%TO.N,/CPU/A12*%
X89408000Y-147701000D03*
%TD*%
D37*
%TO.N,-5V*%
X186750942Y-175580058D03*
X250698000Y-158623000D03*
X200406000Y-155067000D03*
X167640000Y-181229000D03*
%TO.N,Net-(D3-K)*%
X91033600Y-103225600D03*
%TO.N,GND*%
X176637600Y-114503200D03*
X142576800Y-120091200D03*
X135068400Y-89611200D03*
X171707200Y-108102400D03*
X174231200Y-107137200D03*
X135026400Y-102768400D03*
X153082400Y-115671600D03*
X176367600Y-101447600D03*
X143096400Y-93421200D03*
X168414000Y-123952000D03*
X159133200Y-112014000D03*
X177930800Y-98653600D03*
X176164400Y-111760000D03*
X135636000Y-86715600D03*
X173930800Y-98653600D03*
X120414800Y-86918800D03*
X142096400Y-119176800D03*
X173390800Y-95910400D03*
X151414000Y-123952000D03*
X156562800Y-116586000D03*
X162474400Y-120243600D03*
X180231200Y-107137200D03*
X171390800Y-95910400D03*
X179266000Y-105257600D03*
X177938000Y-96824800D03*
X142096400Y-93421200D03*
X177933600Y-123037600D03*
X156977200Y-121158000D03*
X151333200Y-99466400D03*
X175594000Y-116382800D03*
X176977200Y-121158000D03*
X157933600Y-123037600D03*
X175930800Y-98653600D03*
X137585200Y-92456000D03*
X159933600Y-123037600D03*
X179055600Y-117398800D03*
X159504800Y-118414800D03*
X137543200Y-98196400D03*
X146507200Y-120142000D03*
X175829200Y-102463600D03*
X174750800Y-106222800D03*
X174977200Y-121158000D03*
X179187600Y-109016800D03*
X121529600Y-86918800D03*
X138700000Y-92456000D03*
X159606400Y-114706400D03*
X143283600Y-89763600D03*
X140933600Y-123037600D03*
X171399200Y-93319600D03*
X144576800Y-94335600D03*
X157562800Y-116586000D03*
X172707200Y-108102400D03*
X150977200Y-121158000D03*
X157606400Y-114706400D03*
X144198000Y-95402400D03*
X172164400Y-111760000D03*
X155126000Y-113792000D03*
X179457600Y-122072400D03*
X128974000Y-105308400D03*
X173829200Y-102463600D03*
X135511200Y-98196400D03*
X117980800Y-102057200D03*
X156933600Y-123037600D03*
X179933600Y-123037600D03*
X177164400Y-111760000D03*
X117398800Y-94183200D03*
X137631600Y-88696800D03*
X165414000Y-123952000D03*
X175414000Y-123952000D03*
X118544000Y-101142800D03*
X136017600Y-97231200D03*
X157133200Y-112014000D03*
X156980800Y-119380000D03*
X96520000Y-165989000D03*
X135068400Y-91490800D03*
X153414000Y-123952000D03*
X173536000Y-118313200D03*
X173157200Y-113588800D03*
X167414000Y-123952000D03*
X174887200Y-100533200D03*
X119410400Y-88900000D03*
X138610000Y-100076000D03*
X154082400Y-115671600D03*
X176266000Y-105257600D03*
X151434800Y-120243600D03*
X178266000Y-105257600D03*
X165933600Y-123037600D03*
X140576800Y-92456000D03*
X177266000Y-105257600D03*
X155414000Y-123952000D03*
X158126000Y-113792000D03*
X137580800Y-94437200D03*
X137512800Y-114452400D03*
X155562800Y-116586000D03*
X141620400Y-92456000D03*
X155606400Y-114706400D03*
X153504800Y-118414800D03*
X160223200Y-98450400D03*
X118414800Y-86918800D03*
X172536000Y-118313200D03*
X144977200Y-121158000D03*
X140576800Y-94335600D03*
X174785600Y-104343200D03*
X180938000Y-96824800D03*
X145977200Y-121158000D03*
X178457600Y-122072400D03*
X173187600Y-109016800D03*
X141576800Y-94335600D03*
X134518400Y-100025200D03*
X139556400Y-114452400D03*
X173785600Y-104343200D03*
X171750800Y-106222800D03*
X131072800Y-105308400D03*
X126450000Y-104394000D03*
X143457600Y-122072400D03*
X141933600Y-123037600D03*
X163414000Y-123952000D03*
X179425600Y-93370400D03*
X140457600Y-122072400D03*
X138537200Y-96316800D03*
X119602000Y-99212400D03*
X140025200Y-117297200D03*
X138512800Y-116332000D03*
X139231200Y-87630000D03*
X128930400Y-107188000D03*
X178644800Y-112674400D03*
X139977200Y-121158000D03*
X145933600Y-123037600D03*
X119930000Y-107696000D03*
X119082400Y-100126800D03*
X164933600Y-123037600D03*
X174933600Y-123037600D03*
X151977200Y-121158000D03*
X179113600Y-115468400D03*
X139090400Y-100990400D03*
X176930800Y-98653600D03*
X136636000Y-86715600D03*
X173492400Y-120192800D03*
X175644800Y-112674400D03*
X158461200Y-120294400D03*
X171418000Y-97688400D03*
X138954000Y-99110800D03*
X129548800Y-106273600D03*
X139473600Y-98196400D03*
X175418400Y-97739200D03*
X177418400Y-97739200D03*
X180536000Y-118313200D03*
X156972000Y-100126800D03*
X177707200Y-108102400D03*
X146933600Y-123037600D03*
X173750800Y-106222800D03*
X143933600Y-123037600D03*
X172938000Y-96824800D03*
X150933600Y-123037600D03*
X134537200Y-96316800D03*
X173933600Y-123037600D03*
X140134000Y-111607600D03*
X134585200Y-92456000D03*
X140177600Y-109728000D03*
X151933600Y-123037600D03*
X144096400Y-93421200D03*
X173977200Y-121158000D03*
X173113600Y-115468400D03*
X138032400Y-115417600D03*
X174418400Y-97739200D03*
X175367600Y-101447600D03*
X153980800Y-119380000D03*
X178930800Y-98653600D03*
X170414000Y-123952000D03*
X119847200Y-91694000D03*
X117366800Y-88900000D03*
X169977200Y-121158000D03*
X135585200Y-92456000D03*
X179637600Y-114503200D03*
X172644800Y-112674400D03*
X154933600Y-123037600D03*
X136068400Y-91490800D03*
X151993600Y-119380000D03*
X139025200Y-117297200D03*
X157414000Y-123952000D03*
X138750800Y-86715600D03*
X154980800Y-119380000D03*
X180492400Y-90525600D03*
X173707200Y-108102400D03*
X174414000Y-123952000D03*
X144933600Y-123037600D03*
X172187600Y-109016800D03*
X148977200Y-121158000D03*
X169933600Y-123037600D03*
X174113600Y-115468400D03*
X142576800Y-94335600D03*
X176418400Y-97739200D03*
X155977200Y-121158000D03*
X177977200Y-121158000D03*
X138076000Y-113538000D03*
X167284400Y-93319600D03*
X138588000Y-90576400D03*
X157504800Y-118414800D03*
X174644800Y-112674400D03*
X172418400Y-97739200D03*
X172933600Y-123037600D03*
X164457600Y-122072400D03*
X181028000Y-119278400D03*
X141414000Y-123952000D03*
X173231200Y-107137200D03*
X139700000Y-92456000D03*
X175157200Y-113588800D03*
X179414000Y-123952000D03*
X159994000Y-119329200D03*
X172055600Y-117398800D03*
X175492400Y-120192800D03*
X120895200Y-87833200D03*
X177113600Y-115468400D03*
X149457600Y-122072400D03*
X121818400Y-94234000D03*
X137061200Y-95351600D03*
X160414000Y-123952000D03*
X138061200Y-95351600D03*
X136588000Y-90576400D03*
X178157200Y-113588800D03*
X127450000Y-106273600D03*
X173309600Y-103378000D03*
X154562800Y-116586000D03*
X158457600Y-122072400D03*
X137636000Y-86715600D03*
X145542000Y-120091200D03*
X177785600Y-104343200D03*
X156504800Y-118414800D03*
X169484800Y-120142000D03*
X118973600Y-105816400D03*
X152613600Y-112928400D03*
X140630400Y-90627200D03*
X178309600Y-103378000D03*
X120366800Y-90779600D03*
X130029200Y-105308400D03*
X158562800Y-116586000D03*
X179829200Y-102463600D03*
X147977200Y-121158000D03*
X140556400Y-114452400D03*
X178938000Y-96824800D03*
X152980800Y-119380000D03*
X139017600Y-97231200D03*
X155082400Y-115671600D03*
X143620400Y-92456000D03*
X119634000Y-94183200D03*
X168977200Y-121158000D03*
X179157200Y-113588800D03*
X177829200Y-102463600D03*
X166457600Y-122072400D03*
X174367600Y-101447600D03*
X180903200Y-100533200D03*
X135116400Y-87630000D03*
X158504800Y-118414800D03*
X136007600Y-102768400D03*
X178637600Y-114503200D03*
X162994000Y-119329200D03*
X181164400Y-111760000D03*
X179411200Y-99568000D03*
X117847200Y-89814400D03*
X127974000Y-105308400D03*
X175164400Y-111760000D03*
X179309600Y-103378000D03*
X178418400Y-97739200D03*
X160977200Y-121158000D03*
X171829200Y-102463600D03*
X154414000Y-123952000D03*
X143414000Y-123952000D03*
X175707200Y-108102400D03*
X170410800Y-99517200D03*
X176231200Y-107137200D03*
X139512800Y-116332000D03*
X178012000Y-119278400D03*
X137116400Y-87630000D03*
X157457600Y-122072400D03*
X145096400Y-93421200D03*
X136537200Y-96316800D03*
X131548800Y-106273600D03*
X172457600Y-122072400D03*
X138414000Y-123952000D03*
X149434800Y-120243600D03*
X137065600Y-93370400D03*
X135017600Y-97231200D03*
X172930800Y-98653600D03*
X171977200Y-121158000D03*
X140512800Y-116332000D03*
X117895200Y-87833200D03*
X122529600Y-86918800D03*
X141096400Y-119176800D03*
X153977200Y-121158000D03*
X175785600Y-104343200D03*
X176492400Y-120192800D03*
X172637600Y-114503200D03*
X176457600Y-122072400D03*
X170840400Y-96824800D03*
X176414000Y-123952000D03*
X177644800Y-112674400D03*
X136061200Y-95351600D03*
X156606400Y-114706400D03*
X162933600Y-123037600D03*
X155504800Y-118414800D03*
X118930000Y-107696000D03*
X170457600Y-122072400D03*
X157613600Y-112928400D03*
X137134000Y-111607600D03*
X140414000Y-123952000D03*
X155024400Y-117500400D03*
X158977200Y-121158000D03*
X121410400Y-88900000D03*
X147414000Y-123952000D03*
X159457600Y-122072400D03*
X176536000Y-118313200D03*
X175887200Y-100533200D03*
X177414000Y-123952000D03*
X142678400Y-96316800D03*
X146457600Y-122072400D03*
X137414000Y-123952000D03*
X139061200Y-95351600D03*
X177411200Y-99568000D03*
X179492400Y-120192800D03*
X174930800Y-98653600D03*
X142764000Y-90678000D03*
X136112000Y-89611200D03*
X173411200Y-99568000D03*
X142933600Y-123037600D03*
X167977200Y-121158000D03*
X178785600Y-104343200D03*
X141150000Y-89712800D03*
X172390800Y-95910400D03*
X136956800Y-100939600D03*
X122010000Y-87833200D03*
X140157200Y-87680800D03*
X142620400Y-92456000D03*
X117366800Y-90779600D03*
X180829200Y-102463600D03*
X171274400Y-105206800D03*
X134991600Y-99110800D03*
X178492400Y-120192800D03*
X158082400Y-115671600D03*
X143198000Y-95402400D03*
X136543200Y-98196400D03*
X180637600Y-114503200D03*
X170898400Y-98602800D03*
X139981600Y-119176800D03*
X180930800Y-98653600D03*
X146414000Y-123952000D03*
X158414000Y-123952000D03*
X139177600Y-109728000D03*
X173418400Y-97739200D03*
X146977200Y-121158000D03*
X175113600Y-115468400D03*
X143576800Y-120091200D03*
X175012000Y-119278400D03*
X173055600Y-117398800D03*
X139537200Y-96316800D03*
X154126000Y-113792000D03*
X140505600Y-118211600D03*
X128450000Y-106273600D03*
X178536000Y-118313200D03*
X175055600Y-117398800D03*
X174457600Y-122072400D03*
X166414000Y-123952000D03*
X114300000Y-184023000D03*
X138065600Y-93370400D03*
X140076000Y-113538000D03*
X139068400Y-91490800D03*
X144140000Y-91541600D03*
X119973600Y-105816400D03*
X142457600Y-122072400D03*
X174266000Y-105257600D03*
X136580800Y-94437200D03*
X137614400Y-110642400D03*
X157082400Y-115671600D03*
X176411200Y-99568000D03*
X161994000Y-119329200D03*
X179938000Y-96824800D03*
X179930800Y-98653600D03*
X178707200Y-108102400D03*
X179164400Y-111760000D03*
X128493600Y-104394000D03*
X168484800Y-120142000D03*
X180750800Y-106222800D03*
X138462000Y-120091200D03*
X135527200Y-101854000D03*
X173012000Y-119278400D03*
X180414000Y-123952000D03*
X156461200Y-120294400D03*
X167484800Y-120142000D03*
X167933600Y-123037600D03*
X121890800Y-89814400D03*
X134874000Y-100939600D03*
X139658000Y-110642400D03*
X140678400Y-96316800D03*
X118895200Y-87833200D03*
X159461200Y-120294400D03*
X119500400Y-103022400D03*
X126930400Y-107188000D03*
X174055600Y-117398800D03*
X180594000Y-116382800D03*
X138933600Y-123037600D03*
X180801600Y-104343200D03*
X149977200Y-121158000D03*
X118602000Y-99212400D03*
X177012000Y-119278400D03*
X160933600Y-123037600D03*
X173266000Y-105257600D03*
X180309600Y-103378000D03*
X118847200Y-91694000D03*
X177390800Y-95910400D03*
X173457600Y-122072400D03*
X180949600Y-123037600D03*
X144457600Y-122072400D03*
X163457600Y-122072400D03*
X139631600Y-88696800D03*
X178390800Y-95910400D03*
X135065600Y-93370400D03*
X143977200Y-121158000D03*
X176829200Y-102463600D03*
X139076000Y-113538000D03*
X119366800Y-90779600D03*
X138068400Y-91490800D03*
X180411200Y-99568000D03*
X143140000Y-91541600D03*
X152414000Y-123952000D03*
X117980800Y-103936800D03*
X165457600Y-122072400D03*
X173887200Y-100533200D03*
X180012000Y-119278400D03*
X148414000Y-123952000D03*
X141732000Y-86715600D03*
X172594000Y-116382800D03*
X117449600Y-104902000D03*
X170484800Y-120142000D03*
X157126000Y-113792000D03*
X119980800Y-103936800D03*
X169457600Y-122072400D03*
X175411200Y-99568000D03*
X155133200Y-112014000D03*
X159977200Y-121158000D03*
X178977200Y-121158000D03*
X145414000Y-123952000D03*
X118980800Y-103936800D03*
X172750800Y-106222800D03*
X144576800Y-120091200D03*
X179977200Y-121158000D03*
X119544000Y-101142800D03*
X119414800Y-86918800D03*
X172977200Y-121158000D03*
X152933600Y-123037600D03*
X176012000Y-119278400D03*
X176390800Y-95910400D03*
X117602000Y-99212400D03*
X137537200Y-96316800D03*
X172829200Y-102463600D03*
X117449600Y-106781600D03*
X117930000Y-105816400D03*
X122410400Y-88900000D03*
X141096400Y-93421200D03*
X118500400Y-103022400D03*
X159082400Y-115671600D03*
X136631600Y-88696800D03*
X167004400Y-119227600D03*
X140579600Y-98145600D03*
X177055600Y-117398800D03*
X166487600Y-120192800D03*
X177492400Y-120192800D03*
X153933600Y-123037600D03*
X139414000Y-123952000D03*
X170004400Y-119227600D03*
X141140000Y-91541600D03*
X175309600Y-103378000D03*
X172411200Y-99568000D03*
X170933600Y-123037600D03*
X117847200Y-91694000D03*
X179367600Y-101447600D03*
X140977200Y-121158000D03*
X176594000Y-116382800D03*
X127493600Y-104394000D03*
X118366800Y-90779600D03*
X172492400Y-120192800D03*
X140681200Y-88696800D03*
X180367600Y-101447600D03*
X153461200Y-120294400D03*
X138090400Y-100990400D03*
X180055600Y-117398800D03*
X173414000Y-123952000D03*
X140658000Y-110642400D03*
X137462000Y-118211600D03*
X177367600Y-101447600D03*
X139032400Y-115417600D03*
X145140000Y-91541600D03*
X140096400Y-91541600D03*
X118890800Y-89814400D03*
X165487600Y-120192800D03*
X137032400Y-113538000D03*
X156082400Y-115671600D03*
X140106400Y-89662000D03*
X180390800Y-95910400D03*
X176938000Y-96824800D03*
X153126000Y-113792000D03*
X153613600Y-112928400D03*
X141630400Y-90627200D03*
X176887200Y-100533200D03*
X173644800Y-112674400D03*
X171930800Y-98653600D03*
X137023600Y-99110800D03*
X158933600Y-123037600D03*
X158980800Y-119380000D03*
X141576800Y-120091200D03*
X170293200Y-95910400D03*
X180113600Y-115468400D03*
X141457600Y-122072400D03*
X174411200Y-99568000D03*
X138017600Y-97231200D03*
X148933600Y-123037600D03*
X172012000Y-119278400D03*
X174707200Y-108102400D03*
X176055600Y-117398800D03*
X159414000Y-123952000D03*
X168933600Y-123037600D03*
X152977200Y-121158000D03*
X140462000Y-120091200D03*
X174309600Y-103378000D03*
X174187600Y-109016800D03*
X126450000Y-106273600D03*
X164977200Y-121158000D03*
X137981600Y-119176800D03*
X156133200Y-112014000D03*
X136933600Y-123037600D03*
X140099200Y-97231200D03*
X136981600Y-117297200D03*
X180164400Y-111760000D03*
X180723200Y-108102400D03*
X141678400Y-96316800D03*
X176785600Y-104343200D03*
X134518400Y-101854000D03*
X135991600Y-99110800D03*
X176113600Y-115468400D03*
X154606400Y-114706400D03*
X118493200Y-104902000D03*
X149933600Y-123037600D03*
X176750800Y-106222800D03*
X144283600Y-89763600D03*
X120024400Y-102057200D03*
X138473600Y-98196400D03*
X138658000Y-110642400D03*
X134636000Y-86715600D03*
X138116400Y-87630000D03*
X135580800Y-94437200D03*
X134511200Y-98196400D03*
X176187600Y-109016800D03*
X120847200Y-91694000D03*
X158133200Y-112014000D03*
X152606400Y-114706400D03*
X119895200Y-87833200D03*
X142140000Y-91541600D03*
X161474400Y-120243600D03*
X154457600Y-122072400D03*
X174536000Y-118313200D03*
X175750800Y-106222800D03*
X153024400Y-117500400D03*
X179644800Y-112674400D03*
X139112000Y-89611200D03*
X119493200Y-104902000D03*
X163933600Y-123037600D03*
X161457600Y-122072400D03*
X150414000Y-123952000D03*
X175390800Y-95910400D03*
X178164400Y-111760000D03*
X161977200Y-121158000D03*
X153133200Y-112014000D03*
X149954400Y-119329200D03*
X141198000Y-95402400D03*
X147933600Y-123037600D03*
X134537200Y-94437200D03*
X180266000Y-105257600D03*
X174012000Y-119278400D03*
X151880000Y-184035000D03*
X156613600Y-112928400D03*
X140096400Y-93421200D03*
X137414000Y-122072400D03*
X170977200Y-121158000D03*
X178187600Y-109016800D03*
X152461200Y-120294400D03*
X172887200Y-100533200D03*
X142414000Y-123952000D03*
X174390800Y-95910400D03*
X117414800Y-86918800D03*
X155980800Y-119380000D03*
X156457600Y-122072400D03*
X175933600Y-123037600D03*
X144729200Y-90678000D03*
X138977200Y-121158000D03*
X153606400Y-114706400D03*
X137068400Y-91490800D03*
X174164400Y-111760000D03*
X149414000Y-123952000D03*
X123940000Y-184023000D03*
X138023600Y-99110800D03*
X137462000Y-120091200D03*
X121847200Y-91694000D03*
X139614400Y-112522000D03*
X137112000Y-89611200D03*
X175187600Y-109016800D03*
X137017600Y-97231200D03*
X118872000Y-132715000D03*
X139505600Y-118211600D03*
X141977200Y-121158000D03*
X171933600Y-123037600D03*
X171500800Y-120142000D03*
X162977200Y-121158000D03*
X132072800Y-105308400D03*
X171414000Y-123952000D03*
X134588000Y-90576400D03*
X163474400Y-120243600D03*
X157980800Y-119380000D03*
X148457600Y-122072400D03*
X178414000Y-123952000D03*
X178367600Y-101447600D03*
X138614400Y-112522000D03*
X161414000Y-123952000D03*
X136933600Y-121158000D03*
X172785600Y-104343200D03*
X147954400Y-119329200D03*
X154977200Y-121158000D03*
X155461200Y-120294400D03*
X164487600Y-120192800D03*
X171785600Y-104343200D03*
X141099200Y-97231200D03*
X136116400Y-87630000D03*
X172231200Y-107137200D03*
X137933600Y-123037600D03*
X171020400Y-119227600D03*
X158024400Y-117500400D03*
X174594000Y-116382800D03*
X137588000Y-90576400D03*
X178113600Y-115468400D03*
X178594000Y-116382800D03*
X180157200Y-113588800D03*
X173637600Y-114503200D03*
X178231200Y-107137200D03*
X135631600Y-88696800D03*
X139180400Y-93370400D03*
X127930400Y-107188000D03*
X177750800Y-106222800D03*
X118449600Y-106781600D03*
X175457600Y-122072400D03*
X138457600Y-122072400D03*
X119449600Y-106781600D03*
X151457600Y-122072400D03*
X120890800Y-89814400D03*
X178933600Y-123037600D03*
X165977200Y-121158000D03*
X118082400Y-100126800D03*
X122366800Y-90779600D03*
X177157200Y-113588800D03*
X147523200Y-120192800D03*
X169414000Y-123952000D03*
X175977200Y-121158000D03*
X135956800Y-100939600D03*
X117500400Y-101142800D03*
X177309600Y-103378000D03*
X181157200Y-113588800D03*
X142200800Y-87782400D03*
X178055600Y-117398800D03*
X138134000Y-111607600D03*
X167457600Y-122072400D03*
X153457600Y-122072400D03*
X134588000Y-88696800D03*
X136065600Y-93370400D03*
X172157200Y-113588800D03*
X178829200Y-102463600D03*
X136981600Y-119176800D03*
X157024400Y-117500400D03*
X140032400Y-115417600D03*
X148954400Y-119329200D03*
X157461200Y-120294400D03*
X175637600Y-114503200D03*
X173164400Y-111760000D03*
X137977200Y-121158000D03*
X142198000Y-95402400D03*
X160474400Y-120243600D03*
X139580800Y-94437200D03*
X178750800Y-106222800D03*
X179887200Y-100533200D03*
X147457600Y-122072400D03*
X150457600Y-122072400D03*
X141579600Y-98145600D03*
X137610000Y-100076000D03*
X179418400Y-97739200D03*
X172266000Y-105257600D03*
X172367600Y-101447600D03*
X150954400Y-119329200D03*
X161933600Y-123037600D03*
X176309600Y-103378000D03*
X142977200Y-121158000D03*
X152562800Y-116586000D03*
X179707200Y-108102400D03*
X153562800Y-116586000D03*
X142150000Y-89712800D03*
X152504800Y-118414800D03*
X139457600Y-122072400D03*
X135017600Y-95351600D03*
X171938000Y-96824800D03*
X172309600Y-103378000D03*
X179785600Y-104343200D03*
X117500400Y-103022400D03*
X181129600Y-115468400D03*
X179390800Y-95910400D03*
X175536000Y-118313200D03*
X139750800Y-86715600D03*
X154024400Y-117500400D03*
X139933600Y-123037600D03*
X178887200Y-100533200D03*
X162457600Y-122072400D03*
X164414000Y-123952000D03*
X158606400Y-114706400D03*
X139588000Y-90576400D03*
X170891200Y-100431600D03*
X176933600Y-123037600D03*
X176707200Y-108102400D03*
X130029200Y-107188000D03*
X175266000Y-105257600D03*
X130592400Y-104394000D03*
X140868400Y-86715600D03*
X159562800Y-116586000D03*
X135537200Y-96316800D03*
X159024400Y-117500400D03*
X136476400Y-100025200D03*
X180187600Y-109016800D03*
X174938000Y-96824800D03*
X138025200Y-117297200D03*
X142748000Y-88696800D03*
X139954000Y-99110800D03*
X138580800Y-94437200D03*
X180457600Y-122072400D03*
X154504800Y-118414800D03*
X159126000Y-113792000D03*
X152457600Y-122072400D03*
X173594000Y-116382800D03*
X166977200Y-121158000D03*
X138981600Y-119176800D03*
X135588000Y-90576400D03*
X177536000Y-118313200D03*
X117930000Y-107696000D03*
X156414000Y-123952000D03*
X168457600Y-122072400D03*
X143576800Y-94335600D03*
X140614400Y-112522000D03*
X145198000Y-95402400D03*
X179012000Y-119278400D03*
X140198000Y-95402400D03*
X175938000Y-96824800D03*
X173367600Y-101447600D03*
X160994000Y-119329200D03*
X121366800Y-90779600D03*
X179536000Y-118313200D03*
X155933600Y-123037600D03*
X168004400Y-119227600D03*
X138112000Y-89611200D03*
X171887200Y-100533200D03*
X141681200Y-88696800D03*
X174492400Y-120192800D03*
X180644800Y-112674400D03*
X137032400Y-115417600D03*
X155457600Y-122072400D03*
X156024400Y-117500400D03*
X154133200Y-112014000D03*
X175209200Y-93319600D03*
X177187600Y-109016800D03*
X175231200Y-107137200D03*
X166933600Y-123037600D03*
X177637600Y-114503200D03*
X143764000Y-90678000D03*
X136585200Y-92456000D03*
X131592400Y-104394000D03*
X172113600Y-115468400D03*
X119024400Y-102057200D03*
X176157200Y-113588800D03*
X171457600Y-122072400D03*
X118872000Y-150749000D03*
X154461200Y-120294400D03*
X155613600Y-112928400D03*
X177594000Y-116382800D03*
X139462000Y-120091200D03*
X144620400Y-92456000D03*
X159613600Y-112928400D03*
X143096400Y-119176800D03*
X180977200Y-121158000D03*
X145457600Y-122072400D03*
X120410400Y-88900000D03*
X137007600Y-102768400D03*
X137512800Y-116332000D03*
X180492400Y-120192800D03*
X144414000Y-123952000D03*
X129548800Y-104394000D03*
X174157200Y-113588800D03*
X177887200Y-100533200D03*
X158613600Y-112928400D03*
X162414000Y-123952000D03*
X119890800Y-89814400D03*
X181055600Y-117398800D03*
X126930400Y-105308400D03*
X170418000Y-97688400D03*
X163977200Y-121158000D03*
X174637600Y-114503200D03*
X144096400Y-119176800D03*
X135476400Y-100025200D03*
X174447200Y-90576400D03*
X174829200Y-102463600D03*
X177457600Y-122072400D03*
X156126000Y-113792000D03*
X130548800Y-106273600D03*
X141200800Y-87782400D03*
X176644800Y-112674400D03*
X154613600Y-112928400D03*
X136527200Y-101854000D03*
X138631600Y-88696800D03*
X171410800Y-99517200D03*
X179594000Y-116382800D03*
X172414000Y-123952000D03*
X180418400Y-97739200D03*
X118410400Y-88900000D03*
X173938000Y-96824800D03*
X157977200Y-121158000D03*
X177231200Y-107137200D03*
X138556400Y-114452400D03*
X179750800Y-106222800D03*
X169004400Y-119227600D03*
X150434800Y-120243600D03*
X138505600Y-118211600D03*
X179231200Y-107137200D03*
X148434800Y-120243600D03*
X139134000Y-111607600D03*
X178411200Y-99568000D03*
X137614400Y-112522000D03*
X145643600Y-92456000D03*
X160457600Y-122072400D03*
%TO.N,INTE*%
X159500000Y-184023000D03*
X188976000Y-184902000D03*
%TO.N,+5MAIN*%
X169672000Y-140081000D03*
X261010400Y-183718200D03*
X178816000Y-138303000D03*
X178816000Y-143129000D03*
X156972000Y-140081000D03*
%TO.N,PHI2*%
X184251600Y-170561000D03*
X157022800Y-170408600D03*
%TO.N,RDY*%
X171451450Y-156453952D03*
X165862000Y-156337000D03*
%TO.N,RESET*%
X185674000Y-157099000D03*
X148132800Y-142570200D03*
X134257247Y-142676647D03*
X239268000Y-157099000D03*
X134874000Y-133360000D03*
%TO.N,SCL*%
X245872000Y-162179000D03*
X171958000Y-135001000D03*
X248869200Y-87934800D03*
X175768000Y-133477000D03*
X151892000Y-142621000D03*
X187198000Y-132969000D03*
X221742000Y-161925000D03*
%TO.N,SDA*%
X247040400Y-88239600D03*
X177800000Y-134239000D03*
X243078000Y-162941000D03*
X154686000Y-143246000D03*
X183642000Y-134493000D03*
X220726000Y-162179000D03*
X172974000Y-136017000D03*
%TO.N,SYNC*%
X171958000Y-176657000D03*
%TO.N,~{MEMR}*%
X208788000Y-171948000D03*
X96520000Y-157099000D03*
X91440000Y-157099000D03*
X91440000Y-169799000D03*
%TO.N,~{MEMW}*%
X86360000Y-173101000D03*
X221488000Y-172847000D03*
%TO.N,/CPU/DB0*%
X140208000Y-160909000D03*
X105664000Y-139710000D03*
X111660000Y-171323000D03*
X198628000Y-181991000D03*
X197358000Y-164211000D03*
X105310000Y-171323000D03*
%TO.N,/CPU/DB3*%
X116840000Y-169037000D03*
X225298000Y-166751000D03*
X101854000Y-174117000D03*
X116840000Y-174117000D03*
X191008000Y-166243000D03*
%TO.N,/CPU/A0*%
X141732000Y-148463000D03*
X224790000Y-174625000D03*
X159258000Y-156845000D03*
X201168000Y-180838000D03*
X104394000Y-148991000D03*
X141720000Y-156397000D03*
X159512000Y-175368000D03*
X201168000Y-174879000D03*
X181229000Y-177546000D03*
X192532000Y-183769000D03*
%TO.N,/CPU/DB5*%
X106680000Y-168275000D03*
X107181000Y-158486000D03*
X197358000Y-179451000D03*
X109845000Y-158486000D03*
%TO.N,/CPU/DB2*%
X106680000Y-182362000D03*
X111760000Y-157099000D03*
X193548000Y-181737000D03*
X111760000Y-142621000D03*
X108591137Y-157051802D03*
%TO.N,/CPU/DB1*%
X194818000Y-164856000D03*
X109220000Y-141859000D03*
X196088000Y-182753000D03*
X137922000Y-164719000D03*
%TO.N,/CPU/DB6*%
X107442000Y-157099000D03*
X202692000Y-179080000D03*
X103886000Y-157099000D03*
X201168000Y-171069000D03*
%TO.N,/CPU/DB4*%
X91440000Y-181737000D03*
X113030000Y-174879000D03*
X188468000Y-182753000D03*
X91694000Y-175133000D03*
X192278000Y-180213000D03*
%TO.N,/CPU/DB7*%
X97944000Y-157099000D03*
X187706000Y-185016000D03*
X102726000Y-157143000D03*
X113030000Y-184785000D03*
X227584000Y-167513000D03*
X96520000Y-184785000D03*
X124968000Y-185016000D03*
X227584000Y-178572000D03*
%TO.N,+12MAIN*%
X252730000Y-158369000D03*
X152146000Y-157099000D03*
%TO.N,Net-(Q3-\u0411)*%
X121361200Y-100279200D03*
%TO.N,Net-(U5-XTAL2)*%
X202946000Y-142367000D03*
%TO.N,/CPU/A12*%
X130048000Y-174371000D03*
X129032000Y-157099000D03*
X114046000Y-149225000D03*
X115570000Y-157099000D03*
%TO.N,Net-(U5-~{STSTB})*%
X79502000Y-158369000D03*
%TO.N,/CPU/A1*%
X153416000Y-155946000D03*
X176022000Y-163566000D03*
X202438000Y-163703000D03*
X139180000Y-155692000D03*
X176022000Y-168529000D03*
X139192000Y-148717000D03*
X101600000Y-149616000D03*
X155702000Y-168783000D03*
%TO.N,/CPU/A10*%
X121412000Y-174117000D03*
X117856000Y-174117000D03*
X117856000Y-140335000D03*
X184404000Y-134239000D03*
%TO.N,/CPU/A2*%
X206248000Y-173609000D03*
X154420000Y-169916000D03*
X154432000Y-173609000D03*
X100838000Y-168783000D03*
%TO.N,/CPU/A11*%
X95504000Y-160909000D03*
X121412000Y-160909000D03*
X211074000Y-137541000D03*
%TO.N,/CPU/A4*%
X134112000Y-146822000D03*
X209914000Y-158877000D03*
X211328000Y-172476000D03*
X93980000Y-149225000D03*
X146812000Y-156962000D03*
X134100000Y-155692000D03*
X146812000Y-158232000D03*
%TO.N,/CPU/A7*%
X215458058Y-163382942D03*
X139192000Y-166751000D03*
X139180000Y-160655000D03*
X86360000Y-161163000D03*
%TO.N,/CPU/A8*%
X136652000Y-160264000D03*
X90170000Y-160264000D03*
X213360000Y-161417000D03*
%TO.N,/CPU/A6*%
X141720000Y-170581000D03*
X141732000Y-172476000D03*
X216154000Y-171968000D03*
X87630000Y-170561000D03*
%TO.N,/CPU/A3*%
X96520000Y-149616000D03*
X150368000Y-147447000D03*
X208788000Y-174117000D03*
X149606000Y-174117000D03*
%TO.N,/CPU/A14*%
X123698000Y-158115000D03*
X212344000Y-150241000D03*
X83820000Y-157607000D03*
%TO.N,/CPU/A5*%
X176784000Y-160655000D03*
X176530000Y-176149000D03*
X212090000Y-160655000D03*
X144780000Y-175895000D03*
X143764000Y-146431000D03*
X91694000Y-149225000D03*
%TO.N,/CPU/A9*%
X133350000Y-156337000D03*
X174244000Y-162941000D03*
X174244000Y-171206000D03*
X213614000Y-164856000D03*
X92710000Y-156337000D03*
X134100000Y-171206000D03*
%TO.N,/CPU/A13*%
X87630000Y-158623000D03*
X126492000Y-159639000D03*
X212344000Y-159639000D03*
%TO.N,/CPU/A15*%
X101600000Y-140960000D03*
X129794000Y-141097000D03*
%TO.N,/CPU/D5*%
X104140000Y-172456000D03*
X128651000Y-172466000D03*
%TO.N,HLDA*%
X83820000Y-167513000D03*
X169672000Y-167513000D03*
%TO.N,DBIN*%
X161798000Y-183769000D03*
X88900000Y-181483000D03*
%TO.N,~{IOR}*%
X133608500Y-144911500D03*
X89154000Y-158877000D03*
X130556000Y-159014000D03*
%TO.N,/CPU/D6*%
X131318000Y-173609000D03*
X99060000Y-173609000D03*
%TO.N,~{WR}*%
X86360000Y-180467000D03*
%TO.N,~{IOW}*%
X185826400Y-136575800D03*
X193548000Y-137134600D03*
X86106000Y-150749000D03*
X172415200Y-141655800D03*
X131572000Y-149225000D03*
X131560000Y-145211800D03*
X180644800Y-135902000D03*
%TO.N,/CPU/D7*%
X99822000Y-181346000D03*
X134100000Y-181346000D03*
%TO.N,/CPU/D1*%
X109374000Y-175641000D03*
%TO.N,/CPU/D3*%
X104140000Y-181854000D03*
X136640000Y-181346000D03*
%TO.N,/CPU/D0*%
X114200000Y-175016000D03*
%TO.N,BTN1*%
X170502500Y-156962000D03*
X183956942Y-158683942D03*
X178562000Y-157099000D03*
%TO.N,Net-(U3-COMP)*%
X92760800Y-98196400D03*
%TO.N,Net-(U3-SS{slash}TR)*%
X84074000Y-99517200D03*
%TO.N,Net-(U3-VSENSE)*%
X93980000Y-99669600D03*
%TO.N,Net-(U3-PWRGD)*%
X91694000Y-100482400D03*
%TO.N,Net-(U3-RT{slash}CLK)*%
X84937600Y-100177600D03*
%TO.N,Net-(D1-K)*%
X188163200Y-70053200D03*
%TO.N,~{RESIN}*%
X194310000Y-145161000D03*
X236982000Y-145161000D03*
X243738400Y-88646000D03*
%TO.N,BTN2*%
X208127600Y-111353600D03*
X254508000Y-157861000D03*
X242316000Y-170307000D03*
X256540000Y-170053000D03*
%TO.N,1WIRE*%
X164846000Y-147701000D03*
%TO.N,BTN3*%
X212852000Y-147056000D03*
X206298800Y-112522000D03*
X219964000Y-162687000D03*
X235458000Y-163703000D03*
X197612000Y-112471200D03*
%TO.N,~{RESET}*%
X241808000Y-156337000D03*
X220218000Y-156083000D03*
%TO.N,~{A4}*%
X229018000Y-164973000D03*
X222758000Y-136779000D03*
X228600000Y-137033000D03*
%TO.N,LS1*%
X245110000Y-88595200D03*
%TD*%
D38*
%TO.N,+12V*%
X199948800Y-107543600D02*
X199948800Y-101447600D01*
X163999200Y-110456000D02*
X162763200Y-109220000D01*
X186385200Y-110456000D02*
X163999200Y-110456000D01*
D39*
X141681200Y-84480400D02*
X151536400Y-94335600D01*
X151536400Y-94335600D02*
X161544000Y-94335600D01*
D38*
X199948800Y-101447600D02*
X200570400Y-100826000D01*
X195986400Y-108446000D02*
X199046400Y-108446000D01*
D39*
X103378000Y-84480400D02*
X141681200Y-84480400D01*
D38*
X199046400Y-108446000D02*
X199948800Y-107543600D01*
D39*
X161544000Y-94335600D02*
X162763200Y-95554800D01*
D38*
X200570400Y-100826000D02*
X203606400Y-100826000D01*
X162763200Y-109220000D02*
X162763200Y-98567600D01*
D39*
X162763200Y-95554800D02*
X162763200Y-98567600D01*
D40*
%TO.N,Net-(U1-THR)*%
X199056400Y-110456000D02*
X191176600Y-110456000D01*
X203606400Y-105906000D02*
X199056400Y-110456000D01*
%TO.N,Net-(U1-CVOLT)*%
X195986400Y-99756600D02*
X193283200Y-97053400D01*
X195986400Y-100826000D02*
X195986400Y-99756600D01*
D41*
%TO.N,-5V*%
X252272800Y-179451000D02*
X257048000Y-179451000D01*
X251460000Y-178638200D02*
X252272800Y-179451000D01*
D42*
X184442600Y-87388200D02*
X184442600Y-89916000D01*
X191312800Y-70205600D02*
X191312800Y-70154800D01*
D41*
X149333000Y-185020000D02*
X163849000Y-185020000D01*
D42*
X182676800Y-86207600D02*
X183540400Y-87071200D01*
X261010400Y-75793600D02*
X259994400Y-76809600D01*
D41*
X257048000Y-179451000D02*
X257810000Y-178689000D01*
X146800000Y-178379000D02*
X146800000Y-182487000D01*
X163849000Y-185020000D02*
X167640000Y-181229000D01*
D42*
X259943600Y-70154800D02*
X261010400Y-71221600D01*
X190296800Y-84328000D02*
X190296800Y-71221600D01*
X183540400Y-87071200D02*
X184150000Y-87071200D01*
X187553600Y-87071200D02*
X190296800Y-84328000D01*
X183540400Y-87071200D02*
X187553600Y-87071200D01*
D41*
X250698000Y-158623000D02*
X251460000Y-159385000D01*
X251460000Y-159385000D02*
X251460000Y-178638200D01*
D42*
X261010400Y-71221600D02*
X261010400Y-75793600D01*
X146132608Y-76301600D02*
X146132608Y-85223408D01*
D41*
X187137058Y-175193942D02*
X187137058Y-168335942D01*
X187137058Y-168335942D02*
X200406000Y-155067000D01*
X148082000Y-183769000D02*
X149333000Y-185020000D01*
D42*
X191312800Y-70154800D02*
X259943600Y-70154800D01*
X259994400Y-76809600D02*
X257810000Y-76809600D01*
D41*
X146800000Y-182487000D02*
X148082000Y-183769000D01*
X257810000Y-178689000D02*
X257810000Y-176911000D01*
D42*
X147116800Y-86207600D02*
X182676800Y-86207600D01*
X190296800Y-71221600D02*
X191312800Y-70205600D01*
D41*
X186750942Y-175580058D02*
X187137058Y-175193942D01*
D42*
X146132608Y-85223408D02*
X147116800Y-86207600D01*
X184454800Y-87376000D02*
X184442600Y-87388200D01*
X184150000Y-87071200D02*
X184454800Y-87376000D01*
D41*
%TO.N,Net-(D3-K)*%
X91033600Y-103225600D02*
X89458800Y-101650800D01*
X89458800Y-95819600D02*
X90993600Y-94284800D01*
X89458800Y-101650800D02*
X89458800Y-95819600D01*
D42*
%TO.N,GND*%
X86156800Y-86293600D02*
X74786600Y-86293600D01*
X181660800Y-173609000D02*
X184708800Y-176657000D01*
X74517000Y-108204000D02*
X74517000Y-86563200D01*
X74618600Y-108305600D02*
X74517000Y-108204000D01*
X86004400Y-86446000D02*
X86156800Y-86293600D01*
X84987600Y-81493600D02*
X84987600Y-68516600D01*
X232105200Y-84226400D02*
X231343200Y-84226400D01*
X88387600Y-86293600D02*
X86156800Y-86293600D01*
X118872000Y-150749000D02*
X118872000Y-132715000D01*
X175006000Y-155911000D02*
X181660800Y-162565800D01*
X272447000Y-125120400D02*
X272433600Y-125107000D01*
X86004400Y-90175000D02*
X86004400Y-86446000D01*
X191810000Y-151765000D02*
X191810000Y-139867000D01*
X74517000Y-68478400D02*
X74676000Y-68478400D01*
X78094200Y-108305600D02*
X78094200Y-104140000D01*
X229224200Y-82107400D02*
X217728800Y-82107400D01*
X190754000Y-138811000D02*
X188302000Y-138811000D01*
X75146600Y-125107000D02*
X75133200Y-125120400D01*
X74786600Y-86293600D02*
X74517000Y-86563200D01*
X74517000Y-125113800D02*
X74517000Y-108204000D01*
X272173000Y-68465000D02*
X272447000Y-68739000D01*
X96520000Y-163139000D02*
X96520000Y-165989000D01*
X123940000Y-184023000D02*
X123940000Y-178379000D01*
X98016200Y-68465000D02*
X272173000Y-68465000D01*
X74523600Y-125120400D02*
X74517000Y-125113800D01*
X191810000Y-139867000D02*
X190754000Y-138811000D01*
X258064000Y-152781000D02*
X253474000Y-152781000D01*
X272447000Y-68739000D02*
X272447000Y-125120400D01*
X231343200Y-84226400D02*
X229224200Y-82107400D01*
X84987600Y-68516600D02*
X85039200Y-68465000D01*
X184708800Y-176657000D02*
X191008000Y-176657000D01*
X78094200Y-108305600D02*
X74618600Y-108305600D01*
X114300000Y-178379000D02*
X114300000Y-184023000D01*
X74676000Y-68478400D02*
X74689400Y-68465000D01*
X181660800Y-162565800D02*
X181660800Y-173609000D01*
X272433600Y-125107000D02*
X75146600Y-125107000D01*
X151880000Y-184035000D02*
X151880000Y-178379000D01*
X74517000Y-86563200D02*
X74517000Y-68478400D01*
X75133200Y-125120400D02*
X74523600Y-125120400D01*
X85039200Y-68465000D02*
X98094800Y-68465000D01*
X257810000Y-74269600D02*
X250190000Y-74269600D01*
X151880000Y-178379000D02*
X154420000Y-178379000D01*
X74689400Y-68465000D02*
X85039200Y-68465000D01*
D40*
%TO.N,INTE*%
X159500000Y-184023000D02*
X159500000Y-178379000D01*
X189264000Y-185190000D02*
X239371000Y-185190000D01*
X188976000Y-184902000D02*
X189264000Y-185190000D01*
X241394000Y-177210116D02*
X241394000Y-167927000D01*
X240732000Y-183829000D02*
X240732000Y-177872116D01*
X239371000Y-185190000D02*
X240732000Y-183829000D01*
X240732000Y-177872116D02*
X241394000Y-177210116D01*
X241394000Y-167927000D02*
X241808000Y-167513000D01*
D42*
%TO.N,+5MAIN*%
X168148000Y-130810000D02*
X182372000Y-130810000D01*
X260490400Y-186486800D02*
X170242800Y-186486800D01*
X215646000Y-130810000D02*
X231648000Y-130810000D01*
X223012000Y-168021000D02*
X223012000Y-160655000D01*
X81280000Y-138081000D02*
X81280000Y-147193000D01*
X232156000Y-159385000D02*
X232156000Y-131318000D01*
X75426000Y-186551000D02*
X74517000Y-185642000D01*
X247650000Y-76809600D02*
X252730000Y-76809600D01*
X79502000Y-147701000D02*
X79502000Y-156845000D01*
X175006000Y-143211000D02*
X169844000Y-143211000D01*
X81280000Y-147193000D02*
X81788000Y-147701000D01*
X232156000Y-131318000D02*
X231648000Y-130810000D01*
X169660000Y-178379000D02*
X169660000Y-185904000D01*
X156960000Y-138081000D02*
X156960000Y-130872800D01*
X156960000Y-130872800D02*
X157022800Y-130810000D01*
X170242800Y-186486800D02*
X169672000Y-185916000D01*
X250190000Y-78435200D02*
X250190000Y-76809600D01*
X79756000Y-147447000D02*
X79502000Y-147701000D01*
X169672000Y-143383000D02*
X169672000Y-149987000D01*
X231648000Y-130810000D02*
X242570000Y-130810000D01*
X185928000Y-142113000D02*
X188239400Y-142113000D01*
X261581200Y-186436000D02*
X261061200Y-185916000D01*
X242878000Y-131118000D02*
X242824000Y-131064000D01*
X261061200Y-185916000D02*
X260490400Y-186486800D01*
X242878000Y-134395000D02*
X242878000Y-131118000D01*
X261010400Y-183718200D02*
X261061200Y-183769000D01*
X249377200Y-79248000D02*
X250190000Y-78435200D01*
X161176200Y-92049600D02*
X188468000Y-92049600D01*
X182626000Y-131064000D02*
X182880000Y-130810000D01*
X193548000Y-81178400D02*
X195478400Y-79248000D01*
X74517000Y-185642000D02*
X74517000Y-131731000D01*
X79502000Y-156845000D02*
X81280000Y-158623000D01*
X243992400Y-129895600D02*
X245211600Y-129895600D01*
X188239400Y-145135600D02*
X188214000Y-145161000D01*
X182626000Y-138131000D02*
X184994000Y-138131000D01*
X182626000Y-138131000D02*
X182626000Y-131064000D01*
X178816000Y-143129000D02*
X178816000Y-138303000D01*
X74517000Y-131731000D02*
X76403200Y-129844800D01*
X81788000Y-147701000D02*
X81534000Y-147447000D01*
X188468000Y-92049600D02*
X193548000Y-86969600D01*
X169672000Y-185916000D02*
X169037000Y-186551000D01*
X81788000Y-147701000D02*
X84328000Y-147701000D01*
X261061200Y-183769000D02*
X261061200Y-185916000D01*
X245225000Y-129909000D02*
X266521206Y-129909000D01*
X81534000Y-130810000D02*
X168148000Y-130810000D01*
X231648000Y-159893000D02*
X232156000Y-159385000D01*
X76403200Y-129844800D02*
X80060800Y-129844800D01*
X182372000Y-130810000D02*
X182626000Y-131064000D01*
X80060800Y-129844800D02*
X81280000Y-131064000D01*
X242570000Y-130810000D02*
X242824000Y-131064000D01*
X193548000Y-86969600D02*
X193548000Y-81178400D01*
X270611600Y-129895600D02*
X272288000Y-131572000D01*
X184994000Y-138131000D02*
X185420000Y-138557000D01*
X156960000Y-140069000D02*
X156972000Y-140081000D01*
X182880000Y-130810000D02*
X215646000Y-130810000D01*
X223012000Y-160655000D02*
X215646000Y-153289000D01*
X242824000Y-131064000D02*
X243992400Y-129895600D01*
X169844000Y-143211000D02*
X169672000Y-143383000D01*
X159042600Y-89916000D02*
X161176200Y-92049600D01*
X81280000Y-138081000D02*
X81280000Y-131064000D01*
X156960000Y-138081000D02*
X156960000Y-140069000D01*
X81534000Y-147447000D02*
X79756000Y-147447000D01*
X188239400Y-142113000D02*
X188239400Y-145135600D01*
X81280000Y-158623000D02*
X81280000Y-163139000D01*
X272288000Y-131572000D02*
X272288000Y-185293000D01*
X245211600Y-129895600D02*
X245225000Y-129909000D01*
X215646000Y-153289000D02*
X215646000Y-130810000D01*
X224028000Y-169037000D02*
X223012000Y-168021000D01*
X169037000Y-186551000D02*
X75426000Y-186551000D01*
X185420000Y-138557000D02*
X185420000Y-141605000D01*
X266521206Y-129909000D02*
X266534606Y-129895600D01*
X185420000Y-141605000D02*
X185928000Y-142113000D01*
X169660000Y-185904000D02*
X169672000Y-185916000D01*
X266534606Y-129895600D02*
X270611600Y-129895600D01*
X169672000Y-140081000D02*
X169672000Y-143383000D01*
X272288000Y-185293000D02*
X271145000Y-186436000D01*
X271145000Y-186436000D02*
X261581200Y-186436000D01*
X195478400Y-79248000D02*
X249377200Y-79248000D01*
X81280000Y-131064000D02*
X81534000Y-130810000D01*
D40*
%TO.N,Net-(D8-K)*%
X225907600Y-95199200D02*
X224485200Y-93776800D01*
X234162600Y-100965000D02*
X232460800Y-99263200D01*
X231902000Y-95199200D02*
X225907600Y-95199200D01*
X224485200Y-93776800D02*
X224485200Y-91846400D01*
X232460800Y-99263200D02*
X232460800Y-95758000D01*
X232460800Y-95758000D02*
X231902000Y-95199200D01*
X238861600Y-100965000D02*
X234162600Y-100965000D01*
D41*
%TO.N,PHI1*%
X172466000Y-148587190D02*
X172466000Y-157793000D01*
X182626000Y-150831000D02*
X178835600Y-147040600D01*
X178835600Y-147040600D02*
X174012590Y-147040600D01*
X174012590Y-147040600D02*
X172466000Y-148587190D01*
X172466000Y-157793000D02*
X167120000Y-163139000D01*
D40*
%TO.N,PHI2*%
X182626000Y-153371000D02*
X183419200Y-153371000D01*
D41*
X184759600Y-170053000D02*
X184251600Y-170561000D01*
X156960000Y-170928600D02*
X156960000Y-178379000D01*
X184759600Y-154711400D02*
X184759600Y-170053000D01*
X157022800Y-170408600D02*
X157022800Y-170865800D01*
X183419200Y-153371000D02*
X184759600Y-154711400D01*
X157022800Y-170865800D02*
X156960000Y-170928600D01*
D40*
%TO.N,RDY*%
X171451450Y-156453952D02*
X171470048Y-156453952D01*
X171704000Y-146685000D02*
X172638000Y-145751000D01*
X171470048Y-156453952D02*
X171704000Y-156220000D01*
X172638000Y-145751000D02*
X175006000Y-145751000D01*
X171704000Y-156220000D02*
X171704000Y-146685000D01*
X165862000Y-156337000D02*
X165100000Y-157099000D01*
X165100000Y-157099000D02*
X164592000Y-157099000D01*
X164592000Y-157099000D02*
X164580000Y-157111000D01*
X164580000Y-157111000D02*
X164580000Y-163139000D01*
%TO.N,RESET*%
X148082000Y-177121000D02*
X149340000Y-178379000D01*
X239268000Y-159893000D02*
X239268000Y-157099000D01*
X178054000Y-144399000D02*
X177292000Y-143637000D01*
X134100000Y-142519400D02*
X134100000Y-138081000D01*
X134100000Y-138081000D02*
X134100000Y-134134000D01*
X134100000Y-134134000D02*
X134874000Y-133360000D01*
X185674000Y-157099000D02*
X185674000Y-146806596D01*
X185674000Y-146806596D02*
X183266404Y-144399000D01*
X183266404Y-144399000D02*
X178054000Y-144399000D01*
X148082000Y-142621000D02*
X148082000Y-177121000D01*
X177292000Y-143637000D02*
X177292000Y-138557000D01*
X176866000Y-138131000D02*
X175006000Y-138131000D01*
X148132800Y-142570200D02*
X148082000Y-142621000D01*
X134257247Y-142676647D02*
X134100000Y-142519400D01*
X177292000Y-138557000D02*
X176866000Y-138131000D01*
%TO.N,SCL*%
X151892000Y-149987000D02*
X151892000Y-142621000D01*
X245762000Y-172483000D02*
X247650000Y-174371000D01*
X214376000Y-136271000D02*
X214376000Y-146177000D01*
X187198000Y-132969000D02*
X211074000Y-132969000D01*
X249123200Y-111150400D02*
X249123200Y-88188800D01*
X254863600Y-116890800D02*
X249123200Y-111150400D01*
X171958000Y-135001000D02*
X173482000Y-133477000D01*
X221742000Y-161163000D02*
X221742000Y-161925000D01*
X214376000Y-146177000D02*
X214376000Y-153797000D01*
X245762000Y-162289000D02*
X245762000Y-172483000D01*
X212090000Y-133985000D02*
X214376000Y-136271000D01*
X249123200Y-88188800D02*
X248869200Y-87934800D01*
X220218000Y-159639000D02*
X221742000Y-161163000D01*
X173482000Y-133477000D02*
X175768000Y-133477000D01*
X211074000Y-132969000D02*
X212090000Y-133985000D01*
X151880000Y-153321000D02*
X151880000Y-149999000D01*
X214376000Y-153797000D02*
X220218000Y-159639000D01*
X245872000Y-162179000D02*
X245762000Y-162289000D01*
X259495300Y-116890800D02*
X254863600Y-116890800D01*
X260908800Y-118304300D02*
X259495300Y-116890800D01*
X151880000Y-149999000D02*
X151892000Y-149987000D01*
%TO.N,SDA*%
X177800000Y-134239000D02*
X174752000Y-134239000D01*
X254558800Y-120091200D02*
X262890000Y-120091200D01*
X248366400Y-89565600D02*
X248366400Y-111511200D01*
X243078000Y-172339000D02*
X245110000Y-174371000D01*
X154686000Y-143246000D02*
X154686000Y-143891000D01*
X154432000Y-144145000D02*
X154432000Y-149987000D01*
X253949200Y-119481600D02*
X254558800Y-120091200D01*
X213868000Y-155321000D02*
X213868000Y-136779000D01*
X213868000Y-136779000D02*
X210702000Y-133613000D01*
X184144702Y-133613000D02*
X183642000Y-134115702D01*
X210702000Y-133613000D02*
X184144702Y-133613000D01*
X154686000Y-143891000D02*
X154432000Y-144145000D01*
X220726000Y-162179000D02*
X213868000Y-155321000D01*
X253949200Y-117094000D02*
X253949200Y-119481600D01*
X174752000Y-134239000D02*
X172974000Y-136017000D01*
X154420000Y-153321000D02*
X154420000Y-149999000D01*
X263448800Y-119532400D02*
X263448800Y-118304300D01*
X248366400Y-111511200D02*
X253949200Y-117094000D01*
X262890000Y-120091200D02*
X263448800Y-119532400D01*
X183642000Y-134115702D02*
X183642000Y-134493000D01*
X243078000Y-162941000D02*
X243078000Y-172339000D01*
X247040400Y-88239600D02*
X248366400Y-89565600D01*
X154420000Y-149999000D02*
X154432000Y-149987000D01*
%TO.N,SYNC*%
X173228000Y-175387000D02*
X173228000Y-148971000D01*
X173228000Y-148971000D02*
X173908000Y-148291000D01*
X173908000Y-148291000D02*
X175006000Y-148291000D01*
X171958000Y-176657000D02*
X173228000Y-175387000D01*
%TO.N,~{MEMR}*%
X91440000Y-163139000D02*
X91440000Y-169799000D01*
X97646000Y-139207000D02*
X96520000Y-138081000D01*
X208788000Y-171948000D02*
X208788000Y-169037000D01*
X91440000Y-163139000D02*
X91440000Y-157099000D01*
X96520000Y-157099000D02*
X97646000Y-155973000D01*
X97646000Y-155973000D02*
X97646000Y-139207000D01*
%TO.N,~{MEMW}*%
X221488000Y-169037000D02*
X221488000Y-172847000D01*
X86360000Y-173101000D02*
X86360000Y-163139000D01*
%TO.N,Net-(D8-A)*%
X218781855Y-99835745D02*
X217652600Y-100965000D01*
X228295200Y-99835745D02*
X218781855Y-99835745D01*
%TO.N,/CPU/DB0*%
X106680000Y-141351000D02*
X106680000Y-153321000D01*
X140208000Y-136271000D02*
X138430000Y-136271000D01*
X140208000Y-160909000D02*
X140462000Y-160655000D01*
X105664000Y-140335000D02*
X106680000Y-141351000D01*
X111660000Y-171323000D02*
X111760000Y-171423000D01*
X197502000Y-168170596D02*
X197866000Y-167806596D01*
X198628000Y-171029404D02*
X197502000Y-169903404D01*
X140462000Y-136525000D02*
X140208000Y-136271000D01*
X105310000Y-154691000D02*
X105310000Y-171323000D01*
X111760000Y-171423000D02*
X111760000Y-178379000D01*
X105664000Y-139710000D02*
X105664000Y-140335000D01*
X198628000Y-181991000D02*
X198628000Y-176657000D01*
X197502000Y-169903404D02*
X197502000Y-168170596D01*
X138430000Y-136271000D02*
X138430000Y-136291000D01*
X138430000Y-136291000D02*
X136640000Y-138081000D01*
X197866000Y-167806596D02*
X197866000Y-164719000D01*
X106680000Y-153321000D02*
X105310000Y-154691000D01*
X197866000Y-164719000D02*
X197358000Y-164211000D01*
X198628000Y-176657000D02*
X198628000Y-171029404D01*
X140462000Y-160655000D02*
X140462000Y-136525000D01*
%TO.N,/CPU/DB3*%
X101854000Y-174117000D02*
X101600000Y-174371000D01*
X225897999Y-181855001D02*
X225897999Y-167350999D01*
X191008000Y-166243000D02*
X191008000Y-169037000D01*
X225897999Y-167350999D02*
X225298000Y-166751000D01*
X101600000Y-174371000D02*
X101600000Y-178379000D01*
X225098000Y-182655000D02*
X225897999Y-181855001D01*
X116840000Y-140621000D02*
X116840000Y-169037000D01*
X116840000Y-169037000D02*
X116840000Y-174117000D01*
X114300000Y-138081000D02*
X116840000Y-140621000D01*
%TO.N,/CPU/A0*%
X159500000Y-157087000D02*
X159500000Y-163139000D01*
X104140000Y-149479000D02*
X104140000Y-153321000D01*
X104394000Y-149225000D02*
X104140000Y-149479000D01*
X159500000Y-175356000D02*
X159512000Y-175368000D01*
X225098000Y-134395000D02*
X224298001Y-135194999D01*
X201168000Y-176657000D02*
X201168000Y-180838000D01*
X159258000Y-156845000D02*
X159500000Y-157087000D01*
X225154000Y-174261000D02*
X224790000Y-174625000D01*
X141720000Y-156397000D02*
X141720000Y-153321000D01*
X225154000Y-168170596D02*
X225154000Y-174261000D01*
X141720000Y-148475000D02*
X141732000Y-148463000D01*
X159500000Y-163139000D02*
X159500000Y-175356000D01*
X181229000Y-177546000D02*
X187452000Y-183769000D01*
X104394000Y-148991000D02*
X104394000Y-149225000D01*
X224298001Y-167314597D02*
X225154000Y-168170596D01*
X201168000Y-174879000D02*
X201168000Y-176657000D01*
X224298001Y-135194999D02*
X224298001Y-167314597D01*
X187452000Y-183769000D02*
X192532000Y-183769000D01*
X141720000Y-153321000D02*
X141720000Y-148475000D01*
%TO.N,/CPU/DB5*%
X107107000Y-158560000D02*
X107107000Y-158604000D01*
X110346000Y-157985000D02*
X110346000Y-139207000D01*
X106680000Y-168275000D02*
X106680000Y-163139000D01*
X106680000Y-159031000D02*
X106680000Y-163139000D01*
X110346000Y-139207000D02*
X109220000Y-138081000D01*
X197358000Y-170957000D02*
X196088000Y-169687000D01*
X196088000Y-169687000D02*
X196088000Y-169037000D01*
X109845000Y-158486000D02*
X110346000Y-157985000D01*
X107107000Y-158604000D02*
X106680000Y-159031000D01*
X107181000Y-158486000D02*
X107107000Y-158560000D01*
X197358000Y-179451000D02*
X197358000Y-170957000D01*
%TO.N,/CPU/DB2*%
X111760000Y-142621000D02*
X111760000Y-153321000D01*
X106680000Y-178379000D02*
X107950000Y-177109000D01*
X108591137Y-157530863D02*
X108591137Y-157051802D01*
X106680000Y-178379000D02*
X106680000Y-182362000D01*
X107950000Y-158172000D02*
X108591137Y-157530863D01*
X193548000Y-181737000D02*
X193548000Y-176657000D01*
X111760000Y-157099000D02*
X111760000Y-153321000D01*
X107950000Y-177109000D02*
X107950000Y-158172000D01*
%TO.N,/CPU/DB1*%
X137922000Y-164719000D02*
X137922000Y-139339000D01*
X196088000Y-176657000D02*
X196088000Y-174371000D01*
X111760000Y-161417000D02*
X111760000Y-163139000D01*
X194818000Y-173101000D02*
X194818000Y-164856000D01*
X137922000Y-139339000D02*
X139180000Y-138081000D01*
X109220000Y-153321000D02*
X109220000Y-158877000D01*
X109220000Y-158877000D02*
X111760000Y-161417000D01*
X196088000Y-182753000D02*
X196088000Y-176657000D01*
X109220000Y-141859000D02*
X109220000Y-153321000D01*
X196088000Y-174371000D02*
X194818000Y-173101000D01*
%TO.N,/CPU/DB6*%
X107442000Y-157099000D02*
X107850000Y-156691000D01*
X107850000Y-139251000D02*
X106680000Y-138081000D01*
X101600000Y-159385000D02*
X101600000Y-163139000D01*
X202438000Y-178826000D02*
X202692000Y-179080000D01*
X107850000Y-156691000D02*
X107850000Y-139251000D01*
X202438000Y-172339000D02*
X202438000Y-178826000D01*
X198628000Y-169037000D02*
X198228000Y-169037000D01*
X103886000Y-157099000D02*
X101600000Y-159385000D01*
X201168000Y-171069000D02*
X202438000Y-172339000D01*
%TO.N,/CPU/DB4*%
X91694000Y-175133000D02*
X91440000Y-175387000D01*
X113030000Y-139351000D02*
X113030000Y-174879000D01*
X111760000Y-138081000D02*
X113030000Y-139351000D01*
X91440000Y-181737000D02*
X91440000Y-178379000D01*
X192278000Y-170307000D02*
X193548000Y-169037000D01*
X192278000Y-180213000D02*
X192278000Y-170307000D01*
X91440000Y-175387000D02*
X91440000Y-178379000D01*
X192024000Y-182753000D02*
X192278000Y-182499000D01*
X192278000Y-182499000D02*
X192278000Y-180213000D01*
X188468000Y-182753000D02*
X192024000Y-182753000D01*
%TO.N,/CPU/DB7*%
X96520000Y-184785000D02*
X96520000Y-178379000D01*
X187706000Y-185016000D02*
X187729000Y-185016000D01*
X97944000Y-157099000D02*
X97690000Y-157353000D01*
X199898000Y-183769000D02*
X199898000Y-170307000D01*
X199898000Y-170307000D02*
X201168000Y-169037000D01*
X124968000Y-185016000D02*
X113261000Y-185016000D01*
X188468000Y-184277000D02*
X192154702Y-184277000D01*
X97690000Y-157353000D02*
X97690000Y-177209000D01*
X192791298Y-184395000D02*
X192909298Y-184277000D01*
X199644000Y-184023000D02*
X199898000Y-183769000D01*
X187729000Y-185016000D02*
X188468000Y-184277000D01*
X113261000Y-185016000D02*
X113030000Y-184785000D01*
X195834000Y-184277000D02*
X196088000Y-184023000D01*
X196088000Y-184023000D02*
X199644000Y-184023000D01*
X97690000Y-177209000D02*
X96520000Y-178379000D01*
X102726000Y-139495000D02*
X104140000Y-138081000D01*
X227584000Y-167513000D02*
X227584000Y-178572000D01*
X102726000Y-157143000D02*
X102726000Y-139495000D01*
X192909298Y-184277000D02*
X195834000Y-184277000D01*
X192272702Y-184395000D02*
X192791298Y-184395000D01*
X192154702Y-184277000D02*
X192272702Y-184395000D01*
D38*
%TO.N,+12MAIN*%
X251561600Y-80518000D02*
X197154800Y-80518000D01*
X166522400Y-94437200D02*
X165303200Y-95656400D01*
D41*
X253981000Y-175622000D02*
X255270000Y-176911000D01*
D38*
X195986400Y-81686400D02*
X195986400Y-88442800D01*
D41*
X253981000Y-159620000D02*
X253981000Y-175622000D01*
X151880000Y-157365000D02*
X152146000Y-157099000D01*
D38*
X195986400Y-88442800D02*
X189992000Y-94437200D01*
X255270000Y-76809600D02*
X251561600Y-80518000D01*
D41*
X252730000Y-158369000D02*
X253981000Y-159620000D01*
X151880000Y-163139000D02*
X151880000Y-157365000D01*
D38*
X197154800Y-80518000D02*
X195986400Y-81686400D01*
X189992000Y-94437200D02*
X166522400Y-94437200D01*
X165303200Y-95656400D02*
X165303200Y-98567600D01*
D40*
%TO.N,Net-(U1-DISC)*%
X195986400Y-105906000D02*
X194094800Y-105906000D01*
X186385200Y-100296000D02*
X191176600Y-100296000D01*
X191176600Y-102987800D02*
X191176600Y-100296000D01*
X194094800Y-105906000D02*
X191176600Y-102987800D01*
%TO.N,Net-(Q3-\u041A)*%
X153988667Y-108527600D02*
X126409200Y-108527600D01*
X124968000Y-107086400D02*
X124968000Y-95554800D01*
X122315600Y-92902400D02*
X110845600Y-92902400D01*
X124968000Y-95554800D02*
X122315600Y-92902400D01*
X110845600Y-92902400D02*
X110856400Y-92913200D01*
X110856400Y-92913200D02*
X110896400Y-92913200D01*
X126409200Y-108527600D02*
X124968000Y-107086400D01*
%TO.N,Net-(Q3-\u0411)*%
X121361200Y-115773200D02*
X121361200Y-100279200D01*
X123235156Y-122656600D02*
X123235156Y-117647156D01*
X123235156Y-117647156D02*
X121361200Y-115773200D01*
%TO.N,Net-(U5-XTAL2)*%
X202946000Y-142367000D02*
X202946000Y-139827000D01*
%TO.N,/CPU/A12*%
X129020000Y-157111000D02*
X129032000Y-157099000D01*
X130048000Y-174371000D02*
X130048000Y-164167000D01*
X115570000Y-150749000D02*
X114046000Y-149225000D01*
X115570000Y-157099000D02*
X115570000Y-150749000D01*
X130048000Y-164167000D02*
X129020000Y-163139000D01*
X129020000Y-163139000D02*
X129020000Y-157111000D01*
%TO.N,Net-(U5-~{STSTB})*%
X81280000Y-178379000D02*
X79502000Y-176601000D01*
X79502000Y-176601000D02*
X79502000Y-158369000D01*
%TO.N,/CPU/A1*%
X139192000Y-148717000D02*
X139180000Y-148729000D01*
X156972000Y-156567000D02*
X156960000Y-156579000D01*
X101600000Y-153321000D02*
X101600000Y-149616000D01*
X139180000Y-155692000D02*
X139180000Y-153321000D01*
X203708000Y-176657000D02*
X203708000Y-171069000D01*
X202438000Y-169799000D02*
X202438000Y-163703000D01*
X153416000Y-155946000D02*
X153807000Y-156337000D01*
X139180000Y-148729000D02*
X139180000Y-153321000D01*
X155702000Y-168783000D02*
X155702000Y-164397000D01*
X176022000Y-163566000D02*
X176022000Y-168529000D01*
X203708000Y-171069000D02*
X202438000Y-169799000D01*
X156972000Y-156454000D02*
X156972000Y-156567000D01*
X153807000Y-156337000D02*
X156855000Y-156337000D01*
X155702000Y-164397000D02*
X156960000Y-163139000D01*
X156960000Y-156579000D02*
X156960000Y-163139000D01*
X156855000Y-156337000D02*
X156972000Y-156454000D01*
%TO.N,/CPU/A10*%
X206248000Y-156591000D02*
X206248000Y-169037000D01*
X192278000Y-134239000D02*
X201168000Y-143129000D01*
X121400000Y-174129000D02*
X121412000Y-174117000D01*
X184404000Y-134239000D02*
X192278000Y-134239000D01*
X201168000Y-143129000D02*
X201168000Y-151511000D01*
X201168000Y-151511000D02*
X206248000Y-156591000D01*
X117856000Y-174117000D02*
X117856000Y-140335000D01*
X121400000Y-178379000D02*
X121400000Y-174129000D01*
%TO.N,/CPU/A2*%
X206248000Y-173609000D02*
X206248000Y-176657000D01*
X100330000Y-168275000D02*
X100838000Y-168783000D01*
X154420000Y-173597000D02*
X154432000Y-173609000D01*
X100330000Y-154591000D02*
X100330000Y-168275000D01*
X154420000Y-163139000D02*
X154420000Y-173597000D01*
X99060000Y-153321000D02*
X100330000Y-154591000D01*
%TO.N,/CPU/A11*%
X211328000Y-137795000D02*
X211328000Y-169037000D01*
X95394000Y-139495000D02*
X93980000Y-138081000D01*
X95504000Y-160909000D02*
X95394000Y-160799000D01*
X121400000Y-160921000D02*
X121412000Y-160909000D01*
X95394000Y-160799000D02*
X95394000Y-139495000D01*
X211074000Y-137541000D02*
X211328000Y-137795000D01*
X121400000Y-163139000D02*
X121400000Y-160921000D01*
%TO.N,/CPU/A4*%
X146812000Y-158232000D02*
X146812000Y-158720358D01*
X146812000Y-158232000D02*
X146812000Y-156962000D01*
X93980000Y-153321000D02*
X93980000Y-149225000D01*
X209914000Y-171062000D02*
X211328000Y-172476000D01*
X209914000Y-158877000D02*
X209914000Y-171062000D01*
X134100000Y-147459000D02*
X134100000Y-153321000D01*
X134112000Y-147447000D02*
X134100000Y-147459000D01*
X134112000Y-146822000D02*
X134112000Y-147447000D01*
X146800000Y-158732358D02*
X146800000Y-163139000D01*
X134100000Y-155692000D02*
X134100000Y-153321000D01*
X211328000Y-172476000D02*
X211328000Y-176657000D01*
X146812000Y-158720358D02*
X146800000Y-158732358D01*
%TO.N,/CPU/A7*%
X217053000Y-164856000D02*
X217678000Y-165481000D01*
X139180000Y-160655000D02*
X139180000Y-163139000D01*
X217678000Y-175387000D02*
X218948000Y-176657000D01*
X216931116Y-164856000D02*
X217053000Y-164856000D01*
X215458058Y-163382942D02*
X216931116Y-164856000D01*
X217678000Y-165481000D02*
X217678000Y-175387000D01*
X86360000Y-161163000D02*
X86360000Y-153321000D01*
X139192000Y-160667000D02*
X139192000Y-166751000D01*
X139180000Y-160655000D02*
X139192000Y-160667000D01*
%TO.N,/CPU/A8*%
X90170000Y-152598596D02*
X90170000Y-160264000D01*
X90584000Y-152184596D02*
X90170000Y-152598596D01*
X216408000Y-165218182D02*
X213360000Y-162170182D01*
X213360000Y-162170182D02*
X213360000Y-161417000D01*
X136640000Y-160643000D02*
X136640000Y-163139000D01*
X136652000Y-160264000D02*
X136652000Y-160631000D01*
X136652000Y-160631000D02*
X136640000Y-160643000D01*
X90584000Y-139765000D02*
X90584000Y-152184596D01*
X216408000Y-169037000D02*
X216408000Y-165218182D01*
X88900000Y-138081000D02*
X90584000Y-139765000D01*
%TO.N,/CPU/A6*%
X87630000Y-159639000D02*
X87630000Y-170561000D01*
X88528000Y-158741000D02*
X87630000Y-159639000D01*
X88528000Y-153693000D02*
X88528000Y-158741000D01*
X141732000Y-172476000D02*
X141720000Y-172464000D01*
X216408000Y-176657000D02*
X216408000Y-172222000D01*
X216408000Y-172222000D02*
X216154000Y-171968000D01*
X88900000Y-153321000D02*
X88528000Y-153693000D01*
X141720000Y-172464000D02*
X141720000Y-163139000D01*
%TO.N,/CPU/A3*%
X149340000Y-173851000D02*
X149340000Y-163139000D01*
X149606000Y-174117000D02*
X149340000Y-173851000D01*
X150478000Y-147557000D02*
X150478000Y-162001000D01*
X150368000Y-147447000D02*
X150478000Y-147557000D01*
X150478000Y-162001000D02*
X149340000Y-163139000D01*
X96520000Y-153321000D02*
X96520000Y-149616000D01*
X208788000Y-176657000D02*
X208788000Y-174117000D01*
%TO.N,/CPU/A14*%
X212344000Y-158115000D02*
X220362000Y-166133000D01*
X123698000Y-158115000D02*
X123940000Y-158357000D01*
X123940000Y-158357000D02*
X123940000Y-163139000D01*
X212344000Y-150241000D02*
X212344000Y-158115000D01*
X83820000Y-153321000D02*
X83820000Y-157607000D01*
X220362000Y-175531000D02*
X221488000Y-176657000D01*
X220362000Y-166133000D02*
X220362000Y-175531000D01*
%TO.N,/CPU/A5*%
X176784000Y-160655000D02*
X176784000Y-175895000D01*
X212454000Y-162666298D02*
X212090000Y-162302298D01*
X213868000Y-176657000D02*
X212454000Y-175243000D01*
X144260000Y-163139000D02*
X144260000Y-175375000D01*
X91440000Y-153321000D02*
X91440000Y-149479000D01*
X143134000Y-147061000D02*
X143134000Y-162013000D01*
X144260000Y-175375000D02*
X144780000Y-175895000D01*
X212454000Y-175243000D02*
X212454000Y-162666298D01*
X143764000Y-146431000D02*
X143134000Y-147061000D01*
X176784000Y-175895000D02*
X176530000Y-176149000D01*
X91440000Y-149479000D02*
X91694000Y-149225000D01*
X212090000Y-162302298D02*
X212090000Y-160655000D01*
X143134000Y-162013000D02*
X144260000Y-163139000D01*
%TO.N,/CPU/A9*%
X133580000Y-156337000D02*
X133834000Y-156591000D01*
X92710000Y-139351000D02*
X92710000Y-156337000D01*
X134100000Y-171206000D02*
X134100000Y-163139000D01*
X91440000Y-138081000D02*
X92710000Y-139351000D01*
X133858000Y-156591000D02*
X134100000Y-156833000D01*
X133834000Y-156591000D02*
X133858000Y-156591000D01*
X133350000Y-156337000D02*
X133580000Y-156337000D01*
X213614000Y-164856000D02*
X213614000Y-168783000D01*
X213614000Y-168783000D02*
X213868000Y-169037000D01*
X174244000Y-171206000D02*
X174244000Y-162941000D01*
X134100000Y-156833000D02*
X134100000Y-163139000D01*
%TO.N,/CPU/A13*%
X126480000Y-160159000D02*
X126480000Y-163139000D01*
X218948000Y-165987586D02*
X212599414Y-159639000D01*
X88044000Y-152184596D02*
X87630000Y-152598596D01*
X88044000Y-141765000D02*
X88044000Y-152184596D01*
X87630000Y-152598596D02*
X87630000Y-158623000D01*
X212599414Y-159639000D02*
X212344000Y-159639000D01*
X86360000Y-140081000D02*
X87884000Y-141605000D01*
X86360000Y-138081000D02*
X86360000Y-140081000D01*
X126492000Y-160147000D02*
X126480000Y-160159000D01*
X126492000Y-159639000D02*
X126492000Y-160147000D01*
X87884000Y-141605000D02*
X88044000Y-141765000D01*
X218948000Y-169037000D02*
X218948000Y-165987586D01*
%TO.N,/CPU/A15*%
X129743200Y-154590204D02*
X129743200Y-161322200D01*
X129743200Y-161322200D02*
X131560000Y-163139000D01*
X129794000Y-141097000D02*
X129743200Y-141147800D01*
X129743200Y-152051796D02*
X130146000Y-152454596D01*
X101600000Y-138081000D02*
X101600000Y-140960000D01*
X130146000Y-152454596D02*
X130146000Y-154187404D01*
X130146000Y-154187404D02*
X129743200Y-154590204D01*
X129743200Y-141147800D02*
X129743200Y-152051796D01*
%TO.N,Net-(U9C-Y)*%
X244348000Y-167513000D02*
X244348000Y-159893000D01*
%TO.N,/CPU/D5*%
X104140000Y-163139000D02*
X104140000Y-172456000D01*
X129020000Y-172859000D02*
X129020000Y-178379000D01*
X128651000Y-172466000D02*
X128651000Y-172490000D01*
X128651000Y-172490000D02*
X129020000Y-172859000D01*
%TO.N,/CPU/D4*%
X126238000Y-178621000D02*
X126480000Y-178379000D01*
%TO.N,HLDA*%
X83820000Y-178379000D02*
X83820000Y-167513000D01*
X169672000Y-167513000D02*
X169660000Y-167501000D01*
X169660000Y-167501000D02*
X169660000Y-163139000D01*
%TO.N,DBIN*%
X161798000Y-183745000D02*
X162040000Y-183503000D01*
X88900000Y-178379000D02*
X88900000Y-181483000D01*
X161798000Y-183769000D02*
X161798000Y-183745000D01*
X162040000Y-183503000D02*
X162040000Y-178379000D01*
%TO.N,~{IOR}*%
X88900000Y-163139000D02*
X88900000Y-159131000D01*
X130556000Y-159014000D02*
X131497200Y-159014000D01*
X131560000Y-158951200D02*
X131560000Y-153321000D01*
X131497200Y-159014000D02*
X131560000Y-158951200D01*
X132588000Y-145932000D02*
X132588000Y-152293000D01*
X132588000Y-152293000D02*
X131560000Y-153321000D01*
X133608500Y-144911500D02*
X132588000Y-145932000D01*
X88900000Y-159131000D02*
X89154000Y-158877000D01*
%TO.N,/CPU/D6*%
X99060000Y-163139000D02*
X99060000Y-173609000D01*
X131318000Y-173609000D02*
X131560000Y-173851000D01*
X131560000Y-173851000D02*
X131560000Y-178379000D01*
%TO.N,~{WR}*%
X86360000Y-178379000D02*
X86360000Y-180467000D01*
%TO.N,~{IOW}*%
X85090000Y-160909000D02*
X85090000Y-151765000D01*
X172415200Y-141655800D02*
X172415200Y-138400286D01*
X131560000Y-149213000D02*
X131560000Y-145211800D01*
X131572000Y-149225000D02*
X131560000Y-149213000D01*
X83820000Y-163139000D02*
X83820000Y-162179000D01*
X174913486Y-135902000D02*
X180644800Y-135902000D01*
X83820000Y-162179000D02*
X84582000Y-161417000D01*
X185826400Y-136575800D02*
X186385200Y-137134600D01*
X85090000Y-151765000D02*
X86106000Y-150749000D01*
X172415200Y-138400286D02*
X174913486Y-135902000D01*
X84582000Y-161417000D02*
X85090000Y-160909000D01*
X131560000Y-145211800D02*
X131560000Y-138081000D01*
X186385200Y-137134600D02*
X193548000Y-137134600D01*
%TO.N,/CPU/D7*%
X99060000Y-178379000D02*
X99060000Y-180584000D01*
X99060000Y-180584000D02*
X99822000Y-181346000D01*
X134100000Y-181346000D02*
X134100000Y-178379000D01*
%TO.N,/CPU/D1*%
X109374000Y-175641000D02*
X109220000Y-175487000D01*
X109220000Y-175487000D02*
X109220000Y-163139000D01*
%TO.N,/CPU/D3*%
X136640000Y-181346000D02*
X136640000Y-178379000D01*
X104140000Y-178379000D02*
X104140000Y-181854000D01*
%TO.N,/CPU/D0*%
X114200000Y-175016000D02*
X114300000Y-174916000D01*
X114300000Y-174916000D02*
X114300000Y-163139000D01*
%TO.N,BTN1*%
X156960000Y-149999000D02*
X156972000Y-149987000D01*
X170502500Y-156962000D02*
X170502500Y-156776500D01*
X170502500Y-156776500D02*
X169437000Y-155711000D01*
X159350000Y-155711000D02*
X156960000Y-153321000D01*
X169437000Y-155711000D02*
X159350000Y-155711000D01*
X156960000Y-153321000D02*
X156960000Y-149999000D01*
X178562000Y-157099000D02*
X182372000Y-157099000D01*
X182372000Y-157099000D02*
X183956942Y-158683942D01*
D43*
%TO.N,Net-(U3-COMP)*%
X92760800Y-98196400D02*
X92760800Y-111455200D01*
X93802200Y-112496600D02*
X96012000Y-112496600D01*
X92760800Y-111455200D02*
X93802200Y-112496600D01*
%TO.N,Net-(U3-SS{slash}TR)*%
X83094200Y-104140000D02*
X83094200Y-102681400D01*
X83718400Y-102057200D02*
X83718400Y-100279200D01*
X83616800Y-102158800D02*
X83718400Y-102057200D01*
X83718400Y-100279200D02*
X83718400Y-99872800D01*
X83718400Y-99872800D02*
X84074000Y-99517200D01*
X83094200Y-102681400D02*
X83616800Y-102158800D01*
D40*
%TO.N,Net-(U3-VSENSE)*%
X95402400Y-110236000D02*
X107035600Y-110236000D01*
X107679067Y-110879467D02*
X107679067Y-112496600D01*
X107035600Y-110236000D02*
X107679067Y-110879467D01*
X93980000Y-99669600D02*
X93980000Y-108813600D01*
X93980000Y-108813600D02*
X95402400Y-110236000D01*
%TO.N,Net-(U3-PWRGD)*%
X91694000Y-100482400D02*
X91694000Y-98377902D01*
X123235156Y-99511556D02*
X123235156Y-112496600D01*
X121294000Y-97570400D02*
X123235156Y-99511556D01*
X91694000Y-98377902D02*
X92501502Y-97570400D01*
X92501502Y-97570400D02*
X121294000Y-97570400D01*
%TO.N,Net-(U3-RT{slash}CLK)*%
X89103200Y-114604800D02*
X86766400Y-114604800D01*
X89154000Y-114655600D02*
X89103200Y-114604800D01*
X86766400Y-114604800D02*
X86258400Y-114096800D01*
X99364800Y-114655600D02*
X89154000Y-114655600D01*
X86258400Y-114096800D02*
X86258400Y-101498400D01*
X99901022Y-114119378D02*
X99364800Y-114655600D01*
X99901022Y-112496600D02*
X99901022Y-114119378D01*
X86258400Y-101498400D02*
X84937600Y-100177600D01*
%TO.N,Net-(D1-K)*%
X130911600Y-76301600D02*
X137160000Y-70053200D01*
X137160000Y-70053200D02*
X188163200Y-70053200D01*
%TO.N,Net-(U1-OUT)*%
X208472400Y-103327200D02*
X203645200Y-103327200D01*
X203645200Y-103327200D02*
X203606400Y-103366000D01*
%TO.N,~{RESIN}*%
X236982000Y-145161000D02*
X236982000Y-145415000D01*
X243944000Y-116063200D02*
X250444000Y-116063200D01*
X198374000Y-145161000D02*
X198374000Y-142138400D01*
X237998000Y-172339000D02*
X240030000Y-174371000D01*
X237998000Y-146431000D02*
X237998000Y-172339000D01*
X243944000Y-88851600D02*
X243944000Y-116063200D01*
X236982000Y-145415000D02*
X237998000Y-146431000D01*
X243738400Y-88646000D02*
X243944000Y-88851600D01*
X194310000Y-151765000D02*
X194310000Y-145161000D01*
X198374000Y-142138400D02*
X198399400Y-142113000D01*
%TO.N,BTN2*%
X159500000Y-149999000D02*
X159512000Y-149987000D01*
X254508000Y-157861000D02*
X256540000Y-159893000D01*
X159500000Y-153321000D02*
X159500000Y-149999000D01*
X242570000Y-170561000D02*
X242570000Y-174371000D01*
X208127600Y-111353600D02*
X196697600Y-111353600D01*
X242316000Y-170307000D02*
X242570000Y-170561000D01*
X194769000Y-113282200D02*
X194769000Y-116063200D01*
X196697600Y-111353600D02*
X194769000Y-113282200D01*
X256540000Y-159893000D02*
X256540000Y-170053000D01*
%TO.N,1WIRE*%
X164580000Y-149999000D02*
X164592000Y-149987000D01*
X164592000Y-147955000D02*
X164846000Y-147701000D01*
X164592000Y-149987000D02*
X164592000Y-147955000D01*
X164580000Y-153321000D02*
X164580000Y-149999000D01*
%TO.N,BTN3*%
X235458000Y-172339000D02*
X240030000Y-176911000D01*
X212970000Y-147819000D02*
X212970000Y-155693000D01*
X213106000Y-147310000D02*
X213106000Y-147683000D01*
X212970000Y-155693000D02*
X219964000Y-162687000D01*
X162040000Y-153321000D02*
X162040000Y-149999000D01*
X206298800Y-112522000D02*
X197662800Y-112522000D01*
X197662800Y-112522000D02*
X197612000Y-112471200D01*
X212852000Y-147056000D02*
X213106000Y-147310000D01*
X162040000Y-149999000D02*
X162052000Y-149987000D01*
X213106000Y-147683000D02*
X212970000Y-147819000D01*
X235458000Y-163703000D02*
X235458000Y-172339000D01*
%TO.N,~{RESET}*%
X241808000Y-156337000D02*
X241808000Y-159893000D01*
X220018000Y-134395000D02*
X220018000Y-155883000D01*
X220018000Y-155883000D02*
X220218000Y-156083000D01*
%TO.N,~{A4}*%
X222758000Y-136779000D02*
X222758000Y-134595000D01*
X229018000Y-164973000D02*
X228764000Y-164719000D01*
X228764000Y-164719000D02*
X228764000Y-137197000D01*
X222758000Y-134595000D02*
X222558000Y-134395000D01*
X228764000Y-137197000D02*
X228600000Y-137033000D01*
%TO.N,LS1*%
X245110000Y-88595200D02*
X245110000Y-102768400D01*
X249428000Y-160909000D02*
X249174000Y-161163000D01*
X246146000Y-103804400D02*
X247040400Y-103804400D01*
X249174000Y-169037000D02*
X249014000Y-169197000D01*
X248137116Y-175735000D02*
X246286000Y-175735000D01*
X248412000Y-159893000D02*
X249428000Y-160909000D01*
X246888000Y-159893000D02*
X248412000Y-159893000D01*
X249014000Y-174858116D02*
X248137116Y-175735000D01*
X249174000Y-161163000D02*
X249174000Y-169037000D01*
X245110000Y-102768400D02*
X246146000Y-103804400D01*
X246286000Y-175735000D02*
X245110000Y-176911000D01*
X249014000Y-169197000D02*
X249014000Y-174858116D01*
%TD*%
%TA.AperFunction,Conductor*%
%TO.N,GND*%
G36*
X141504425Y-85769805D02*
G01*
X141571444Y-85789541D01*
X141592002Y-85806122D01*
X150759260Y-94973381D01*
X150759261Y-94973382D01*
X150851695Y-95065816D01*
X150898619Y-95112740D01*
X151062479Y-95222228D01*
X151062492Y-95222235D01*
X151150078Y-95258514D01*
X151150079Y-95258514D01*
X151244564Y-95297651D01*
X151437854Y-95336099D01*
X151437857Y-95336100D01*
X151437859Y-95336100D01*
X161078218Y-95336100D01*
X161145257Y-95355785D01*
X161165899Y-95372419D01*
X161726381Y-95932901D01*
X161759866Y-95994224D01*
X161762700Y-96020582D01*
X161762700Y-97414386D01*
X161743015Y-97481425D01*
X161726381Y-97502067D01*
X161654916Y-97573531D01*
X161654916Y-97573532D01*
X161654914Y-97573534D01*
X161612432Y-97632006D01*
X161520483Y-97758561D01*
X161416650Y-97962344D01*
X161345978Y-98179850D01*
X161345978Y-98179853D01*
X161310200Y-98405746D01*
X161310200Y-98729453D01*
X161345978Y-98955346D01*
X161345978Y-98955349D01*
X161416650Y-99172855D01*
X161451792Y-99241824D01*
X161520483Y-99376638D01*
X161654914Y-99561666D01*
X161816634Y-99723386D01*
X161952375Y-99822008D01*
X161961585Y-99828699D01*
X162004251Y-99884029D01*
X162012700Y-99929017D01*
X162012700Y-109293918D01*
X162012700Y-109293920D01*
X162012699Y-109293920D01*
X162041540Y-109438907D01*
X162041543Y-109438917D01*
X162098114Y-109575492D01*
X162131012Y-109624727D01*
X162131013Y-109624730D01*
X162180246Y-109698414D01*
X162180252Y-109698421D01*
X163520784Y-111038952D01*
X163520786Y-111038954D01*
X163550258Y-111058645D01*
X163594470Y-111088186D01*
X163643705Y-111121084D01*
X163643706Y-111121084D01*
X163643707Y-111121085D01*
X163643709Y-111121086D01*
X163780282Y-111177656D01*
X163780287Y-111177658D01*
X163780291Y-111177658D01*
X163780292Y-111177659D01*
X163925279Y-111206500D01*
X181267669Y-111206500D01*
X181334708Y-111226185D01*
X181380463Y-111278989D01*
X181391669Y-111330573D01*
X181383488Y-125135473D01*
X181363764Y-125202501D01*
X181310933Y-125248225D01*
X181259488Y-125259400D01*
X136805051Y-125259400D01*
X136738012Y-125239715D01*
X136692257Y-125186911D01*
X136681053Y-125136022D01*
X136630683Y-115096472D01*
X144455900Y-115096472D01*
X144455900Y-115358727D01*
X144476358Y-115514110D01*
X144490130Y-115618716D01*
X144548031Y-115834807D01*
X144558002Y-115872018D01*
X144558005Y-115872028D01*
X144658353Y-116114290D01*
X144658358Y-116114300D01*
X144789475Y-116341403D01*
X144949118Y-116549451D01*
X144949126Y-116549460D01*
X145134540Y-116734874D01*
X145134548Y-116734881D01*
X145342596Y-116894524D01*
X145569699Y-117025641D01*
X145569709Y-117025646D01*
X145811971Y-117125994D01*
X145811981Y-117125998D01*
X146065284Y-117193870D01*
X146325280Y-117228100D01*
X146325287Y-117228100D01*
X146587513Y-117228100D01*
X146587520Y-117228100D01*
X146847516Y-117193870D01*
X147100819Y-117125998D01*
X147343097Y-117025643D01*
X147570203Y-116894524D01*
X147778251Y-116734882D01*
X147778255Y-116734877D01*
X147778260Y-116734874D01*
X147963674Y-116549460D01*
X147963677Y-116549455D01*
X147963682Y-116549451D01*
X148123324Y-116341403D01*
X148254443Y-116114297D01*
X148354798Y-115872019D01*
X148422670Y-115618716D01*
X148456900Y-115358720D01*
X148456900Y-115096480D01*
X148456899Y-115096472D01*
X163302700Y-115096472D01*
X163302700Y-115358727D01*
X163323158Y-115514110D01*
X163336930Y-115618716D01*
X163394831Y-115834807D01*
X163404802Y-115872018D01*
X163404805Y-115872028D01*
X163505153Y-116114290D01*
X163505158Y-116114300D01*
X163636275Y-116341403D01*
X163795918Y-116549451D01*
X163795926Y-116549460D01*
X163981340Y-116734874D01*
X163981348Y-116734881D01*
X164189396Y-116894524D01*
X164416499Y-117025641D01*
X164416509Y-117025646D01*
X164658771Y-117125994D01*
X164658781Y-117125998D01*
X164912084Y-117193870D01*
X165172080Y-117228100D01*
X165172087Y-117228100D01*
X165434313Y-117228100D01*
X165434320Y-117228100D01*
X165694316Y-117193870D01*
X165947619Y-117125998D01*
X166189897Y-117025643D01*
X166417003Y-116894524D01*
X166625051Y-116734882D01*
X166625055Y-116734877D01*
X166625060Y-116734874D01*
X166810474Y-116549460D01*
X166810477Y-116549455D01*
X166810482Y-116549451D01*
X166970124Y-116341403D01*
X167101243Y-116114297D01*
X167201598Y-115872019D01*
X167269470Y-115618716D01*
X167303700Y-115358720D01*
X167303700Y-115096480D01*
X167303247Y-115093043D01*
X167302160Y-115084788D01*
X167269470Y-114836484D01*
X167201598Y-114583181D01*
X167201594Y-114583171D01*
X167101246Y-114340909D01*
X167101241Y-114340899D01*
X166970124Y-114113796D01*
X166810481Y-113905748D01*
X166810474Y-113905740D01*
X166625060Y-113720326D01*
X166625051Y-113720318D01*
X166417003Y-113560675D01*
X166189900Y-113429558D01*
X166189890Y-113429553D01*
X165947628Y-113329205D01*
X165947621Y-113329203D01*
X165947619Y-113329202D01*
X165694316Y-113261330D01*
X165636539Y-113253723D01*
X165434327Y-113227100D01*
X165434320Y-113227100D01*
X165172080Y-113227100D01*
X165172072Y-113227100D01*
X164940972Y-113257526D01*
X164912084Y-113261330D01*
X164658781Y-113329202D01*
X164658771Y-113329205D01*
X164416509Y-113429553D01*
X164416499Y-113429558D01*
X164189396Y-113560675D01*
X163981348Y-113720318D01*
X163795918Y-113905748D01*
X163636275Y-114113796D01*
X163505158Y-114340899D01*
X163505153Y-114340909D01*
X163404805Y-114583171D01*
X163404802Y-114583181D01*
X163336930Y-114836485D01*
X163302700Y-115096472D01*
X148456899Y-115096472D01*
X148456447Y-115093043D01*
X148455360Y-115084788D01*
X148422670Y-114836484D01*
X148354798Y-114583181D01*
X148354794Y-114583171D01*
X148254446Y-114340909D01*
X148254441Y-114340899D01*
X148123324Y-114113796D01*
X147963681Y-113905748D01*
X147963674Y-113905740D01*
X147778260Y-113720326D01*
X147778251Y-113720318D01*
X147570203Y-113560675D01*
X147343100Y-113429558D01*
X147343090Y-113429553D01*
X147100828Y-113329205D01*
X147100821Y-113329203D01*
X147100819Y-113329202D01*
X146847516Y-113261330D01*
X146789739Y-113253723D01*
X146587527Y-113227100D01*
X146587520Y-113227100D01*
X146325280Y-113227100D01*
X146325272Y-113227100D01*
X146094172Y-113257526D01*
X146065284Y-113261330D01*
X145811981Y-113329202D01*
X145811971Y-113329205D01*
X145569709Y-113429553D01*
X145569699Y-113429558D01*
X145342596Y-113560675D01*
X145134548Y-113720318D01*
X144949118Y-113905748D01*
X144789475Y-114113796D01*
X144658358Y-114340899D01*
X144658353Y-114340909D01*
X144558005Y-114583171D01*
X144558002Y-114583181D01*
X144490130Y-114836485D01*
X144455900Y-115096472D01*
X136630683Y-115096472D01*
X136630666Y-115093043D01*
X136601490Y-109277722D01*
X136620838Y-109210585D01*
X136673411Y-109164565D01*
X136725488Y-109153100D01*
X152772552Y-109153100D01*
X152839591Y-109172785D01*
X152872273Y-109206171D01*
X152873516Y-109205269D01*
X152996695Y-109374813D01*
X153141453Y-109519571D01*
X153286191Y-109624727D01*
X153307057Y-109639887D01*
X153421923Y-109698414D01*
X153489443Y-109732818D01*
X153489445Y-109732818D01*
X153489448Y-109732820D01*
X153593804Y-109766727D01*
X153684132Y-109796077D01*
X153785224Y-109812088D01*
X153886315Y-109828100D01*
X153886316Y-109828100D01*
X154091018Y-109828100D01*
X154091019Y-109828100D01*
X154293201Y-109796077D01*
X154487886Y-109732820D01*
X154670277Y-109639887D01*
X154763257Y-109572332D01*
X154835880Y-109519571D01*
X154835882Y-109519568D01*
X154835886Y-109519566D01*
X154980633Y-109374819D01*
X154980635Y-109374815D01*
X154980638Y-109374813D01*
X155039409Y-109293920D01*
X155100954Y-109209210D01*
X155193887Y-109026819D01*
X155257144Y-108832134D01*
X155289167Y-108629952D01*
X155289167Y-108425248D01*
X156470433Y-108425248D01*
X156470433Y-108629951D01*
X156502455Y-108832134D01*
X156565714Y-109026823D01*
X156658648Y-109209213D01*
X156778961Y-109374813D01*
X156923719Y-109519571D01*
X157068457Y-109624727D01*
X157089323Y-109639887D01*
X157204189Y-109698414D01*
X157271709Y-109732818D01*
X157271711Y-109732818D01*
X157271714Y-109732820D01*
X157376070Y-109766727D01*
X157466398Y-109796077D01*
X157567490Y-109812088D01*
X157668581Y-109828100D01*
X157668582Y-109828100D01*
X157873284Y-109828100D01*
X157873285Y-109828100D01*
X158075467Y-109796077D01*
X158270152Y-109732820D01*
X158452543Y-109639887D01*
X158545523Y-109572332D01*
X158618146Y-109519571D01*
X158618148Y-109519568D01*
X158618152Y-109519566D01*
X158762899Y-109374819D01*
X158762901Y-109374815D01*
X158762904Y-109374813D01*
X158821675Y-109293920D01*
X158883220Y-109209210D01*
X158976153Y-109026819D01*
X159039410Y-108832134D01*
X159071433Y-108629952D01*
X159071433Y-108425248D01*
X159039410Y-108223066D01*
X158976153Y-108028381D01*
X158976151Y-108028378D01*
X158976151Y-108028376D01*
X158942436Y-107962207D01*
X158883220Y-107845990D01*
X158875489Y-107835349D01*
X158762904Y-107680386D01*
X158618146Y-107535628D01*
X158452546Y-107415315D01*
X158452545Y-107415314D01*
X158452543Y-107415313D01*
X158388497Y-107382680D01*
X158270156Y-107322381D01*
X158075467Y-107259122D01*
X157900928Y-107231478D01*
X157873285Y-107227100D01*
X157668581Y-107227100D01*
X157644262Y-107230951D01*
X157466398Y-107259122D01*
X157271709Y-107322381D01*
X157089319Y-107415315D01*
X156923719Y-107535628D01*
X156778961Y-107680386D01*
X156658648Y-107845986D01*
X156565714Y-108028376D01*
X156502455Y-108223065D01*
X156470433Y-108425248D01*
X155289167Y-108425248D01*
X155257144Y-108223066D01*
X155193887Y-108028381D01*
X155193885Y-108028378D01*
X155193885Y-108028376D01*
X155160170Y-107962207D01*
X155100954Y-107845990D01*
X155093223Y-107835349D01*
X154980638Y-107680386D01*
X154835880Y-107535628D01*
X154670280Y-107415315D01*
X154670279Y-107415314D01*
X154670277Y-107415313D01*
X154606231Y-107382680D01*
X154487890Y-107322381D01*
X154293201Y-107259122D01*
X154118662Y-107231478D01*
X154091019Y-107227100D01*
X153886315Y-107227100D01*
X153861996Y-107230951D01*
X153684132Y-107259122D01*
X153489443Y-107322381D01*
X153307053Y-107415315D01*
X153141453Y-107535628D01*
X152996695Y-107680386D01*
X152873516Y-107849931D01*
X152871843Y-107848715D01*
X152826459Y-107889769D01*
X152772552Y-107902100D01*
X126719653Y-107902100D01*
X126652614Y-107882415D01*
X126631972Y-107865781D01*
X125629819Y-106863628D01*
X125596334Y-106802305D01*
X125593500Y-106775947D01*
X125593500Y-99196072D01*
X126472700Y-99196072D01*
X126472700Y-99458327D01*
X126489108Y-99582951D01*
X126506930Y-99718316D01*
X126572131Y-99961649D01*
X126574802Y-99971618D01*
X126574805Y-99971628D01*
X126675153Y-100213890D01*
X126675158Y-100213900D01*
X126806275Y-100441003D01*
X126965918Y-100649051D01*
X126965926Y-100649060D01*
X127151340Y-100834474D01*
X127151348Y-100834481D01*
X127359396Y-100994124D01*
X127586499Y-101125241D01*
X127586509Y-101125246D01*
X127828771Y-101225594D01*
X127828781Y-101225598D01*
X128082084Y-101293470D01*
X128342080Y-101327700D01*
X128342087Y-101327700D01*
X128604313Y-101327700D01*
X128604320Y-101327700D01*
X128864316Y-101293470D01*
X129117619Y-101225598D01*
X129359897Y-101125243D01*
X129587003Y-100994124D01*
X129795051Y-100834482D01*
X129795055Y-100834477D01*
X129795060Y-100834474D01*
X129980474Y-100649060D01*
X129980477Y-100649055D01*
X129980482Y-100649051D01*
X130140124Y-100441003D01*
X130271243Y-100213897D01*
X130371598Y-99971619D01*
X130439470Y-99718316D01*
X130473700Y-99458320D01*
X130473700Y-99196080D01*
X130439470Y-98936084D01*
X130371598Y-98682781D01*
X130271245Y-98440509D01*
X130271241Y-98440499D01*
X130251176Y-98405746D01*
X142463400Y-98405746D01*
X142463400Y-98729453D01*
X142499178Y-98955346D01*
X142499178Y-98955349D01*
X142569850Y-99172855D01*
X142604992Y-99241824D01*
X142673683Y-99376638D01*
X142808114Y-99561666D01*
X142969834Y-99723386D01*
X143154862Y-99857817D01*
X143237704Y-99900027D01*
X143358644Y-99961649D01*
X143576151Y-100032321D01*
X143576152Y-100032321D01*
X143576155Y-100032322D01*
X143802046Y-100068100D01*
X143802047Y-100068100D01*
X144030753Y-100068100D01*
X144030754Y-100068100D01*
X144256645Y-100032322D01*
X144256648Y-100032321D01*
X144256649Y-100032321D01*
X144474155Y-99961649D01*
X144474155Y-99961648D01*
X144474158Y-99961648D01*
X144677938Y-99857817D01*
X144862966Y-99723386D01*
X145024686Y-99561666D01*
X145086083Y-99477159D01*
X145141412Y-99434496D01*
X145211025Y-99428517D01*
X145272820Y-99461123D01*
X145286714Y-99477156D01*
X145348114Y-99561666D01*
X145509834Y-99723386D01*
X145694862Y-99857817D01*
X145777704Y-99900027D01*
X145898644Y-99961649D01*
X146116151Y-100032321D01*
X146116152Y-100032321D01*
X146116155Y-100032322D01*
X146342046Y-100068100D01*
X146342047Y-100068100D01*
X146570753Y-100068100D01*
X146570754Y-100068100D01*
X146796645Y-100032322D01*
X146796648Y-100032321D01*
X146796649Y-100032321D01*
X147014155Y-99961649D01*
X147014155Y-99961648D01*
X147014158Y-99961648D01*
X147217938Y-99857817D01*
X147400645Y-99725072D01*
X147466446Y-99701594D01*
X147534500Y-99717419D01*
X147583195Y-99767524D01*
X147589708Y-99782059D01*
X147600102Y-99809928D01*
X147600106Y-99809935D01*
X147686352Y-99925144D01*
X147686355Y-99925147D01*
X147801564Y-100011393D01*
X147801571Y-100011397D01*
X147936417Y-100061691D01*
X147936416Y-100061691D01*
X147943344Y-100062435D01*
X147996027Y-100068100D01*
X149996772Y-100068099D01*
X150056383Y-100061691D01*
X150191231Y-100011396D01*
X150306446Y-99925146D01*
X150392696Y-99809931D01*
X150442991Y-99675083D01*
X150449400Y-99615473D01*
X150449399Y-98265248D01*
X152688167Y-98265248D01*
X152688167Y-98469951D01*
X152720189Y-98672134D01*
X152783448Y-98866823D01*
X152828553Y-98955345D01*
X152864398Y-99025695D01*
X152876382Y-99049213D01*
X152996695Y-99214813D01*
X153141453Y-99359571D01*
X153277372Y-99458320D01*
X153307057Y-99479887D01*
X153423274Y-99539103D01*
X153489443Y-99572818D01*
X153489445Y-99572818D01*
X153489448Y-99572820D01*
X153593804Y-99606727D01*
X153684132Y-99636077D01*
X153785224Y-99652088D01*
X153886315Y-99668100D01*
X153886316Y-99668100D01*
X154091018Y-99668100D01*
X154091019Y-99668100D01*
X154293201Y-99636077D01*
X154487886Y-99572820D01*
X154670277Y-99479887D01*
X154763257Y-99412332D01*
X154835880Y-99359571D01*
X154835882Y-99359568D01*
X154835886Y-99359566D01*
X154980633Y-99214819D01*
X154980635Y-99214815D01*
X154980638Y-99214813D01*
X155054739Y-99112820D01*
X155100954Y-99049210D01*
X155193887Y-98866819D01*
X155257144Y-98672134D01*
X155289167Y-98469952D01*
X155289167Y-98265248D01*
X156470433Y-98265248D01*
X156470433Y-98469951D01*
X156502455Y-98672134D01*
X156565714Y-98866823D01*
X156610819Y-98955345D01*
X156646664Y-99025695D01*
X156658648Y-99049213D01*
X156778961Y-99214813D01*
X156923719Y-99359571D01*
X157059638Y-99458320D01*
X157089323Y-99479887D01*
X157205540Y-99539103D01*
X157271709Y-99572818D01*
X157271711Y-99572818D01*
X157271714Y-99572820D01*
X157376070Y-99606727D01*
X157466398Y-99636077D01*
X157567490Y-99652088D01*
X157668581Y-99668100D01*
X157668582Y-99668100D01*
X157873284Y-99668100D01*
X157873285Y-99668100D01*
X158075467Y-99636077D01*
X158270152Y-99572820D01*
X158452543Y-99479887D01*
X158545523Y-99412332D01*
X158618146Y-99359571D01*
X158618148Y-99359568D01*
X158618152Y-99359566D01*
X158762899Y-99214819D01*
X158762901Y-99214815D01*
X158762904Y-99214813D01*
X158837005Y-99112820D01*
X158883220Y-99049210D01*
X158976153Y-98866819D01*
X159039410Y-98672134D01*
X159071433Y-98469952D01*
X159071433Y-98265248D01*
X159063567Y-98215585D01*
X159039410Y-98063065D01*
X158976151Y-97868376D01*
X158920197Y-97758562D01*
X158883220Y-97685990D01*
X158801517Y-97573534D01*
X158762904Y-97520386D01*
X158618146Y-97375628D01*
X158452546Y-97255315D01*
X158452545Y-97255314D01*
X158452543Y-97255313D01*
X158395586Y-97226291D01*
X158270156Y-97162381D01*
X158075467Y-97099122D01*
X157900928Y-97071478D01*
X157873285Y-97067100D01*
X157668581Y-97067100D01*
X157644262Y-97070951D01*
X157466398Y-97099122D01*
X157271709Y-97162381D01*
X157089319Y-97255315D01*
X156923719Y-97375628D01*
X156778961Y-97520386D01*
X156658648Y-97685986D01*
X156565714Y-97868376D01*
X156502455Y-98063065D01*
X156470433Y-98265248D01*
X155289167Y-98265248D01*
X155281301Y-98215585D01*
X155257144Y-98063065D01*
X155193885Y-97868376D01*
X155137931Y-97758562D01*
X155100954Y-97685990D01*
X155019251Y-97573534D01*
X154980638Y-97520386D01*
X154835880Y-97375628D01*
X154670280Y-97255315D01*
X154670279Y-97255314D01*
X154670277Y-97255313D01*
X154613320Y-97226291D01*
X154487890Y-97162381D01*
X154293201Y-97099122D01*
X154118662Y-97071478D01*
X154091019Y-97067100D01*
X153886315Y-97067100D01*
X153861996Y-97070951D01*
X153684132Y-97099122D01*
X153489443Y-97162381D01*
X153307053Y-97255315D01*
X153141453Y-97375628D01*
X152996695Y-97520386D01*
X152876382Y-97685986D01*
X152783448Y-97868376D01*
X152720189Y-98063065D01*
X152688167Y-98265248D01*
X150449399Y-98265248D01*
X150449399Y-97519728D01*
X150442991Y-97460117D01*
X150435765Y-97440744D01*
X150392697Y-97325271D01*
X150392693Y-97325264D01*
X150306447Y-97210055D01*
X150306444Y-97210052D01*
X150191235Y-97123806D01*
X150191228Y-97123802D01*
X150056382Y-97073508D01*
X150056383Y-97073508D01*
X149996783Y-97067101D01*
X149996781Y-97067100D01*
X149996773Y-97067100D01*
X149996764Y-97067100D01*
X147996029Y-97067100D01*
X147996023Y-97067101D01*
X147936416Y-97073508D01*
X147801571Y-97123802D01*
X147801564Y-97123806D01*
X147686355Y-97210052D01*
X147686352Y-97210055D01*
X147600106Y-97325264D01*
X147600103Y-97325270D01*
X147589708Y-97353141D01*
X147547836Y-97409074D01*
X147482372Y-97433491D01*
X147414099Y-97418639D01*
X147400650Y-97410131D01*
X147217938Y-97277383D01*
X147166492Y-97251170D01*
X147014155Y-97173550D01*
X146796648Y-97102878D01*
X146611212Y-97073508D01*
X146570754Y-97067100D01*
X146342046Y-97067100D01*
X146301588Y-97073508D01*
X146116153Y-97102878D01*
X146116150Y-97102878D01*
X145898644Y-97173550D01*
X145694861Y-97277383D01*
X145628951Y-97325270D01*
X145509834Y-97411814D01*
X145509832Y-97411816D01*
X145509831Y-97411816D01*
X145348115Y-97573532D01*
X145286718Y-97658038D01*
X145231387Y-97700703D01*
X145161774Y-97706682D01*
X145099979Y-97674076D01*
X145086082Y-97658038D01*
X145067168Y-97632006D01*
X145024686Y-97573534D01*
X144862966Y-97411814D01*
X144677938Y-97277383D01*
X144626492Y-97251170D01*
X144474155Y-97173550D01*
X144256648Y-97102878D01*
X144071212Y-97073508D01*
X144030754Y-97067100D01*
X143802046Y-97067100D01*
X143761588Y-97073508D01*
X143576153Y-97102878D01*
X143576150Y-97102878D01*
X143358644Y-97173550D01*
X143154861Y-97277383D01*
X143088951Y-97325270D01*
X142969834Y-97411814D01*
X142969832Y-97411816D01*
X142969831Y-97411816D01*
X142808116Y-97573531D01*
X142808116Y-97573532D01*
X142808114Y-97573534D01*
X142765632Y-97632006D01*
X142673683Y-97758561D01*
X142569850Y-97962344D01*
X142499178Y-98179850D01*
X142499178Y-98179853D01*
X142463400Y-98405746D01*
X130251176Y-98405746D01*
X130140124Y-98213396D01*
X129980481Y-98005348D01*
X129980474Y-98005340D01*
X129795060Y-97819926D01*
X129795051Y-97819918D01*
X129587003Y-97660275D01*
X129359900Y-97529158D01*
X129359890Y-97529153D01*
X129117628Y-97428805D01*
X129117621Y-97428803D01*
X129117619Y-97428802D01*
X128864316Y-97360930D01*
X128805154Y-97353141D01*
X128604327Y-97326700D01*
X128604320Y-97326700D01*
X128342080Y-97326700D01*
X128342072Y-97326700D01*
X128110972Y-97357126D01*
X128082084Y-97360930D01*
X127892174Y-97411816D01*
X127828781Y-97428802D01*
X127828771Y-97428805D01*
X127586509Y-97529153D01*
X127586499Y-97529158D01*
X127359396Y-97660275D01*
X127151348Y-97819918D01*
X126965918Y-98005348D01*
X126806275Y-98213396D01*
X126675158Y-98440499D01*
X126675153Y-98440509D01*
X126574805Y-98682771D01*
X126574802Y-98682781D01*
X126525489Y-98866823D01*
X126506930Y-98936085D01*
X126472700Y-99196072D01*
X125593500Y-99196072D01*
X125593500Y-95493196D01*
X125586153Y-95456259D01*
X125569463Y-95372348D01*
X125554448Y-95336100D01*
X125522312Y-95258514D01*
X125488084Y-95207290D01*
X125453858Y-95156067D01*
X125453856Y-95156064D01*
X125363637Y-95065845D01*
X125363606Y-95065816D01*
X122808750Y-92510960D01*
X122801460Y-92503670D01*
X122801458Y-92503667D01*
X122714333Y-92416542D01*
X122663109Y-92382315D01*
X122611886Y-92348088D01*
X122611883Y-92348086D01*
X122611880Y-92348085D01*
X122532597Y-92315245D01*
X122532588Y-92315242D01*
X122525402Y-92312266D01*
X122498052Y-92300937D01*
X122437629Y-92288918D01*
X122433316Y-92288060D01*
X122433312Y-92288059D01*
X122377210Y-92276900D01*
X122377207Y-92276900D01*
X122377206Y-92276900D01*
X116852185Y-92276900D01*
X116785146Y-92257215D01*
X116739391Y-92204411D01*
X116728204Y-92150734D01*
X116789955Y-88615500D01*
X116837870Y-85872328D01*
X116858722Y-85805644D01*
X116912317Y-85760818D01*
X116961944Y-85750495D01*
X141504425Y-85769805D01*
G37*
%TD.AperFunction*%
%TA.AperFunction,Conductor*%
G36*
X181344202Y-95207385D02*
G01*
X181389957Y-95260189D01*
X181401163Y-95311773D01*
X181392706Y-109581573D01*
X181372982Y-109648601D01*
X181320151Y-109694325D01*
X181268706Y-109705500D01*
X164361430Y-109705500D01*
X164294391Y-109685815D01*
X164273749Y-109669181D01*
X163550019Y-108945451D01*
X163516534Y-108884128D01*
X163513700Y-108857770D01*
X163513700Y-99929017D01*
X163533385Y-99861978D01*
X163564815Y-99828699D01*
X163709766Y-99723386D01*
X163871486Y-99561666D01*
X163932883Y-99477159D01*
X163988212Y-99434496D01*
X164057825Y-99428517D01*
X164119620Y-99461123D01*
X164133514Y-99477156D01*
X164194914Y-99561666D01*
X164356634Y-99723386D01*
X164541662Y-99857817D01*
X164624504Y-99900027D01*
X164745444Y-99961649D01*
X164962951Y-100032321D01*
X164962952Y-100032321D01*
X164962955Y-100032322D01*
X165188846Y-100068100D01*
X165188847Y-100068100D01*
X165417553Y-100068100D01*
X165417554Y-100068100D01*
X165643445Y-100032322D01*
X165643448Y-100032321D01*
X165643449Y-100032321D01*
X165860955Y-99961649D01*
X165860955Y-99961648D01*
X165860958Y-99961648D01*
X166064738Y-99857817D01*
X166247445Y-99725072D01*
X166313246Y-99701594D01*
X166381300Y-99717419D01*
X166429995Y-99767524D01*
X166436508Y-99782059D01*
X166446902Y-99809928D01*
X166446906Y-99809935D01*
X166533152Y-99925144D01*
X166533155Y-99925147D01*
X166648364Y-100011393D01*
X166648371Y-100011397D01*
X166783217Y-100061691D01*
X166783216Y-100061691D01*
X166790144Y-100062435D01*
X166842827Y-100068100D01*
X168843572Y-100068099D01*
X168903183Y-100061691D01*
X169038031Y-100011396D01*
X169153246Y-99925146D01*
X169239496Y-99809931D01*
X169289791Y-99675083D01*
X169296200Y-99615473D01*
X169296199Y-97519728D01*
X169289791Y-97460117D01*
X169282565Y-97440744D01*
X169239497Y-97325271D01*
X169239493Y-97325264D01*
X169153247Y-97210055D01*
X169153244Y-97210052D01*
X169038035Y-97123806D01*
X169038028Y-97123802D01*
X168903182Y-97073508D01*
X168903183Y-97073508D01*
X168843583Y-97067101D01*
X168843581Y-97067100D01*
X168843573Y-97067100D01*
X168843564Y-97067100D01*
X166842829Y-97067100D01*
X166842823Y-97067101D01*
X166783216Y-97073508D01*
X166648371Y-97123802D01*
X166648364Y-97123806D01*
X166533155Y-97210052D01*
X166533152Y-97210055D01*
X166446906Y-97325264D01*
X166446903Y-97325270D01*
X166436508Y-97353141D01*
X166421183Y-97373611D01*
X166409250Y-97396228D01*
X166400592Y-97401116D01*
X166394636Y-97409074D01*
X166370680Y-97418009D01*
X166348411Y-97430585D01*
X166338485Y-97430017D01*
X166329172Y-97433491D01*
X166304184Y-97428055D01*
X166278655Y-97426595D01*
X166265454Y-97419629D01*
X166260899Y-97418639D01*
X166247450Y-97410131D01*
X166104813Y-97306499D01*
X166062149Y-97251170D01*
X166053700Y-97206182D01*
X166053700Y-96018629D01*
X166073385Y-95951590D01*
X166090019Y-95930948D01*
X166796948Y-95224019D01*
X166858271Y-95190534D01*
X166884629Y-95187700D01*
X181277163Y-95187700D01*
X181344202Y-95207385D01*
G37*
%TD.AperFunction*%
%TA.AperFunction,Conductor*%
G36*
X122072187Y-93547585D02*
G01*
X122092829Y-93564219D01*
X124306181Y-95777571D01*
X124339666Y-95838894D01*
X124342500Y-95865252D01*
X124342500Y-107148011D01*
X124366535Y-107268844D01*
X124366540Y-107268861D01*
X124413685Y-107382680D01*
X124413687Y-107382683D01*
X124413688Y-107382686D01*
X124447915Y-107433909D01*
X124482142Y-107485133D01*
X124569267Y-107572258D01*
X124569269Y-107572259D01*
X124579232Y-107582222D01*
X125896581Y-108899573D01*
X125930066Y-108960896D01*
X125925082Y-109030588D01*
X125883210Y-109086521D01*
X125817746Y-109110938D01*
X125807651Y-109111248D01*
X123983407Y-109092867D01*
X123916569Y-109072508D01*
X123871348Y-109019245D01*
X123860656Y-108968873D01*
X123860656Y-99449949D01*
X123860655Y-99449945D01*
X123836620Y-99329111D01*
X123836619Y-99329104D01*
X123797016Y-99233494D01*
X123789468Y-99215270D01*
X123746223Y-99150551D01*
X123721014Y-99112823D01*
X123721012Y-99112820D01*
X123630793Y-99022601D01*
X123630762Y-99022572D01*
X121787150Y-97178960D01*
X121779860Y-97171670D01*
X121779858Y-97171667D01*
X121692733Y-97084542D01*
X121641509Y-97050315D01*
X121590286Y-97016088D01*
X121590283Y-97016086D01*
X121590280Y-97016085D01*
X121516603Y-96985568D01*
X121516601Y-96985567D01*
X121509792Y-96982747D01*
X121476452Y-96968937D01*
X121416029Y-96956918D01*
X121411306Y-96955978D01*
X121411304Y-96955978D01*
X121355610Y-96944900D01*
X121355607Y-96944900D01*
X121355606Y-96944900D01*
X116770648Y-96944900D01*
X116703609Y-96925215D01*
X116657854Y-96872411D01*
X116646667Y-96818734D01*
X116698448Y-93854248D01*
X116702020Y-93649732D01*
X116722872Y-93583049D01*
X116776467Y-93538223D01*
X116826001Y-93527900D01*
X122005148Y-93527900D01*
X122072187Y-93547585D01*
G37*
%TD.AperFunction*%
%TA.AperFunction,Conductor*%
G36*
X121050587Y-98215585D02*
G01*
X121071229Y-98232219D01*
X122573337Y-99734327D01*
X122606822Y-99795650D01*
X122609656Y-99822008D01*
X122609656Y-108953770D01*
X122589971Y-109020809D01*
X122537167Y-109066564D01*
X122484407Y-109077764D01*
X122109451Y-109073986D01*
X122042613Y-109053627D01*
X121997392Y-109000364D01*
X121986700Y-108949992D01*
X121986700Y-100821550D01*
X122006385Y-100754511D01*
X122007598Y-100752659D01*
X122008009Y-100752043D01*
X122070594Y-100658379D01*
X122130937Y-100512697D01*
X122161700Y-100358042D01*
X122161700Y-100200358D01*
X122161700Y-100200355D01*
X122161699Y-100200353D01*
X122135392Y-100068099D01*
X122130937Y-100045703D01*
X122130935Y-100045698D01*
X122070597Y-99900027D01*
X122070590Y-99900014D01*
X121982989Y-99768911D01*
X121982986Y-99768907D01*
X121871492Y-99657413D01*
X121871488Y-99657410D01*
X121740385Y-99569809D01*
X121740372Y-99569802D01*
X121594701Y-99509464D01*
X121594689Y-99509461D01*
X121440045Y-99478700D01*
X121440042Y-99478700D01*
X121282358Y-99478700D01*
X121282355Y-99478700D01*
X121127710Y-99509461D01*
X121127698Y-99509464D01*
X120982027Y-99569802D01*
X120982014Y-99569809D01*
X120850911Y-99657410D01*
X120850907Y-99657413D01*
X120739413Y-99768907D01*
X120739410Y-99768911D01*
X120651809Y-99900014D01*
X120651802Y-99900027D01*
X120591464Y-100045698D01*
X120591461Y-100045710D01*
X120560700Y-100200353D01*
X120560700Y-100358046D01*
X120591461Y-100512689D01*
X120591464Y-100512701D01*
X120651802Y-100658372D01*
X120651809Y-100658384D01*
X120714802Y-100752659D01*
X120735680Y-100819336D01*
X120735700Y-100821550D01*
X120735700Y-108934890D01*
X120716015Y-109001929D01*
X120663211Y-109047684D01*
X120610451Y-109058884D01*
X116558513Y-109018058D01*
X116491675Y-108997699D01*
X116446454Y-108944436D01*
X116435781Y-108891901D01*
X116620483Y-98317733D01*
X116641335Y-98251049D01*
X116694930Y-98206223D01*
X116744464Y-98195900D01*
X120983548Y-98195900D01*
X121050587Y-98215585D01*
G37*
%TD.AperFunction*%
%TA.AperFunction,Conductor*%
G36*
X145357273Y-85772836D02*
G01*
X145424295Y-85792573D01*
X145444854Y-85809155D01*
X146417336Y-86781635D01*
X146542765Y-86907064D01*
X146690253Y-87005613D01*
X146738252Y-87025495D01*
X146854134Y-87073495D01*
X147028104Y-87108099D01*
X147028108Y-87108100D01*
X181281951Y-87108100D01*
X181348990Y-87127785D01*
X181394745Y-87180589D01*
X181405951Y-87232173D01*
X181403704Y-91025173D01*
X181383980Y-91092201D01*
X181331149Y-91137925D01*
X181279704Y-91149100D01*
X172639560Y-91149100D01*
X172572521Y-91129415D01*
X172526766Y-91076611D01*
X172516822Y-91007453D01*
X172545847Y-90943897D01*
X172566675Y-90924782D01*
X172589812Y-90907971D01*
X172589810Y-90907971D01*
X172589819Y-90907966D01*
X172734566Y-90763219D01*
X172734568Y-90763215D01*
X172734571Y-90763213D01*
X172787332Y-90690590D01*
X172854887Y-90597610D01*
X172947820Y-90415219D01*
X173011077Y-90220534D01*
X173043100Y-90018352D01*
X173043100Y-89813648D01*
X173011077Y-89611466D01*
X172947820Y-89416781D01*
X172947818Y-89416778D01*
X172947818Y-89416776D01*
X172914103Y-89350607D01*
X172854887Y-89234390D01*
X172847156Y-89223749D01*
X172734571Y-89068786D01*
X172589813Y-88924028D01*
X172424213Y-88803715D01*
X172424212Y-88803714D01*
X172424210Y-88803713D01*
X172367253Y-88774691D01*
X172241823Y-88710781D01*
X172047134Y-88647522D01*
X171872595Y-88619878D01*
X171844952Y-88615500D01*
X171640248Y-88615500D01*
X171615929Y-88619351D01*
X171438065Y-88647522D01*
X171243376Y-88710781D01*
X171060986Y-88803715D01*
X170895386Y-88924028D01*
X170750628Y-89068786D01*
X170630315Y-89234386D01*
X170537381Y-89416776D01*
X170474122Y-89611465D01*
X170442100Y-89813648D01*
X170442100Y-90018351D01*
X170474122Y-90220534D01*
X170537381Y-90415223D01*
X170630315Y-90597613D01*
X170750628Y-90763213D01*
X170895382Y-90907967D01*
X170895387Y-90907971D01*
X170918525Y-90924782D01*
X170961191Y-90980111D01*
X170967170Y-91049725D01*
X170934565Y-91111520D01*
X170873726Y-91145877D01*
X170845640Y-91149100D01*
X161600562Y-91149100D01*
X161533523Y-91129415D01*
X161512881Y-91112781D01*
X160379419Y-89979319D01*
X160345934Y-89917996D01*
X160343100Y-89891638D01*
X160343100Y-89813648D01*
X160311077Y-89611465D01*
X160247818Y-89416776D01*
X160214103Y-89350607D01*
X160154887Y-89234390D01*
X160147156Y-89223749D01*
X160034571Y-89068786D01*
X159889813Y-88924028D01*
X159724213Y-88803715D01*
X159724212Y-88803714D01*
X159724210Y-88803713D01*
X159667253Y-88774691D01*
X159541823Y-88710781D01*
X159347134Y-88647522D01*
X159172595Y-88619878D01*
X159144952Y-88615500D01*
X158940248Y-88615500D01*
X158915929Y-88619351D01*
X158738065Y-88647522D01*
X158543376Y-88710781D01*
X158360986Y-88803715D01*
X158195386Y-88924028D01*
X158050628Y-89068786D01*
X157930315Y-89234386D01*
X157837381Y-89416776D01*
X157774122Y-89611465D01*
X157742100Y-89813648D01*
X157742100Y-90018351D01*
X157774122Y-90220534D01*
X157837381Y-90415223D01*
X157930315Y-90597613D01*
X158050628Y-90763213D01*
X158195386Y-90907971D01*
X158332314Y-91007453D01*
X158360990Y-91028287D01*
X158455831Y-91076611D01*
X158543376Y-91121218D01*
X158543378Y-91121218D01*
X158543381Y-91121220D01*
X158629187Y-91149100D01*
X158738065Y-91184477D01*
X158839157Y-91200488D01*
X158940248Y-91216500D01*
X159018238Y-91216500D01*
X159085277Y-91236185D01*
X159105919Y-91252819D01*
X160602166Y-92749066D01*
X160636526Y-92772023D01*
X160661240Y-92788536D01*
X160749653Y-92847613D01*
X160831593Y-92881553D01*
X160837680Y-92884074D01*
X160837685Y-92884077D01*
X160874140Y-92899177D01*
X160913534Y-92915495D01*
X161087503Y-92950099D01*
X161087507Y-92950100D01*
X181278490Y-92950100D01*
X181345529Y-92969785D01*
X181391284Y-93022589D01*
X181402490Y-93074174D01*
X181402200Y-93562774D01*
X181382476Y-93629801D01*
X181329645Y-93675525D01*
X181278200Y-93686700D01*
X166448480Y-93686700D01*
X166303492Y-93715540D01*
X166303482Y-93715543D01*
X166166911Y-93772112D01*
X166166898Y-93772119D01*
X166043984Y-93854248D01*
X166043980Y-93854251D01*
X164720247Y-95177984D01*
X164720242Y-95177990D01*
X164700603Y-95207385D01*
X164690684Y-95222231D01*
X164666446Y-95258506D01*
X164638114Y-95300907D01*
X164581543Y-95437482D01*
X164581540Y-95437492D01*
X164552700Y-95582479D01*
X164552700Y-97206182D01*
X164533015Y-97273221D01*
X164501586Y-97306499D01*
X164356634Y-97411814D01*
X164356632Y-97411816D01*
X164356631Y-97411816D01*
X164194915Y-97573532D01*
X164133518Y-97658038D01*
X164114907Y-97672388D01*
X164099369Y-97690022D01*
X164087750Y-97693328D01*
X164078187Y-97700703D01*
X164054775Y-97702713D01*
X164032168Y-97709148D01*
X164020606Y-97705648D01*
X164008574Y-97706682D01*
X163987788Y-97695714D01*
X163965295Y-97688906D01*
X163953380Y-97677559D01*
X163946779Y-97674076D01*
X163938815Y-97665572D01*
X163935696Y-97661911D01*
X163871486Y-97573534D01*
X163796522Y-97498570D01*
X163793315Y-97494806D01*
X163781003Y-97467242D01*
X163766534Y-97440744D01*
X163765699Y-97432979D01*
X163764820Y-97431011D01*
X163765211Y-97428441D01*
X163763700Y-97414386D01*
X163763700Y-95456256D01*
X163739798Y-95336099D01*
X163725251Y-95262965D01*
X163723407Y-95258514D01*
X163708378Y-95222231D01*
X163690051Y-95177984D01*
X163649835Y-95080892D01*
X163649828Y-95080879D01*
X163540339Y-94917018D01*
X163540336Y-94917014D01*
X163397886Y-94774564D01*
X163397855Y-94774535D01*
X162325479Y-93702159D01*
X162325459Y-93702137D01*
X162181785Y-93558463D01*
X162181781Y-93558460D01*
X162017920Y-93448971D01*
X162017907Y-93448964D01*
X161879082Y-93391462D01*
X161879079Y-93391461D01*
X161871346Y-93388258D01*
X161835836Y-93373549D01*
X161739188Y-93354324D01*
X161735451Y-93353580D01*
X161735441Y-93353578D01*
X161642544Y-93335100D01*
X161642541Y-93335100D01*
X152002183Y-93335100D01*
X151935144Y-93315415D01*
X151914502Y-93298781D01*
X148429369Y-89813648D01*
X144599709Y-85983989D01*
X144566225Y-85922667D01*
X144571209Y-85852975D01*
X144613081Y-85797042D01*
X144678545Y-85772625D01*
X144687463Y-85772309D01*
X145357273Y-85772836D01*
G37*
%TD.AperFunction*%
%TD*%
M02*
