M48
; DRILL file {KiCad 9.0.8} date 2026-03-30T22:56:12+0300
; FORMAT={-:-/ absolute / inch / decimal}
; #@! TF.CreationDate,2026-03-30T22:56:12+03:00
; #@! TF.GenerationSoftware,Kicad,Pcbnew,9.0.8
; #@! TF.FileFunction,NonPlated,1,2,NPTH
FMAT,2
INCH
; #@! TA.AperFunction,NonPlated,NPTH,ComponentDrill
T1C0.0197
; #@! TA.AperFunction,NonPlated,NPTH,ComponentDrill
T2C0.1260
; #@! TA.AperFunction,NonPlated,NPTH,ComponentDrill
T3C0.1378
%
G90
G05
T1
X2.9613Y-4.8586
X2.9613Y-4.9452
X2.9928Y-4.8586
X2.9928Y-4.9452
X3.0243Y-4.8586
X3.0243Y-4.9452
X3.0557Y-4.8586
X3.0557Y-4.9452
X3.0872Y-4.8586
X3.0872Y-4.9452
X3.1187Y-4.8586
X3.1187Y-4.9452
X4.0441Y-4.8586
X4.0441Y-4.9452
X4.0756Y-4.8586
X4.0756Y-4.9452
X4.1071Y-4.8586
X4.1071Y-4.9452
X4.1386Y-4.8586
X4.1386Y-4.9452
X4.1701Y-4.8586
X4.1701Y-4.9452
X4.2016Y-4.8586
X4.2016Y-4.9452
X5.127Y-4.8586
X5.127Y-4.9452
X5.1585Y-4.8586
X5.1585Y-4.9452
X5.19Y-4.8586
X5.19Y-4.9452
X5.2215Y-4.8586
X5.2215Y-4.9452
X5.253Y-4.8586
X5.253Y-4.9452
X5.2845Y-4.8586
X5.2845Y-4.9452
X6.2098Y-4.8586
X6.2098Y-4.9452
X6.2413Y-4.8586
X6.2413Y-4.9452
X6.2728Y-4.8586
X6.2728Y-4.9452
X6.3043Y-4.8586
X6.3043Y-4.9452
X6.3358Y-4.8586
X6.3358Y-4.9452
X6.3673Y-4.8586
X6.3673Y-4.9452
X7.2927Y-4.8586
X7.2927Y-4.9452
X7.3242Y-4.8586
X7.3242Y-4.9452
X7.3557Y-4.8586
X7.3557Y-4.9452
X7.3872Y-4.8586
X7.3872Y-4.9452
X7.4187Y-4.8586
X7.4187Y-4.9452
X7.4502Y-4.8586
X7.4502Y-4.9452
X8.3755Y-4.8586
X8.3755Y-4.9452
X8.407Y-4.8586
X8.407Y-4.9452
X8.4385Y-4.8586
X8.4385Y-4.9452
X8.47Y-4.8586
X8.47Y-4.9452
X8.5015Y-4.8586
X8.5015Y-4.9452
X8.533Y-4.8586
X8.533Y-4.9452
X9.4584Y-4.8586
X9.4584Y-4.9452
X9.4899Y-4.8586
X9.4899Y-4.9452
X9.5214Y-4.8586
X9.5214Y-4.9452
X9.5529Y-4.8586
X9.5529Y-4.9452
X9.5844Y-4.8586
X9.5844Y-4.9452
X9.6159Y-4.8586
X9.6159Y-4.9452
X10.5413Y-4.8586
X10.5413Y-4.9452
X10.5728Y-4.8586
X10.5728Y-4.9452
X10.6043Y-4.8586
X10.6043Y-4.9452
X10.6357Y-4.8586
X10.6357Y-4.9452
X10.6672Y-4.8586
X10.6672Y-4.9452
X10.6987Y-4.8586
X10.6987Y-4.9452
T2
X3.0557Y-2.6994
X3.0557Y-4.6854
X3.0557Y-5.1184
X3.0557Y-7.1044
X10.6043Y-2.6994
X10.6043Y-4.6854
X10.6043Y-5.1184
X10.6043Y-7.1044
T3
X5.058Y-6.2115
X5.766Y-6.8375
X6.508Y-6.8375
M30
