%TF.GenerationSoftware,KiCad,Pcbnew,9.0.8*%
%TF.CreationDate,2026-03-30T22:56:10+03:00*%
%TF.ProjectId,8080clock,38303830-636c-46f6-936b-2e6b69636164,rev?*%
%TF.SameCoordinates,Original*%
%TF.FileFunction,Profile,NP*%
%FSLAX46Y46*%
G04 Gerber Fmt 4.6, Leading zero omitted, Abs format (unit mm)*
G04 Created by KiCad (PCBNEW 9.0.8) date 2026-03-30 22:56:10*
%MOMM*%
%LPD*%
G01*
G04 APERTURE LIST*
%TA.AperFunction,Profile*%
%ADD10C,0.050000*%
%TD*%
%TA.AperFunction,Profile*%
%ADD11C,0.100000*%
%TD*%
G04 APERTURE END LIST*
D10*
X183634286Y-123008000D02*
X163329700Y-123008000D01*
X128625100Y-123008000D02*
X108320571Y-123008000D01*
X211138857Y-126008000D02*
X190834286Y-126008000D01*
X73616000Y-64564000D02*
X273348000Y-64564000D01*
X273348000Y-126008000D02*
X273348000Y-184452000D01*
X156129714Y-126008000D02*
X135825100Y-126008000D01*
X238643429Y-123008001D02*
X218338900Y-123008000D01*
X266148000Y-123008000D02*
X245843400Y-123008000D01*
X80816000Y-123008000D02*
X101120571Y-123008000D01*
X266148000Y-126008000D02*
X245843400Y-126008000D01*
X211138900Y-123008000D02*
X190834286Y-123008000D01*
X73616000Y-126008000D02*
X73616000Y-184452000D01*
X238643429Y-126008000D02*
X218338857Y-126008000D01*
X156129714Y-123008000D02*
X135825100Y-123008000D01*
X273348000Y-184452000D02*
X73616000Y-184452000D01*
X73616000Y-123008000D02*
X73616000Y-64564000D01*
X183634300Y-126008000D02*
X163329700Y-126008000D01*
X128625100Y-126008000D02*
X108320571Y-126008000D01*
X101120571Y-126007999D02*
X80816000Y-126008000D01*
X273348000Y-123008000D02*
X273348000Y-64564000D01*
D11*
%TO.C,mouse-bite-2.54mm-slot_13*%
X266148000Y-123008000D02*
G75*
G02*
X266148000Y-126008000I0J-1500000D01*
G01*
X273348000Y-126008000D02*
G75*
G02*
X273348000Y-123008000I0J1500000D01*
G01*
%TO.C,mouse-bite-2.54mm-slot_1*%
X238643429Y-123008000D02*
G75*
G02*
X238643429Y-126008000I0J-1500000D01*
G01*
X245843429Y-126008000D02*
G75*
G02*
X245843429Y-123008000I0J1500000D01*
G01*
%TO.C,mouse-bite-2.54mm-slot_2*%
X211138857Y-123008000D02*
G75*
G02*
X211138857Y-126008000I0J-1500000D01*
G01*
X218338857Y-126008000D02*
G75*
G02*
X218338857Y-123008000I0J1500000D01*
G01*
%TO.C,mouse-bite-2.54mm-slot_5*%
X128625143Y-123008000D02*
G75*
G02*
X128625143Y-126008000I0J-1500000D01*
G01*
X135825143Y-126008000D02*
G75*
G02*
X135825143Y-123008000I0J1500000D01*
G01*
%TO.C,mouse-bite-2.54mm-slot_4*%
X156129714Y-123008000D02*
G75*
G02*
X156129714Y-126008000I0J-1500000D01*
G01*
X163329714Y-126008000D02*
G75*
G02*
X163329714Y-123008000I0J1500000D01*
G01*
%TO.C,mouse-bite-2.54mm-slot_7*%
X73616000Y-123008000D02*
G75*
G02*
X73616000Y-126008000I0J-1500000D01*
G01*
X80816000Y-126008000D02*
G75*
G02*
X80816000Y-123008000I0J1500000D01*
G01*
%TO.C,mouse-bite-2.54mm-slot_6*%
X101120571Y-123008000D02*
G75*
G02*
X101120571Y-126008000I0J-1500000D01*
G01*
X108320571Y-126008000D02*
G75*
G02*
X108320571Y-123008000I0J1500000D01*
G01*
%TO.C,mouse-bite-2.54mm-slot_3*%
X183634286Y-123008000D02*
G75*
G02*
X183634286Y-126008000I0J-1500000D01*
G01*
X190834286Y-126008000D02*
G75*
G02*
X190834286Y-123008000I0J1500000D01*
G01*
%TD*%
M02*
