M48
; DRILL file {KiCad 9.0.8} date 2026-03-30T22:56:12+0300
; FORMAT={-:-/ absolute / inch / decimal}
; #@! TF.CreationDate,2026-03-30T22:56:12+03:00
; #@! TF.GenerationSoftware,Kicad,Pcbnew,9.0.8
; #@! TF.FileFunction,Plated,1,2,PTH
FMAT,2
INCH
; #@! TA.AperFunction,Plated,PTH,ViaDrill
T1C0.0118
; #@! TA.AperFunction,Plated,PTH,ComponentDrill
T2C0.0197
; #@! TA.AperFunction,Plated,PTH,ComponentDrill
T3C0.0295
; #@! TA.AperFunction,Plated,PTH,ComponentDrill
T4C0.0315
; #@! TA.AperFunction,Plated,PTH,ComponentDrill
T5C0.0354
; #@! TA.AperFunction,Plated,PTH,ComponentDrill
T6C0.0394
; #@! TA.AperFunction,Plated,PTH,ComponentDrill
T7C0.0433
; #@! TA.AperFunction,Plated,PTH,ComponentDrill
T8C0.0591
%
G90
G05
T1
X3.13Y-3.6978
X3.3Y-4.0578
X3.31Y-6.2189
X3.344Y-6.2449
X3.39Y-3.3978
X3.4Y-3.8078
X3.4Y-4.2778
X3.4Y-4.5678
X3.45Y-3.7078
X3.45Y-4.1778
X3.5Y-4.6078
X3.51Y-3.7178
X3.55Y-3.7724
X3.584Y-6.3649
X3.6Y-3.6478
X3.6Y-4.1478
X3.6Y-4.6178
X3.61Y-3.3378
X3.61Y-4.3578
X3.61Y-6.2569
X3.65Y-3.6178
X3.652Y-6.1669
X3.7Y-3.3378
X3.7Y-6.2249
X3.76Y-3.7978
X3.8Y-3.3532
X3.8Y-3.6478
X3.8Y-3.9978
X3.8Y-4.7378
X3.8561Y-3.6478
X3.9Y-4.2978
X3.93Y-4.6024
X3.97Y-4.1078
X4.0Y-3.0124
X4.0Y-3.3532
X4.01Y-4.3178
X4.0443Y-3.6496
X4.09Y-3.6478
X4.1Y-4.2524
X4.1Y-4.6224
X4.11Y-3.3286
X4.1461Y-4.2078
X4.16Y-2.9632
X4.2Y-4.0878
X4.2Y-4.6424
X4.2197Y-3.7024
X4.23Y-3.6478
X4.2752Y-3.646
X4.3Y-3.0478
X4.3061Y-4.3778
X4.3246Y-3.7024
X4.3961Y-4.2078
X4.4Y-3.0778
X4.4Y-3.6478
X4.45Y-4.3478
X4.45Y-4.7378
X4.4961Y-4.3532
X4.5Y-4.7078
X4.6Y-4.1178
X4.6Y-4.3178
X4.64Y-2.9878
X4.64Y-4.3178
X4.68Y-2.6878
X4.68Y-3.3978
X4.778Y-6.2489
X4.78Y-3.7978
X4.78Y-4.3178
X4.834Y-3.1668
X4.8795Y-4.7078
X4.882Y-4.1068
X4.92Y-4.7469
X4.932Y-3.1908
X4.98Y-3.7478
X5.065Y-4.2528
X5.11Y-3.0178
X5.12Y-4.1068
X5.12Y-4.3278
X5.14Y-3.7232
X5.17Y-4.2978
X5.1795Y-3.1798
X5.18Y-3.3378
X5.188Y-4.1048
X5.25Y-3.6178
X5.2602Y-3.168
X5.2795Y-3.5924
X5.2795Y-4.2032
X5.2795Y-4.6024
X5.28Y-3.2432
X5.2857Y-3.08
X5.31Y-2.7132
X5.3795Y-4.6024
X5.38Y-3.7724
X5.43Y-3.9478
X5.4795Y-3.5924
X5.4795Y-3.7878
X5.48Y-3.3178
X5.48Y-4.0278
X5.52Y-3.7978
X5.5795Y-3.6202
X5.5795Y-4.1786
X5.58Y-3.3078
X5.58Y-4.2532
X5.66Y-3.2278
X5.7Y-4.3878
X5.78Y-3.6424
X5.78Y-3.6924
X5.832Y-3.0758
X5.89Y-4.3178
X5.92Y-3.2678
X5.9795Y-4.7083
X5.98Y-3.0778
X5.99Y-3.6478
X6.04Y-3.6024
X6.0795Y-4.1688
X6.08Y-4.2978
X6.09Y-3.1024
X6.132Y-4.1024
X6.18Y-2.9778
X6.182Y-4.1718
X6.27Y-3.6378
X6.2795Y-4.7078
X6.28Y-4.3671
X6.37Y-4.6978
X6.49Y-3.2778
X6.53Y-3.6178
X6.6Y-4.5978
X6.68Y-2.9778
X6.68Y-4.0578
X6.7127Y-3.6424
X6.7501Y-3.6224
X6.77Y-2.7778
X6.77Y-4.4178
X6.788Y-3.0398
X6.81Y-2.8178
X6.86Y-3.8778
X6.86Y-4.2032
X6.92Y-2.7178
X6.93Y-3.9024
X6.93Y-4.0978
X6.95Y-4.3978
X6.96Y-3.7878
X7.0Y-2.7478
X7.03Y-3.6478
X7.04Y-2.9078
X7.04Y-3.0978
X7.082Y-4.1242
X7.112Y-2.8133
X7.135Y-4.4528
X7.23Y-2.7578
X7.2424Y-3.7102
X7.254Y-4.1778
X7.26Y-2.7478
X7.31Y-3.6478
X7.316Y-2.8398
X7.3524Y-4.3754
X7.37Y-2.6978
X7.3909Y-4.7469
X7.408Y-5.0589
X7.4135Y-2.9268
X7.44Y-4.7424
X7.48Y-4.6008
X7.52Y-4.0078
X7.566Y-4.6548
X7.57Y-4.5578
X7.5784Y-4.5882
X7.62Y-2.8618
X7.62Y-4.6178
X7.65Y-3.1778
X7.67Y-3.9532
X7.68Y-4.6794
X7.72Y-4.6324
X7.77Y-3.9278
X7.77Y-4.5278
X7.78Y-6.7289
X7.82Y-4.6278
X7.89Y-3.5678
X7.92Y-4.1978
X7.92Y-4.3478
X7.92Y-4.5824
X7.97Y-3.9078
X7.98Y-4.5132
X7.99Y-3.0678
X8.12Y-4.2978
X8.122Y-6.7309
X8.194Y-6.6849
X8.22Y-4.2324
X8.22Y-4.3178
X8.2643Y-3.7178
X8.31Y-2.8778
X8.32Y-4.2532
X8.35Y-3.7878
X8.36Y-3.7478
X8.38Y-3.2524
X8.4Y-3.8178
X8.41Y-3.9532
X8.4826Y-3.8952
X8.51Y-4.2332
X8.66Y-3.8678
X8.67Y-3.6078
X8.69Y-3.8478
X8.72Y-4.2678
X8.73Y-3.8378
X8.77Y-2.8478
X8.85Y-4.3378
X8.87Y-4.0278
X8.922Y-4.0578
X8.96Y-4.4932
X9.0Y-2.8578
X9.0165Y-3.9578
X9.27Y-3.9078
X9.33Y-3.1778
X9.402Y-4.1528
X9.42Y-3.6478
X9.47Y-4.1528
X9.52Y-3.6178
X9.57Y-3.8778
X9.596Y-5.7909
X9.65Y-5.7889
X9.68Y-3.8478
X9.726Y-5.7749
X9.798Y-5.7629
X9.822Y-3.7208
X9.87Y-3.6878
X9.95Y-3.6978
X10.02Y-3.6778
X10.1Y-4.1578
X10.276Y-4.6958
T2
X9.238Y-5.8169
X9.3049Y-5.8169
T3
X4.364Y-5.9585
X4.364Y-6.0085
X4.364Y-6.0585
T4
X3.0746Y-6.4009
X3.0746Y-6.5649
X3.2Y-2.8991
X3.2Y-3.4991
X3.2Y-3.8856
X3.2Y-4.4856
X3.2714Y-6.4009
X3.2714Y-6.5649
X3.3Y-2.8991
X3.3Y-3.4991
X3.3Y-3.8856
X3.3Y-4.4856
X3.3856Y-6.0129
X3.386Y-5.8511
X3.4Y-2.8991
X3.4Y-3.4991
X3.4Y-3.8856
X3.4Y-4.4856
X3.5Y-2.8991
X3.5Y-3.4991
X3.5Y-3.8856
X3.5Y-4.4856
X3.5824Y-6.0129
X3.5829Y-5.8511
X3.6Y-2.8991
X3.6Y-3.4991
X3.6Y-3.8856
X3.6Y-4.4856
X3.7Y-2.8991
X3.7Y-3.4991
X3.7Y-3.8856
X3.7Y-4.4856
X3.78Y-6.7299
X3.78Y-7.1299
X3.8Y-2.8991
X3.8Y-3.4991
X3.8Y-3.8856
X3.8Y-4.4856
X3.8731Y-5.6269
X3.9Y-2.8991
X3.9Y-3.4991
X3.9Y-3.8856
X3.9Y-4.4856
X3.9331Y-6.7299
X3.9331Y-7.1299
X4.0Y-2.8991
X4.0Y-3.4991
X4.0Y-3.8856
X4.0Y-4.4856
X4.07Y-5.6269
X4.0862Y-6.7299
X4.0862Y-7.1299
X4.1Y-2.8991
X4.1Y-3.4991
X4.1Y-3.8856
X4.1Y-4.4856
X4.2Y-2.8991
X4.2Y-3.4991
X4.2Y-3.8856
X4.2Y-4.4856
X4.2393Y-6.7299
X4.2393Y-7.1299
X4.2713Y-5.3049
X4.3Y-2.8991
X4.3Y-3.4991
X4.3Y-3.8856
X4.3Y-4.4856
X4.3002Y-6.3969
X4.3697Y-5.3049
X4.3924Y-6.7299
X4.3924Y-7.1299
X4.4Y-2.8991
X4.4Y-3.4991
X4.4Y-3.8856
X4.4Y-4.4856
X4.438Y-6.3969
X4.5Y-2.8991
X4.5Y-3.4991
X4.5Y-3.8856
X4.5Y-4.4856
X4.5456Y-6.7299
X4.5456Y-7.1299
X4.5725Y-5.3049
X4.6987Y-6.7299
X4.6987Y-7.1299
X4.7795Y-2.8991
X4.7795Y-3.4991
X4.7795Y-3.8856
X4.7795Y-4.4856
X4.8518Y-6.7299
X4.8518Y-7.1299
X4.8795Y-2.8991
X4.8795Y-3.4991
X4.8795Y-3.8856
X4.8795Y-4.4856
X4.9725Y-5.3049
X4.9795Y-2.8991
X4.9795Y-3.4991
X4.9795Y-3.8856
X4.9795Y-4.4856
X5.0049Y-6.7299
X5.0049Y-7.1299
X5.0795Y-2.8991
X5.0795Y-3.4991
X5.0795Y-3.8856
X5.0795Y-4.4856
X5.154Y-5.3049
X5.158Y-6.7299
X5.158Y-7.1299
X5.1795Y-2.8991
X5.1795Y-3.4991
X5.1795Y-3.8856
X5.1795Y-4.4856
X5.2795Y-2.8991
X5.2795Y-3.4991
X5.2795Y-3.8856
X5.2795Y-4.4856
X5.3795Y-2.8991
X5.3795Y-3.4991
X5.3795Y-3.8856
X5.3795Y-4.4856
X5.4795Y-2.8991
X5.4795Y-3.4991
X5.4795Y-3.8856
X5.4795Y-4.4856
X5.554Y-5.3049
X5.5795Y-2.8991
X5.5795Y-3.4991
X5.5795Y-3.8856
X5.5795Y-4.4856
X5.6795Y-2.8991
X5.6795Y-3.4991
X5.6795Y-3.8856
X5.6795Y-4.4856
X5.68Y-3.3648
X5.7533Y-5.3049
X5.7795Y-2.8991
X5.7795Y-3.4991
X5.7795Y-3.8856
X5.7795Y-4.4856
X5.78Y-3.3648
X5.8517Y-5.3049
X5.8795Y-2.8991
X5.8795Y-3.4991
X5.8795Y-3.8856
X5.8795Y-4.4856
X5.88Y-3.3648
X5.9795Y-2.8991
X5.9795Y-3.4991
X5.9795Y-3.8856
X5.9795Y-4.4856
X5.98Y-3.3648
X6.0625Y-6.1737
X6.0625Y-6.5737
X6.0795Y-2.8991
X6.0795Y-3.4991
X6.0795Y-3.8856
X6.0795Y-4.4856
X6.08Y-3.3648
X6.1127Y-5.4689
X6.1127Y-5.5689
X6.1795Y-2.8991
X6.1795Y-3.4991
X6.1795Y-3.8856
X6.1795Y-4.4856
X6.18Y-3.3648
X6.2115Y-6.1737
X6.2115Y-6.5737
X6.2615Y-5.4409
X6.2615Y-5.8409
X6.2795Y-2.8991
X6.2795Y-3.4991
X6.2795Y-3.8856
X6.2795Y-4.4856
X6.28Y-3.3648
X6.3795Y-2.8991
X6.3795Y-3.4991
X6.3795Y-3.8856
X6.3795Y-4.4856
X6.38Y-3.3648
X6.4795Y-2.8991
X6.4795Y-3.4991
X6.4795Y-3.8856
X6.4795Y-4.4856
X6.48Y-3.3648
X6.5795Y-2.8991
X6.5795Y-3.4991
X6.5795Y-3.8856
X6.5795Y-4.4856
X6.58Y-3.3648
X6.6127Y-5.4689
X6.6127Y-5.5689
X6.6795Y-2.8991
X6.6795Y-3.4991
X6.6795Y-3.8856
X6.6795Y-4.4856
X6.7615Y-5.4409
X6.7615Y-5.8409
X6.89Y-2.9011
X6.89Y-3.0011
X6.89Y-3.1011
X6.89Y-3.2011
X6.89Y-3.3011
X6.89Y-3.4011
X6.89Y-3.5011
X6.89Y-3.6011
X7.1127Y-5.4689
X7.1127Y-5.5689
X7.19Y-2.9011
X7.19Y-3.0011
X7.19Y-3.1011
X7.19Y-3.2011
X7.19Y-3.3011
X7.19Y-3.4011
X7.19Y-3.5011
X7.19Y-3.6011
X7.2615Y-5.4409
X7.2615Y-5.8409
X7.338Y-6.2496
X7.338Y-6.6496
X7.41Y-3.1778
X7.411Y-3.0578
X7.52Y-4.1178
X7.52Y-4.4178
X7.5266Y-6.2496
X7.5266Y-6.6496
X7.5516Y-3.4378
X7.6096Y-6.1219
X7.62Y-4.1178
X7.62Y-4.4178
X7.65Y-3.4378
X7.716Y-6.2705
X7.716Y-6.3705
X7.716Y-6.4705
X7.716Y-6.5705
X7.72Y-4.1178
X7.72Y-4.4178
X7.8064Y-6.1219
X7.81Y-3.1778
X7.811Y-3.0578
X7.818Y-2.748
X7.818Y-2.9448
X7.82Y-4.1178
X7.82Y-4.4178
X7.9196Y-6.1209
X7.92Y-4.1178
X7.92Y-4.4178
X7.99Y-2.7757
X7.99Y-2.9678
X8.016Y-6.2705
X8.016Y-6.3705
X8.016Y-6.4705
X8.016Y-6.5705
X8.02Y-4.1178
X8.02Y-4.4178
X8.1164Y-6.1209
X8.12Y-4.1178
X8.12Y-4.4178
X8.2076Y-6.3689
X8.22Y-4.1178
X8.22Y-4.4178
X8.306Y-6.3689
X8.32Y-4.1178
X8.32Y-4.4178
X8.42Y-4.1178
X8.42Y-4.4178
X8.52Y-4.1178
X8.52Y-4.4178
X8.569Y-5.8759
X8.569Y-6.2759
X8.572Y-5.5335
X8.572Y-5.7304
X8.62Y-4.1178
X8.62Y-4.4178
X8.72Y-4.1178
X8.72Y-4.4178
X8.82Y-4.1178
X8.82Y-4.4178
X8.838Y-5.6169
X8.838Y-5.7169
X8.838Y-5.8169
X8.838Y-5.9169
X8.978Y-4.1228
X8.978Y-4.3197
X9.12Y-3.7578
X9.12Y-4.0578
X9.138Y-5.6169
X9.138Y-5.7169
X9.138Y-5.8169
X9.138Y-5.9169
X9.22Y-3.7578
X9.22Y-4.0578
X9.32Y-3.7578
X9.32Y-4.0578
X9.3636Y-2.8548
X9.404Y-5.5335
X9.404Y-5.7304
X9.404Y-5.8759
X9.404Y-6.2759
X9.413Y-3.0288
X9.42Y-3.7578
X9.42Y-4.0578
X9.5114Y-3.0288
X9.52Y-3.7578
X9.52Y-4.0578
X9.5604Y-2.8548
X9.62Y-3.7578
X9.62Y-4.0578
X9.72Y-3.7578
X9.72Y-4.0578
X9.85Y-3.86
X9.85Y-4.0568
T5
X6.1442Y-5.2609
X6.2442Y-5.2609
X6.6442Y-5.2609
X6.7442Y-5.2609
X7.1442Y-5.2609
X7.2442Y-5.2609
T6
X8.5621Y-2.754
X8.5621Y-4.654
X8.6621Y-2.754
X8.6621Y-4.654
X8.7621Y-2.754
X8.7621Y-4.654
X8.8621Y-2.754
X8.8621Y-4.654
X8.9621Y-2.754
X8.9621Y-4.654
X9.0621Y-2.754
X9.0621Y-4.654
X9.1621Y-4.654
X9.2621Y-2.754
X9.2621Y-4.654
X9.3621Y-2.754
X9.422Y-4.654
X9.45Y-4.3278
X9.45Y-4.4278
X9.45Y-5.2249
X9.45Y-5.3249
X9.4621Y-2.754
X9.522Y-4.654
X9.55Y-4.3278
X9.55Y-4.4278
X9.55Y-5.2249
X9.55Y-5.3249
X9.5621Y-2.754
X9.622Y-4.654
X9.65Y-4.3278
X9.65Y-4.4278
X9.65Y-5.2249
X9.65Y-5.3249
X9.6621Y-2.754
X9.722Y-4.654
X9.726Y-6.3877
X9.726Y-6.6869
X9.75Y-4.3278
X9.75Y-4.4278
X9.75Y-5.2249
X9.75Y-5.3249
X9.7621Y-2.754
X9.822Y-4.654
X9.85Y-4.3278
X9.85Y-4.4278
X9.85Y-5.2249
X9.85Y-5.3249
X9.922Y-4.654
X9.95Y-4.3278
X9.95Y-4.4278
X9.95Y-5.2249
X9.95Y-5.3249
X9.9793Y-3.3778
X9.9793Y-3.4778
X10.022Y-4.654
X10.05Y-4.3278
X10.05Y-4.4278
X10.05Y-5.2249
X10.05Y-5.3249
X10.072Y-6.9586
X10.122Y-4.654
X10.15Y-4.3278
X10.15Y-4.4278
X10.15Y-5.2249
X10.15Y-5.3249
X10.16Y-3.3778
X10.16Y-3.4778
X10.172Y-6.9586
X10.272Y-6.9586
X10.372Y-6.9586
T7
X4.958Y-5.5556
X5.058Y-5.5556
X5.158Y-5.5556
X5.666Y-6.1816
X5.766Y-6.1816
X5.866Y-6.1816
X6.408Y-6.1816
X6.508Y-6.1816
X6.608Y-6.1816
X7.2281Y-6.8704
X7.2281Y-7.0475
X7.484Y-6.8704
X7.484Y-7.0475
X7.6681Y-6.8704
X7.6681Y-7.0475
X7.924Y-6.8704
X7.924Y-7.0475
X8.108Y-6.8704
X8.108Y-7.0475
X8.364Y-6.8704
X8.364Y-7.0475
X9.6041Y-6.8704
X9.6041Y-7.0475
X9.86Y-6.8704
X9.86Y-7.0475
T8
X8.988Y-6.2315
X8.988Y-7.0504
T6
G00X3.346Y-5.466
M15
G01X3.346Y-5.5527
M16
G05
G00X3.5231Y-5.6983
M15
G01X3.4365Y-5.6983
M16
G05
G00X3.594Y-5.4582
M15
G01X3.594Y-5.5605
M16
G05
M30
